<svg width="656" height="1120" viewBox="0 0 656 1120" fill="none" xmlns="http://www.w3.org/2000/svg">
<g filter="url(#filter0_d_78_15)">
<path d="M564.63 278.543C561.923 274.527 565.937 269.392 570.488 271.05L575.015 272.7C577.051 273.441 579.332 272.788 580.666 271.082L583.634 267.285C586.617 263.469 592.741 265.7 592.57 270.541L592.4 275.357C592.324 277.521 593.65 279.489 595.686 280.231L600.213 281.88C604.764 283.538 604.535 290.051 599.878 291.385L595.246 292.712C593.163 293.308 591.702 295.178 591.625 297.342L591.456 302.158C591.285 306.999 585.02 308.793 582.313 304.777L579.619 300.781C578.409 298.985 576.179 298.172 574.097 298.769L569.464 300.095C564.808 301.429 561.165 296.025 564.149 292.209L567.116 288.413C568.451 286.706 568.534 284.335 567.323 282.539L564.63 278.543Z" fill="white"/>
</g>
<g filter="url(#filter1_d_78_15)">
<path d="M45.4419 623.869C41.7753 620.704 44.3006 614.696 49.1272 615.101L55.9432 615.673C58.1017 615.854 60.1314 614.625 60.9708 612.628L63.6212 606.323C65.4981 601.858 71.9923 602.403 73.0985 607.118L74.6605 613.778C75.1552 615.886 76.9516 617.437 79.1101 617.618L85.926 618.19C90.7527 618.596 92.241 624.94 88.098 627.45L82.2474 630.993C80.3946 632.115 79.4751 634.303 79.9698 636.412L81.5318 643.071C82.638 647.786 77.0636 651.162 73.397 647.998L68.2191 643.528C66.5793 642.113 64.2146 641.915 62.3618 643.037L56.5113 646.58C52.3683 649.089 47.4348 644.831 49.3117 640.366L51.9621 634.06C52.8015 632.063 52.2596 629.753 50.6198 628.338L45.4419 623.869Z" fill="white"/>
</g>
<g filter="url(#filter2_d_78_15)">
<path d="M358.447 1028.42C355.322 1024.67 358.866 1019.12 363.579 1020.38L372.32 1022.72C374.425 1023.28 376.652 1022.42 377.825 1020.58L382.727 1012.91C385.319 1008.85 391.585 1010.45 391.927 1015.25L392.598 1024.66C392.749 1026.79 394.233 1028.58 396.293 1029.13L405.372 1031.56C410.062 1032.82 410.393 1039.35 405.853 1041.07L397.563 1044.21C395.499 1044.99 394.192 1047.04 394.349 1049.24L394.979 1058.09C395.324 1062.93 389.261 1065.37 386.151 1061.64L380.133 1054.42C378.767 1052.79 376.513 1052.2 374.519 1052.95L365.699 1056.3C361.197 1058 357.12 1052.99 359.713 1048.93L364.614 1041.26C365.787 1039.42 365.636 1037.04 364.241 1035.36L358.447 1028.42Z" fill="white"/>
</g>
<g filter="url(#filter3_d_78_15)">
<path d="M318.081 641.809C335.141 697.148 425.831 723.128 434.96 733.175C444.089 743.223 449.719 785.766 470.262 804.494C490.805 823.222 519.688 810.279 519.688 810.279C519.688 810.279 542.904 801.349 544.841 779.715C546.777 758.081 529.075 729.588 527.358 707.039C525.64 684.49 570.663 601.085 545.214 549.308C519.764 497.531 454.92 461.885 384.823 482.742C314.725 503.598 298.787 579.225 318.081 641.809Z" stroke="white" stroke-width="12"/>
<path d="M479.634 738.446C479.256 738.018 418.066 624.513 387.922 627.406C357.778 630.299 384.852 657.492 407.532 650.391C430.211 643.29 441.442 587.507 436.99 568.143C432.539 548.78 411.455 553.371 413.449 571.728C415.442 590.084 449.491 622.832 479.593 611.583C509.695 600.335 502.694 563.139 477.595 585.351C452.495 607.562 496.182 732.673 499.733 732.403" stroke="white" stroke-width="9"/>
<path d="M437.008 738.4C437.008 738.4 458.273 741.083 487.362 734.564C516.451 728.046 526.822 712.789 526.822 712.789" stroke="white" stroke-width="11"/>
<path d="M451.349 768.682C451.349 768.682 474.082 771.322 496.718 765.226C519.354 759.13 536.118 742.669 536.118 742.669M462.448 790.556C462.448 790.556 485.142 792.993 506.027 787.237C526.912 781.48 542.585 761.733 542.585 761.733" stroke="white" stroke-width="11"/>
<path d="M344.547 436.943L329.374 402.898" stroke="white" stroke-width="12" stroke-linecap="round"/>
<path d="M441.247 427.237L456.895 394.681" stroke="white" stroke-width="12" stroke-linecap="round"/>
<path d="M270.886 507.171L238.568 496.555" stroke="white" stroke-width="12" stroke-linecap="round"/>
</g>
<g filter="url(#filter4_d_78_15)">
<path d="M206.834 55.9014C202.046 55.1707 200.99 48.7397 205.293 46.5165L214.779 41.6156C216.704 40.6214 217.769 38.501 217.418 36.3635L215.689 25.8271C214.904 21.0475 220.694 18.0562 224.138 21.4618L231.731 28.9692C233.271 30.4923 235.617 30.8503 237.541 29.8561L247.028 24.9552C251.331 22.732 255.965 27.3142 253.79 31.6422L248.996 41.183C248.024 43.1185 248.408 45.4601 249.949 46.9832L257.541 54.4906C260.985 57.8962 258.059 63.7195 253.271 62.9888L242.716 61.3778C240.575 61.051 238.466 62.1402 237.494 64.0757L232.7 73.6165C230.525 77.9445 224.083 76.9612 223.298 72.1816L221.569 61.6452C221.218 59.5077 219.53 57.8392 217.389 57.5124L206.834 55.9014Z" fill="white"/>
</g>
<defs>
<filter id="filter0_d_78_15" x="510.666" y="216.953" width="145.236" height="146.436" filterUnits="userSpaceOnUse" color-interpolation-filters="sRGB">
<feFlood flood-opacity="0" result="BackgroundImageFix"/>
<feColorMatrix in="SourceAlpha" type="matrix" values="0 0 0 0 0 0 0 0 0 0 0 0 0 0 0 0 0 0 127 0" result="hardAlpha"/>
<feOffset dy="4"/>
<feGaussianBlur stdDeviation="26.2"/>
<feComposite in2="hardAlpha" operator="out"/>
<feColorMatrix type="matrix" values="0 0 0 0 1 0 0 0 0 1 0 0 0 0 1 0 0 0 0.42 0"/>
<feBlend mode="normal" in2="BackgroundImageFix" result="effect1_dropShadow_78_15"/>
<feBlend mode="normal" in="SourceGraphic" in2="effect1_dropShadow_78_15" result="shape"/>
</filter>
<filter id="filter1_d_78_15" x="-8.70518" y="554.859" width="151.618" height="150.774" filterUnits="userSpaceOnUse" color-interpolation-filters="sRGB">
<feFlood flood-opacity="0" result="BackgroundImageFix"/>
<feColorMatrix in="SourceAlpha" type="matrix" values="0 0 0 0 0 0 0 0 0 0 0 0 0 0 0 0 0 0 127 0" result="hardAlpha"/>
<feOffset dy="4"/>
<feGaussianBlur stdDeviation="26.2"/>
<feComposite in2="hardAlpha" operator="out"/>
<feColorMatrix type="matrix" values="0 0 0 0 1 0 0 0 0 1 0 0 0 0 1 0 0 0 0.42 0"/>
<feBlend mode="normal" in2="BackgroundImageFix" result="effect1_dropShadow_78_15"/>
<feBlend mode="normal" in="SourceGraphic" in2="effect1_dropShadow_78_15" result="shape"/>
</filter>
<filter id="filter2_d_78_15" x="304.865" y="962.198" width="156.615" height="157.656" filterUnits="userSpaceOnUse" color-interpolation-filters="sRGB">
<feFlood flood-opacity="0" result="BackgroundImageFix"/>
<feColorMatrix in="SourceAlpha" type="matrix" values="0 0 0 0 0 0 0 0 0 0 0 0 0 0 0 0 0 0 127 0" result="hardAlpha"/>
<feOffset dy="4"/>
<feGaussianBlur stdDeviation="26.2"/>
<feComposite in2="hardAlpha" operator="out"/>
<feColorMatrix type="matrix" values="0 0 0 0 1 0 0 0 0 1 0 0 0 0 1 0 0 0 0.42 0"/>
<feBlend mode="normal" in2="BackgroundImageFix" result="effect1_dropShadow_78_15"/>
<feBlend mode="normal" in="SourceGraphic" in2="effect1_dropShadow_78_15" result="shape"/>
</filter>
<filter id="filter3_d_78_15" x="180.167" y="340.279" width="431.258" height="536.756" filterUnits="userSpaceOnUse" color-interpolation-filters="sRGB">
<feFlood flood-opacity="0" result="BackgroundImageFix"/>
<feColorMatrix in="SourceAlpha" type="matrix" values="0 0 0 0 0 0 0 0 0 0 0 0 0 0 0 0 0 0 127 0" result="hardAlpha"/>
<feOffset dy="4"/>
<feGaussianBlur stdDeviation="26.2"/>
<feComposite in2="hardAlpha" operator="out"/>
<feColorMatrix type="matrix" values="0 0 0 0 1 0 0 0 0 1 0 0 0 0 1 0 0 0 0.42 0"/>
<feBlend mode="normal" in2="BackgroundImageFix" result="effect1_dropShadow_78_15"/>
<feBlend mode="normal" in="SourceGraphic" in2="effect1_dropShadow_78_15" result="shape"/>
</filter>
<filter id="filter4_d_78_15" x="150.185" y="-28.4006" width="161.257" height="161.175" filterUnits="userSpaceOnUse" color-interpolation-filters="sRGB">
<feFlood flood-opacity="0" result="BackgroundImageFix"/>
<feColorMatrix in="SourceAlpha" type="matrix" values="0 0 0 0 0 0 0 0 0 0 0 0 0 0 0 0 0 0 127 0" result="hardAlpha"/>
<feOffset dy="4"/>
<feGaussianBlur stdDeviation="26.2"/>
<feComposite in2="hardAlpha" operator="out"/>
<feColorMatrix type="matrix" values="0 0 0 0 1 0 0 0 0 1 0 0 0 0 1 0 0 0 0.42 0"/>
<feBlend mode="normal" in2="BackgroundImageFix" result="effect1_dropShadow_78_15"/>
<feBlend mode="normal" in="SourceGraphic" in2="effect1_dropShadow_78_15" result="shape"/>
</filter>
</defs>
</svg>
