<svg width="620" height="1123" viewBox="0 0 620 1123" fill="none" xmlns="http://www.w3.org/2000/svg">
<g filter="url(#filter0_d_78_14)">
<path d="M127.767 971.022L100.324 902.912L173.698 889.264" stroke="white" stroke-width="24" stroke-linecap="round" stroke-linejoin="round"/>
<path d="M333.456 964.786L354.966 1034.91L281.196 1053.83" stroke="white" stroke-width="24" stroke-linecap="round" stroke-linejoin="round"/>
<path d="M155.764 1040.46L292.599 893.638" stroke="white" stroke-width="24" stroke-linecap="round"/>
</g>
<g filter="url(#filter1_d_78_14)">
<path d="M382.137 327.137C376.065 321.571 371.511 324.607 365.439 327.137C359.367 329.667 356.331 337.763 359.873 342.823C363.415 347.883 353.801 356.89 365.439 361.546C377.077 366.201 377.583 353.449 382.137 346.871C386.691 340.293 388.21 332.703 382.137 327.137Z" stroke="white" stroke-width="12" stroke-linecap="round"/>
<path d="M388.209 212.779C388.209 212.779 388.209 216.827 381.125 221.887C374.041 226.947 360.884 219.357 351.776 221.887C342.668 224.417 354.306 230.489 347.728 243.646C341.15 256.802 326.476 255.79 317.368 252.754C308.259 249.718 308.259 238.585 298.139 241.116C288.019 243.646 291.561 256.296 293.079 262.874C294.597 269.452 298.139 276.536 308.765 282.102C319.392 287.668 320.404 280.837 326.476 286.15C332.548 291.464 321.922 298.294 330.524 306.391C339.126 314.487 347.222 301.331 354.812 299.813C362.402 298.294 359.872 309.933 370.499 306.391C381.125 302.849 375.053 286.15 385.679 282.102C396.305 278.054 397.317 291.21 403.895 286.15C410.473 281.09 422.5 291 422.5 291" stroke="white" stroke-width="12" stroke-linecap="round"/>
<path d="M271.827 160.66C271.827 160.66 251.078 181.406 265.754 189.503C280.429 197.599 291.561 173.31 305.223 181.406C318.886 189.503 308.765 197.598 318.38 204.683C327.994 211.767 337.608 201.647 341.15 192.539C344.692 183.431 364.5 192.539 364.5 192.539" stroke="white" stroke-width="12" stroke-linecap="round"/>
<path d="M303.415 421.947C306.451 415.369 304.428 413.345 312.523 404.237C320.618 395.128 331.752 395.128 339.341 388.55C346.93 381.972 351.484 369.828 343.389 363.25C335.294 356.672 332.762 359.708 333.774 352.624C334.786 345.54 339.847 341.492 339.341 335.926C338.835 330.36 334.787 325.805 329.221 325.805C323.655 325.805 323.149 323.781 317.077 328.841C311.005 333.901 302.402 331.371 300.379 325.805C298.355 320.239 300.379 301.517 294.812 297.975C289.246 294.433 286.716 295.445 279.126 297.975C271.536 300.505 267.994 309.107 263.946 317.203C259.898 325.299 255.343 341.492 252.307 349.588C249.271 357.684 246.235 377.924 252.307 385.514C258.379 393.105 264.079 392.103 273.053 397.658C283.679 404.237 268.499 416.692 281.149 424.477C293.799 432.262 300.379 428.525 303.415 421.947Z" stroke="white" stroke-width="12" stroke-linecap="round"/>
<path d="M145.324 393.93C145.324 393.93 149.878 378.75 166.577 378.75C183.275 378.75 180.745 393.93 180.745 393.93C180.745 393.93 174.673 410.628 180.745 416.7C186.817 422.773 191.371 415.182 208.575 422.773C225.78 430.363 220.214 453.639 220.214 453.639" stroke="white" stroke-width="12" stroke-linecap="round"/>
<path d="M426 310C426 395.123 357.876 464 274 464C190.124 464 122 395.123 122 310C122 224.877 190.124 156 274 156C357.876 156 426 224.877 426 310Z" stroke="white" stroke-width="12" stroke-linecap="round"/>
<path d="M124.5 325.619C124.5 325.619 122.556 319.041 137.736 318.535C152.916 318.029 151.398 324.101 161.518 325.619C171.638 327.137 180.745 328.655 180.745 318.535C180.745 308.415 166.578 305.885 167.59 298.294C168.602 290.704 182.265 290.198 189.855 290.704C197.445 291.21 201.493 296.27 211.107 295.258C220.721 294.246 225.781 290.704 223.251 284.632C220.721 278.56 206.553 269.452 200.481 269.452C194.409 269.452 191.373 263.38 194.409 257.814C197.445 252.248 206.043 248.2 214.647 248.2C223.251 248.2 219.203 251.236 236.408 252.248C253.612 253.26 253.61 245.67 254.622 239.091C255.634 232.513 264.236 225.935 254.622 216.827C245.008 207.719 236.912 218.851 226.792 208.731C216.671 198.611 236.408 165.214 236.408 165.214" stroke="white" stroke-width="12" stroke-linecap="round"/>
</g>
<g filter="url(#filter2_d_78_14)">
<path d="M521.424 356.426C520.277 351.72 525.822 348.296 529.516 351.429L537.658 358.336C539.31 359.738 541.676 359.916 543.52 358.778L552.605 353.169C556.726 350.624 561.696 354.84 559.857 359.321L555.804 369.199C554.982 371.203 555.544 373.509 557.196 374.91L565.338 381.817C569.032 384.95 566.558 390.98 561.728 390.616L551.081 389.814C548.921 389.651 546.902 390.898 546.08 392.902L542.027 402.78C540.188 407.261 533.689 406.772 532.543 402.066L530.015 391.692C529.503 389.587 527.693 388.052 525.533 387.889L514.886 387.087C510.056 386.724 508.513 380.392 512.635 377.847L521.72 372.238C523.563 371.1 524.464 368.904 523.951 366.8L521.424 356.426Z" fill="white"/>
</g>
<g filter="url(#filter3_d_78_14)">
<path d="M150.433 76.4754C145.726 75.3343 145.229 68.8363 149.708 66.9926L154.922 64.8464C156.925 64.0218 158.169 62.0013 158.004 59.8415L157.574 54.2197C157.204 49.3902 163.231 46.9095 166.368 50.5995L170.021 54.8949C171.424 56.5451 173.73 57.1041 175.733 56.2796L180.947 54.1334C185.426 52.2897 189.647 57.2546 187.107 61.3789L184.151 66.1797C183.015 68.0241 183.196 70.3902 184.599 72.0404L188.251 76.3358C191.389 80.0258 187.972 85.575 183.264 84.4339L177.785 83.1056C175.68 82.5953 173.485 83.4986 172.35 85.343L169.393 90.1439C166.853 94.2682 160.52 92.7328 160.15 87.9033L159.72 82.2816C159.555 80.1218 158.018 78.314 155.913 77.8037L150.433 76.4754Z" fill="white"/>
</g>
<g filter="url(#filter4_d_78_14)">
<path d="M53.7573 582.92C51.068 579 54.8508 573.893 59.3842 575.323L65.8282 577.355C67.8628 577.997 70.0805 577.277 71.3502 575.563L75.1996 570.365C78.1249 566.416 84.396 568.615 84.2141 573.526L84.0026 579.236C83.9193 581.485 85.3489 583.512 87.4952 584.189L93.1103 585.961C97.7052 587.41 97.7935 593.88 93.2398 595.455L86.5106 597.781C84.5599 598.455 83.224 600.259 83.1476 602.321L82.8841 609.436C82.7057 614.251 76.4904 616.053 73.7646 612.08L70.4335 607.225C69.1603 605.369 66.8041 604.593 64.6771 605.328L59.2773 607.195C54.6321 608.801 50.7005 603.443 53.6258 599.493L57.4751 594.296C58.7449 592.582 58.787 590.251 57.5801 588.491L53.7573 582.92Z" fill="white"/>
</g>
<g filter="url(#filter5_d_78_14)">
<path d="M456.564 774.355C452.045 772.612 452.397 766.105 457.078 764.859L467.396 762.112C469.489 761.555 470.986 759.714 471.103 757.551L471.679 746.889C471.941 742.052 478.238 740.376 480.87 744.442L486.67 753.407C487.847 755.226 490.061 756.08 492.154 755.522L502.472 752.776C507.153 751.53 510.693 757.002 507.639 760.761L500.905 769.048C499.539 770.729 499.411 773.098 500.588 774.917L506.388 783.881C509.02 787.948 504.91 793.006 500.391 791.262L490.429 787.42C488.408 786.64 486.115 787.25 484.749 788.931L478.016 797.218C474.961 800.977 468.881 798.632 469.143 793.795L469.719 783.133C469.836 780.97 468.547 778.978 466.526 778.198L456.564 774.355Z" fill="white"/>
</g>
<defs>
<filter id="filter0_d_78_14" x="35.9242" y="828.862" width="383.442" height="293.372" filterUnits="userSpaceOnUse" color-interpolation-filters="sRGB">
<feFlood flood-opacity="0" result="BackgroundImageFix"/>
<feColorMatrix in="SourceAlpha" type="matrix" values="0 0 0 0 0 0 0 0 0 0 0 0 0 0 0 0 0 0 127 0" result="hardAlpha"/>
<feOffset dy="4"/>
<feGaussianBlur stdDeviation="26.2"/>
<feComposite in2="hardAlpha" operator="out"/>
<feColorMatrix type="matrix" values="0 0 0 0 1 0 0 0 0 1 0 0 0 0 1 0 0 0 0.42 0"/>
<feBlend mode="normal" in2="BackgroundImageFix" result="effect1_dropShadow_78_14"/>
<feBlend mode="normal" in="SourceGraphic" in2="effect1_dropShadow_78_14" result="shape"/>
</filter>
<filter id="filter1_d_78_14" x="63.6" y="101.6" width="420.8" height="424.8" filterUnits="userSpaceOnUse" color-interpolation-filters="sRGB">
<feFlood flood-opacity="0" result="BackgroundImageFix"/>
<feColorMatrix in="SourceAlpha" type="matrix" values="0 0 0 0 0 0 0 0 0 0 0 0 0 0 0 0 0 0 127 0" result="hardAlpha"/>
<feOffset dy="4"/>
<feGaussianBlur stdDeviation="26.2"/>
<feComposite in2="hardAlpha" operator="out"/>
<feColorMatrix type="matrix" values="0 0 0 0 1 0 0 0 0 1 0 0 0 0 1 0 0 0 0.42 0"/>
<feBlend mode="normal" in2="BackgroundImageFix" result="effect1_dropShadow_78_14"/>
<feBlend mode="normal" in="SourceGraphic" in2="effect1_dropShadow_78_14" result="shape"/>
</filter>
<filter id="filter2_d_78_14" x="457.855" y="301.821" width="161.662" height="160.461" filterUnits="userSpaceOnUse" color-interpolation-filters="sRGB">
<feFlood flood-opacity="0" result="BackgroundImageFix"/>
<feColorMatrix in="SourceAlpha" type="matrix" values="0 0 0 0 0 0 0 0 0 0 0 0 0 0 0 0 0 0 127 0" result="hardAlpha"/>
<feOffset dy="4"/>
<feGaussianBlur stdDeviation="26.2"/>
<feComposite in2="hardAlpha" operator="out"/>
<feColorMatrix type="matrix" values="0 0 0 0 1 0 0 0 0 1 0 0 0 0 1 0 0 0 0.42 0"/>
<feBlend mode="normal" in2="BackgroundImageFix" result="effect1_dropShadow_78_14"/>
<feBlend mode="normal" in="SourceGraphic" in2="effect1_dropShadow_78_14" result="shape"/>
</filter>
<filter id="filter3_d_78_14" x="94.2104" y="0.424858" width="147.653" height="148.503" filterUnits="userSpaceOnUse" color-interpolation-filters="sRGB">
<feFlood flood-opacity="0" result="BackgroundImageFix"/>
<feColorMatrix in="SourceAlpha" type="matrix" values="0 0 0 0 0 0 0 0 0 0 0 0 0 0 0 0 0 0 127 0" result="hardAlpha"/>
<feOffset dy="4"/>
<feGaussianBlur stdDeviation="26.2"/>
<feComposite in2="hardAlpha" operator="out"/>
<feColorMatrix type="matrix" values="0 0 0 0 1 0 0 0 0 1 0 0 0 0 1 0 0 0 0.42 0"/>
<feBlend mode="normal" in2="BackgroundImageFix" result="effect1_dropShadow_78_14"/>
<feBlend mode="normal" in="SourceGraphic" in2="effect1_dropShadow_78_14" result="shape"/>
</filter>
<filter id="filter4_d_78_14" x="0.219627" y="519.93" width="148.787" height="150.729" filterUnits="userSpaceOnUse" color-interpolation-filters="sRGB">
<feFlood flood-opacity="0" result="BackgroundImageFix"/>
<feColorMatrix in="SourceAlpha" type="matrix" values="0 0 0 0 0 0 0 0 0 0 0 0 0 0 0 0 0 0 127 0" result="hardAlpha"/>
<feOffset dy="4"/>
<feGaussianBlur stdDeviation="26.2"/>
<feComposite in2="hardAlpha" operator="out"/>
<feColorMatrix type="matrix" values="0 0 0 0 1 0 0 0 0 1 0 0 0 0 1 0 0 0 0.42 0"/>
<feBlend mode="normal" in2="BackgroundImageFix" result="effect1_dropShadow_78_14"/>
<feBlend mode="normal" in="SourceGraphic" in2="effect1_dropShadow_78_14" result="shape"/>
</filter>
<filter id="filter5_d_78_14" x="400.963" y="693.752" width="160.217" height="161.726" filterUnits="userSpaceOnUse" color-interpolation-filters="sRGB">
<feFlood flood-opacity="0" result="BackgroundImageFix"/>
<feColorMatrix in="SourceAlpha" type="matrix" values="0 0 0 0 0 0 0 0 0 0 0 0 0 0 0 0 0 0 127 0" result="hardAlpha"/>
<feOffset dy="4"/>
<feGaussianBlur stdDeviation="26.2"/>
<feComposite in2="hardAlpha" operator="out"/>
<feColorMatrix type="matrix" values="0 0 0 0 1 0 0 0 0 1 0 0 0 0 1 0 0 0 0.42 0"/>
<feBlend mode="normal" in2="BackgroundImageFix" result="effect1_dropShadow_78_14"/>
<feBlend mode="normal" in="SourceGraphic" in2="effect1_dropShadow_78_14" result="shape"/>
</filter>
</defs>
</svg>
