<svg width="109" height="160" viewBox="0 0 109 160" fill="none" xmlns="http://www.w3.org/2000/svg">
<path fill-rule="evenodd" clip-rule="evenodd" d="M78.7558 152.894C102.367 146.881 135.438 117.755 73.4583 46.4538C64.2694 38.2986 47.8837 17.5905 55.8513 0C40.6158 14.5039 18.8947 52.3689 45.3583 72.3128C55.1982 79.729 64.2827 87.8569 71.5261 96.2207C69.716 105.804 61.1297 111.009 61.1297 111.009C61.1297 111.009 17.2683 92.2259 17.2683 57.1428C14.9007 60.1958 2.99123 84.2945 3.41741 90.0068C3.95014 97.148 25.165 116.479 34.6709 121.675C48.2242 129.083 52.7837 134.559 52.7837 134.559C61.0173 143.855 56.0894 156.62 53.778 159.436C53.1356 159.478 52.7814 159.506 52.7837 159.553C52.8168 160.215 53.2216 160.114 53.778 159.436C53.8833 159.429 53.9964 159.421 54.1169 159.414C57.9833 159.168 69.5129 158.435 78.7558 152.894ZM87.5615 125.306C84.8936 121.322 81.1447 117.232 76.6926 115.449C77.2357 114.907 79.2035 112.727 81.5762 110.071C84.54 115.193 86.6149 120.307 87.5615 125.306ZM46.7232 157.714C0.109737 156.604 -2.89869 116.87 1.42377 97.1428C1.42377 97.1428 14.7369 117.641 36.695 130.126C58.6531 142.61 46.7232 157.714 46.7232 157.714Z" fill="url(#paint0_linear_43_1443)"/>
<defs>
<linearGradient id="paint0_linear_43_1443" x1="54.5" y1="0" x2="54.5" y2="160" gradientUnits="userSpaceOnUse">
<stop stop-color="#A49BFF"/>
<stop offset="1" stop-color="#FFA8D5"/>
</linearGradient>
</defs>
</svg>
