<svg width="512" height="591" viewBox="0 0 512 591" fill="none" xmlns="http://www.w3.org/2000/svg">
<g filter="url(#filter0_d_78_22)">
<path d="M366.5 351C371.147 407.35 381.832 423.677 418 422C382.604 429.853 371.029 444.875 366.5 493C361.928 445.433 350.153 430.4 315 422C351.836 424.062 362.818 407.806 366.5 351Z" fill="white"/>
</g>
<g filter="url(#filter1_d_78_22)">
<path d="M179.5 90C187.215 207.86 204.955 242.008 265 238.5C206.236 254.925 187.019 286.344 179.5 387C171.91 287.511 152.36 256.07 94 238.5C155.155 242.814 173.387 208.812 179.5 90Z" fill="white"/>
</g>
<defs>
<filter id="filter0_d_78_22" x="221.8" y="261.8" width="289.4" height="328.4" filterUnits="userSpaceOnUse" color-interpolation-filters="sRGB">
<feFlood flood-opacity="0" result="BackgroundImageFix"/>
<feColorMatrix in="SourceAlpha" type="matrix" values="0 0 0 0 0 0 0 0 0 0 0 0 0 0 0 0 0 0 127 0" result="hardAlpha"/>
<feOffset dy="4"/>
<feGaussianBlur stdDeviation="46.6"/>
<feComposite in2="hardAlpha" operator="out"/>
<feColorMatrix type="matrix" values="0 0 0 0 1 0 0 0 0 1 0 0 0 0 1 0 0 0 0.25 0"/>
<feBlend mode="normal" in2="BackgroundImageFix" result="effect1_dropShadow_78_22"/>
<feBlend mode="normal" in="SourceGraphic" in2="effect1_dropShadow_78_22" result="shape"/>
</filter>
<filter id="filter1_d_78_22" x="0.800003" y="0.800003" width="357.4" height="483.4" filterUnits="userSpaceOnUse" color-interpolation-filters="sRGB">
<feFlood flood-opacity="0" result="BackgroundImageFix"/>
<feColorMatrix in="SourceAlpha" type="matrix" values="0 0 0 0 0 0 0 0 0 0 0 0 0 0 0 0 0 0 127 0" result="hardAlpha"/>
<feOffset dy="4"/>
<feGaussianBlur stdDeviation="46.6"/>
<feComposite in2="hardAlpha" operator="out"/>
<feColorMatrix type="matrix" values="0 0 0 0 1 0 0 0 0 1 0 0 0 0 1 0 0 0 0.25 0"/>
<feBlend mode="normal" in2="BackgroundImageFix" result="effect1_dropShadow_78_22"/>
<feBlend mode="normal" in="SourceGraphic" in2="effect1_dropShadow_78_22" result="shape"/>
</filter>
</defs>
</svg>
