<svg width="2315" height="1306" viewBox="0 0 2315 1306" fill="none" xmlns="http://www.w3.org/2000/svg">
<path d="M1913 284C1907.19 280.354 1757.41 286.027 1823 390C1872.41 458.027 1847 537 1783.36 519.237C1714.95 526.12 1642.82 395.23 1474.69 524.211C1474.69 524.211 1424 1104 968 844C512 584 177 758 262 928C347 1098 156 1132 102 1048M1949.84 333C1913.01 337.216 1851.84 394.371 1939 471C2026.16 547.629 1921.81 676.065 1762 632M116 1226C340 1392 554 1092 426 996C298 900 432 708.491 752 828" stroke="white" stroke-width="16"/>
<path d="M1852.9 130.531L1948.44 58.5507L2028.02 74.5423C2010.28 84.7707 1995.96 94.5122 1983.47 105.517C1967.96 119.178 1955.54 134.553 1942.83 154.728L1852.9 130.531Z" stroke="white" stroke-width="16"/>
<path d="M2005 325C1986.51 339.411 1954 348.5 1925 305.5C1895.44 261.666 1914.33 241.911 1932.82 227.5" stroke="white" stroke-width="16"/>
<path d="M2156.99 293.778C2175.89 277.548 2193.79 258.95 2210.44 240.381L2222.43 327.867L2099.98 417.689L2088.11 336.895C2112.47 327.855 2135.54 312.194 2156.99 293.778Z" stroke="white" stroke-width="16"/>
<path d="M2154.22 294.858L2151.4 297.059C2104.52 333.597 2069.35 342.599 2041.34 337.206C2013.04 331.759 1989.63 311.216 1967.29 282.967C1944.95 254.704 1930.44 227.272 1931.83 198.734C1933.21 170.498 1950.33 138.733 1997.21 102.196L1997.21 102.196C2044.03 65.6982 2095.14 44.2798 2139.63 38.8526C2184.3 33.4029 2220.81 44.1314 2241.05 69.7422L2241.05 69.7428C2261.27 95.3235 2263.09 133.032 2247.16 174.789C2231.62 215.545 2199.55 258.795 2154.22 294.858Z" stroke="white" stroke-width="16"/>
<path d="M2122.03 210.69C2145.55 203.874 2159.15 179.467 2152.4 156.175C2145.65 132.882 2121.11 119.525 2097.59 126.34C2074.07 133.155 2060.47 157.562 2067.22 180.855C2073.97 204.147 2098.51 217.505 2122.03 210.69Z" stroke="white" stroke-width="16" stroke-miterlimit="10"/>
<path d="M2122.03 210.69C2145.55 203.874 2159.15 179.467 2152.4 156.175C2145.65 132.882 2121.11 119.525 2097.59 126.34C2074.07 133.155 2060.47 157.562 2067.22 180.855C2073.97 204.147 2098.51 217.505 2122.03 210.69Z" stroke="white" stroke-width="16" stroke-miterlimit="10"/>
</svg>
