<svg width="526" height="505" viewBox="0 0 526 505" fill="none" xmlns="http://www.w3.org/2000/svg">
<g filter="url(#filter0_d_78_16)">
<path d="M145.5 90C150.147 146.35 160.832 162.677 197 161C161.604 168.853 150.029 183.875 145.5 232C140.928 184.433 129.153 169.4 94 161C130.836 163.062 141.818 146.806 145.5 90Z" fill="white"/>
</g>
<g filter="url(#filter1_d_78_16)">
<path d="M333.5 161C342.388 258.621 362.825 286.906 432 284C364.301 297.604 342.162 323.628 333.5 407C324.756 324.595 302.234 298.553 235 284C305.454 287.573 326.457 259.41 333.5 161Z" fill="white"/>
</g>
<defs>
<filter id="filter0_d_78_16" x="0.800003" y="0.800003" width="289.4" height="328.4" filterUnits="userSpaceOnUse" color-interpolation-filters="sRGB">
<feFlood flood-opacity="0" result="BackgroundImageFix"/>
<feColorMatrix in="SourceAlpha" type="matrix" values="0 0 0 0 0 0 0 0 0 0 0 0 0 0 0 0 0 0 127 0" result="hardAlpha"/>
<feOffset dy="4"/>
<feGaussianBlur stdDeviation="46.6"/>
<feComposite in2="hardAlpha" operator="out"/>
<feColorMatrix type="matrix" values="0 0 0 0 1 0 0 0 0 1 0 0 0 0 1 0 0 0 0.25 0"/>
<feBlend mode="normal" in2="BackgroundImageFix" result="effect1_dropShadow_78_16"/>
<feBlend mode="normal" in="SourceGraphic" in2="effect1_dropShadow_78_16" result="shape"/>
</filter>
<filter id="filter1_d_78_16" x="141.8" y="71.8" width="383.4" height="432.4" filterUnits="userSpaceOnUse" color-interpolation-filters="sRGB">
<feFlood flood-opacity="0" result="BackgroundImageFix"/>
<feColorMatrix in="SourceAlpha" type="matrix" values="0 0 0 0 0 0 0 0 0 0 0 0 0 0 0 0 0 0 127 0" result="hardAlpha"/>
<feOffset dy="4"/>
<feGaussianBlur stdDeviation="46.6"/>
<feComposite in2="hardAlpha" operator="out"/>
<feColorMatrix type="matrix" values="0 0 0 0 1 0 0 0 0 1 0 0 0 0 1 0 0 0 0.25 0"/>
<feBlend mode="normal" in2="BackgroundImageFix" result="effect1_dropShadow_78_16"/>
<feBlend mode="normal" in="SourceGraphic" in2="effect1_dropShadow_78_16" result="shape"/>
</filter>
</defs>
</svg>
