<svg width="511" height="607" viewBox="0 0 511 607" fill="none" xmlns="http://www.w3.org/2000/svg">
<g filter="url(#filter0_d_78_18)">
<path d="M381.5 213C378.297 251.89 370.931 263.158 346 262C370.399 267.42 378.378 277.787 381.5 311C384.652 278.172 392.769 267.797 417 262C391.608 263.423 384.038 252.204 381.5 213Z" fill="white"/>
</g>
<g filter="url(#filter1_d_78_18)">
<path d="M97.5 90C94.2968 128.89 86.9311 140.158 62 139C86.3992 144.42 94.378 154.787 97.5 188C100.652 155.172 108.769 144.797 133 139C107.608 140.423 100.038 129.204 97.5 90Z" fill="white"/>
</g>
<g filter="url(#filter2_d_78_18)">
<path d="M232.5 339C228.304 406.462 218.656 426.008 186 424C217.959 433.401 228.411 451.385 232.5 509C236.628 452.054 247.26 434.057 279 424C245.74 426.469 235.825 407.007 232.5 339Z" fill="white"/>
</g>
<defs>
<filter id="filter0_d_78_18" x="252.8" y="123.8" width="257.4" height="284.4" filterUnits="userSpaceOnUse" color-interpolation-filters="sRGB">
<feFlood flood-opacity="0" result="BackgroundImageFix"/>
<feColorMatrix in="SourceAlpha" type="matrix" values="0 0 0 0 0 0 0 0 0 0 0 0 0 0 0 0 0 0 127 0" result="hardAlpha"/>
<feOffset dy="4"/>
<feGaussianBlur stdDeviation="46.6"/>
<feComposite in2="hardAlpha" operator="out"/>
<feColorMatrix type="matrix" values="0 0 0 0 1 0 0 0 0 1 0 0 0 0 1 0 0 0 0.25 0"/>
<feBlend mode="normal" in2="BackgroundImageFix" result="effect1_dropShadow_78_18"/>
<feBlend mode="normal" in="SourceGraphic" in2="effect1_dropShadow_78_18" result="shape"/>
</filter>
<filter id="filter1_d_78_18" x="-31.2" y="0.800003" width="257.4" height="284.4" filterUnits="userSpaceOnUse" color-interpolation-filters="sRGB">
<feFlood flood-opacity="0" result="BackgroundImageFix"/>
<feColorMatrix in="SourceAlpha" type="matrix" values="0 0 0 0 0 0 0 0 0 0 0 0 0 0 0 0 0 0 127 0" result="hardAlpha"/>
<feOffset dy="4"/>
<feGaussianBlur stdDeviation="46.6"/>
<feComposite in2="hardAlpha" operator="out"/>
<feColorMatrix type="matrix" values="0 0 0 0 1 0 0 0 0 1 0 0 0 0 1 0 0 0 0.25 0"/>
<feBlend mode="normal" in2="BackgroundImageFix" result="effect1_dropShadow_78_18"/>
<feBlend mode="normal" in="SourceGraphic" in2="effect1_dropShadow_78_18" result="shape"/>
</filter>
<filter id="filter2_d_78_18" x="92.8" y="249.8" width="279.4" height="356.4" filterUnits="userSpaceOnUse" color-interpolation-filters="sRGB">
<feFlood flood-opacity="0" result="BackgroundImageFix"/>
<feColorMatrix in="SourceAlpha" type="matrix" values="0 0 0 0 0 0 0 0 0 0 0 0 0 0 0 0 0 0 127 0" result="hardAlpha"/>
<feOffset dy="4"/>
<feGaussianBlur stdDeviation="46.6"/>
<feComposite in2="hardAlpha" operator="out"/>
<feColorMatrix type="matrix" values="0 0 0 0 1 0 0 0 0 1 0 0 0 0 1 0 0 0 0.25 0"/>
<feBlend mode="normal" in2="BackgroundImageFix" result="effect1_dropShadow_78_18"/>
<feBlend mode="normal" in="SourceGraphic" in2="effect1_dropShadow_78_18" result="shape"/>
</filter>
</defs>
</svg>
