<svg width="494" height="591" viewBox="0 0 494 591" fill="none" xmlns="http://www.w3.org/2000/svg">
<g filter="url(#filter0_d_78_19)">
<path d="M145.5 90C150.147 146.35 160.832 162.677 197 161C161.604 168.853 150.029 183.875 145.5 232C140.928 184.433 129.153 169.4 94 161C130.836 163.062 141.818 146.806 145.5 90Z" fill="white"/>
</g>
<g filter="url(#filter1_d_78_19)">
<path d="M308.5 183C316.756 306.019 335.741 341.662 400 338C337.112 355.144 316.547 387.938 308.5 493C300.377 389.156 279.456 356.339 217 338C282.447 342.502 301.958 307.012 308.5 183Z" fill="white"/>
</g>
<defs>
<filter id="filter0_d_78_19" x="0.800003" y="0.800003" width="289.4" height="328.4" filterUnits="userSpaceOnUse" color-interpolation-filters="sRGB">
<feFlood flood-opacity="0" result="BackgroundImageFix"/>
<feColorMatrix in="SourceAlpha" type="matrix" values="0 0 0 0 0 0 0 0 0 0 0 0 0 0 0 0 0 0 127 0" result="hardAlpha"/>
<feOffset dy="4"/>
<feGaussianBlur stdDeviation="46.6"/>
<feComposite in2="hardAlpha" operator="out"/>
<feColorMatrix type="matrix" values="0 0 0 0 1 0 0 0 0 1 0 0 0 0 1 0 0 0 0.25 0"/>
<feBlend mode="normal" in2="BackgroundImageFix" result="effect1_dropShadow_78_19"/>
<feBlend mode="normal" in="SourceGraphic" in2="effect1_dropShadow_78_19" result="shape"/>
</filter>
<filter id="filter1_d_78_19" x="123.8" y="93.8" width="369.4" height="496.4" filterUnits="userSpaceOnUse" color-interpolation-filters="sRGB">
<feFlood flood-opacity="0" result="BackgroundImageFix"/>
<feColorMatrix in="SourceAlpha" type="matrix" values="0 0 0 0 0 0 0 0 0 0 0 0 0 0 0 0 0 0 127 0" result="hardAlpha"/>
<feOffset dy="4"/>
<feGaussianBlur stdDeviation="46.6"/>
<feComposite in2="hardAlpha" operator="out"/>
<feColorMatrix type="matrix" values="0 0 0 0 1 0 0 0 0 1 0 0 0 0 1 0 0 0 0.25 0"/>
<feBlend mode="normal" in2="BackgroundImageFix" result="effect1_dropShadow_78_19"/>
<feBlend mode="normal" in="SourceGraphic" in2="effect1_dropShadow_78_19" result="shape"/>
</filter>
</defs>
</svg>
