<svg width="445" height="153" viewBox="0 0 445 153" fill="none" xmlns="http://www.w3.org/2000/svg">
<g filter="url(#filter0_d_78_20)">
<path d="M347.063 65.8652C343.983 62.1266 347.487 56.6315 352.176 57.8461L358.797 59.5613C360.894 60.1045 363.103 59.2356 364.267 57.4092L367.945 51.6419C370.549 47.5579 376.857 49.1921 377.151 54.0268L377.566 60.8541C377.697 63.0162 379.206 64.8479 381.303 65.3911L387.924 67.1062C392.613 68.3208 393.009 74.8259 388.501 76.5993L382.136 79.1036C380.121 79.8967 378.845 81.8976 378.976 84.0597L379.391 90.887C379.685 95.7217 373.62 98.1078 370.541 94.3692L366.192 89.0896C364.815 87.4176 362.518 86.8226 360.502 87.6157L354.137 90.12C349.63 91.8934 345.487 86.8631 348.091 82.7791L351.768 77.0118C352.933 75.1854 352.789 72.8167 351.412 71.1448L347.063 65.8652Z" fill="white"/>
</g>
<g filter="url(#filter1_d_78_20)">
<path d="M194.399 71.6467C190.414 68.8929 192.281 62.649 197.123 62.5349L203.961 62.3736C206.127 62.3226 208.013 60.8829 208.634 58.8076L210.594 52.2544C211.981 47.6139 218.497 47.4603 220.102 52.0302L222.368 58.4837C223.086 60.5275 225.038 61.8767 227.203 61.8256L234.041 61.6644C238.884 61.5502 241.043 67.6991 237.193 70.6377L231.755 74.7874C230.034 76.1016 229.354 78.3751 230.071 80.4188L232.338 86.8723C233.943 91.4423 228.762 95.3962 224.778 92.6423L219.151 88.7535C217.369 87.5219 214.996 87.5779 213.274 88.892L207.837 93.0417C203.987 95.9803 198.626 92.275 200.013 87.6345L201.973 81.0813C202.594 79.006 201.807 76.7671 200.025 75.5355L194.399 71.6467Z" fill="white"/>
</g>
<g filter="url(#filter2_d_78_20)">
<path d="M56.6937 78.0216C52.073 76.5691 52.0104 70.0524 56.6024 68.5115L63.087 66.3355C65.1405 65.6464 66.5169 63.7133 66.4961 61.5473L66.4305 54.7077C66.384 49.8643 72.5625 47.7911 75.4469 51.6821L79.5202 57.1769C80.8102 58.917 83.074 59.6287 85.1276 58.9395L91.6121 56.7636C96.2041 55.2227 100.085 60.4581 97.2759 64.4038L93.3088 69.9757C92.0524 71.7403 92.0752 74.1132 93.3651 75.8533L97.4385 81.3481C100.323 85.2391 96.5431 90.548 91.9224 89.0956L85.3973 87.0444C83.3308 86.3949 81.0811 87.1498 79.8248 88.9143L75.8577 94.4863C73.0484 98.432 66.8313 96.4776 66.7848 91.6343L66.7192 84.7947C66.6984 82.6286 65.2852 80.7223 63.2188 80.0728L56.6937 78.0216Z" fill="white"/>
</g>
<defs>
<filter id="filter0_d_78_20" x="293.501" y="0.923485" width="150.57" height="151.68" filterUnits="userSpaceOnUse" color-interpolation-filters="sRGB">
<feFlood flood-opacity="0" result="BackgroundImageFix"/>
<feColorMatrix in="SourceAlpha" type="matrix" values="0 0 0 0 0 0 0 0 0 0 0 0 0 0 0 0 0 0 127 0" result="hardAlpha"/>
<feOffset dy="4"/>
<feGaussianBlur stdDeviation="26.2"/>
<feComposite in2="hardAlpha" operator="out"/>
<feColorMatrix type="matrix" values="0 0 0 0 1 0 0 0 0 1 0 0 0 0 1 0 0 0 0.42 0"/>
<feBlend mode="normal" in2="BackgroundImageFix" result="effect1_dropShadow_78_20"/>
<feBlend mode="normal" in="SourceGraphic" in2="effect1_dropShadow_78_20" result="shape"/>
</filter>
<filter id="filter1_d_78_20" x="139.833" y="0.28701" width="151.737" height="150.202" filterUnits="userSpaceOnUse" color-interpolation-filters="sRGB">
<feFlood flood-opacity="0" result="BackgroundImageFix"/>
<feColorMatrix in="SourceAlpha" type="matrix" values="0 0 0 0 0 0 0 0 0 0 0 0 0 0 0 0 0 0 127 0" result="hardAlpha"/>
<feOffset dy="4"/>
<feGaussianBlur stdDeviation="26.2"/>
<feComposite in2="hardAlpha" operator="out"/>
<feColorMatrix type="matrix" values="0 0 0 0 1 0 0 0 0 1 0 0 0 0 1 0 0 0 0.42 0"/>
<feBlend mode="normal" in2="BackgroundImageFix" result="effect1_dropShadow_78_20"/>
<feBlend mode="normal" in="SourceGraphic" in2="effect1_dropShadow_78_20" result="shape"/>
</filter>
<filter id="filter2_d_78_20" x="0.79287" y="1.24966" width="150.051" height="151.746" filterUnits="userSpaceOnUse" color-interpolation-filters="sRGB">
<feFlood flood-opacity="0" result="BackgroundImageFix"/>
<feColorMatrix in="SourceAlpha" type="matrix" values="0 0 0 0 0 0 0 0 0 0 0 0 0 0 0 0 0 0 127 0" result="hardAlpha"/>
<feOffset dy="4"/>
<feGaussianBlur stdDeviation="26.2"/>
<feComposite in2="hardAlpha" operator="out"/>
<feColorMatrix type="matrix" values="0 0 0 0 1 0 0 0 0 1 0 0 0 0 1 0 0 0 0.42 0"/>
<feBlend mode="normal" in2="BackgroundImageFix" result="effect1_dropShadow_78_20"/>
<feBlend mode="normal" in="SourceGraphic" in2="effect1_dropShadow_78_20" result="shape"/>
</filter>
</defs>
</svg>
