<svg width="192" height="161" viewBox="0 0 192 161" fill="none" xmlns="http://www.w3.org/2000/svg">
<rect width="192" height="73" fill="url(#paint0_linear_43_1458)"/>
<path d="M157 138.036C163.598 138.669 170.266 146.268 174.711 152.553C177.323 156.247 174.548 161 170.024 161H143.556C139.133 161 136.336 156.427 138.741 152.714C143.174 145.871 150.125 137.376 157 138.036Z" fill="url(#paint1_linear_43_1458)"/>
<path d="M96 138.036C102.598 138.669 109.266 146.268 113.711 152.553C116.323 156.247 113.548 161 109.024 161H82.556C78.1328 161 75.3364 156.427 77.7412 152.714C82.1743 145.871 89.1254 137.376 96 138.036Z" fill="url(#paint2_linear_43_1458)"/>
<path d="M35 138.036C41.5977 138.669 48.2659 146.268 52.7111 152.553C55.3232 156.247 52.5478 161 48.0238 161H21.556C17.1328 161 14.3364 156.427 16.7412 152.714C21.1743 145.871 28.1254 137.376 35 138.036Z" fill="url(#paint3_linear_43_1458)"/>
<path d="M95.997 51.1101C100.837 51.5854 105.725 56.8271 109.261 61.6714C111.914 65.3052 109.137 70.0215 104.638 70.0215H86.9482C82.5483 70.0215 79.7485 65.482 82.1954 61.8252C85.7638 56.4923 90.9065 50.6102 95.997 51.1101Z" fill="url(#paint4_linear_43_1458)"/>
<circle cx="95.9973" cy="44.6233" r="11.6233" fill="url(#paint5_linear_43_1458)"/>
<rect x="77" y="63" width="38" height="47" fill="url(#paint6_linear_43_1458)"/>
<g filter="url(#filter0_d_43_1458)">
<ellipse cx="35" cy="129.5" rx="14" ry="14.5" fill="url(#paint7_linear_43_1458)"/>
</g>
<g filter="url(#filter1_d_43_1458)">
<ellipse cx="96" cy="129.5" rx="14" ry="14.5" fill="url(#paint8_linear_43_1458)"/>
</g>
<g filter="url(#filter2_d_43_1458)">
<ellipse cx="157" cy="129.5" rx="14" ry="14.5" fill="url(#paint9_linear_43_1458)"/>
</g>
<defs>
<filter id="filter0_d_43_1458" x="21" y="113.5" width="29.5" height="30.5" filterUnits="userSpaceOnUse" color-interpolation-filters="sRGB">
<feFlood flood-opacity="0" result="BackgroundImageFix"/>
<feColorMatrix in="SourceAlpha" type="matrix" values="0 0 0 0 0 0 0 0 0 0 0 0 0 0 0 0 0 0 127 0" result="hardAlpha"/>
<feOffset dx="1" dy="-1"/>
<feGaussianBlur stdDeviation="0.25"/>
<feComposite in2="hardAlpha" operator="out"/>
<feColorMatrix type="matrix" values="0 0 0 0 0 0 0 0 0 0 0 0 0 0 0 0 0 0 0.04 0"/>
<feBlend mode="normal" in2="BackgroundImageFix" result="effect1_dropShadow_43_1458"/>
<feBlend mode="normal" in="SourceGraphic" in2="effect1_dropShadow_43_1458" result="shape"/>
</filter>
<filter id="filter1_d_43_1458" x="82" y="113.5" width="29.5" height="30.5" filterUnits="userSpaceOnUse" color-interpolation-filters="sRGB">
<feFlood flood-opacity="0" result="BackgroundImageFix"/>
<feColorMatrix in="SourceAlpha" type="matrix" values="0 0 0 0 0 0 0 0 0 0 0 0 0 0 0 0 0 0 127 0" result="hardAlpha"/>
<feOffset dx="1" dy="-1"/>
<feGaussianBlur stdDeviation="0.25"/>
<feComposite in2="hardAlpha" operator="out"/>
<feColorMatrix type="matrix" values="0 0 0 0 0 0 0 0 0 0 0 0 0 0 0 0 0 0 0.04 0"/>
<feBlend mode="normal" in2="BackgroundImageFix" result="effect1_dropShadow_43_1458"/>
<feBlend mode="normal" in="SourceGraphic" in2="effect1_dropShadow_43_1458" result="shape"/>
</filter>
<filter id="filter2_d_43_1458" x="143" y="113.5" width="29.5" height="30.5" filterUnits="userSpaceOnUse" color-interpolation-filters="sRGB">
<feFlood flood-opacity="0" result="BackgroundImageFix"/>
<feColorMatrix in="SourceAlpha" type="matrix" values="0 0 0 0 0 0 0 0 0 0 0 0 0 0 0 0 0 0 127 0" result="hardAlpha"/>
<feOffset dx="1" dy="-1"/>
<feGaussianBlur stdDeviation="0.25"/>
<feComposite in2="hardAlpha" operator="out"/>
<feColorMatrix type="matrix" values="0 0 0 0 0 0 0 0 0 0 0 0 0 0 0 0 0 0 0.04 0"/>
<feBlend mode="normal" in2="BackgroundImageFix" result="effect1_dropShadow_43_1458"/>
<feBlend mode="normal" in="SourceGraphic" in2="effect1_dropShadow_43_1458" result="shape"/>
</filter>
<linearGradient id="paint0_linear_43_1458" x1="96" y1="0" x2="96" y2="73" gradientUnits="userSpaceOnUse">
<stop stop-color="#FF6CE4"/>
<stop offset="1" stop-color="#FFD5F7"/>
</linearGradient>
<linearGradient id="paint1_linear_43_1458" x1="157" y1="138" x2="157" y2="161" gradientUnits="userSpaceOnUse">
<stop stop-color="white"/>
<stop offset="1" stop-color="#697CFC"/>
</linearGradient>
<linearGradient id="paint2_linear_43_1458" x1="96" y1="138" x2="96" y2="161" gradientUnits="userSpaceOnUse">
<stop stop-color="white"/>
<stop offset="1" stop-color="#697CFC"/>
</linearGradient>
<linearGradient id="paint3_linear_43_1458" x1="35" y1="138" x2="35" y2="161" gradientUnits="userSpaceOnUse">
<stop stop-color="white"/>
<stop offset="1" stop-color="#697CFC"/>
</linearGradient>
<linearGradient id="paint4_linear_43_1458" x1="95.997" y1="51.0803" x2="95.997" y2="70.0215" gradientUnits="userSpaceOnUse">
<stop stop-color="white"/>
<stop offset="1" stop-color="#5953FF"/>
</linearGradient>
<linearGradient id="paint5_linear_43_1458" x1="95.9973" y1="33" x2="95.9973" y2="56.2466" gradientUnits="userSpaceOnUse">
<stop stop-color="white"/>
<stop offset="1" stop-color="#5953FF"/>
</linearGradient>
<linearGradient id="paint6_linear_43_1458" x1="96" y1="63" x2="96" y2="110" gradientUnits="userSpaceOnUse">
<stop stop-color="#7F5BFF"/>
<stop offset="1" stop-color="#D5C9FF"/>
</linearGradient>
<linearGradient id="paint7_linear_43_1458" x1="35" y1="115" x2="35" y2="144" gradientUnits="userSpaceOnUse">
<stop stop-color="white"/>
<stop offset="1" stop-color="#697CFC"/>
</linearGradient>
<linearGradient id="paint8_linear_43_1458" x1="96" y1="115" x2="96" y2="144" gradientUnits="userSpaceOnUse">
<stop stop-color="white"/>
<stop offset="1" stop-color="#697CFC"/>
</linearGradient>
<linearGradient id="paint9_linear_43_1458" x1="157" y1="115" x2="157" y2="144" gradientUnits="userSpaceOnUse">
<stop stop-color="white"/>
<stop offset="1" stop-color="#697CFC"/>
</linearGradient>
</defs>
</svg>
