<svg width="54" height="54" viewBox="0 0 54 54" fill="none" xmlns="http://www.w3.org/2000/svg">
<g clip-path="url(#clip0_43_1359)">
<path d="M27 4.86211C34.2141 4.86211 35.0684 4.89375 37.9055 5.02031C40.5422 5.13633 41.966 5.5793 42.9152 5.94844C44.1703 6.43359 45.0773 7.02422 46.016 7.96289C46.9652 8.91211 47.5453 9.80859 48.0305 11.0637C48.3996 12.0129 48.8426 13.4473 48.9586 16.0734C49.0852 18.9211 49.1168 19.7754 49.1168 26.9789C49.1168 34.193 49.0852 35.0473 48.9586 37.8844C48.8426 40.5211 48.3996 41.9449 48.0305 42.8941C47.5453 44.1492 46.9547 45.0563 46.016 45.9949C45.0668 46.9441 44.1703 47.5242 42.9152 48.0094C41.966 48.3785 40.5316 48.8215 37.9055 48.9375C35.0578 49.0641 34.2035 49.0957 27 49.0957C19.7859 49.0957 18.9316 49.0641 16.0945 48.9375C13.4578 48.8215 12.034 48.3785 11.0848 48.0094C9.82969 47.5242 8.92266 46.9336 7.98398 45.9949C7.03477 45.0457 6.45469 44.1492 5.96953 42.8941C5.60039 41.9449 5.15742 40.5106 5.04141 37.8844C4.91484 35.0367 4.8832 34.1824 4.8832 26.9789C4.8832 19.7648 4.91484 18.9105 5.04141 16.0734C5.15742 13.4367 5.60039 12.0129 5.96953 11.0637C6.45469 9.80859 7.04531 8.90156 7.98398 7.96289C8.9332 7.01367 9.82969 6.43359 11.0848 5.94844C12.034 5.5793 13.4684 5.13633 16.0945 5.02031C18.9316 4.89375 19.7859 4.86211 27 4.86211ZM27 0C19.6699 0 18.7523 0.0316406 15.873 0.158203C13.0043 0.284766 11.032 0.748828 9.32344 1.41328C7.54102 2.10937 6.03281 3.02695 4.53516 4.53516C3.02695 6.03281 2.10938 7.54102 1.41328 9.31289C0.748828 11.032 0.284766 12.9937 0.158203 15.8625C0.0316406 18.7523 0 19.6699 0 27C0 34.3301 0.0316406 35.2477 0.158203 38.127C0.284766 40.9957 0.748828 42.968 1.41328 44.6766C2.10938 46.459 3.02695 47.9672 4.53516 49.4648C6.03281 50.9625 7.54102 51.8906 9.31289 52.5762C11.032 53.2406 12.9938 53.7047 15.8625 53.8312C18.7418 53.9578 19.6594 53.9895 26.9895 53.9895C34.3195 53.9895 35.2371 53.9578 38.1164 53.8312C40.9852 53.7047 42.9574 53.2406 44.666 52.5762C46.4379 51.8906 47.9461 50.9625 49.4438 49.4648C50.9414 47.9672 51.8695 46.459 52.5551 44.6871C53.2195 42.968 53.6836 41.0063 53.8102 38.1375C53.9367 35.2582 53.9684 34.3406 53.9684 27.0105C53.9684 19.6805 53.9367 18.7629 53.8102 15.8836C53.6836 13.0148 53.2195 11.0426 52.5551 9.33398C51.8906 7.54102 50.9731 6.03281 49.4648 4.53516C47.9672 3.0375 46.459 2.10938 44.6871 1.42383C42.968 0.759375 41.0063 0.295313 38.1375 0.16875C35.2477 0.0316406 34.3301 0 27 0Z" fill="white"/>
<path d="M27 13.1309C19.343 13.1309 13.1309 19.343 13.1309 27C13.1309 34.657 19.343 40.8691 27 40.8691C34.657 40.8691 40.8691 34.657 40.8691 27C40.8691 19.343 34.657 13.1309 27 13.1309ZM27 35.9965C22.0324 35.9965 18.0035 31.9676 18.0035 27C18.0035 22.0324 22.0324 18.0035 27 18.0035C31.9676 18.0035 35.9965 22.0324 35.9965 27C35.9965 31.9676 31.9676 35.9965 27 35.9965Z" fill="white"/>
<path d="M44.6555 12.5824C44.6555 14.3753 43.2 15.8203 41.4176 15.8203C39.6246 15.8203 38.1797 14.3648 38.1797 12.5824C38.1797 10.7894 39.6352 9.34448 41.4176 9.34448C43.2 9.34448 44.6555 10.8 44.6555 12.5824Z" fill="white"/>
</g>
<defs>
<clipPath id="clip0_43_1359">
<rect width="54" height="54" fill="white"/>
</clipPath>
</defs>
</svg>
