<svg width="60" height="88" viewBox="0 0 60 88" fill="none" xmlns="http://www.w3.org/2000/svg">
<path fill-rule="evenodd" clip-rule="evenodd" d="M43.3518 84.0917C56.349 80.7843 74.5533 64.7655 40.4358 25.5496C35.3776 21.0642 26.358 9.67479 30.7439 0C22.3573 7.97714 10.4008 28.8029 24.9679 39.772C30.3843 43.8509 35.385 48.3213 39.3722 52.9214C38.3758 58.1924 33.6494 61.0551 33.6494 61.0551C33.6494 61.0551 9.50551 50.7243 9.50551 31.4286C8.20222 33.1077 1.64655 46.362 1.88114 49.5038C2.17439 53.4314 13.8523 64.0633 19.0849 66.9213C26.5455 70.9959 29.0552 74.0076 29.0552 74.0076C33.5875 79.1202 30.8749 86.1408 29.6026 87.6896C29.249 87.7126 29.054 87.7284 29.0552 87.7539C29.0735 88.1181 29.2963 88.0625 29.6026 87.6896C29.6605 87.6857 29.7228 87.6817 29.7891 87.6778C31.9174 87.5424 38.264 87.1394 43.3518 84.0917ZM48.199 68.9183C46.7304 66.727 44.6668 64.4774 42.2161 63.4968C42.515 63.1991 43.5983 62.0001 44.9043 60.539C46.5358 63.3564 47.6779 66.1688 48.199 68.9183ZM25.7192 86.7425C0.0604058 86.1322 -1.59561 64.2788 0.783725 53.4286C0.783725 53.4286 8.11208 64.7026 20.1991 71.5691C32.2861 78.4353 25.7192 86.7425 25.7192 86.7425Z" fill="white"/>
</svg>
