<svg width="2611" height="1077" viewBox="0 0 2611 1077" fill="none" xmlns="http://www.w3.org/2000/svg">
<g filter="url(#filter0_d_43_1362)">
<path d="M1 843C1 843 54 812 158 838C262 864 306 959 306 959V853H378V959H414V853H488C488 853 502.627 598.239 512 435C512 435 439 425 440 397C441 369 512 349 512 349L527 84L539 349C539 349 609 370 609 397C609 424 544 435 544 435C544 435 550 593 555 697C560 801 566 959 566 959H602V907H644V981H754V787H930V887H1006V925H1066V887H1128V907H1152V873H1274V809H1332V693H1426V765H1514V907H1564V825H1612V717H1676V825H1708V777L1740 717L1772 777H1838V843H1996V787H2084V707H2156V569H2254V853H2290V469H2436V809H2460V679H2558V873H2610" stroke="white" stroke-width="9"/>
</g>
<defs>
<filter id="filter0_d_43_1362" x="-88.0671" y="0.945663" width="2784.87" height="1075.35" filterUnits="userSpaceOnUse" color-interpolation-filters="sRGB">
<feFlood flood-opacity="0" result="BackgroundImageFix"/>
<feColorMatrix in="SourceAlpha" type="matrix" values="0 0 0 0 0 0 0 0 0 0 0 0 0 0 0 0 0 0 127 0" result="hardAlpha"/>
<feOffset dy="4"/>
<feGaussianBlur stdDeviation="43.4"/>
<feComposite in2="hardAlpha" operator="out"/>
<feColorMatrix type="matrix" values="0 0 0 0 1 0 0 0 0 1 0 0 0 0 1 0 0 0 0.43 0"/>
<feBlend mode="normal" in2="BackgroundImageFix" result="effect1_dropShadow_43_1362"/>
<feBlend mode="normal" in="SourceGraphic" in2="effect1_dropShadow_43_1362" result="shape"/>
</filter>
</defs>
</svg>
