<svg width="69" height="97" viewBox="0 0 69 97" fill="none" xmlns="http://www.w3.org/2000/svg">
<path fill-rule="evenodd" clip-rule="evenodd" d="M49.8546 92.692C64.8013 89.0464 85.7363 71.3892 46.5011 28.1626C40.6843 23.2185 30.3117 10.6643 35.3554 0C25.7109 8.79299 11.9609 31.7486 28.7131 43.8396C34.942 48.3357 40.6927 53.2633 45.278 58.3338C44.1321 64.1439 38.6968 67.2994 38.6968 67.2994C38.6968 67.2994 10.9313 55.912 10.9313 34.6428C9.43256 36.4937 1.89353 51.1035 2.16332 54.5666C2.50055 58.896 15.9301 70.6152 21.9476 73.7655C30.5273 78.2568 33.4135 81.5766 33.4135 81.5766C38.6257 87.2121 35.5062 94.9507 34.043 96.6579C33.6363 96.6832 33.4121 96.7007 33.4135 96.7288C33.4345 97.1302 33.6907 97.0689 34.043 96.6579C34.1096 96.6535 34.1812 96.6492 34.2575 96.6448C36.705 96.4956 44.0036 96.0514 49.8546 92.692ZM55.4288 75.9668C53.74 73.5513 51.3669 71.0717 48.5485 69.9908C48.8923 69.6626 50.138 68.341 51.64 66.7304C53.5161 69.836 54.8296 72.9361 55.4288 75.9668ZM29.577 95.6139C0.0694667 94.9412 -1.83495 70.8527 0.901283 58.8928C0.901283 58.8928 9.32889 71.3199 23.229 78.8887C37.129 86.4571 29.577 95.6139 29.577 95.6139Z" fill="#A49BFF"/>
</svg>
