<svg width="64" height="46" viewBox="0 0 64 46" fill="none" xmlns="http://www.w3.org/2000/svg">
<path fill-rule="evenodd" clip-rule="evenodd" d="M57.3163 0.263184C59.1898 0.263184 60.8536 1.11081 61.9005 2.42187L31.4967 26.4868L1.36377 2.85886C2.37127 1.30221 4.18843 0.263184 6.26273 0.263184H57.3163ZM0.526367 40.3233V7.12909L22.1475 24.0827L0.570937 41.0014C0.541527 40.7793 0.526367 40.553 0.526367 40.3233ZM2.50376 44.4127C3.51049 45.2376 4.82482 45.7369 6.26273 45.7369H57.3163C58.5522 45.7369 59.6968 45.368 60.6333 44.7406L37.6582 26.5557L33.5267 29.8258C32.3582 30.7507 30.656 30.7544 29.483 29.8346L25.2892 26.5462L2.50376 44.4127ZM40.7826 24.0827L62.8959 41.5856C62.9984 41.1806 63.0527 40.758 63.0527 40.3233V6.45573L40.7826 24.0827Z" fill="#A49BFF"/>
</svg>
