<svg width="55" height="54" viewBox="0 0 55 54" fill="none" xmlns="http://www.w3.org/2000/svg">
<g clip-path="url(#clip0_43_1358)">
<path d="M50.0555 0H4.03945C1.83516 0 0.0527344 1.74023 0.0527344 3.8918V50.0977C0.0527344 52.2492 1.83516 54 4.03945 54H50.0555C52.2598 54 54.0527 52.2492 54.0527 50.1082V3.8918C54.0527 1.74023 52.2598 0 50.0555 0ZM16.0734 46.016H8.05781V20.2395H16.0734V46.016ZM12.0656 16.7273C9.49219 16.7273 7.41445 14.6496 7.41445 12.0867C7.41445 9.52383 9.49219 7.44609 12.0656 7.44609C14.6285 7.44609 16.7062 9.52383 16.7062 12.0867C16.7062 14.6391 14.6285 16.7273 12.0656 16.7273ZM46.0687 46.016H38.0637V33.4863C38.0637 30.5016 38.0109 26.652 33.8977 26.652C29.7316 26.652 29.0988 29.9109 29.0988 33.2754V46.016H21.1043V20.2395H28.7824V23.7621H28.8879C29.9531 21.7371 32.5688 19.5961 36.4605 19.5961C44.5711 19.5961 46.0687 24.9328 46.0687 31.8727V46.016Z" fill="white"/>
</g>
<defs>
<clipPath id="clip0_43_1358">
<rect width="54" height="54" fill="white" transform="translate(0.0527344)"/>
</clipPath>
</defs>
</svg>
