<svg width="100%" height="100%" viewBox="0 0 1736 768" fill="none" xmlns="http://www.w3.org/2000/svg">
<g clip-path="url(#clip0_3005_108)">
<g clip-path="url(#clip1_3005_108)">
<path d="M317 634.5H803H1444L1803 738H-91L317 634.5Z" fill="url(#paint0_linear_3005_108)"/>
<path d="M270 174C270 141.967 295.967 116 328 116H1355C1387.03 116 1413 141.967 1413 174V580C1413 612.033 1387.03 638 1355 638H328C295.967 638 270 612.033 270 580V174Z" fill="url(#paint1_linear_3005_108)"/>
<g filter="url(#filter0_d_3005_108)">
<path d="M285 232H1384V621H285V232Z" fill="url(#paint2_linear_3005_108)"/>
</g>
<path d="M956.819 186.888H966.163C966.291 189.128 967.955 190.472 970.963 190.472C974.035 190.472 975.443 189.384 975.443 187.72C975.443 186.76 974.931 185.736 972.563 185.224L966.675 183.944C960.787 182.664 957.907 180.104 957.907 174.472C957.907 167.816 963.603 163.976 971.283 163.976C978.707 163.976 983.891 168.328 983.891 174.792H974.547C974.547 172.616 973.203 171.144 970.835 171.144C968.595 171.144 967.187 172.296 967.187 174.024C967.187 175.496 968.403 176.328 970.643 176.84L976.595 178.12C981.843 179.272 984.723 181.704 984.723 186.824C984.723 193.672 978.899 197.832 970.579 197.832C962.131 197.832 956.819 193.352 956.819 186.888Z" fill="white"/>
<path d="M922.238 180.872C922.238 171.016 929.022 163.976 938.622 163.976C948.094 163.976 954.366 169.16 955.006 177.544H945.086C944.382 174.344 942.398 172.808 939.006 172.808C934.846 172.808 932.158 175.944 932.158 180.872C932.158 185.992 934.654 189 938.878 189C942.334 189 944.446 187.4 945.086 184.264H955.006C954.366 192.328 947.838 197.832 938.878 197.832C928.766 197.832 922.238 191.112 922.238 180.872Z" fill="white"/>
<path d="M912.86 160.008C909.724 160.008 907.228 157.512 907.228 154.376C907.228 151.24 909.724 148.808 912.86 148.808C915.932 148.808 918.428 151.24 918.428 154.376C918.428 157.512 915.932 160.008 912.86 160.008ZM907.996 197V165H917.852V197H907.996Z" fill="white"/>
<path d="M898.766 197H888.91V173.192H882.83V165H888.91V155.08H898.766V165H904.846V173.192H898.766V197Z" fill="white"/>
<path d="M854.064 186.888H863.408C863.536 189.128 865.2 190.472 868.208 190.472C871.28 190.472 872.688 189.384 872.688 187.72C872.688 186.76 872.176 185.736 869.808 185.224L863.92 183.944C858.032 182.664 855.152 180.104 855.152 174.472C855.152 167.816 860.848 163.976 868.528 163.976C875.952 163.976 881.136 168.328 881.136 174.792H871.792C871.792 172.616 870.448 171.144 868.08 171.144C865.84 171.144 864.432 172.296 864.432 174.024C864.432 175.496 865.648 176.328 867.888 176.84L873.84 178.12C879.088 179.272 881.968 181.704 881.968 186.824C881.968 193.672 876.144 197.832 867.824 197.832C859.376 197.832 854.064 193.352 854.064 186.888Z" fill="white"/>
<path d="M845.262 160.008C842.126 160.008 839.63 157.512 839.63 154.376C839.63 151.24 842.126 148.808 845.262 148.808C848.334 148.808 850.83 151.24 850.83 154.376C850.83 157.512 848.334 160.008 845.262 160.008ZM840.398 197V165H850.254V197H840.398Z" fill="white"/>
<path d="M831.169 197H821.313V173.192H815.233V165H821.313V155.08H831.169V165H837.249V173.192H831.169V197Z" fill="white"/>
<path d="M793.372 197.832C786.588 197.832 782.364 193.864 782.364 187.592C782.364 181.704 786.524 178.056 794.204 177.48L803.164 176.776V176.264C803.164 173.128 801.244 171.464 797.724 171.464C793.564 171.464 791.324 173.064 791.324 175.944H783.132C783.132 168.712 789.084 163.976 798.236 163.976C807.516 163.976 812.764 169.16 812.764 178.312V197H804.06L803.42 192.776C802.396 195.72 798.172 197.832 793.372 197.832ZM796.828 190.536C800.604 190.536 803.228 188.68 803.228 185.032V183.304L798.236 183.752C793.948 184.136 792.412 185.096 792.412 187.144C792.412 189.448 793.82 190.536 796.828 190.536Z" fill="white"/>
<path d="M774.479 197H764.623V173.192H758.543V165H764.623V155.08H774.479V165H780.559V173.192H774.479V197Z" fill="white"/>
<path d="M722.423 163.4C722.423 154.824 729.655 148.744 739.831 148.744C750.007 148.744 756.407 154.376 756.407 163.336H746.103C746.103 160.008 743.607 157.96 739.703 157.96C735.479 157.96 732.791 159.88 732.791 163.016C732.791 165.896 734.263 167.304 737.591 168.008L744.695 169.48C753.143 171.208 757.175 175.24 757.175 182.728C757.175 191.88 750.007 197.832 739.127 197.832C728.567 197.832 721.719 192.136 721.719 183.24H732.023C732.023 186.696 734.583 188.616 739.191 188.616C743.863 188.616 746.807 186.76 746.807 183.752C746.807 181.128 745.591 179.784 742.455 179.144L735.223 177.672C726.775 175.944 722.423 171.144 722.423 163.4Z" fill="white"/>
<g filter="url(#filter1_d_3005_108)">
<path d="M353 275C353 263.402 362.402 254 374 254H560C571.598 254 581 263.402 581 275V588C581 599.598 571.598 609 560 609H374C362.402 609 353 599.598 353 588V275Z" fill="#D2CCFF"/>
</g>
<g filter="url(#filter2_d_3005_108)">
<path d="M853 276C853 264.402 862.402 255 874 255H1060C1071.6 255 1081 264.402 1081 276V589C1081 600.598 1071.6 610 1060 610H874C862.402 610 853 600.598 853 589V276Z" fill="#D2CBFF"/>
</g>
<g filter="url(#filter3_d_3005_108)">
<path d="M598 275C598 263.402 607.402 254 619 254H805C816.598 254 826 263.402 826 275V588C826 599.598 816.598 609 805 609H619C607.402 609 598 599.598 598 588V275Z" fill="#D2CCFF"/>
</g>
<g filter="url(#filter4_d_3005_108)">
<path d="M1101 275C1101 263.402 1110.4 254 1122 254H1308C1319.6 254 1329 263.402 1329 275V588C1329 599.598 1319.6 609 1308 609H1122C1110.4 609 1101 599.598 1101 588V275Z" fill="#D2CCFF"/>
</g>
<path d="M378 301C378 289.402 387.402 280 399 280H534C545.598 280 555 289.402 555 301V563C555 574.598 545.598 584 534 584H399C387.402 584 378 574.598 378 563V301Z" fill="white"/>
<path d="M627 301C627 289.402 636.402 280 648 280H783C794.598 280 804 289.402 804 301V563C804 574.598 794.598 584 783 584H648C636.402 584 627 574.598 627 563V301Z" fill="white"/>
<path d="M878 301C878 289.402 887.402 280 899 280H1034C1045.6 280 1055 289.402 1055 301V563C1055 574.598 1045.6 584 1034 584H899C887.402 584 878 574.598 878 563V301Z" fill="white"/>
<path d="M1126 301C1126 289.402 1135.4 280 1147 280H1282C1293.6 280 1303 289.402 1303 301V563C1303 574.598 1293.6 584 1282 584H1147C1135.4 584 1126 574.598 1126 563V301Z" fill="white"/>
<path d="M514.755 489.592H516.915C516.915 490.184 517.123 490.656 517.539 491.008C517.971 491.344 518.563 491.512 519.315 491.512C520.099 491.512 520.707 491.36 521.139 491.056C521.587 490.752 521.811 490.328 521.811 489.784C521.811 489.368 521.691 489.04 521.451 488.8C521.211 488.544 520.795 488.344 520.203 488.2L518.139 487.72C516.091 487.224 515.067 486.136 515.067 484.456C515.067 483.384 515.475 482.528 516.291 481.888C517.107 481.248 518.171 480.928 519.483 480.928C520.763 480.928 521.787 481.264 522.555 481.936C523.339 482.592 523.747 483.48 523.779 484.6H521.619C521.587 484.008 521.379 483.544 520.995 483.208C520.611 482.856 520.083 482.68 519.411 482.68C518.707 482.68 518.163 482.832 517.779 483.136C517.395 483.424 517.203 483.84 517.203 484.384C517.203 485.168 517.779 485.704 518.931 485.992L520.995 486.496C522.019 486.736 522.771 487.104 523.251 487.6C523.731 488.096 523.971 488.776 523.971 489.64C523.971 490.744 523.539 491.632 522.675 492.304C521.811 492.96 520.675 493.288 519.267 493.288C517.891 493.288 516.795 492.952 515.979 492.28C515.163 491.608 514.755 490.712 514.755 489.592Z" fill="black"/>
<path d="M511.986 493H509.73V483.16H507.426V481.264H509.73V477.592H511.986V481.264H514.29V483.16H511.986V493Z" fill="black"/>
<path d="M497.556 489.592H499.716C499.716 490.184 499.924 490.656 500.34 491.008C500.772 491.344 501.364 491.512 502.116 491.512C502.9 491.512 503.508 491.36 503.94 491.056C504.388 490.752 504.612 490.328 504.612 489.784C504.612 489.368 504.492 489.04 504.252 488.8C504.012 488.544 503.596 488.344 503.004 488.2L500.94 487.72C498.892 487.224 497.868 486.136 497.868 484.456C497.868 483.384 498.276 482.528 499.092 481.888C499.908 481.248 500.972 480.928 502.284 480.928C503.564 480.928 504.588 481.264 505.356 481.936C506.14 482.592 506.548 483.48 506.58 484.6H504.42C504.388 484.008 504.18 483.544 503.796 483.208C503.412 482.856 502.884 482.68 502.212 482.68C501.508 482.68 500.964 482.832 500.58 483.136C500.196 483.424 500.004 483.84 500.004 484.384C500.004 485.168 500.58 485.704 501.732 485.992L503.796 486.496C504.82 486.736 505.572 487.104 506.052 487.6C506.532 488.096 506.772 488.776 506.772 489.64C506.772 490.744 506.34 491.632 505.476 492.304C504.612 492.96 503.476 493.288 502.068 493.288C500.692 493.288 499.596 492.952 498.78 492.28C497.964 491.608 497.556 490.712 497.556 489.592Z" fill="black"/>
<path d="M495.745 478.048C495.457 478.336 495.105 478.48 494.689 478.48C494.273 478.48 493.921 478.336 493.633 478.048C493.345 477.744 493.201 477.392 493.201 476.992C493.201 476.576 493.345 476.224 493.633 475.936C493.921 475.648 494.273 475.504 494.689 475.504C495.105 475.504 495.457 475.648 495.745 475.936C496.033 476.224 496.177 476.576 496.177 476.992C496.177 477.392 496.033 477.744 495.745 478.048ZM493.585 493V481.264H495.841V493H493.585Z" fill="black"/>
<path d="M490.864 493H488.608V475.336H490.864V493Z" fill="black"/>
<path d="M481.216 493.288C479.488 493.288 478.08 492.72 476.992 491.584C475.92 490.448 475.384 488.968 475.384 487.144C475.384 485.304 475.912 483.808 476.968 482.656C478.04 481.504 479.424 480.928 481.12 480.928C482.784 480.928 484.12 481.456 485.128 482.512C486.136 483.568 486.64 484.968 486.64 486.712V487.552L477.568 487.576C477.648 488.808 478 489.76 478.624 490.432C479.264 491.088 480.144 491.416 481.264 491.416C483.056 491.416 484.152 490.728 484.552 489.352H486.664C486.376 490.616 485.76 491.592 484.816 492.28C483.872 492.952 482.672 493.288 481.216 493.288ZM481.12 482.824C480.144 482.824 479.352 483.104 478.744 483.664C478.136 484.224 477.76 485.024 477.616 486.064H484.384C484.384 485.088 484.088 484.304 483.496 483.712C482.904 483.12 482.112 482.824 481.12 482.824Z" fill="black"/>
<path d="M465.204 493H462.948V481.264H464.988L465.228 483.064C465.596 482.392 466.124 481.872 466.812 481.504C467.516 481.12 468.284 480.928 469.116 480.928C470.62 480.928 471.748 481.36 472.5 482.224C473.252 483.072 473.628 484.272 473.628 485.824V493H471.372V486.328C471.372 484.104 470.428 482.992 468.54 482.992C467.5 482.992 466.684 483.336 466.092 484.024C465.5 484.712 465.204 485.632 465.204 486.784V493Z" fill="black"/>
<path d="M454.159 493.288C452.911 493.288 451.927 492.968 451.207 492.328C450.503 491.672 450.151 490.808 450.151 489.736C450.151 488.664 450.527 487.808 451.279 487.168C452.047 486.512 453.127 486.128 454.519 486.016L458.215 485.728V485.392C458.215 483.616 457.295 482.728 455.455 482.728C454.511 482.728 453.775 482.928 453.247 483.328C452.735 483.728 452.479 484.28 452.479 484.984H450.511C450.511 483.768 450.967 482.792 451.879 482.056C452.807 481.304 454.031 480.928 455.551 480.928C457.055 480.928 458.239 481.328 459.103 482.128C459.983 482.928 460.423 484.096 460.423 485.632V493H458.503L458.263 491.104C457.959 491.776 457.431 492.312 456.679 492.712C455.943 493.096 455.103 493.288 454.159 493.288ZM454.807 491.536C455.879 491.536 456.719 491.216 457.327 490.576C457.935 489.92 458.239 489.04 458.239 487.936V487.312L455.239 487.552C453.367 487.728 452.431 488.432 452.431 489.664C452.431 490.272 452.639 490.736 453.055 491.056C453.471 491.376 454.055 491.536 454.807 491.536Z" fill="black"/>
<path d="M436.937 498.256V481.264H438.977L439.145 483.376C439.529 482.592 440.097 481.992 440.849 481.576C441.601 481.144 442.449 480.928 443.393 480.928C445.057 480.928 446.377 481.496 447.353 482.632C448.345 483.752 448.841 485.224 448.841 487.048C448.841 488.888 448.353 490.392 447.377 491.56C446.417 492.728 445.089 493.312 443.393 493.312C442.449 493.312 441.609 493.12 440.873 492.736C440.137 492.352 439.577 491.8 439.193 491.08V498.256H436.937ZM439.217 487.144C439.217 488.36 439.545 489.352 440.201 490.12C440.873 490.888 441.777 491.272 442.913 491.272C444.049 491.272 444.945 490.888 445.601 490.12C446.257 489.352 446.585 488.36 446.585 487.144C446.585 485.912 446.257 484.912 445.601 484.144C444.945 483.376 444.049 482.992 442.913 482.992C441.777 482.992 440.873 483.376 440.201 484.144C439.545 484.896 439.217 485.896 439.217 487.144Z" fill="black"/>
<path d="M422.445 484.024H420.717V482.464L425.637 477.736H417.837V475.648H428.613V477.544L423.861 482.08C425.381 482.272 426.621 482.856 427.581 483.832C428.557 484.792 429.045 486.032 429.045 487.552C429.045 489.28 428.461 490.672 427.293 491.728C426.141 492.768 424.669 493.288 422.877 493.288C421.133 493.288 419.717 492.784 418.629 491.776C417.557 490.752 417.021 489.36 417.021 487.6H419.349C419.349 488.72 419.669 489.6 420.309 490.24C420.949 490.864 421.821 491.176 422.925 491.176C424.061 491.176 424.965 490.848 425.637 490.192C426.309 489.52 426.645 488.624 426.645 487.504C426.645 486.432 426.277 485.584 425.541 484.96C424.821 484.336 423.789 484.024 422.445 484.024Z" fill="black"/>
<path d="M412.647 477.76H408.999V475.648H414.903V493H412.647V477.76Z" fill="black"/>
<path d="M758.928 509.288C757.248 509.288 755.912 508.728 754.92 507.608C753.944 506.472 753.456 504.992 753.456 503.168C753.456 501.328 753.952 499.832 754.944 498.68C755.952 497.512 757.312 496.928 759.024 496.928C759.936 496.928 760.744 497.12 761.448 497.504C762.168 497.888 762.728 498.44 763.128 499.16V491.336H765.36V509H763.344L763.152 506.864C762.768 507.648 762.208 508.248 761.472 508.664C760.736 509.08 759.888 509.288 758.928 509.288ZM756.696 506.096C757.352 506.864 758.248 507.248 759.384 507.248C760.52 507.248 761.424 506.864 762.096 506.096C762.768 505.328 763.104 504.328 763.104 503.096C763.104 501.88 762.768 500.888 762.096 500.12C761.424 499.352 760.52 498.968 759.384 498.968C758.248 498.968 757.352 499.352 756.696 500.12C756.056 500.872 755.736 501.864 755.736 503.096C755.736 504.328 756.056 505.328 756.696 506.096Z" fill="black"/>
<path d="M746.88 509.288C745.152 509.288 743.744 508.72 742.656 507.584C741.584 506.448 741.048 504.968 741.048 503.144C741.048 501.304 741.576 499.808 742.632 498.656C743.704 497.504 745.088 496.928 746.784 496.928C748.448 496.928 749.784 497.456 750.792 498.512C751.8 499.568 752.304 500.968 752.304 502.712V503.552L743.232 503.576C743.312 504.808 743.664 505.76 744.288 506.432C744.928 507.088 745.808 507.416 746.928 507.416C748.72 507.416 749.816 506.728 750.216 505.352H752.328C752.04 506.616 751.424 507.592 750.48 508.28C749.536 508.952 748.336 509.288 746.88 509.288ZM746.784 498.824C745.808 498.824 745.016 499.104 744.408 499.664C743.8 500.224 743.424 501.024 743.28 502.064H750.048C750.048 501.088 749.752 500.304 749.16 499.712C748.568 499.12 747.776 498.824 746.784 498.824Z" fill="black"/>
<path d="M738.205 509H735.949V499.16H733.645V497.264H735.949V493.592H738.205V497.264H740.509V499.16H738.205V509Z" fill="black"/>
<path d="M730.953 509H728.697V499.16H726.393V497.264H728.697V493.592H730.953V497.264H733.257V499.16H730.953V509Z" fill="black"/>
<path d="M724.87 494.048C724.582 494.336 724.23 494.48 723.814 494.48C723.398 494.48 723.046 494.336 722.758 494.048C722.47 493.744 722.326 493.392 722.326 492.992C722.326 492.576 722.47 492.224 722.758 491.936C723.046 491.648 723.398 491.504 723.814 491.504C724.23 491.504 724.582 491.648 724.87 491.936C725.158 492.224 725.302 492.576 725.302 492.992C725.302 493.392 725.158 493.744 724.87 494.048ZM722.71 509V497.264H724.966V509H722.71Z" fill="black"/>
<path d="M704.871 509H702.615V497.264H704.631L704.847 498.8C705.151 498.224 705.607 497.768 706.215 497.432C706.839 497.096 707.551 496.928 708.351 496.928C710.175 496.928 711.415 497.72 712.071 499.304C712.343 498.568 712.815 497.992 713.487 497.576C714.159 497.144 714.951 496.928 715.863 496.928C717.207 496.928 718.263 497.32 719.031 498.104C719.799 498.888 720.183 499.96 720.183 501.32V509H717.975V501.872C717.975 500.96 717.735 500.248 717.255 499.736C716.791 499.224 716.159 498.968 715.359 498.968C714.511 498.968 713.823 499.248 713.295 499.808C712.783 500.368 712.527 501.112 712.527 502.04V509H710.295V501.848C710.295 500.936 710.063 500.232 709.599 499.736C709.135 499.24 708.503 498.992 707.703 498.992C706.839 498.992 706.151 499.272 705.639 499.832C705.127 500.376 704.871 501.112 704.871 502.04V509Z" fill="black"/>
<path d="M690.864 509H688.824V491.336H691.08V499.28C691.464 498.528 692.024 497.952 692.76 497.552C693.512 497.136 694.376 496.928 695.352 496.928C697 496.928 698.304 497.512 699.264 498.68C700.24 499.848 700.728 501.352 700.728 503.192C700.728 505 700.224 506.472 699.216 507.608C698.224 508.728 696.888 509.288 695.208 509.288C694.264 509.288 693.424 509.08 692.688 508.664C691.968 508.248 691.416 507.648 691.032 506.864L690.864 509ZM691.104 503.096C691.104 504.344 691.432 505.352 692.088 506.12C692.76 506.872 693.664 507.248 694.8 507.248C695.936 507.248 696.832 506.864 697.488 506.096C698.144 505.328 698.472 504.328 698.472 503.096C698.472 501.88 698.144 500.888 697.488 500.12C696.832 499.352 695.936 498.968 694.8 498.968C693.664 498.968 692.76 499.352 692.088 500.12C691.432 500.888 691.104 501.88 691.104 503.096Z" fill="black"/>
<path d="M683.919 497.264H686.151V509H684.135L683.895 507.224C683.559 507.848 683.031 508.352 682.311 508.736C681.591 509.104 680.799 509.288 679.935 509.288C678.591 509.288 677.543 508.864 676.791 508.016C676.039 507.168 675.663 506.016 675.663 504.56V497.264H677.919V503.816C677.919 506.136 678.855 507.296 680.727 507.296C681.767 507.296 682.559 506.968 683.103 506.312C683.647 505.656 683.919 504.704 683.919 503.456V497.264Z" fill="black"/>
<path d="M664.689 505.592H666.849C666.849 506.184 667.057 506.656 667.473 507.008C667.905 507.344 668.497 507.512 669.249 507.512C670.033 507.512 670.641 507.36 671.073 507.056C671.521 506.752 671.745 506.328 671.745 505.784C671.745 505.368 671.625 505.04 671.385 504.8C671.145 504.544 670.729 504.344 670.137 504.2L668.073 503.72C666.025 503.224 665.001 502.136 665.001 500.456C665.001 499.384 665.409 498.528 666.225 497.888C667.041 497.248 668.105 496.928 669.417 496.928C670.697 496.928 671.721 497.264 672.489 497.936C673.273 498.592 673.681 499.48 673.713 500.6H671.553C671.521 500.008 671.313 499.544 670.929 499.208C670.545 498.856 670.017 498.68 669.345 498.68C668.641 498.68 668.097 498.832 667.713 499.136C667.329 499.424 667.137 499.84 667.137 500.384C667.137 501.168 667.713 501.704 668.865 501.992L670.929 502.496C671.953 502.736 672.705 503.104 673.185 503.6C673.665 504.096 673.905 504.776 673.905 505.64C673.905 506.744 673.473 507.632 672.609 508.304C671.745 508.96 670.609 509.288 669.201 509.288C667.825 509.288 666.729 508.952 665.913 508.28C665.097 507.608 664.689 506.712 664.689 505.592Z" fill="black"/>
<path d="M770.008 473.592H772.168C772.168 474.184 772.376 474.656 772.792 475.008C773.224 475.344 773.816 475.512 774.568 475.512C775.352 475.512 775.96 475.36 776.392 475.056C776.84 474.752 777.064 474.328 777.064 473.784C777.064 473.368 776.944 473.04 776.704 472.8C776.464 472.544 776.048 472.344 775.456 472.2L773.392 471.72C771.344 471.224 770.32 470.136 770.32 468.456C770.32 467.384 770.728 466.528 771.544 465.888C772.36 465.248 773.424 464.928 774.736 464.928C776.016 464.928 777.04 465.264 777.808 465.936C778.592 466.592 779 467.48 779.032 468.6H776.872C776.84 468.008 776.632 467.544 776.248 467.208C775.864 466.856 775.336 466.68 774.664 466.68C773.96 466.68 773.416 466.832 773.032 467.136C772.648 467.424 772.456 467.84 772.456 468.384C772.456 469.168 773.032 469.704 774.184 469.992L776.248 470.496C777.272 470.736 778.024 471.104 778.504 471.6C778.984 472.096 779.224 472.776 779.224 473.64C779.224 474.744 778.792 475.632 777.928 476.304C777.064 476.96 775.928 477.288 774.52 477.288C773.144 477.288 772.048 476.952 771.232 476.28C770.416 475.608 770.008 474.712 770.008 473.592Z" fill="black"/>
<path d="M767.239 477H764.983V467.16H762.679V465.264H764.983V461.592H767.239V465.264H769.543V467.16H767.239V477Z" fill="black"/>
<path d="M750.939 471.144C750.939 469.304 751.467 467.808 752.523 466.656C753.595 465.504 754.987 464.928 756.699 464.928C758.171 464.928 759.387 465.32 760.347 466.104C761.323 466.872 761.915 467.912 762.123 469.224H759.867C759.675 468.488 759.299 467.928 758.739 467.544C758.195 467.144 757.539 466.944 756.771 466.944C755.699 466.944 754.827 467.328 754.155 468.096C753.499 468.848 753.171 469.856 753.171 471.12C753.171 472.384 753.483 473.392 754.107 474.144C754.747 474.896 755.603 475.272 756.675 475.272C757.475 475.272 758.155 475.08 758.715 474.696C759.291 474.296 759.683 473.744 759.891 473.04H762.147C761.923 474.32 761.307 475.352 760.299 476.136C759.291 476.904 758.083 477.288 756.675 477.288C754.947 477.288 753.555 476.728 752.499 475.608C751.459 474.488 750.939 473 750.939 471.144Z" fill="black"/>
<path d="M744.363 477.288C742.635 477.288 741.227 476.72 740.139 475.584C739.067 474.448 738.531 472.968 738.531 471.144C738.531 469.304 739.059 467.808 740.115 466.656C741.187 465.504 742.571 464.928 744.267 464.928C745.931 464.928 747.267 465.456 748.275 466.512C749.283 467.568 749.787 468.968 749.787 470.712V471.552L740.715 471.576C740.795 472.808 741.147 473.76 741.771 474.432C742.411 475.088 743.291 475.416 744.411 475.416C746.203 475.416 747.299 474.728 747.699 473.352H749.811C749.523 474.616 748.907 475.592 747.963 476.28C747.019 476.952 745.819 477.288 744.363 477.288ZM744.267 466.824C743.291 466.824 742.499 467.104 741.891 467.664C741.283 468.224 740.907 469.024 740.763 470.064H747.531C747.531 469.088 747.235 468.304 746.643 467.712C746.051 467.12 745.259 466.824 744.267 466.824Z" fill="black"/>
<path d="M735.496 462.48C735.08 462.48 734.728 462.336 734.44 462.048C734.152 461.76 734.008 461.408 734.008 460.992C734.008 460.576 734.152 460.224 734.44 459.936C734.728 459.648 735.08 459.504 735.496 459.504C735.896 459.504 736.24 459.648 736.528 459.936C736.832 460.224 736.984 460.576 736.984 460.992C736.984 461.392 736.832 461.744 736.528 462.048C736.24 462.336 735.896 462.48 735.496 462.48ZM731.392 482.328L731.776 480.288C732.208 480.4 732.568 480.456 732.856 480.456C733.384 480.456 733.768 480.296 734.008 479.976C734.248 479.672 734.368 479.184 734.368 478.512V465.264H736.624V478.728C736.624 479.912 736.312 480.84 735.688 481.512C735.064 482.2 734.184 482.544 733.048 482.544C732.456 482.544 731.904 482.472 731.392 482.328Z" fill="black"/>
<path d="M721.983 475.56C720.831 474.408 720.255 472.928 720.255 471.12C720.255 469.312 720.831 467.832 721.983 466.68C723.135 465.528 724.599 464.952 726.375 464.952C728.135 464.952 729.591 465.528 730.743 466.68C731.895 467.832 732.471 469.312 732.471 471.12C732.471 472.928 731.895 474.408 730.743 475.56C729.591 476.712 728.135 477.288 726.375 477.288C724.599 477.288 723.135 476.712 721.983 475.56ZM723.591 468.12C722.887 468.888 722.535 469.888 722.535 471.12C722.535 472.352 722.887 473.352 723.591 474.12C724.311 474.888 725.239 475.272 726.375 475.272C727.511 475.272 728.431 474.888 729.135 474.12C729.855 473.336 730.215 472.336 730.215 471.12C730.215 469.904 729.855 468.912 729.135 468.144C728.431 467.36 727.511 466.968 726.375 466.968C725.239 466.968 724.311 467.352 723.591 468.12Z" fill="black"/>
<path d="M719.928 465.168V467.232H718.92C717.848 467.232 717 467.544 716.376 468.168C715.768 468.792 715.464 469.664 715.464 470.784V477H713.208V465.288H715.32L715.464 467.064C715.704 466.44 716.112 465.944 716.688 465.576C717.264 465.208 717.944 465.024 718.728 465.024C719.08 465.024 719.48 465.072 719.928 465.168Z" fill="black"/>
<path d="M699.418 482.256V465.264H701.458L701.626 467.376C702.01 466.592 702.578 465.992 703.33 465.576C704.082 465.144 704.93 464.928 705.874 464.928C707.538 464.928 708.858 465.496 709.834 466.632C710.826 467.752 711.322 469.224 711.322 471.048C711.322 472.888 710.834 474.392 709.858 475.56C708.898 476.728 707.57 477.312 705.874 477.312C704.93 477.312 704.09 477.12 703.354 476.736C702.618 476.352 702.058 475.8 701.674 475.08V482.256H699.418ZM701.698 471.144C701.698 472.36 702.026 473.352 702.682 474.12C703.354 474.888 704.258 475.272 705.394 475.272C706.53 475.272 707.426 474.888 708.082 474.12C708.738 473.352 709.066 472.36 709.066 471.144C709.066 469.912 708.738 468.912 708.082 468.144C707.426 467.376 706.53 466.992 705.394 466.992C704.258 466.992 703.354 467.376 702.682 468.144C702.026 468.896 701.698 469.896 701.698 471.144Z" fill="black"/>
<path d="M678.5 467.952H683.54V462.912H685.46V467.952H690.5V469.872H685.46V474.936H683.54V469.872H678.5V467.952Z" fill="black"/>
<path d="M670.008 477.288C668.232 477.288 666.808 476.768 665.736 475.728C664.68 474.688 664.152 473.304 664.152 471.576H666.48C666.48 472.696 666.8 473.576 667.44 474.216C668.08 474.856 668.952 475.176 670.056 475.176C671.224 475.176 672.16 474.824 672.864 474.12C673.568 473.4 673.92 472.448 673.92 471.264C673.92 470.128 673.576 469.2 672.888 468.48C672.2 467.744 671.264 467.376 670.08 467.376C669.36 467.376 668.68 467.528 668.04 467.832C667.4 468.136 666.88 468.544 666.48 469.056L664.488 468.552L666.6 459.648H675.288V461.808H668.304L667.152 466.416C668.08 465.712 669.2 465.36 670.512 465.36C672.256 465.36 673.656 465.904 674.712 466.992C675.784 468.08 676.32 469.472 676.32 471.168C676.32 472.976 675.736 474.448 674.568 475.584C673.4 476.72 671.88 477.288 670.008 477.288Z" fill="black"/>
<path d="M651.698 459.648H663.818V461.808L657.242 477H654.794L661.442 461.808H651.698V459.648Z" fill="black"/>
<path d="M1260.71 505.592H1262.87C1262.87 506.184 1263.07 506.656 1263.49 507.008C1263.92 507.344 1264.51 507.512 1265.27 507.512C1266.05 507.512 1266.66 507.36 1267.09 507.056C1267.54 506.752 1267.76 506.328 1267.76 505.784C1267.76 505.368 1267.64 505.04 1267.4 504.8C1267.16 504.544 1266.75 504.344 1266.15 504.2L1264.09 503.72C1262.04 503.224 1261.02 502.136 1261.02 500.456C1261.02 499.384 1261.43 498.528 1262.24 497.888C1263.06 497.248 1264.12 496.928 1265.43 496.928C1266.71 496.928 1267.74 497.264 1268.51 497.936C1269.29 498.592 1269.7 499.48 1269.73 500.6H1267.57C1267.54 500.008 1267.33 499.544 1266.95 499.208C1266.56 498.856 1266.03 498.68 1265.36 498.68C1264.66 498.68 1264.11 498.832 1263.73 499.136C1263.35 499.424 1263.15 499.84 1263.15 500.384C1263.15 501.168 1263.73 501.704 1264.88 501.992L1266.95 502.496C1267.97 502.736 1268.72 503.104 1269.2 503.6C1269.68 504.096 1269.92 504.776 1269.92 505.64C1269.92 506.744 1269.49 507.632 1268.63 508.304C1267.76 508.96 1266.63 509.288 1265.22 509.288C1263.84 509.288 1262.75 508.952 1261.93 508.28C1261.11 507.608 1260.71 506.712 1260.71 505.592Z" fill="black"/>
<path d="M1258.95 509H1256.69V491.336H1258.95V509Z" fill="black"/>
<path d="M1249.3 509.288C1247.57 509.288 1246.16 508.72 1245.07 507.584C1244 506.448 1243.47 504.968 1243.47 503.144C1243.47 501.304 1243.99 499.808 1245.05 498.656C1246.12 497.504 1247.51 496.928 1249.2 496.928C1250.87 496.928 1252.2 497.456 1253.21 498.512C1254.22 499.568 1254.72 500.968 1254.72 502.712V503.552L1245.65 503.576C1245.73 504.808 1246.08 505.76 1246.71 506.432C1247.35 507.088 1248.23 507.416 1249.35 507.416C1251.14 507.416 1252.23 506.728 1252.63 505.352H1254.75C1254.46 506.616 1253.84 507.592 1252.9 508.28C1251.95 508.952 1250.75 509.288 1249.3 509.288ZM1249.2 498.824C1248.23 498.824 1247.43 499.104 1246.83 499.664C1246.22 500.224 1245.84 501.024 1245.7 502.064H1252.47C1252.47 501.088 1252.17 500.304 1251.58 499.712C1250.99 499.12 1250.19 498.824 1249.2 498.824Z" fill="black"/>
<path d="M1233.28 509H1231.03V497.264H1233.07L1233.31 499.064C1233.68 498.392 1234.2 497.872 1234.89 497.504C1235.6 497.12 1236.36 496.928 1237.2 496.928C1238.7 496.928 1239.83 497.36 1240.58 498.224C1241.33 499.072 1241.71 500.272 1241.71 501.824V509H1239.45V502.328C1239.45 500.104 1238.51 498.992 1236.62 498.992C1235.58 498.992 1234.76 499.336 1234.17 500.024C1233.58 500.712 1233.28 501.632 1233.28 502.784V509Z" fill="black"/>
<path d="M1222.24 509.288C1220.99 509.288 1220.01 508.968 1219.29 508.328C1218.58 507.672 1218.23 506.808 1218.23 505.736C1218.23 504.664 1218.61 503.808 1219.36 503.168C1220.13 502.512 1221.21 502.128 1222.6 502.016L1226.3 501.728V501.392C1226.3 499.616 1225.38 498.728 1223.54 498.728C1222.59 498.728 1221.86 498.928 1221.33 499.328C1220.82 499.728 1220.56 500.28 1220.56 500.984H1218.59C1218.59 499.768 1219.05 498.792 1219.96 498.056C1220.89 497.304 1222.11 496.928 1223.63 496.928C1225.14 496.928 1226.32 497.328 1227.18 498.128C1228.06 498.928 1228.5 500.096 1228.5 501.632V509H1226.58L1226.34 507.104C1226.04 507.776 1225.51 508.312 1224.76 508.712C1224.02 509.096 1223.18 509.288 1222.24 509.288ZM1222.89 507.536C1223.96 507.536 1224.8 507.216 1225.41 506.576C1226.02 505.92 1226.32 505.04 1226.32 503.936V503.312L1223.32 503.552C1221.45 503.728 1220.51 504.432 1220.51 505.664C1220.51 506.272 1220.72 506.736 1221.14 507.056C1221.55 507.376 1222.14 507.536 1222.89 507.536Z" fill="black"/>
<path d="M1205.02 514.256V497.264H1207.06L1207.23 499.376C1207.61 498.592 1208.18 497.992 1208.93 497.576C1209.68 497.144 1210.53 496.928 1211.47 496.928C1213.14 496.928 1214.46 497.496 1215.43 498.632C1216.43 499.752 1216.92 501.224 1216.92 503.048C1216.92 504.888 1216.43 506.392 1215.46 507.56C1214.5 508.728 1213.17 509.312 1211.47 509.312C1210.53 509.312 1209.69 509.12 1208.95 508.736C1208.22 508.352 1207.66 507.8 1207.27 507.08V514.256H1205.02ZM1207.3 503.144C1207.3 504.36 1207.63 505.352 1208.28 506.12C1208.95 506.888 1209.86 507.272 1210.99 507.272C1212.13 507.272 1213.03 506.888 1213.68 506.12C1214.34 505.352 1214.67 504.36 1214.67 503.144C1214.67 501.912 1214.34 500.912 1213.68 500.144C1213.03 499.376 1212.13 498.992 1210.99 498.992C1209.86 498.992 1208.95 499.376 1208.28 500.144C1207.63 500.896 1207.3 501.896 1207.3 503.144Z" fill="black"/>
<path d="M1189.97 509.288C1188.29 509.288 1186.95 508.728 1185.96 507.608C1184.98 506.472 1184.5 504.992 1184.5 503.168C1184.5 501.328 1184.99 499.832 1185.98 498.68C1186.99 497.512 1188.35 496.928 1190.06 496.928C1190.98 496.928 1191.78 497.12 1192.49 497.504C1193.21 497.888 1193.77 498.44 1194.17 499.16V491.336H1196.4V509H1194.38L1194.19 506.864C1193.81 507.648 1193.25 508.248 1192.51 508.664C1191.78 509.08 1190.93 509.288 1189.97 509.288ZM1187.74 506.096C1188.39 506.864 1189.29 507.248 1190.42 507.248C1191.56 507.248 1192.46 506.864 1193.14 506.096C1193.81 505.328 1194.14 504.328 1194.14 503.096C1194.14 501.88 1193.81 500.888 1193.14 500.12C1192.46 499.352 1191.56 498.968 1190.42 498.968C1189.29 498.968 1188.39 499.352 1187.74 500.12C1187.1 500.872 1186.78 501.864 1186.78 503.096C1186.78 504.328 1187.1 505.328 1187.74 506.096Z" fill="black"/>
<path d="M1174.32 509H1172.06V497.264H1174.1L1174.34 499.064C1174.71 498.392 1175.24 497.872 1175.92 497.504C1176.63 497.12 1177.4 496.928 1178.23 496.928C1179.73 496.928 1180.86 497.36 1181.61 498.224C1182.36 499.072 1182.74 500.272 1182.74 501.824V509H1180.48V502.328C1180.48 500.104 1179.54 498.992 1177.65 498.992C1176.61 498.992 1175.8 499.336 1175.2 500.024C1174.61 500.712 1174.32 501.632 1174.32 502.784V509Z" fill="black"/>
<path d="M1163.27 509.288C1162.02 509.288 1161.04 508.968 1160.32 508.328C1159.62 507.672 1159.26 506.808 1159.26 505.736C1159.26 504.664 1159.64 503.808 1160.39 503.168C1161.16 502.512 1162.24 502.128 1163.63 502.016L1167.33 501.728V501.392C1167.33 499.616 1166.41 498.728 1164.57 498.728C1163.62 498.728 1162.89 498.928 1162.36 499.328C1161.85 499.728 1161.59 500.28 1161.59 500.984H1159.62C1159.62 499.768 1160.08 498.792 1160.99 498.056C1161.92 497.304 1163.14 496.928 1164.66 496.928C1166.17 496.928 1167.35 497.328 1168.22 498.128C1169.1 498.928 1169.54 500.096 1169.54 501.632V509H1167.62L1167.38 507.104C1167.07 507.776 1166.54 508.312 1165.79 508.712C1165.06 509.096 1164.22 509.288 1163.27 509.288ZM1163.92 507.536C1164.99 507.536 1165.83 507.216 1166.44 506.576C1167.05 505.92 1167.35 505.04 1167.35 503.936V503.312L1164.35 503.552C1162.48 503.728 1161.54 504.432 1161.54 505.664C1161.54 506.272 1161.75 506.736 1162.17 507.056C1162.58 507.376 1163.17 507.536 1163.92 507.536Z" fill="black"/>
<path d="M1270.78 473.592H1272.94C1272.94 474.184 1273.15 474.656 1273.57 475.008C1274 475.344 1274.59 475.512 1275.34 475.512C1276.13 475.512 1276.74 475.36 1277.17 475.056C1277.62 474.752 1277.84 474.328 1277.84 473.784C1277.84 473.368 1277.72 473.04 1277.48 472.8C1277.24 472.544 1276.82 472.344 1276.23 472.2L1274.17 471.72C1272.12 471.224 1271.1 470.136 1271.1 468.456C1271.1 467.384 1271.5 466.528 1272.32 465.888C1273.14 465.248 1274.2 464.928 1275.51 464.928C1276.79 464.928 1277.82 465.264 1278.58 465.936C1279.37 466.592 1279.78 467.48 1279.81 468.6H1277.65C1277.62 468.008 1277.41 467.544 1277.02 467.208C1276.64 466.856 1276.11 466.68 1275.44 466.68C1274.74 466.68 1274.19 466.832 1273.81 467.136C1273.42 467.424 1273.23 467.84 1273.23 468.384C1273.23 469.168 1273.81 469.704 1274.96 469.992L1277.02 470.496C1278.05 470.736 1278.8 471.104 1279.28 471.6C1279.76 472.096 1280 472.776 1280 473.64C1280 474.744 1279.57 475.632 1278.7 476.304C1277.84 476.96 1276.7 477.288 1275.3 477.288C1273.92 477.288 1272.82 476.952 1272.01 476.28C1271.19 475.608 1270.78 474.712 1270.78 473.592Z" fill="black"/>
<path d="M1257.95 482.256V465.264H1259.99L1260.16 467.376C1260.55 466.592 1261.11 465.992 1261.87 465.576C1262.62 465.144 1263.47 464.928 1264.41 464.928C1266.07 464.928 1267.39 465.496 1268.37 466.632C1269.36 467.752 1269.86 469.224 1269.86 471.048C1269.86 472.888 1269.37 474.392 1268.39 475.56C1267.43 476.728 1266.11 477.312 1264.41 477.312C1263.47 477.312 1262.63 477.12 1261.89 476.736C1261.15 476.352 1260.59 475.8 1260.21 475.08V482.256H1257.95ZM1260.23 471.144C1260.23 472.36 1260.56 473.352 1261.22 474.12C1261.89 474.888 1262.79 475.272 1263.93 475.272C1265.07 475.272 1265.96 474.888 1266.62 474.12C1267.27 473.352 1267.6 472.36 1267.6 471.144C1267.6 469.912 1267.27 468.912 1266.62 468.144C1265.96 467.376 1265.07 466.992 1263.93 466.992C1262.79 466.992 1261.89 467.376 1261.22 468.144C1260.56 468.896 1260.23 469.896 1260.23 471.144Z" fill="black"/>
<path d="M1245.57 475.56C1244.42 474.408 1243.84 472.928 1243.84 471.12C1243.84 469.312 1244.42 467.832 1245.57 466.68C1246.72 465.528 1248.18 464.952 1249.96 464.952C1251.72 464.952 1253.18 465.528 1254.33 466.68C1255.48 467.832 1256.06 469.312 1256.06 471.12C1256.06 472.928 1255.48 474.408 1254.33 475.56C1253.18 476.712 1251.72 477.288 1249.96 477.288C1248.18 477.288 1246.72 476.712 1245.57 475.56ZM1247.18 468.12C1246.47 468.888 1246.12 469.888 1246.12 471.12C1246.12 472.352 1246.47 473.352 1247.18 474.12C1247.9 474.888 1248.82 475.272 1249.96 475.272C1251.1 475.272 1252.02 474.888 1252.72 474.12C1253.44 473.336 1253.8 472.336 1253.8 471.12C1253.8 469.904 1253.44 468.912 1252.72 468.144C1252.02 467.36 1251.1 466.968 1249.96 466.968C1248.82 466.968 1247.9 467.352 1247.18 468.12Z" fill="black"/>
<path d="M1233.66 476.976H1231.4V459.336H1233.66V467.064C1234.04 466.408 1234.58 465.888 1235.27 465.504C1235.96 465.12 1236.75 464.928 1237.64 464.928C1239.12 464.928 1240.22 465.36 1240.96 466.224C1241.71 467.088 1242.08 468.288 1242.08 469.824V477H1239.83V470.328C1239.83 468.104 1238.89 466.992 1237.02 466.992C1235.96 466.992 1235.14 467.336 1234.55 468.024C1233.96 468.696 1233.66 469.552 1233.66 470.592V476.976Z" fill="black"/>
<path d="M1220.29 473.592H1222.45C1222.45 474.184 1222.65 474.656 1223.07 475.008C1223.5 475.344 1224.09 475.512 1224.85 475.512C1225.63 475.512 1226.24 475.36 1226.67 475.056C1227.12 474.752 1227.34 474.328 1227.34 473.784C1227.34 473.368 1227.22 473.04 1226.98 472.8C1226.74 472.544 1226.33 472.344 1225.73 472.2L1223.67 471.72C1221.62 471.224 1220.6 470.136 1220.6 468.456C1220.6 467.384 1221.01 466.528 1221.82 465.888C1222.64 465.248 1223.7 464.928 1225.01 464.928C1226.29 464.928 1227.32 465.264 1228.09 465.936C1228.87 466.592 1229.28 467.48 1229.31 468.6H1227.15C1227.12 468.008 1226.91 467.544 1226.53 467.208C1226.14 466.856 1225.61 466.68 1224.94 466.68C1224.24 466.68 1223.69 466.832 1223.31 467.136C1222.93 467.424 1222.73 467.84 1222.73 468.384C1222.73 469.168 1223.31 469.704 1224.46 469.992L1226.53 470.496C1227.55 470.736 1228.3 471.104 1228.78 471.6C1229.26 472.096 1229.5 472.776 1229.5 473.64C1229.5 474.744 1229.07 475.632 1228.21 476.304C1227.34 476.96 1226.21 477.288 1224.8 477.288C1223.42 477.288 1222.33 476.952 1221.51 476.28C1220.69 475.608 1220.29 474.712 1220.29 473.592Z" fill="black"/>
<path d="M1211.89 477H1209.64V459.336H1211.89V470.784L1217.1 465.264H1219.93L1215.44 469.944L1219.91 477H1217.32L1213.88 471.576L1211.89 473.664V477Z" fill="black"/>
<path d="M1208.07 465.168V467.232H1207.06C1205.99 467.232 1205.14 467.544 1204.52 468.168C1203.91 468.792 1203.61 469.664 1203.61 470.784V477H1201.35V465.288H1203.46L1203.61 467.064C1203.85 466.44 1204.26 465.944 1204.83 465.576C1205.41 465.208 1206.09 465.024 1206.87 465.024C1207.22 465.024 1207.62 465.072 1208.07 465.168Z" fill="black"/>
<path d="M1188.97 475.56C1187.82 474.408 1187.24 472.928 1187.24 471.12C1187.24 469.312 1187.82 467.832 1188.97 466.68C1190.12 465.528 1191.58 464.952 1193.36 464.952C1195.12 464.952 1196.58 465.528 1197.73 466.68C1198.88 467.832 1199.46 469.312 1199.46 471.12C1199.46 472.928 1198.88 474.408 1197.73 475.56C1196.58 476.712 1195.12 477.288 1193.36 477.288C1191.58 477.288 1190.12 476.712 1188.97 475.56ZM1190.58 468.12C1189.87 468.888 1189.52 469.888 1189.52 471.12C1189.52 472.352 1189.87 473.352 1190.58 474.12C1191.3 474.888 1192.22 475.272 1193.36 475.272C1194.5 475.272 1195.42 474.888 1196.12 474.12C1196.84 473.336 1197.2 472.336 1197.2 471.12C1197.2 469.904 1196.84 468.912 1196.12 468.144C1195.42 467.36 1194.5 466.968 1193.36 466.968C1192.22 466.968 1191.3 467.352 1190.58 468.12Z" fill="black"/>
<path d="M1173.24 477L1169.4 465.264H1171.73L1173.68 471.36C1173.96 472.304 1174.2 473.232 1174.4 474.144C1174.54 473.344 1174.8 472.416 1175.16 471.36L1177.13 465.264H1179.44L1181.38 471.36C1181.65 472.192 1181.91 473.12 1182.15 474.144C1182.34 473.248 1182.59 472.32 1182.89 471.36L1184.86 465.264H1187.21L1183.2 477H1181.07L1179.03 470.712C1178.66 469.592 1178.41 468.68 1178.28 467.976C1178.17 468.488 1177.92 469.408 1177.52 470.736L1175.48 477H1173.24Z" fill="black"/>
<path d="M1149.86 472.176C1149.86 471.136 1150.14 470.224 1150.7 469.44C1151.27 468.64 1152.04 468.064 1153 467.712C1151.32 466.992 1150.48 465.72 1150.48 463.896C1150.48 462.536 1151.01 461.44 1152.07 460.608C1153.14 459.76 1154.54 459.336 1156.27 459.336C1157.98 459.336 1159.35 459.76 1160.39 460.608C1161.45 461.456 1161.98 462.56 1161.98 463.92C1161.98 464.816 1161.75 465.592 1161.31 466.248C1160.87 466.904 1160.25 467.392 1159.43 467.712C1160.41 468.032 1161.19 468.592 1161.76 469.392C1162.34 470.192 1162.63 471.128 1162.63 472.2C1162.63 473.72 1162.04 474.952 1160.87 475.896C1159.71 476.824 1158.16 477.288 1156.24 477.288C1154.31 477.288 1152.75 476.824 1151.59 475.896C1150.43 474.952 1149.86 473.712 1149.86 472.176ZM1152.64 464.04C1152.64 464.888 1152.96 465.568 1153.6 466.08C1154.26 466.592 1155.13 466.848 1156.22 466.848C1157.31 466.848 1158.17 466.6 1158.81 466.104C1159.45 465.608 1159.77 464.936 1159.77 464.088C1159.77 463.256 1159.45 462.6 1158.81 462.12C1158.17 461.624 1157.31 461.376 1156.22 461.376C1155.15 461.376 1154.28 461.624 1153.63 462.12C1152.97 462.6 1152.64 463.24 1152.64 464.04ZM1152.16 472.008C1152.16 472.984 1152.53 473.76 1153.27 474.336C1154.02 474.912 1155.01 475.2 1156.24 475.2C1157.47 475.2 1158.46 474.912 1159.19 474.336C1159.93 473.76 1160.3 472.984 1160.3 472.008C1160.3 471.048 1159.93 470.288 1159.19 469.728C1158.46 469.152 1157.47 468.864 1156.22 468.864C1154.99 468.864 1154 469.152 1153.27 469.728C1152.53 470.288 1152.16 471.048 1152.16 472.008Z" fill="black"/>
<path d="M1161 337H1270.71V378.714H1161V337Z" fill="url(#paint3_linear_3005_108)"/>
<path d="M1250.71 415.878C1253.33 416.129 1255.97 418.303 1258.19 420.811C1261.19 424.199 1258.4 429 1253.88 429H1247.13C1242.7 429 1239.89 424.376 1242.68 420.942C1245 418.074 1247.87 415.605 1250.71 415.878Z" fill="url(#paint4_linear_3005_108)"/>
<path d="M1215.86 415.878C1218.48 416.129 1221.12 418.303 1223.34 420.811C1226.33 424.199 1223.55 429 1219.02 429H1212.27C1207.85 429 1205.03 424.376 1207.82 420.942C1210.15 418.074 1213.01 415.605 1215.86 415.878Z" fill="url(#paint5_linear_3005_108)"/>
<path d="M1181 415.878C1183.62 416.129 1186.26 418.303 1188.48 420.811C1191.48 424.199 1188.69 429 1184.17 429H1177.41C1172.99 429 1170.17 424.376 1172.96 420.942C1175.29 418.074 1178.16 415.605 1181 415.878Z" fill="url(#paint6_linear_3005_108)"/>
<path d="M1215.86 366.206C1217.52 366.369 1219.2 367.52 1220.71 369.013C1223.9 372.177 1221.06 377.012 1216.56 377.012H1214.74C1210.34 377.012 1207.46 372.354 1210.45 369.126C1212.1 367.347 1213.98 366.022 1215.86 366.206Z" fill="url(#paint7_linear_3005_108)"/>
<path d="M1222.5 362.499C1222.5 366.167 1219.52 369.141 1215.86 369.141C1212.19 369.141 1209.21 366.167 1209.21 362.499C1209.21 358.831 1212.19 355.857 1215.86 355.857C1219.52 355.857 1222.5 358.831 1222.5 362.499Z" fill="url(#paint8_linear_3005_108)"/>
<path d="M1205 373H1226.71V399.857H1205V373Z" fill="url(#paint9_linear_3005_108)"/>
<g filter="url(#filter5_d_3005_108)">
<path d="M1189 411C1189 415.576 1185.42 419.286 1181 419.286C1176.58 419.286 1173 415.576 1173 411C1173 406.424 1176.58 402.714 1181 402.714C1185.42 402.714 1189 406.424 1189 411Z" fill="url(#paint10_linear_3005_108)"/>
</g>
<g filter="url(#filter6_d_3005_108)">
<path d="M1223.86 411C1223.86 415.576 1220.28 419.286 1215.86 419.286C1211.44 419.286 1207.86 415.576 1207.86 411C1207.86 406.424 1211.44 402.714 1215.86 402.714C1220.28 402.714 1223.86 406.424 1223.86 411Z" fill="url(#paint11_linear_3005_108)"/>
</g>
<g filter="url(#filter7_d_3005_108)">
<path d="M1258.71 411C1258.71 415.576 1255.13 419.286 1250.71 419.286C1246.3 419.286 1242.71 415.576 1242.71 411C1242.71 406.424 1246.3 402.714 1250.71 402.714C1255.13 402.714 1258.71 406.424 1258.71 411Z" fill="url(#paint12_linear_3005_108)"/>
</g>
<path d="M1000.51 505.592H1002.67C1002.67 506.792 1003.58 507.512 1005.07 507.512C1006.65 507.512 1007.56 506.864 1007.56 505.784C1007.56 504.992 1007.18 504.512 1005.96 504.2L1003.89 503.72C1001.8 503.216 1000.82 502.184 1000.82 500.456C1000.82 498.296 1002.64 496.928 1005.24 496.928C1007.8 496.928 1009.48 498.368 1009.53 500.6H1007.37C1007.32 499.424 1006.53 498.68 1005.16 498.68C1003.75 498.68 1002.96 499.304 1002.96 500.384C1002.96 501.176 1003.53 501.704 1004.68 501.992L1006.75 502.496C1008.74 502.976 1009.72 503.888 1009.72 505.64C1009.72 507.872 1007.8 509.288 1005.02 509.288C1002.26 509.288 1000.51 507.824 1000.51 505.592Z" fill="black"/>
<path d="M999.953 497.168V499.232H998.945C996.809 499.232 995.489 500.528 995.489 502.784V509H993.233V497.288H995.345L995.489 499.064C995.969 497.84 997.145 497.024 998.753 497.024C999.161 497.024 999.497 497.072 999.953 497.168Z" fill="black"/>
<path d="M985.889 509.288C982.433 509.288 980.057 506.792 980.057 503.144C980.057 499.472 982.385 496.928 985.793 496.928C989.129 496.928 991.313 499.232 991.313 502.712V503.552L982.241 503.576C982.409 506.048 983.705 507.416 985.937 507.416C987.689 507.416 988.841 506.696 989.225 505.352H991.337C990.761 507.872 988.793 509.288 985.889 509.288ZM985.793 498.824C983.825 498.824 982.577 500 982.289 502.064H989.057C989.057 500.12 987.785 498.824 985.793 498.824Z" fill="black"/>
<path d="M971.987 509H969.731V491.336H971.987V502.784L977.195 497.264H980.027L975.539 501.944L980.003 509H977.411L973.979 503.576L971.987 505.664V509Z" fill="black"/>
<path d="M956.694 503.144C956.694 499.472 959.022 496.928 962.454 496.928C965.406 496.928 967.47 498.608 967.878 501.224H965.622C965.238 499.736 964.038 498.944 962.526 498.944C960.39 498.944 958.926 500.576 958.926 503.12C958.926 505.64 960.294 507.272 962.43 507.272C964.038 507.272 965.238 506.432 965.646 505.04H967.902C967.446 507.584 965.262 509.288 962.43 509.288C958.974 509.288 956.694 506.84 956.694 503.144Z" fill="black"/>
<path d="M948.674 509.288C946.154 509.288 944.666 507.872 944.666 505.736C944.666 503.576 946.274 502.232 949.034 502.016L952.73 501.728V501.392C952.73 499.424 951.554 498.728 949.97 498.728C948.074 498.728 946.994 499.568 946.994 500.984H945.026C945.026 498.536 947.042 496.928 950.066 496.928C952.97 496.928 954.938 498.464 954.938 501.632V509H953.018L952.778 507.104C952.178 508.448 950.57 509.288 948.674 509.288ZM949.322 507.536C951.458 507.536 952.754 506.144 952.754 503.936V503.312L949.754 503.552C947.762 503.744 946.946 504.512 946.946 505.664C946.946 506.912 947.858 507.536 949.322 507.536Z" fill="black"/>
<path d="M934.294 508.976H932.038V491.336H934.294V499.064C935.038 497.792 936.454 496.928 938.278 496.928C941.278 496.928 942.718 498.824 942.718 501.824V509H940.462V502.328C940.462 499.952 939.334 498.992 937.654 498.992C935.47 498.992 934.294 500.576 934.294 502.592V508.976Z" fill="black"/>
<path d="M987.329 467.952H992.369V462.912H994.289V467.952H999.329V469.872H994.289V474.936H992.369V469.872H987.329V467.952Z" fill="black"/>
<path d="M970.544 468.336C970.544 462.96 973.328 459.312 977.696 459.312C982.04 459.312 984.824 462.96 984.824 468.336C984.824 473.736 982.16 477.312 977.696 477.312C973.208 477.312 970.544 473.736 970.544 468.336ZM972.872 468.336C972.872 472.608 974.648 475.2 977.696 475.2C980.744 475.2 982.496 472.608 982.496 468.336C982.496 464.016 980.744 461.424 977.696 461.424C974.648 461.424 972.872 464.016 972.872 468.336Z" fill="black"/>
<path d="M954.503 468.336C954.503 462.96 957.287 459.312 961.655 459.312C965.999 459.312 968.783 462.96 968.783 468.336C968.783 473.736 966.119 477.312 961.655 477.312C957.167 477.312 954.503 473.736 954.503 468.336ZM956.831 468.336C956.831 472.608 958.607 475.2 961.655 475.2C964.703 475.2 966.455 472.608 966.455 468.336C966.455 464.016 964.703 461.424 961.655 461.424C958.607 461.424 956.831 464.016 956.831 468.336Z" fill="black"/>
<path d="M946.756 477.288C943.204 477.288 940.9 475.032 940.9 471.576H943.228C943.228 473.808 944.596 475.176 946.804 475.176C949.156 475.176 950.668 473.616 950.668 471.264C950.668 469.032 949.252 467.376 946.828 467.376C945.364 467.376 944.02 468.072 943.228 469.056L941.236 468.552L943.348 459.648H952.036V461.808H945.052L943.9 466.416C944.812 465.72 945.964 465.36 947.26 465.36C950.788 465.36 953.068 467.832 953.068 471.168C953.068 474.768 950.5 477.288 946.756 477.288Z" fill="black"/>
<path d="M1530.18 399.076L1556.63 408.666L1527.92 461.211L1514.89 455.409L1530.18 399.076Z" fill="url(#paint13_linear_3005_108)"/>
<path d="M1460.99 397.146L1489.12 396.902L1480.47 446.492L1466.23 445.77L1460.99 397.146Z" fill="url(#paint14_linear_3005_108)"/>
<path d="M1599.24 465.297L1611.71 490.519L1563.3 504.319L1557.75 491.187L1599.24 465.297Z" fill="url(#paint15_linear_3005_108)"/>
<g filter="url(#filter8_d_3005_108)">
<path d="M1412 635L1384 635L1384 113L1412 113L1412 635Z" fill="url(#paint16_linear_3005_108)"/>
<path d="M1380 281H1417V383H1380V281Z" fill="url(#paint17_linear_3005_108)"/>
<path d="M1380 113H1417V215H1380V113Z" fill="url(#paint18_linear_3005_108)"/>
<path d="M1380 533H1417V635H1380V533Z" fill="url(#paint19_linear_3005_108)"/>
<path d="M1413 530V533H1384V530H1413Z" fill="#5C5C5C"/>
<path d="M1370 343H1428V383H1370V343Z" fill="url(#paint20_linear_3005_108)"/>
<path d="M1429 380V383H1370.5V380H1429Z" fill="#5C5C5C"/>
<path d="M1417 340V343H1380V340H1417Z" fill="#9E9E9E"/>
<path d="M1413 278V281H1384V278H1413Z" fill="#9E9E9E"/>
<path d="M1417 212V215H1380V212H1417Z" fill="#5C5C5C"/>
</g>
<g filter="url(#filter9_d_3005_108)">
<path d="M297 635L269 635L269 113L297 113L297 635Z" fill="url(#paint21_linear_3005_108)"/>
<path d="M265 281H302V383H265V281Z" fill="url(#paint22_linear_3005_108)"/>
<path d="M265 113H302V215H265V113Z" fill="url(#paint23_linear_3005_108)"/>
<path d="M265 533H302V635H265V533Z" fill="url(#paint24_linear_3005_108)"/>
<path d="M298 530V533H269V530H298Z" fill="#5C5C5C"/>
<path d="M255 343H313V383H255V343Z" fill="url(#paint25_linear_3005_108)"/>
<path d="M314 380V383H255.5V380H314Z" fill="#5C5C5C"/>
<path d="M302 340V343H265V340H302Z" fill="#9E9E9E"/>
<path d="M298 278V281H269V278H298Z" fill="#9E9E9E"/>
<path d="M302 212V215H265V212H302Z" fill="#5C5C5C"/>
</g>
<path d="M1363.19 499.468C1373.74 530.459 1385 546.286 1391.14 540.125C1397.53 525.396 1390.74 473.374 1430.1 445.259C1417.02 523.358 1438.15 538.76 1454.67 526.573C1468.22 490.998 1484.74 488.632 1508.87 469.822C1474.15 546.901 1502.95 537.584 1502.95 546.901C1515.65 518.95 1538.52 538.678 1540.21 509.632C1550.38 538.431 1519.89 557.913 1523.27 583.323C1531.5 607.388 1572.93 624.169 1560.54 637.533C1556.68 641.696 1557.71 641.121 1532.59 650.238C1532.59 701.06 1508.87 718 1448.74 718C1374.2 718 1355.56 682.425 1363.19 651.932C1356.41 646.85 1331 646.85 1331 631.604C1331 616.357 1361.9 603.252 1370.81 579.088C1372.96 574.194 1358.63 567.09 1363.19 499.468Z" fill="url(#paint26_linear_3005_108)"/>
<g filter="url(#filter10_d_3005_108)">
<path d="M1498.73 596.012C1498.73 610.046 1491.14 621.423 1481.79 621.423C1472.43 621.423 1464.85 610.046 1464.85 596.012C1464.85 581.979 1472.43 570.602 1481.79 570.602C1491.14 570.602 1498.73 581.979 1498.73 596.012Z" fill="white"/>
</g>
<g filter="url(#filter11_d_3005_108)">
<path d="M1428.97 596.955C1428.97 610.989 1421.38 622.366 1412.03 622.366C1402.67 622.366 1395.09 610.989 1395.09 596.955C1395.09 582.921 1402.67 571.544 1412.03 571.544C1421.38 571.544 1428.97 582.921 1428.97 596.955Z" fill="white"/>
</g>
<path fill-rule="evenodd" clip-rule="evenodd" d="M980.964 429.47C995.045 425.636 1014.77 407.069 977.805 361.614C972.326 356.415 962.555 343.214 967.306 332C958.22 341.246 945.267 365.385 961.049 378.099C966.916 382.827 972.334 388.009 976.653 393.341C975.574 399.45 970.454 402.768 970.454 402.768C970.454 402.768 944.298 390.794 944.298 368.429C942.886 370.375 935.784 385.738 936.038 389.379C936.356 393.932 949.007 406.255 954.675 409.568C962.758 414.291 965.477 417.782 965.477 417.782C970.386 423.708 967.448 431.845 966.069 433.64C965.686 433.667 965.475 433.685 965.477 433.715C965.496 434.137 965.738 434.072 966.069 433.64C966.132 433.636 966.2 433.631 966.272 433.627C968.577 433.47 975.453 433.002 980.964 429.47ZM986.216 411.883C984.625 409.343 982.389 406.735 979.734 405.599C980.058 405.253 981.231 403.864 982.646 402.17C984.414 405.436 985.651 408.696 986.216 411.883ZM961.862 432.542C934.065 431.835 932.271 406.505 934.849 393.929C934.849 393.929 942.788 406.996 955.882 414.955C968.977 422.914 961.862 432.542 961.862 432.542Z" fill="url(#paint27_linear_3005_108)"/>
<g filter="url(#filter12_d_3005_108)">
<path d="M660 355.067C660 340.118 672.118 328 687.067 328H744.358C759.306 328 771.425 340.118 771.425 355.067V398.933C771.425 413.882 759.306 426 744.358 426H687.067C672.118 426 660 413.882 660 398.933V355.067Z" fill="url(#paint28_linear_3005_108)"/>
</g>
<path d="M660 353.507C660 339.42 671.42 328 685.507 328H745.918C760.005 328 771.425 339.42 771.425 353.507V353.507H660V353.507Z" fill="url(#paint29_linear_3005_108)"/>
<path d="M750.617 343.774C750.617 345.442 749.264 346.795 747.596 346.795C745.928 346.795 744.575 345.442 744.575 343.774C744.575 342.106 745.928 340.753 747.596 340.753C749.264 340.753 750.617 342.106 750.617 343.774Z" fill="white"/>
<path d="M750.617 343.774C750.617 345.442 749.264 346.795 747.596 346.795C745.928 346.795 744.575 345.442 744.575 343.774C744.575 342.106 745.928 340.753 747.596 340.753C749.264 340.753 750.617 342.106 750.617 343.774Z" fill="white"/>
<path d="M750.617 343.774C750.617 345.442 749.264 346.795 747.596 346.795C745.928 346.795 744.575 345.442 744.575 343.774C744.575 342.106 745.928 340.753 747.596 340.753C749.264 340.753 750.617 342.106 750.617 343.774Z" fill="white"/>
<path d="M760.014 343.774C760.014 345.442 758.661 346.795 756.993 346.795C755.325 346.795 753.973 345.442 753.973 343.774C753.973 342.106 755.325 340.753 756.993 340.753C758.661 340.753 760.014 342.106 760.014 343.774Z" fill="white"/>
<path d="M760.014 343.774C760.014 345.442 758.661 346.795 756.993 346.795C755.325 346.795 753.973 345.442 753.973 343.774C753.973 342.106 755.325 340.753 756.993 340.753C758.661 340.753 760.014 342.106 760.014 343.774Z" fill="white"/>
<path d="M760.014 343.774C760.014 345.442 758.661 346.795 756.993 346.795C755.325 346.795 753.973 345.442 753.973 343.774C753.973 342.106 755.325 340.753 756.993 340.753C758.661 340.753 760.014 342.106 760.014 343.774Z" fill="white"/>
<g filter="url(#filter13_d_3005_108)">
<path d="M716.559 367.71C717.241 365.494 719.591 364.249 721.808 364.931C724.025 365.613 725.27 367.963 724.588 370.18L714.468 403.07L714.399 403.276C713.638 405.363 711.366 406.51 709.219 405.85C707.002 405.168 705.756 402.817 706.438 400.6L716.559 367.71Z" fill="url(#paint30_linear_3005_108)"/>
<path d="M695.238 372.488C697.074 371.071 699.712 371.411 701.128 373.247C702.545 375.084 702.205 377.721 700.368 379.138L691.897 385.673L702.83 394.646C704.623 396.117 704.883 398.763 703.412 400.556C701.94 402.349 699.294 402.61 697.501 401.138L682.489 388.818C681.5 388.006 680.934 386.788 680.954 385.508C680.973 384.229 681.575 383.028 682.588 382.246L695.238 372.488Z" fill="url(#paint31_linear_3005_108)"/>
<path d="M733.657 372.154C731.837 370.717 729.196 371.028 727.759 372.848C726.322 374.669 726.632 377.31 728.452 378.748L737.941 386.238L728.507 393.437L728.339 393.573C726.643 395.009 726.353 397.537 727.717 399.324C729.124 401.167 731.76 401.521 733.603 400.114L747.337 389.633C748.368 388.846 748.978 387.626 748.989 386.329C749 385.032 748.411 383.802 747.392 382.998L733.657 372.154Z" fill="url(#paint32_linear_3005_108)"/>
</g>
<g filter="url(#filter14_d_3005_108)">
<path d="M496.374 372.064C493.741 364.502 489.903 357.499 485.033 351.372C476.605 340.817 465.523 334 456.8 334C456.281 334 455.77 334.129 455.304 334.377C454.838 334.624 454.431 334.983 454.114 335.427C453.796 335.871 453.577 336.387 453.472 336.937C453.368 337.487 453.381 338.055 453.511 338.598C456.458 350.783 450.349 360.916 443.882 371.641C438.525 380.525 433 389.7 433 400.214C433 420.497 448.253 437 467 437C485.747 437 501 420.497 501 400.214C501 390.259 499.445 380.789 496.374 372.064ZM473.87 422.904C471.675 425.433 468.923 425.964 467 425.964C465.077 425.964 462.325 425.433 460.13 422.904C457.935 420.375 456.8 416.363 456.8 411.25C456.8 405.47 458.674 401.07 460.485 396.816C461.537 394.347 462.61 391.834 463.247 389.144C463.315 388.851 463.448 388.581 463.635 388.358C463.822 388.134 464.057 387.963 464.319 387.861C464.581 387.758 464.863 387.727 465.139 387.77C465.415 387.813 465.677 387.929 465.901 388.107C467.845 389.734 469.573 391.642 471.038 393.777C474.899 399.295 477.2 405.829 477.2 411.25C477.2 416.363 476.048 420.394 473.87 422.904Z" fill="url(#paint33_linear_3005_108)"/>
</g>
</g>
</g>
<defs>
<filter id="filter0_d_3005_108" x="255.1" y="198.1" width="1158.8" height="448.8" filterUnits="userSpaceOnUse" color-interpolation-filters="sRGB">
<feFlood flood-opacity="0" result="BackgroundImageFix"/>
<feColorMatrix in="SourceAlpha" type="matrix" values="0 0 0 0 0 0 0 0 0 0 0 0 0 0 0 0 0 0 127 0" result="hardAlpha"/>
<feOffset dy="-4"/>
<feGaussianBlur stdDeviation="14.95"/>
<feComposite in2="hardAlpha" operator="out"/>
<feColorMatrix type="matrix" values="0 0 0 0 0 0 0 0 0 0 0 0 0 0 0 0 0 0 0.19 0"/>
<feBlend mode="normal" in2="BackgroundImageFix" result="effect1_dropShadow_3005_108"/>
<feBlend mode="normal" in="SourceGraphic" in2="effect1_dropShadow_3005_108" result="shape"/>
</filter>
<filter id="filter1_d_3005_108" x="345.6" y="250.6" width="242.8" height="369.8" filterUnits="userSpaceOnUse" color-interpolation-filters="sRGB">
<feFlood flood-opacity="0" result="BackgroundImageFix"/>
<feColorMatrix in="SourceAlpha" type="matrix" values="0 0 0 0 0 0 0 0 0 0 0 0 0 0 0 0 0 0 127 0" result="hardAlpha"/>
<feOffset dy="4"/>
<feGaussianBlur stdDeviation="3.7"/>
<feComposite in2="hardAlpha" operator="out"/>
<feColorMatrix type="matrix" values="0 0 0 0 0 0 0 0 0 0 0 0 0 0 0 0 0 0 0.17 0"/>
<feBlend mode="normal" in2="BackgroundImageFix" result="effect1_dropShadow_3005_108"/>
<feBlend mode="normal" in="SourceGraphic" in2="effect1_dropShadow_3005_108" result="shape"/>
</filter>
<filter id="filter2_d_3005_108" x="845.6" y="251.6" width="242.8" height="369.8" filterUnits="userSpaceOnUse" color-interpolation-filters="sRGB">
<feFlood flood-opacity="0" result="BackgroundImageFix"/>
<feColorMatrix in="SourceAlpha" type="matrix" values="0 0 0 0 0 0 0 0 0 0 0 0 0 0 0 0 0 0 127 0" result="hardAlpha"/>
<feOffset dy="4"/>
<feGaussianBlur stdDeviation="3.7"/>
<feComposite in2="hardAlpha" operator="out"/>
<feColorMatrix type="matrix" values="0 0 0 0 0 0 0 0 0 0 0 0 0 0 0 0 0 0 0.17 0"/>
<feBlend mode="normal" in2="BackgroundImageFix" result="effect1_dropShadow_3005_108"/>
<feBlend mode="normal" in="SourceGraphic" in2="effect1_dropShadow_3005_108" result="shape"/>
</filter>
<filter id="filter3_d_3005_108" x="590.6" y="250.6" width="242.8" height="369.8" filterUnits="userSpaceOnUse" color-interpolation-filters="sRGB">
<feFlood flood-opacity="0" result="BackgroundImageFix"/>
<feColorMatrix in="SourceAlpha" type="matrix" values="0 0 0 0 0 0 0 0 0 0 0 0 0 0 0 0 0 0 127 0" result="hardAlpha"/>
<feOffset dy="4"/>
<feGaussianBlur stdDeviation="3.7"/>
<feComposite in2="hardAlpha" operator="out"/>
<feColorMatrix type="matrix" values="0 0 0 0 0 0 0 0 0 0 0 0 0 0 0 0 0 0 0.17 0"/>
<feBlend mode="normal" in2="BackgroundImageFix" result="effect1_dropShadow_3005_108"/>
<feBlend mode="normal" in="SourceGraphic" in2="effect1_dropShadow_3005_108" result="shape"/>
</filter>
<filter id="filter4_d_3005_108" x="1093.6" y="250.6" width="242.8" height="369.8" filterUnits="userSpaceOnUse" color-interpolation-filters="sRGB">
<feFlood flood-opacity="0" result="BackgroundImageFix"/>
<feColorMatrix in="SourceAlpha" type="matrix" values="0 0 0 0 0 0 0 0 0 0 0 0 0 0 0 0 0 0 127 0" result="hardAlpha"/>
<feOffset dy="4"/>
<feGaussianBlur stdDeviation="3.7"/>
<feComposite in2="hardAlpha" operator="out"/>
<feColorMatrix type="matrix" values="0 0 0 0 0 0 0 0 0 0 0 0 0 0 0 0 0 0 0.17 0"/>
<feBlend mode="normal" in2="BackgroundImageFix" result="effect1_dropShadow_3005_108"/>
<feBlend mode="normal" in="SourceGraphic" in2="effect1_dropShadow_3005_108" result="shape"/>
</filter>
<filter id="filter5_d_3005_108" x="1173" y="401.214" width="17.5" height="18.0715" filterUnits="userSpaceOnUse" color-interpolation-filters="sRGB">
<feFlood flood-opacity="0" result="BackgroundImageFix"/>
<feColorMatrix in="SourceAlpha" type="matrix" values="0 0 0 0 0 0 0 0 0 0 0 0 0 0 0 0 0 0 127 0" result="hardAlpha"/>
<feOffset dx="1" dy="-1"/>
<feGaussianBlur stdDeviation="0.25"/>
<feComposite in2="hardAlpha" operator="out"/>
<feColorMatrix type="matrix" values="0 0 0 0 0 0 0 0 0 0 0 0 0 0 0 0 0 0 0.04 0"/>
<feBlend mode="normal" in2="BackgroundImageFix" result="effect1_dropShadow_3005_108"/>
<feBlend mode="normal" in="SourceGraphic" in2="effect1_dropShadow_3005_108" result="shape"/>
</filter>
<filter id="filter6_d_3005_108" x="1207.86" y="401.214" width="17.5" height="18.0715" filterUnits="userSpaceOnUse" color-interpolation-filters="sRGB">
<feFlood flood-opacity="0" result="BackgroundImageFix"/>
<feColorMatrix in="SourceAlpha" type="matrix" values="0 0 0 0 0 0 0 0 0 0 0 0 0 0 0 0 0 0 127 0" result="hardAlpha"/>
<feOffset dx="1" dy="-1"/>
<feGaussianBlur stdDeviation="0.25"/>
<feComposite in2="hardAlpha" operator="out"/>
<feColorMatrix type="matrix" values="0 0 0 0 0 0 0 0 0 0 0 0 0 0 0 0 0 0 0.04 0"/>
<feBlend mode="normal" in2="BackgroundImageFix" result="effect1_dropShadow_3005_108"/>
<feBlend mode="normal" in="SourceGraphic" in2="effect1_dropShadow_3005_108" result="shape"/>
</filter>
<filter id="filter7_d_3005_108" x="1242.71" y="401.214" width="17.5" height="18.0715" filterUnits="userSpaceOnUse" color-interpolation-filters="sRGB">
<feFlood flood-opacity="0" result="BackgroundImageFix"/>
<feColorMatrix in="SourceAlpha" type="matrix" values="0 0 0 0 0 0 0 0 0 0 0 0 0 0 0 0 0 0 127 0" result="hardAlpha"/>
<feOffset dx="1" dy="-1"/>
<feGaussianBlur stdDeviation="0.25"/>
<feComposite in2="hardAlpha" operator="out"/>
<feColorMatrix type="matrix" values="0 0 0 0 0 0 0 0 0 0 0 0 0 0 0 0 0 0 0.04 0"/>
<feBlend mode="normal" in2="BackgroundImageFix" result="effect1_dropShadow_3005_108"/>
<feBlend mode="normal" in="SourceGraphic" in2="effect1_dropShadow_3005_108" result="shape"/>
</filter>
<filter id="filter8_d_3005_108" x="1345" y="92" width="109" height="572" filterUnits="userSpaceOnUse" color-interpolation-filters="sRGB">
<feFlood flood-opacity="0" result="BackgroundImageFix"/>
<feColorMatrix in="SourceAlpha" type="matrix" values="0 0 0 0 0 0 0 0 0 0 0 0 0 0 0 0 0 0 127 0" result="hardAlpha"/>
<feOffset dy="4"/>
<feGaussianBlur stdDeviation="12.5"/>
<feComposite in2="hardAlpha" operator="out"/>
<feColorMatrix type="matrix" values="0 0 0 0 0 0 0 0 0 0 0 0 0 0 0 0 0 0 0.25 0"/>
<feBlend mode="normal" in2="BackgroundImageFix" result="effect1_dropShadow_3005_108"/>
<feBlend mode="normal" in="SourceGraphic" in2="effect1_dropShadow_3005_108" result="shape"/>
</filter>
<filter id="filter9_d_3005_108" x="230" y="92" width="109" height="572" filterUnits="userSpaceOnUse" color-interpolation-filters="sRGB">
<feFlood flood-opacity="0" result="BackgroundImageFix"/>
<feColorMatrix in="SourceAlpha" type="matrix" values="0 0 0 0 0 0 0 0 0 0 0 0 0 0 0 0 0 0 127 0" result="hardAlpha"/>
<feOffset dy="4"/>
<feGaussianBlur stdDeviation="12.5"/>
<feComposite in2="hardAlpha" operator="out"/>
<feColorMatrix type="matrix" values="0 0 0 0 0 0 0 0 0 0 0 0 0 0 0 0 0 0 0.25 0"/>
<feBlend mode="normal" in2="BackgroundImageFix" result="effect1_dropShadow_3005_108"/>
<feBlend mode="normal" in="SourceGraphic" in2="effect1_dropShadow_3005_108" result="shape"/>
</filter>
<filter id="filter10_d_3005_108" x="1453.85" y="559.602" width="55.8809" height="72.8213" filterUnits="userSpaceOnUse" color-interpolation-filters="sRGB">
<feFlood flood-opacity="0" result="BackgroundImageFix"/>
<feColorMatrix in="SourceAlpha" type="matrix" values="0 0 0 0 0 0 0 0 0 0 0 0 0 0 0 0 0 0 127 0" result="hardAlpha"/>
<feOffset/>
<feGaussianBlur stdDeviation="5.5"/>
<feComposite in2="hardAlpha" operator="out"/>
<feColorMatrix type="matrix" values="0 0 0 0 1 0 0 0 0 1 0 0 0 0 1 0 0 0 1 0"/>
<feBlend mode="normal" in2="BackgroundImageFix" result="effect1_dropShadow_3005_108"/>
<feBlend mode="normal" in="SourceGraphic" in2="effect1_dropShadow_3005_108" result="shape"/>
</filter>
<filter id="filter11_d_3005_108" x="1384.09" y="560.544" width="55.8809" height="72.8213" filterUnits="userSpaceOnUse" color-interpolation-filters="sRGB">
<feFlood flood-opacity="0" result="BackgroundImageFix"/>
<feColorMatrix in="SourceAlpha" type="matrix" values="0 0 0 0 0 0 0 0 0 0 0 0 0 0 0 0 0 0 127 0" result="hardAlpha"/>
<feOffset/>
<feGaussianBlur stdDeviation="5.5"/>
<feComposite in2="hardAlpha" operator="out"/>
<feColorMatrix type="matrix" values="0 0 0 0 1 0 0 0 0 1 0 0 0 0 1 0 0 0 1 0"/>
<feBlend mode="normal" in2="BackgroundImageFix" result="effect1_dropShadow_3005_108"/>
<feBlend mode="normal" in="SourceGraphic" in2="effect1_dropShadow_3005_108" result="shape"/>
</filter>
<filter id="filter12_d_3005_108" x="653.6" y="325.6" width="124.225" height="110.8" filterUnits="userSpaceOnUse" color-interpolation-filters="sRGB">
<feFlood flood-opacity="0" result="BackgroundImageFix"/>
<feColorMatrix in="SourceAlpha" type="matrix" values="0 0 0 0 0 0 0 0 0 0 0 0 0 0 0 0 0 0 127 0" result="hardAlpha"/>
<feOffset dy="4"/>
<feGaussianBlur stdDeviation="3.2"/>
<feComposite in2="hardAlpha" operator="out"/>
<feColorMatrix type="matrix" values="0 0 0 0 0 0 0 0 0 0 0 0 0 0 0 0 0 0 0.12 0"/>
<feBlend mode="normal" in2="BackgroundImageFix" result="effect1_dropShadow_3005_108"/>
<feBlend mode="normal" in="SourceGraphic" in2="effect1_dropShadow_3005_108" result="shape"/>
</filter>
<filter id="filter13_d_3005_108" x="676.953" y="362.744" width="76.0361" height="49.2925" filterUnits="userSpaceOnUse" color-interpolation-filters="sRGB">
<feFlood flood-opacity="0" result="BackgroundImageFix"/>
<feColorMatrix in="SourceAlpha" type="matrix" values="0 0 0 0 0 0 0 0 0 0 0 0 0 0 0 0 0 0 127 0" result="hardAlpha"/>
<feOffset dy="2"/>
<feGaussianBlur stdDeviation="2"/>
<feComposite in2="hardAlpha" operator="out"/>
<feColorMatrix type="matrix" values="0 0 0 0 0 0 0 0 0 0 0 0 0 0 0 0 0 0 0.01 0"/>
<feBlend mode="normal" in2="BackgroundImageFix" result="effect1_dropShadow_3005_108"/>
<feBlend mode="normal" in="SourceGraphic" in2="effect1_dropShadow_3005_108" result="shape"/>
</filter>
<filter id="filter14_d_3005_108" x="403.7" y="304.7" width="126.6" height="161.6" filterUnits="userSpaceOnUse" color-interpolation-filters="sRGB">
<feFlood flood-opacity="0" result="BackgroundImageFix"/>
<feColorMatrix in="SourceAlpha" type="matrix" values="0 0 0 0 0 0 0 0 0 0 0 0 0 0 0 0 0 0 127 0" result="hardAlpha"/>
<feOffset/>
<feGaussianBlur stdDeviation="14.65"/>
<feComposite in2="hardAlpha" operator="out"/>
<feColorMatrix type="matrix" values="0 0 0 0 1 0 0 0 0 1 0 0 0 0 1 0 0 0 1 0"/>
<feBlend mode="normal" in2="BackgroundImageFix" result="effect1_dropShadow_3005_108"/>
<feBlend mode="normal" in="SourceGraphic" in2="effect1_dropShadow_3005_108" result="shape"/>
</filter>
<linearGradient id="paint0_linear_3005_108" x1="855.946" y1="677" x2="856.178" y2="758.416" gradientUnits="userSpaceOnUse">
<stop stop-color="#6C6C6C"/>
<stop offset="0.764423" stop-color="#010101"/>
</linearGradient>
<linearGradient id="paint1_linear_3005_108" x1="841.5" y1="116" x2="841.5" y2="638" gradientUnits="userSpaceOnUse">
<stop stop-color="#8572C7"/>
<stop offset="0.966346" stop-color="#DED4FF"/>
<stop offset="1" stop-color="white"/>
</linearGradient>
<linearGradient id="paint2_linear_3005_108" x1="834.5" y1="232" x2="834.5" y2="621" gradientUnits="userSpaceOnUse">
<stop offset="0.9999" stop-color="#DED4FF"/>
<stop offset="1" stop-color="#F1EDFF"/>
</linearGradient>
<linearGradient id="paint3_linear_3005_108" x1="1215.86" y1="337" x2="1215.86" y2="378.714" gradientUnits="userSpaceOnUse">
<stop stop-color="#FF6CE4"/>
<stop offset="1" stop-color="#FFD5F7"/>
</linearGradient>
<linearGradient id="paint4_linear_3005_108" x1="1250.71" y1="415.857" x2="1250.71" y2="429" gradientUnits="userSpaceOnUse">
<stop stop-color="white"/>
<stop offset="1" stop-color="#697CFC"/>
</linearGradient>
<linearGradient id="paint5_linear_3005_108" x1="1215.86" y1="415.857" x2="1215.86" y2="429" gradientUnits="userSpaceOnUse">
<stop stop-color="white"/>
<stop offset="1" stop-color="#697CFC"/>
</linearGradient>
<linearGradient id="paint6_linear_3005_108" x1="1181" y1="415.857" x2="1181" y2="429" gradientUnits="userSpaceOnUse">
<stop stop-color="white"/>
<stop offset="1" stop-color="#697CFC"/>
</linearGradient>
<linearGradient id="paint7_linear_3005_108" x1="1215.86" y1="366.189" x2="1215.86" y2="377.012" gradientUnits="userSpaceOnUse">
<stop stop-color="white"/>
<stop offset="1" stop-color="#5953FF"/>
</linearGradient>
<linearGradient id="paint8_linear_3005_108" x1="1215.86" y1="355.857" x2="1215.86" y2="369.141" gradientUnits="userSpaceOnUse">
<stop stop-color="white"/>
<stop offset="1" stop-color="#5953FF"/>
</linearGradient>
<linearGradient id="paint9_linear_3005_108" x1="1215.86" y1="373" x2="1215.86" y2="399.857" gradientUnits="userSpaceOnUse">
<stop stop-color="#7F5BFF"/>
<stop offset="1" stop-color="#D5C9FF"/>
</linearGradient>
<linearGradient id="paint10_linear_3005_108" x1="1181" y1="402.714" x2="1181" y2="419.286" gradientUnits="userSpaceOnUse">
<stop stop-color="white"/>
<stop offset="1" stop-color="#697CFC"/>
</linearGradient>
<linearGradient id="paint11_linear_3005_108" x1="1215.86" y1="402.714" x2="1215.86" y2="419.286" gradientUnits="userSpaceOnUse">
<stop stop-color="white"/>
<stop offset="1" stop-color="#697CFC"/>
</linearGradient>
<linearGradient id="paint12_linear_3005_108" x1="1250.71" y1="402.714" x2="1250.71" y2="419.286" gradientUnits="userSpaceOnUse">
<stop stop-color="white"/>
<stop offset="1" stop-color="#697CFC"/>
</linearGradient>
<linearGradient id="paint13_linear_3005_108" x1="1543.41" y1="403.871" x2="1523.23" y2="459.511" gradientUnits="userSpaceOnUse">
<stop stop-color="#FF9255"/>
<stop offset="1" stop-color="#FEC77C"/>
</linearGradient>
<linearGradient id="paint14_linear_3005_108" x1="1475.05" y1="397.024" x2="1475.48" y2="446.535" gradientUnits="userSpaceOnUse">
<stop stop-color="#FF9255"/>
<stop offset="1" stop-color="#FEC77C"/>
</linearGradient>
<linearGradient id="paint15_linear_3005_108" x1="1605.48" y1="477.908" x2="1561.09" y2="499.848" gradientUnits="userSpaceOnUse">
<stop stop-color="#FF9255"/>
<stop offset="1" stop-color="#FEC77C"/>
</linearGradient>
<linearGradient id="paint16_linear_3005_108" x1="1383.5" y1="113" x2="1383.5" y2="635" gradientUnits="userSpaceOnUse">
<stop offset="0.490385" stop-color="#C9B0FD"/>
<stop offset="1" stop-color="#6E589B"/>
</linearGradient>
<linearGradient id="paint17_linear_3005_108" x1="1398.5" y1="281" x2="1398.5" y2="383" gradientUnits="userSpaceOnUse">
<stop offset="0.93" stop-color="#C9B0FD"/>
<stop offset="1" stop-color="#523D7D"/>
</linearGradient>
<linearGradient id="paint18_linear_3005_108" x1="1398.5" y1="113" x2="1398.5" y2="215" gradientUnits="userSpaceOnUse">
<stop offset="0.93" stop-color="#C9B0FD"/>
<stop offset="1" stop-color="#523D7D"/>
</linearGradient>
<linearGradient id="paint19_linear_3005_108" x1="1398.5" y1="533" x2="1398.5" y2="635" gradientUnits="userSpaceOnUse">
<stop offset="0.93" stop-color="#C9B0FD"/>
<stop offset="1" stop-color="#523D7D"/>
</linearGradient>
<linearGradient id="paint20_linear_3005_108" x1="1399" y1="343" x2="1399" y2="383" gradientUnits="userSpaceOnUse">
<stop offset="0.93" stop-color="#C9B0FD"/>
<stop offset="1" stop-color="#523D7D"/>
</linearGradient>
<linearGradient id="paint21_linear_3005_108" x1="268.5" y1="113" x2="268.5" y2="635" gradientUnits="userSpaceOnUse">
<stop offset="0.490385" stop-color="#C9B0FD"/>
<stop offset="1" stop-color="#6E589B"/>
</linearGradient>
<linearGradient id="paint22_linear_3005_108" x1="283.5" y1="281" x2="283.5" y2="383" gradientUnits="userSpaceOnUse">
<stop offset="0.93" stop-color="#C9B0FD"/>
<stop offset="1" stop-color="#523D7D"/>
</linearGradient>
<linearGradient id="paint23_linear_3005_108" x1="283.5" y1="113" x2="283.5" y2="215" gradientUnits="userSpaceOnUse">
<stop offset="0.93" stop-color="#C9B0FD"/>
<stop offset="1" stop-color="#523D7D"/>
</linearGradient>
<linearGradient id="paint24_linear_3005_108" x1="283.5" y1="533" x2="283.5" y2="635" gradientUnits="userSpaceOnUse">
<stop offset="0.93" stop-color="#C9B0FD"/>
<stop offset="1" stop-color="#523D7D"/>
</linearGradient>
<linearGradient id="paint25_linear_3005_108" x1="284" y1="343" x2="284" y2="383" gradientUnits="userSpaceOnUse">
<stop offset="0.93" stop-color="#C9B0FD"/>
<stop offset="1" stop-color="#523D7D"/>
</linearGradient>
<linearGradient id="paint26_linear_3005_108" x1="1454.67" y1="541.819" x2="1446.2" y2="729.858" gradientUnits="userSpaceOnUse">
<stop stop-color="#F8CCFF"/>
<stop offset="0.5" stop-color="#B687FF"/>
<stop offset="1" stop-color="#7755B9"/>
</linearGradient>
<linearGradient id="paint27_linear_3005_108" x1="966.5" y1="332" x2="966.5" y2="434" gradientUnits="userSpaceOnUse">
<stop stop-color="#A49BFF"/>
<stop offset="1" stop-color="#FFA8D5"/>
</linearGradient>
<linearGradient id="paint28_linear_3005_108" x1="715.712" y1="358.205" x2="715.712" y2="426" gradientUnits="userSpaceOnUse">
<stop stop-color="#FFECF8"/>
<stop offset="1" stop-color="#D9C4FF"/>
</linearGradient>
<linearGradient id="paint29_linear_3005_108" x1="715.712" y1="366.932" x2="715.712" y2="320.281" gradientUnits="userSpaceOnUse">
<stop stop-color="#7577FF"/>
<stop offset="1" stop-color="#E5CDFF"/>
</linearGradient>
<linearGradient id="paint30_linear_3005_108" x1="714.047" y1="366.833" x2="726.037" y2="394.162" gradientUnits="userSpaceOnUse">
<stop stop-color="#978BFF"/>
</linearGradient>
<linearGradient id="paint31_linear_3005_108" x1="691.237" y1="372.871" x2="700.165" y2="397.892" gradientUnits="userSpaceOnUse">
<stop stop-color="#978BFF"/>
</linearGradient>
<linearGradient id="paint32_linear_3005_108" x1="743.362" y1="371.544" x2="732.195" y2="395.65" gradientUnits="userSpaceOnUse">
<stop stop-color="#978BFF"/>
</linearGradient>
<linearGradient id="paint33_linear_3005_108" x1="467" y1="334" x2="467.478" y2="463.869" gradientUnits="userSpaceOnUse">
<stop stop-color="#BE99FF"/>
<stop offset="1" stop-color="#FF69E4"/>
</linearGradient>
<clipPath id="clip0_3005_108">
<rect width="1736" height="768" fill="white"/>
</clipPath>
<clipPath id="clip1_3005_108">
<rect width="1810" height="668" fill="white" transform="translate(-37 50)"/>
</clipPath>
</defs>
</svg>
