<svg width="1614" height="1419" viewBox="0 0 1614 1419" fill="none" xmlns="http://www.w3.org/2000/svg">
<path d="M197.685 431.645C197.367 424.033 204.665 418.48 212.144 419.93C222.028 421.846 230.626 421.914 240.751 419.976C248.264 418.537 255.619 424.11 255.304 431.753C252.483 500.073 253.439 542.99 255.471 608.185C255.717 616.11 247.743 621.589 239.971 620.016C230.7 618.14 222.286 618.487 212.241 620.72C204.755 622.385 197.356 616.837 197.664 609.175C200.391 541.331 200.443 497.77 197.685 431.645Z" fill="url(#paint0_linear_3063_1786)"/>
<path d="M1355.68 431.645C1355.37 424.033 1362.66 418.48 1370.14 419.93C1380.03 421.846 1388.63 421.914 1398.75 419.976C1406.26 418.537 1413.62 424.11 1413.3 431.753C1410.48 500.073 1411.44 542.99 1413.47 608.185C1413.72 616.11 1405.74 621.589 1397.97 620.016C1388.7 618.14 1380.29 618.487 1370.24 620.72C1362.76 622.385 1355.36 616.837 1355.66 609.175C1358.39 541.331 1358.44 497.77 1355.68 431.645Z" fill="url(#paint1_linear_3063_1786)"/>
<path d="M236.285 501.938C239.619 500.014 243.785 502.419 243.785 506.268L243.785 536.087C243.785 539.936 239.619 542.342 236.285 540.417L210.462 525.508C207.128 523.583 207.128 518.772 210.462 516.847L236.285 501.938Z" fill="url(#paint2_linear_3063_1786)"/>
<path d="M1401.93 516.886C1405.26 518.81 1405.26 523.621 1401.93 525.546L1376.11 540.455C1372.77 542.38 1368.61 539.974 1368.61 536.125V506.306C1368.61 502.457 1372.77 500.052 1376.11 501.976L1401.93 516.886Z" fill="url(#paint3_linear_3063_1786)"/>
<defs>
<linearGradient id="paint0_linear_3063_1786" x1="251" y1="521" x2="197" y2="521" gradientUnits="userSpaceOnUse">
<stop offset="0.5" stop-color="#4E3FBE"/>
<stop offset="1" stop-color="#2F1DC9"/>
</linearGradient>
<linearGradient id="paint1_linear_3063_1786" x1="1355" y1="521" x2="1409" y2="521" gradientUnits="userSpaceOnUse">
<stop offset="0.5" stop-color="#4E3FBE"/>
<stop offset="1" stop-color="#2F1DC9"/>
</linearGradient>
<linearGradient id="paint2_linear_3063_1786" x1="261.422" y1="521.492" x2="198.933" y2="520.863" gradientUnits="userSpaceOnUse">
<stop offset="0.490385" stop-color="white"/>
<stop offset="1" stop-color="#C1C1C1"/>
</linearGradient>
<linearGradient id="paint3_linear_3063_1786" x1="1349.5" y1="494" x2="1429" y2="494" gradientUnits="userSpaceOnUse">
<stop offset="0.352672" stop-color="white"/>
<stop offset="1" stop-color="#C1C1C1"/>
</linearGradient>
</defs>
</svg>
