<svg width="1070" height="1011" viewBox="0 0 1070 1011" fill="none" xmlns="http://www.w3.org/2000/svg">
<g opacity="0.94">
<path d="M992.832 498.202C992.832 756.147 783.726 965.253 525.78 965.253C267.835 965.253 58.7292 756.147 58.7292 498.202C58.7292 240.257 267.835 31.1508 525.78 31.1508C783.726 31.1508 992.832 240.257 992.832 498.202ZM88.1593 498.202C88.1593 739.893 284.089 935.823 525.78 935.823C767.472 935.823 963.401 739.893 963.401 498.202C963.401 256.51 767.472 60.5808 525.78 60.5808C284.089 60.5808 88.1593 256.51 88.1593 498.202Z" fill="url(#paint0_linear_3006_1283)"/>
<path d="M88.1593 498.202C88.1593 739.893 284.089 935.823 525.78 935.823C767.472 935.823 963.401 739.893 963.401 498.202C963.401 256.51 767.472 60.5808 525.78 60.5808C284.089 60.5808 88.1593 256.51 88.1593 498.202Z" fill="url(#paint1_linear_3006_1283)"/>
<rect x="0.000244141" y="670" width="1070" height="341" fill="#121212"/>
<g filter="url(#filter0_i_3006_1283)">
<path d="M247.374 209.45H207.017C202.697 210.925 200.641 212.254 200.809 215.703C200.929 218.183 201.87 219.388 204.43 220.913H248.926C248.926 220.913 252.159 217.728 252.03 215.182C251.884 212.294 247.374 209.45 247.374 209.45Z" fill="url(#paint2_linear_3006_1283)"/>
<path d="M217.882 260.511L208.052 669.512H227.196L228.748 260.511H217.882Z" fill="url(#paint3_linear_3006_1283)"/>
<path d="M252.03 247.485H200.809C200.809 247.485 197.943 250.678 197.704 253.216C197.414 256.302 200.809 260.511 200.809 260.511H216.848H217.882H228.748H232.369H235.991H252.03C252.03 260.511 255.134 258.947 255.134 253.737C255.134 251.084 252.03 247.485 252.03 247.485Z" fill="url(#paint4_linear_3006_1283)"/>
<path d="M248.926 220.913H204.43C204.43 220.913 196.669 226.123 196.152 233.417C195.634 240.712 200.809 247.485 200.809 247.485H252.03C252.03 247.485 256.98 238.888 256.687 233.417C256.353 227.215 248.926 220.913 248.926 220.913Z" fill="url(#paint5_linear_3006_1283)"/>
<path d="M228.748 260.511L227.196 669.512H232.369V260.511H228.748Z" fill="url(#paint6_linear_3006_1283)"/>
<path d="M249.443 669.512C242.384 510.909 239.753 421.162 235.991 260.511H232.369V669.512H249.443Z" fill="url(#paint7_linear_3006_1283)"/>
<path d="M208.052 669.512L217.882 260.511H216.848C212.511 422.064 209.996 512.544 201.843 669.512H208.052Z" fill="url(#paint8_linear_3006_1283)"/>
<path d="M226.161 0L224.091 70.3378L220.987 72.4219V110.456H217.846V114.104H220.987H232.887H235.991V109.935H232.887V72.4219L229.782 70.3378L226.161 0Z" fill="url(#paint9_linear_3006_1283)"/>
<path d="M220.987 114.104V186.005C216.848 189.596 215.716 192.778 215.716 195.383C215.716 199.551 215.988 201.634 217.882 204.24H207.017C206.183 206.855 206.317 207.905 207.017 209.45H247.374C248.068 207.273 248.034 206.157 247.374 204.24H235.474C237.763 201.678 238.061 199.051 238.061 195.383C238.061 192.257 236.458 188.575 232.887 186.005V114.104H220.987Z" fill="url(#paint10_linear_3006_1283)"/>
</g>
<g filter="url(#filter1_i_3006_1283)">
<path d="M46.9695 470.051H0.000244141V670H1070V540.96H1045.62V593.981H1026.58V500.075H997.634V442.582H895.559V493.049H807.196V433H588.574V585.038H555.057V493.049H452.221V593.981H369.19V455.358H300.632V581.844H173.42V514.768H64.4897V570.345H46.9695V470.051Z" fill="#2B1B4B"/>
</g>
<path d="M638.305 539.069V664.566H652.307V539.069H638.305Z" fill="#462685"/>
<path d="M174.901 550.142V664.566H377.599V531.686H314.923V515.076H222.909V531.686H189.57V550.142H174.901Z" fill="#462685"/>
<path d="M417.605 503.08L418.938 664.566H454.944V587.976H448.943V546.451H429.607V587.976H423.606V493.852H404.269V503.08H417.605Z" fill="#462685"/>
<path d="M153.565 664.566H162.233V535.377V531.686H153.565V664.566Z" fill="#462685"/>
<path d="M162.233 535.377V664.566H174.901V550.142V535.377H162.233Z" fill="#462685"/>
<path d="M377.599 531.686V664.566H418.938L417.605 503.08H404.269H377.599V531.686Z" fill="#462685"/>
<path d="M454.944 587.976V664.566H492.283V587.976V546.451H454.944V587.976Z" fill="#462685"/>
<path d="M492.283 587.976V664.566H542.957V587.976H533.956H524.954H504.285H492.283Z" fill="#462685"/>
<path d="M504.285 572.289V587.976H524.954V572.289H504.285Z" fill="#462685"/>
<path d="M533.956 587.976H542.957V546.451H533.956V587.976Z" fill="#462685"/>
<path d="M542.957 587.976V664.566H638.305V539.069V529.841H614.301V515.076H542.957V546.451V587.976Z" fill="#462685"/>
<path d="M652.307 539.069V664.566H695.647V521.536H686.312H652.307V539.069Z" fill="#462685"/>
<path d="M943.685 482.779H919.681V664.566H992.359V495.698H971.689L943.685 482.779Z" fill="#462685"/>
<path d="M919.681 482.779V475.397H872.34V664.566H919.681V482.779Z" fill="#462685"/>
<path d="M872.34 475.397L835.001 482.779V504.003V664.566H872.34V475.397Z" fill="#462685"/>
<path d="M835.001 504.003H812.543V664.566H835.001V504.003Z" fill="#462685"/>
<path d="M812.543 490.161H792.328V664.566H812.543V504.003V490.161Z" fill="#462685"/>
<path d="M792.328 477.242H717.65V511.385V664.566H792.328V490.161V477.242Z" fill="#462685"/>
<path d="M695.647 521.536V664.566H717.65V511.385H686.312V521.536H695.647Z" fill="#462685"/>
<path d="M153.565 515.076H84.2208V664.566H153.565V531.686V515.076Z" fill="#462685"/>
<path d="M686.979 538.146L686.954 527.072H656.308V538.146H686.979Z" fill="#5D35D0"/>
<path d="M686.979 560.292L686.954 549.219H656.308V560.292H686.979Z" fill="#5D35D0"/>
<path d="M686.979 582.439L686.954 571.366H656.308V582.439H686.979Z" fill="#5D35D0"/>
<path d="M686.979 604.586L686.954 593.513H656.308V604.586H686.979Z" fill="#5D35D0"/>
<path d="M686.979 626.733L686.954 615.659H656.308V626.733H686.979Z" fill="#5D35D0"/>
<path d="M686.979 648.879L686.954 637.806H656.308V648.879H686.979Z" fill="#5D35D0"/>
<path d="M717.65 519.69L717.628 514.154H689.646V519.69H717.65Z" fill="#FFAC7E"/>
<path d="M717.65 534.455L717.628 523.381H689.646V534.455H717.65Z" fill="#5D35D0"/>
<path d="M717.65 541.837L717.628 536.3H689.646V541.837H717.65Z" fill="#FFAC7E"/>
<path d="M717.65 551.065L717.628 545.528H689.646V551.065H717.65Z" fill="#FFAC7E"/>
<path d="M717.65 560.292L717.628 554.756H689.646V560.292H717.65Z" fill="#5D35D0"/>
<path d="M717.65 575.057L717.628 563.984H689.646V575.057H717.65Z" fill="#FFAC7E"/>
<path d="M717.65 582.439L717.628 576.903H689.646V582.439H717.65Z" fill="#5D35D0"/>
<path d="M717.65 591.667L717.628 586.13H689.646V591.667H717.65Z" fill="#5D35D0"/>
<path d="M717.65 602.74L717.628 597.204H689.646V602.74H717.65Z" fill="#FFAC7E"/>
<path d="M717.65 617.505L717.628 606.431H689.646V617.505H717.65Z" fill="#5D35D0"/>
<path d="M717.65 624.887L717.628 619.35H689.646V624.887H717.65Z" fill="#FFAC7E"/>
<path d="M717.65 634.115L717.628 628.578H689.646V634.115H717.65Z" fill="#5D35D0"/>
<path d="M160.232 539.991L160.228 534.455H154.898V539.991H160.232Z" fill="#5D35D0"/>
<path d="M160.232 554.756L160.228 543.682H154.898V554.756H160.232Z" fill="#5D35D0"/>
<path d="M160.232 562.138L160.228 556.601H154.898V562.138H160.232Z" fill="#FFAC7E"/>
<path d="M160.232 571.366L160.228 565.829H154.898V571.366H160.232Z" fill="#FFAC7E"/>
<path d="M160.232 580.594L160.228 575.057H154.898V580.594H160.232Z" fill="#5D35D0"/>
<path d="M160.232 595.358L160.228 584.285H154.898V595.358H160.232Z" fill="#FFAC7E"/>
<path d="M160.232 602.74L160.228 597.204H154.898V602.74H160.232Z" fill="#5D35D0"/>
<path d="M160.232 611.968L160.228 606.431H154.898V611.968H160.232Z" fill="#FFAC7E"/>
<path d="M160.232 623.041L160.228 617.505H154.898V623.041H160.232Z" fill="#5D35D0"/>
<path d="M160.232 637.806L160.228 626.733H154.898V637.806H160.232Z" fill="#5D35D0"/>
<path d="M160.232 645.188L160.228 639.651H154.898V645.188H160.232Z" fill="#FFAC7E"/>
<path d="M160.232 654.416L160.228 648.879H154.898V654.416H160.232Z" fill="#FFAC7E"/>
<path d="M790.995 497.415L790.937 492.007H720.317V497.415H790.995Z" fill="#5D35D0"/>
<path d="M790.995 515.441L790.937 504.625H720.317V515.441H790.995Z" fill="#FFAC7E"/>
<path d="M790.995 538.875L790.937 533.468H720.317V538.875H790.995Z" fill="#5D35D0"/>
<path d="M790.995 556.902L790.937 546.086H720.317V556.902H790.995Z" fill="#FFAC7E"/>
<path d="M790.995 528.06L790.937 522.652H720.317V528.06H790.995Z" fill="#FFAC7E"/>
<path d="M790.995 569.52L790.937 564.112H720.317V569.52H790.995Z" fill="#5D35D0"/>
<path d="M790.995 587.547L790.937 576.731H720.317V587.547H790.995Z" fill="#FFAC7E"/>
<path d="M790.995 610.981L790.937 605.573H720.317V610.981H790.995Z" fill="#5D35D0"/>
<path d="M790.995 629.007L790.937 618.191H720.317V629.007H790.995Z" fill="#FFAC7E"/>
<path d="M790.995 647.034L790.937 636.218H720.317V647.034H790.995Z" fill="#5D35D0"/>
<path d="M790.995 600.165L790.937 594.757H720.317V600.165H790.995Z" fill="#FFAC7E"/>
<path d="M152.231 523.381L152.18 517.845H89.555V523.381H152.231Z" fill="#5D35D0"/>
<path d="M152.231 541.837L152.18 530.764H89.555V541.837H152.231Z" fill="#FFAC7E"/>
<path d="M152.231 565.829L152.18 560.292H89.555V565.829H152.231Z" fill="#5D35D0"/>
<path d="M152.231 584.285L152.18 573.211H89.555V584.285H152.231Z" fill="#FFAC7E"/>
<path d="M152.231 554.756L152.18 549.219H89.555V554.756H152.231Z" fill="#FFAC7E"/>
<path d="M152.231 597.204L152.18 591.667H89.555V597.204H152.231Z" fill="#5D35D0"/>
<path d="M152.231 615.659L152.18 604.586H89.555V615.659H152.231Z" fill="#5D35D0"/>
<path d="M152.231 639.651L152.18 634.115H89.555V639.651H152.231Z" fill="#FFAC7E"/>
<path d="M152.231 658.107L152.18 647.034H89.555V658.107H152.231Z" fill="#5D35D0"/>
<path d="M152.231 628.578L152.18 623.041H89.555V628.578H152.231Z" fill="#FFAC7E"/>
<path d="M172.234 549.219L172.227 543.682H162.899V549.219H172.234Z" fill="#FFAC7E"/>
<path d="M172.234 567.675L172.227 556.601H162.899V567.675H172.234Z" fill="#5D35D0"/>
<path d="M172.234 591.667L172.227 586.13H162.899V591.667H172.234Z" fill="#FFAC7E"/>
<path d="M172.234 610.123L172.227 599.049H162.899V610.123H172.234Z" fill="#5D35D0"/>
<path d="M172.234 580.594L172.227 575.057H162.899V580.594H172.234Z" fill="#FFAC7E"/>
<path d="M172.234 623.041L172.227 617.505H162.899V623.041H172.234Z" fill="#FFAC7E"/>
<path d="M172.234 641.497L172.227 630.424H162.899V641.497H172.234Z" fill="#FFAC7E"/>
<path d="M172.234 654.416L172.227 648.879H162.899V654.416H172.234Z" fill="#5D35D0"/>
<path d="M988.358 503.08H981.69V508.617H988.358V503.08Z" fill="#FFAC7E"/>
<path d="M988.358 508.617H981.69V514.154H988.358V508.617Z" fill="#FFAC7E"/>
<path d="M988.358 519.69H981.69V525.227H988.358V519.69Z" fill="#FFAC7E"/>
<path d="M988.358 503.08H981.69V508.617H988.358V503.08Z" fill="#FFAC7E"/>
<path d="M988.358 519.69H981.69V525.227H988.358V519.69Z" fill="#FFAC7E"/>
<path d="M988.358 530.764H981.69V536.3H988.358V530.764Z" fill="#FFAC7E"/>
<path d="M988.358 541.837H981.69V547.374H988.358V541.837Z" fill="#FFAC7E"/>
<path d="M988.358 552.91H981.69V558.447H988.358V552.91Z" fill="#FFAC7E"/>
<path d="M988.358 563.984H981.69V569.52H988.358V563.984Z" fill="#FFAC7E"/>
<path d="M811.665 510.462H805.664V519.69H811.665V510.462Z" fill="#FFAC7E"/>
<path d="M811.665 523.381H805.664V532.609H811.665V523.381Z" fill="#FFAC7E"/>
<path d="M811.665 536.3H805.664V545.528H811.665V536.3Z" fill="#FFAC7E"/>
<path d="M811.665 549.219H805.664V558.447H811.665V549.219Z" fill="#FFAC7E"/>
<path d="M811.665 562.138H805.664V571.366H811.665V562.138Z" fill="#FFAC7E"/>
<path d="M811.665 575.057H805.664V584.285H811.665V575.057Z" fill="#FFAC7E"/>
<path d="M811.665 587.976H805.664V597.204H811.665V587.976Z" fill="#FFAC7E"/>
<path d="M811.665 600.895H805.664V610.123H811.665V600.895Z" fill="#FFAC7E"/>
<path d="M634.304 534.455H628.303V541.119H634.304V534.455Z" fill="#FFAC7E"/>
<path d="M634.304 543.785H628.303V550.45H634.304V543.785Z" fill="#FFAC7E"/>
<path d="M634.304 553.115H628.303V559.78H634.304V553.115Z" fill="#FFAC7E"/>
<path d="M634.304 562.446H628.303V569.11H634.304V562.446Z" fill="#FFAC7E"/>
<path d="M634.304 571.776H628.303V578.44H634.304V571.776Z" fill="#FFAC7E"/>
<path d="M634.304 581.106H628.303V587.771H634.304V581.106Z" fill="#FFAC7E"/>
<path d="M634.304 590.437H628.303V597.101H634.304V590.437Z" fill="#FFAC7E"/>
<path d="M634.304 599.767H628.303V606.431H634.304V599.767Z" fill="#FFAC7E"/>
<path d="M634.304 608.277H628.303V614.941H634.304V608.277Z" fill="#FFAC7E"/>
<path d="M634.304 617.607H628.303V624.272H634.304V617.607Z" fill="#FFAC7E"/>
<path d="M634.304 626.938H628.303V633.603H634.304V626.938Z" fill="#FFAC7E"/>
<path d="M882.342 480.934H876.341V487.598H882.342V480.934Z" fill="#5D35D0"/>
<path d="M882.342 508.924H876.341V515.589H882.342V508.924Z" fill="#5D35D0"/>
<path d="M882.342 518.255H876.341V524.919H882.342V518.255Z" fill="#5D35D0"/>
<path d="M882.342 527.585H876.341V534.25H882.342V527.585Z" fill="#5D35D0"/>
<path d="M882.342 536.915H876.341V543.58H882.342V536.915Z" fill="#5D35D0"/>
<path d="M882.342 554.756H876.341V561.42H882.342V554.756Z" fill="#5D35D0"/>
<path d="M882.342 564.086H876.341V570.751H882.342V564.086Z" fill="#5D35D0"/>
<path d="M882.342 573.417H876.341V580.081H882.342V573.417Z" fill="#5D35D0"/>
<path d="M890.343 480.934H884.342V487.598H890.343V480.934Z" fill="#5D35D0"/>
<path d="M890.343 499.594H884.342V506.259H890.343V499.594Z" fill="#5D35D0"/>
<path d="M890.343 508.924H884.342V515.589H890.343V508.924Z" fill="#5D35D0"/>
<path d="M890.343 518.255H884.342V524.919H890.343V518.255Z" fill="#5D35D0"/>
<path d="M890.343 546.246H884.342V552.91H890.343V546.246Z" fill="#5D35D0"/>
<path d="M890.343 554.756H884.342V561.42H890.343V554.756Z" fill="#5D35D0"/>
<path d="M890.343 564.086H884.342V570.751H890.343V564.086Z" fill="#5D35D0"/>
<path d="M898.344 490.264H892.344V496.928H898.344V490.264Z" fill="#5D35D0"/>
<path d="M898.344 508.924H892.344V515.589H898.344V508.924Z" fill="#5D35D0"/>
<path d="M898.344 518.255H892.344V524.919H898.344V518.255Z" fill="#5D35D0"/>
<path d="M898.344 536.915H892.344V543.58H898.344V536.915Z" fill="#5D35D0"/>
<path d="M898.344 546.246H892.344V552.91H898.344V546.246Z" fill="#5D35D0"/>
<path d="M898.344 573.417H892.344V580.081H898.344V573.417Z" fill="#5D35D0"/>
<path d="M906.346 490.264H900.345V496.928H906.346V490.264Z" fill="#5D35D0"/>
<path d="M906.346 508.924H900.345V515.589H906.346V508.924Z" fill="#5D35D0"/>
<path d="M906.346 518.255H900.345V524.919H906.346V518.255Z" fill="#5D35D0"/>
<path d="M906.346 536.915H900.345V543.58H906.346V536.915Z" fill="#5D35D0"/>
<path d="M906.346 546.246H900.345V552.91H906.346V546.246Z" fill="#5D35D0"/>
<path d="M906.346 554.756H900.345V561.42H906.346V554.756Z" fill="#5D35D0"/>
<path d="M906.346 573.417H900.345V580.081H906.346V573.417Z" fill="#5D35D0"/>
<path d="M914.347 480.934H908.346V487.598H914.347V480.934Z" fill="#5D35D0"/>
<path d="M914.347 490.264H908.346V496.928H914.347V490.264Z" fill="#5D35D0"/>
<path d="M914.347 508.924H908.346V515.589H914.347V508.924Z" fill="#5D35D0"/>
<path d="M914.347 518.255H908.346V524.919H914.347V518.255Z" fill="#5D35D0"/>
<path d="M914.347 536.915H908.346V543.58H914.347V536.915Z" fill="#5D35D0"/>
<path d="M914.347 546.246H908.346V552.91H914.347V546.246Z" fill="#5D35D0"/>
<path d="M914.347 554.756H908.346V561.42H914.347V554.756Z" fill="#5D35D0"/>
<path d="M914.347 573.417H908.346V580.081H914.347V573.417Z" fill="#5D35D0"/>
<path d="M882.342 582.439H876.341V589.104H882.342V582.439Z" fill="#5D35D0"/>
<path d="M882.342 591.769H876.341V598.434H882.342V591.769Z" fill="#5D35D0"/>
<path d="M882.342 601.1H876.341V607.764H882.342V601.1Z" fill="#5D35D0"/>
<path d="M882.342 609.61H876.341V616.274H882.342V609.61Z" fill="#5D35D0"/>
<path d="M882.342 618.94H876.341V625.605H882.342V618.94Z" fill="#5D35D0"/>
<path d="M882.342 628.271H876.341V634.935H882.342V628.271Z" fill="#5D35D0"/>
<path d="M890.343 582.439H884.342V589.104H890.343V582.439Z" fill="#5D35D0"/>
<path d="M890.343 601.1H884.342V607.764H890.343V601.1Z" fill="#5D35D0"/>
<path d="M890.343 609.61H884.342V616.274H890.343V609.61Z" fill="#5D35D0"/>
<path d="M890.343 618.94H884.342V625.605H890.343V618.94Z" fill="#5D35D0"/>
<path d="M890.343 628.271H884.342V634.935H890.343V628.271Z" fill="#5D35D0"/>
<path d="M898.344 582.439H892.344V589.104H898.344V582.439Z" fill="#5D35D0"/>
<path d="M898.344 601.1H892.344V607.764H898.344V601.1Z" fill="#5D35D0"/>
<path d="M906.346 582.439H900.345V589.104H906.346V582.439Z" fill="#5D35D0"/>
<path d="M906.346 601.1H900.345V607.764H906.346V601.1Z" fill="#5D35D0"/>
<path d="M906.346 609.61H900.345V616.274H906.346V609.61Z" fill="#5D35D0"/>
<path d="M906.346 618.94H900.345V625.605H906.346V618.94Z" fill="#5D35D0"/>
<path d="M914.347 582.439H908.346V589.104H914.347V582.439Z" fill="#5D35D0"/>
<path d="M914.347 591.769H908.346V598.434H914.347V591.769Z" fill="#5D35D0"/>
<path d="M914.347 601.1H908.346V607.764H914.347V601.1Z" fill="#5D35D0"/>
<path d="M914.347 609.61H908.346V616.274H914.347V609.61Z" fill="#5D35D0"/>
<path d="M914.347 618.94H908.346V625.605H914.347V618.94Z" fill="#5D35D0"/>
<path d="M914.347 628.271H908.346V634.935H914.347V628.271Z" fill="#5D35D0"/>
<path d="M898.344 637.601H892.344V644.265H898.344V637.601Z" fill="#5D35D0"/>
<path d="M906.346 637.601H900.345V644.265H906.346V637.601Z" fill="#5D35D0"/>
<path d="M884.342 637.601H890.343V644.265H884.342V637.601Z" fill="#FFAC7E"/>
<path d="M876.341 637.601H882.342V644.265H876.341V637.601Z" fill="#FFAC7E"/>
<path d="M892.344 628.271H898.344V634.935H892.344V628.271Z" fill="#FFAC7E"/>
<path d="M900.345 628.271H906.346V634.935H900.345V628.271Z" fill="#FFAC7E"/>
<path d="M908.346 637.601H914.347V644.265H908.346V637.601Z" fill="#FFAC7E"/>
<path d="M892.344 618.94H898.344V625.605H892.344V618.94Z" fill="#FFAC7E"/>
<path d="M892.344 609.61H898.344V616.274H892.344V609.61Z" fill="#FFAC7E"/>
<path d="M884.342 591.769H890.343V598.434H884.342V591.769Z" fill="#FFAC7E"/>
<path d="M892.344 591.769H898.344V598.434H892.344V591.769Z" fill="#FFAC7E"/>
<path d="M900.345 591.769H906.346V598.434H900.345V591.769Z" fill="#FFAC7E"/>
<path d="M884.342 573.417H890.343V580.081H884.342V573.417Z" fill="#FFAC7E"/>
<path d="M892.344 564.086H898.344V570.751H892.344V564.086Z" fill="#FFAC7E"/>
<path d="M900.345 564.086H906.346V570.751H900.345V564.086Z" fill="#FFAC7E"/>
<path d="M908.346 564.086H914.347V570.751H908.346V564.086Z" fill="#FFAC7E"/>
<path d="M892.344 554.756H898.344V561.42H892.344V554.756Z" fill="#FFAC7E"/>
<path d="M876.341 546.246H882.342V552.91H876.341V546.246Z" fill="#FFAC7E"/>
<path d="M884.342 536.915H890.343V543.58H884.342V536.915Z" fill="#FFAC7E"/>
<path d="M884.342 527.585H890.343V534.25H884.342V527.585Z" fill="#FFAC7E"/>
<path d="M892.344 527.585H898.344V534.25H892.344V527.585Z" fill="#FFAC7E"/>
<path d="M900.345 527.585H906.346V534.25H900.345V527.585Z" fill="#FFAC7E"/>
<path d="M908.346 527.585H914.347V534.25H908.346V527.585Z" fill="#FFAC7E"/>
<path d="M876.341 499.594H882.342V506.259H876.341V499.594Z" fill="#FFAC7E"/>
<path d="M892.344 499.594H898.344V506.259H892.344V499.594Z" fill="#FFAC7E"/>
<path d="M900.345 499.594H906.346V506.259H900.345V499.594Z" fill="#FFAC7E"/>
<path d="M908.346 499.594H914.347V506.259H908.346V499.594Z" fill="#FFAC7E"/>
<path d="M876.341 490.264H882.342V496.928H876.341V490.264Z" fill="#FFAC7E"/>
<path d="M884.342 490.264H890.343V496.928H884.342V490.264Z" fill="#FFAC7E"/>
<path d="M892.344 480.934H898.344V487.598H892.344V480.934Z" fill="#FFAC7E"/>
<path d="M900.345 480.934H906.346V487.598H900.345V480.934Z" fill="#FFAC7E"/>
<path d="M552.959 519.69H546.958V526.355H552.959V519.69Z" fill="#FFAC7E"/>
<path d="M552.959 529.021H546.958V535.685H552.959V529.021Z" fill="#5D35D0"/>
<path d="M552.959 538.351H546.958V545.015H552.959V538.351Z" fill="#5D35D0"/>
<path d="M552.959 547.681H546.958V554.346H552.959V547.681Z" fill="#5D35D0"/>
<path d="M552.959 557.011H546.958V563.676H552.959V557.011Z" fill="#5D35D0"/>
<path d="M552.959 566.342H546.958V573.006H552.959V566.342Z" fill="#FFAC7E"/>
<path d="M552.959 575.672H546.958V582.337H552.959V575.672Z" fill="#5D35D0"/>
<path d="M552.959 585.002H546.958V591.667H552.959V585.002Z" fill="#5D35D0"/>
<path d="M552.959 593.513H546.958V600.177H552.959V593.513Z" fill="#5D35D0"/>
<path d="M552.959 602.843H546.958V609.508H552.959V602.843Z" fill="#5D35D0"/>
<path d="M552.959 612.174H546.958V618.838H552.959V612.174Z" fill="#5D35D0"/>
<path d="M560.96 519.69H554.959V526.355H560.96V519.69Z" fill="#FFAC7E"/>
<path d="M560.96 529.021H554.959V535.685H560.96V529.021Z" fill="#FFAC7E"/>
<path d="M560.96 538.351H554.959V545.016H560.96V538.351Z" fill="#5D35D0"/>
<path d="M560.96 547.682H554.959V554.346H560.96V547.682Z" fill="#5D35D0"/>
<path d="M560.96 557.012H554.959V563.677H560.96V557.012Z" fill="#5D35D0"/>
<path d="M560.96 566.341H554.959V573.006H560.96V566.341Z" fill="#FFAC7E"/>
<path d="M560.96 575.672H554.959V582.336H560.96V575.672Z" fill="#5D35D0"/>
<path d="M560.96 585.002H554.959V591.667H560.96V585.002Z" fill="#5D35D0"/>
<path d="M560.96 593.513H554.959V600.177H560.96V593.513Z" fill="#5D35D0"/>
<path d="M560.96 602.843H554.959V609.508H560.96V602.843Z" fill="#5D35D0"/>
<path d="M560.96 612.174H554.959V618.838H560.96V612.174Z" fill="#FFAC7E"/>
<path d="M568.961 519.69H562.96V526.355H568.961V519.69Z" fill="#5D35D0"/>
<path d="M568.961 529.021H562.96V535.685H568.961V529.021Z" fill="#5D35D0"/>
<path d="M568.961 538.351H562.96V545.016H568.961V538.351Z" fill="#FFAC7E"/>
<path d="M568.961 547.682H562.96V554.346H568.961V547.682Z" fill="#5D35D0"/>
<path d="M568.961 557.012H562.96V563.677H568.961V557.012Z" fill="#5D35D0"/>
<path d="M568.961 566.341H562.96V573.006H568.961V566.341Z" fill="#FFAC7E"/>
<path d="M568.961 575.672H562.96V582.336H568.961V575.672Z" fill="#5D35D0"/>
<path d="M568.961 585.002H562.96V591.667H568.961V585.002Z" fill="#5D35D0"/>
<path d="M568.961 593.513H562.96V600.177H568.961V593.513Z" fill="#5D35D0"/>
<path d="M568.961 602.843H562.96V609.508H568.961V602.843Z" fill="#5D35D0"/>
<path d="M568.961 612.174H562.96V618.838H568.961V612.174Z" fill="#5D35D0"/>
<path d="M576.962 519.69H570.961V526.355H576.962V519.69Z" fill="#FFAC7E"/>
<path d="M576.962 529.021H570.961V535.685H576.962V529.021Z" fill="#FFAC7E"/>
<path d="M576.962 538.351H570.961V545.016H576.962V538.351Z" fill="#5D35D0"/>
<path d="M576.962 547.682H570.961V554.346H576.962V547.682Z" fill="#5D35D0"/>
<path d="M576.962 557.012H570.961V563.677H576.962V557.012Z" fill="#5D35D0"/>
<path d="M576.962 566.341H570.961V573.006H576.962V566.341Z" fill="#5D35D0"/>
<path d="M576.962 575.672H570.961V582.336H576.962V575.672Z" fill="#5D35D0"/>
<path d="M576.962 585.002H570.961V591.667H576.962V585.002Z" fill="#5D35D0"/>
<path d="M576.962 593.513H570.961V600.177H576.962V593.513Z" fill="#5D35D0"/>
<path d="M576.962 602.843H570.961V609.508H576.962V602.843Z" fill="#5D35D0"/>
<path d="M576.962 612.174H570.961V618.838H576.962V612.174Z" fill="#5D35D0"/>
<path d="M584.964 519.69H578.963V526.355H584.964V519.69Z" fill="#FFAC7E"/>
<path d="M584.964 529.021H578.963V535.685H584.964V529.021Z" fill="#5D35D0"/>
<path d="M584.964 538.351H578.963V545.016H584.964V538.351Z" fill="#5D35D0"/>
<path d="M584.964 547.682H578.963V554.346H584.964V547.682Z" fill="#5D35D0"/>
<path d="M584.964 557.012H578.963V563.677H584.964V557.012Z" fill="#5D35D0"/>
<path d="M584.964 566.341H578.963V573.006H584.964V566.341Z" fill="#5D35D0"/>
<path d="M584.964 575.672H578.963V582.336H584.964V575.672Z" fill="#5D35D0"/>
<path d="M584.964 585.002H578.963V591.667H584.964V585.002Z" fill="#5D35D0"/>
<path d="M584.964 593.513H578.963V600.177H584.964V593.513Z" fill="#5D35D0"/>
<path d="M584.964 602.843H578.963V609.508H584.964V602.843Z" fill="#5D35D0"/>
<path d="M584.964 612.174H578.963V618.838H584.964V612.174Z" fill="#5D35D0"/>
<path d="M592.965 519.69H586.964V526.355H592.965V519.69Z" fill="#FFAC7E"/>
<path d="M592.965 529.021H586.964V535.685H592.965V529.021Z" fill="#FFAC7E"/>
<path d="M592.965 538.351H586.964V545.016H592.965V538.351Z" fill="#5D35D0"/>
<path d="M592.965 547.682H586.964V554.346H592.965V547.682Z" fill="#FFAC7E"/>
<path d="M592.965 557.012H586.964V563.677H592.965V557.012Z" fill="#5D35D0"/>
<path d="M592.965 566.341H586.964V573.006H592.965V566.341Z" fill="#5D35D0"/>
<path d="M592.965 575.672H586.964V582.336H592.965V575.672Z" fill="#5D35D0"/>
<path d="M592.965 585.002H586.964V591.667H592.965V585.002Z" fill="#5D35D0"/>
<path d="M592.965 593.513H586.964V600.177H592.965V593.513Z" fill="#5D35D0"/>
<path d="M592.965 602.843H586.964V609.508H592.965V602.843Z" fill="#FFAC7E"/>
<path d="M592.965 612.174H586.964V618.838H592.965V612.174Z" fill="#5D35D0"/>
<path d="M600.966 519.69H594.965V526.355H600.966V519.69Z" fill="#5D35D0"/>
<path d="M600.966 529.021H594.965V535.685H600.966V529.021Z" fill="#5D35D0"/>
<path d="M600.966 538.351H594.965V545.016H600.966V538.351Z" fill="#FFAC7E"/>
<path d="M600.966 547.682H594.965V554.346H600.966V547.682Z" fill="#5D35D0"/>
<path d="M600.966 557.012H594.965V563.677H600.966V557.012Z" fill="#5D35D0"/>
<path d="M600.966 566.341H594.965V573.006H600.966V566.341Z" fill="#5D35D0"/>
<path d="M600.966 575.672H594.965V582.336H600.966V575.672Z" fill="#5D35D0"/>
<path d="M600.966 585.002H594.965V591.667H600.966V585.002Z" fill="#5D35D0"/>
<path d="M600.966 593.513H594.965V600.177H600.966V593.513Z" fill="#FFAC7E"/>
<path d="M600.966 602.843H594.965V609.508H600.966V602.843Z" fill="#FFAC7E"/>
<path d="M600.966 612.174H594.965V618.838H600.966V612.174Z" fill="#5D35D0"/>
<path d="M608.967 519.69H602.966V526.355H608.967V519.69Z" fill="#FFAC7E"/>
<path d="M608.967 529.021H602.966V535.685H608.967V529.021Z" fill="#5D35D0"/>
<path d="M608.967 538.351H602.966V545.016H608.967V538.351Z" fill="#5D35D0"/>
<path d="M608.967 547.682H602.966V554.346H608.967V547.682Z" fill="#FFAC7E"/>
<path d="M608.967 557.012H602.966V563.677H608.967V557.012Z" fill="#5D35D0"/>
<path d="M608.967 566.341H602.966V573.006H608.967V566.341Z" fill="#5D35D0"/>
<path d="M608.967 575.672H602.966V582.336H608.967V575.672Z" fill="#5D35D0"/>
<path d="M608.967 585.002H602.966V591.667H608.967V585.002Z" fill="#5D35D0"/>
<path d="M608.967 593.513H602.966V600.177H608.967V593.513Z" fill="#5D35D0"/>
<path d="M608.967 602.843H602.966V609.508H608.967V602.843Z" fill="#5D35D0"/>
<path d="M608.967 612.174H602.966V618.838H608.967V612.174Z" fill="#FFAC7E"/>
<path d="M385.74 506.771H380.266V513.47H385.74V506.771Z" fill="#FFAC7E"/>
<path d="M385.74 516.15H380.266V522.849H385.74V516.15Z" fill="#5D35D0"/>
<path d="M385.74 525.528H380.266V532.227H385.74V525.528Z" fill="#5D35D0"/>
<path d="M385.74 534.907H380.266V541.606H385.74V534.907Z" fill="#5D35D0"/>
<path d="M385.74 544.285H380.266V550.984H385.74V544.285Z" fill="#5D35D0"/>
<path d="M385.74 553.664H380.266V560.363H385.74V553.664Z" fill="#FFAC7E"/>
<path d="M385.74 563.042H380.266V569.741H385.74V563.042Z" fill="#5D35D0"/>
<path d="M385.74 572.421H380.266V579.12H385.74V572.421Z" fill="#5D35D0"/>
<path d="M385.74 580.975H380.266V587.674H385.74V580.975Z" fill="#5D35D0"/>
<path d="M385.74 590.354H380.266V597.053H385.74V590.354Z" fill="#5D35D0"/>
<path d="M385.74 599.732H380.266V606.431H385.74V599.732Z" fill="#5D35D0"/>
<path d="M393.04 506.771H387.565V513.47H393.04V506.771Z" fill="#FFAC7E"/>
<path d="M393.04 516.15H387.565V522.849H393.04V516.15Z" fill="#FFAC7E"/>
<path d="M393.04 525.529H387.565V532.228H393.04V525.529Z" fill="#5D35D0"/>
<path d="M393.04 534.908H387.565V541.606H393.04V534.908Z" fill="#5D35D0"/>
<path d="M393.04 544.286H387.565V550.985H393.04V544.286Z" fill="#5D35D0"/>
<path d="M393.04 553.663H387.565V560.362H393.04V553.663Z" fill="#FFAC7E"/>
<path d="M393.04 563.042H387.565V569.741H393.04V563.042Z" fill="#5D35D0"/>
<path d="M393.04 572.421H387.565V579.12H393.04V572.421Z" fill="#5D35D0"/>
<path d="M393.04 580.975H387.565V587.674H393.04V580.975Z" fill="#5D35D0"/>
<path d="M393.04 590.354H387.565V597.053H393.04V590.354Z" fill="#5D35D0"/>
<path d="M393.04 599.732H387.565V606.431H393.04V599.732Z" fill="#FFAC7E"/>
<path d="M400.339 506.771H394.864V513.47H400.339V506.771Z" fill="#5D35D0"/>
<path d="M400.339 516.15H394.864V522.849H400.339V516.15Z" fill="#FFAC7E"/>
<path d="M400.339 525.529H394.864V532.228H400.339V525.529Z" fill="#FFAC7E"/>
<path d="M400.339 534.908H394.864V541.606H400.339V534.908Z" fill="#5D35D0"/>
<path d="M400.339 544.286H394.864V550.985H400.339V544.286Z" fill="#5D35D0"/>
<path d="M400.339 553.663H394.864V560.362H400.339V553.663Z" fill="#FFAC7E"/>
<path d="M400.339 563.042H394.864V569.741H400.339V563.042Z" fill="#5D35D0"/>
<path d="M400.339 572.421H394.864V579.12H400.339V572.421Z" fill="#5D35D0"/>
<path d="M400.339 580.975H394.864V587.674H400.339V580.975Z" fill="#5D35D0"/>
<path d="M400.339 590.354H394.864V597.053H400.339V590.354Z" fill="#5D35D0"/>
<path d="M400.339 599.732H394.864V606.431H400.339V599.732Z" fill="#5D35D0"/>
<path d="M407.638 506.771H402.164V513.47H407.638V506.771Z" fill="#FFAC7E"/>
<path d="M407.638 516.15H402.164V522.849H407.638V516.15Z" fill="#FFAC7E"/>
<path d="M407.638 525.529H402.164V532.228H407.638V525.529Z" fill="#FFAC7E"/>
<path d="M407.638 534.908H402.164V541.606H407.638V534.908Z" fill="#FFAC7E"/>
<path d="M407.638 544.286H402.164V550.985H407.638V544.286Z" fill="#5D35D0"/>
<path d="M407.638 553.663H402.164V560.362H407.638V553.663Z" fill="#5D35D0"/>
<path d="M407.638 563.042H402.164V569.741H407.638V563.042Z" fill="#5D35D0"/>
<path d="M407.638 572.421H402.164V579.12H407.638V572.421Z" fill="#5D35D0"/>
<path d="M407.638 580.975H402.164V587.674H407.638V580.975Z" fill="#5D35D0"/>
<path d="M407.638 590.354H402.164V597.053H407.638V590.354Z" fill="#5D35D0"/>
<path d="M407.638 599.732H402.164V606.431H407.638V599.732Z" fill="#5D35D0"/>
<path d="M414.938 506.771H409.463V513.47H414.938V506.771Z" fill="#FFAC7E"/>
<path d="M414.938 516.15H409.463V522.849H414.938V516.15Z" fill="#5D35D0"/>
<path d="M414.938 525.529H409.463V532.228H414.938V525.529Z" fill="#5D35D0"/>
<path d="M414.938 534.908H409.463V541.606H414.938V534.908Z" fill="#5D35D0"/>
<path d="M414.938 544.286H409.463V550.985H414.938V544.286Z" fill="#5D35D0"/>
<path d="M414.938 553.663H409.463V560.362H414.938V553.663Z" fill="#5D35D0"/>
<path d="M414.938 563.042H409.463V569.741H414.938V563.042Z" fill="#5D35D0"/>
<path d="M414.938 572.421H409.463V579.12H414.938V572.421Z" fill="#5D35D0"/>
<path d="M414.938 580.975H409.463V587.674H414.938V580.975Z" fill="#5D35D0"/>
<path d="M414.938 590.354H409.463V597.053H414.938V590.354Z" fill="#5D35D0"/>
<path d="M414.938 599.732H409.463V606.431H414.938V599.732Z" fill="#5D35D0"/>
<path d="M385.74 609.2H380.266V615.899H385.74V609.2Z" fill="#5D35D0"/>
<path d="M385.74 618.578H380.266V625.277H385.74V618.578Z" fill="#5D35D0"/>
<path d="M385.74 627.957H380.266V634.656H385.74V627.957Z" fill="#5D35D0"/>
<path d="M393.04 609.2H387.565V615.899H393.04V609.2Z" fill="#5D35D0"/>
<path d="M393.04 618.578H387.565V625.277H393.04V618.578Z" fill="#5D35D0"/>
<path d="M393.04 627.957H387.565V634.656H393.04V627.957Z" fill="#FFAC7E"/>
<path d="M400.339 609.2H394.864V615.899H400.339V609.2Z" fill="#FFAC7E"/>
<path d="M400.339 618.578H394.864V625.277H400.339V618.578Z" fill="#5D35D0"/>
<path d="M400.339 627.957H394.864V634.656H400.339V627.957Z" fill="#5D35D0"/>
<path d="M407.638 609.2H402.164V615.899H407.638V609.2Z" fill="#FFAC7E"/>
<path d="M407.638 618.578H402.164V625.277H407.638V618.578Z" fill="#FFAC7E"/>
<path d="M407.638 627.957H402.164V634.656H407.638V627.957Z" fill="#5D35D0"/>
<path d="M414.938 609.2H409.463V615.899H414.938V609.2Z" fill="#FFAC7E"/>
<path d="M414.938 618.578H409.463V625.277H414.938V618.578Z" fill="#5D35D0"/>
<path d="M414.938 627.957H409.463V634.656H414.938V627.957Z" fill="#5D35D0"/>
<path d="M461.752 551.065H456.277V557.764H461.752V551.065Z" fill="#FFAC7E"/>
<path d="M461.752 560.443H456.277V567.142H461.752V560.443Z" fill="#5D35D0"/>
<path d="M469.051 551.065H463.577V557.764H469.051V551.065Z" fill="#5D35D0"/>
<path d="M469.051 560.443H463.577V567.142H469.051V560.443Z" fill="#FFAC7E"/>
<path d="M476.35 551.065H470.876V557.764H476.35V551.065Z" fill="#FFAC7E"/>
<path d="M476.35 560.443H470.876V567.142H476.35V560.443Z" fill="#5D35D0"/>
<path d="M483.65 551.065H478.175V557.764H483.65V551.065Z" fill="#FFAC7E"/>
<path d="M483.65 560.443H478.175V567.142H483.65V560.443Z" fill="#5D35D0"/>
<path d="M490.949 551.065H485.475V557.764H490.949V551.065Z" fill="#FFAC7E"/>
<path d="M490.949 560.443H485.475V567.142H490.949V560.443Z" fill="#5D35D0"/>
<path d="M461.752 569.911H456.277V576.61H461.752V569.911Z" fill="#5D35D0"/>
<path d="M461.752 579.289H456.277V585.988H461.752V579.289Z" fill="#5D35D0"/>
<path d="M461.752 588.668H456.277V595.367H461.752V588.668Z" fill="#5D35D0"/>
<path d="M469.051 569.911H463.577V576.61H469.051V569.911Z" fill="#5D35D0"/>
<path d="M469.051 579.289H463.577V585.988H469.051V579.289Z" fill="#5D35D0"/>
<path d="M469.051 588.668H463.577V595.367H469.051V588.668Z" fill="#FFAC7E"/>
<path d="M476.35 569.911H470.876V576.61H476.35V569.911Z" fill="#FFAC7E"/>
<path d="M476.35 579.289H470.876V585.988H476.35V579.289Z" fill="#5D35D0"/>
<path d="M476.35 588.668H470.876V595.367H476.35V588.668Z" fill="#5D35D0"/>
<path d="M483.65 569.911H478.175V576.61H483.65V569.911Z" fill="#FFAC7E"/>
<path d="M483.65 579.289H478.175V585.988H483.65V579.289Z" fill="#FFAC7E"/>
<path d="M483.65 588.668H478.175V595.367H483.65V588.668Z" fill="#5D35D0"/>
<path d="M490.949 569.911H485.475V576.61H490.949V569.911Z" fill="#FFAC7E"/>
<path d="M490.949 579.289H485.475V585.988H490.949V579.289Z" fill="#5D35D0"/>
<path d="M490.949 588.668H485.475V595.367H490.949V588.668Z" fill="#5D35D0"/>
<path d="M461.752 597.204H456.277V603.903H461.752V597.204Z" fill="#5D35D0"/>
<path d="M461.752 606.582H456.277V613.281H461.752V606.582Z" fill="#5D35D0"/>
<path d="M469.051 597.204H463.577V603.903H469.051V597.204Z" fill="#5D35D0"/>
<path d="M469.051 606.582H463.577V613.281H469.051V606.582Z" fill="#5D35D0"/>
<path d="M476.35 597.204H470.876V603.903H476.35V597.204Z" fill="#FFAC7E"/>
<path d="M476.35 606.582H470.876V613.281H476.35V606.582Z" fill="#FFAC7E"/>
<path d="M483.65 597.204H478.175V603.903H483.65V597.204Z" fill="#5D35D0"/>
<path d="M483.65 606.582H478.175V613.281H483.65V606.582Z" fill="#FFAC7E"/>
<path d="M490.949 597.204H485.475V603.903H490.949V597.204Z" fill="#5D35D0"/>
<path d="M490.949 606.582H485.475V613.281H490.949V606.582Z" fill="#5D35D0"/>
<path d="M461.752 616.05H456.277V622.749H461.752V616.05Z" fill="#5D35D0"/>
<path d="M461.752 625.428H456.277V632.127H461.752V625.428Z" fill="#5D35D0"/>
<path d="M461.752 634.807H456.277V641.506H461.752V634.807Z" fill="#5D35D0"/>
<path d="M469.051 616.05H463.577V622.749H469.051V616.05Z" fill="#5D35D0"/>
<path d="M469.051 625.428H463.577V632.127H469.051V625.428Z" fill="#5D35D0"/>
<path d="M469.051 634.807H463.577V641.506H469.051V634.807Z" fill="#5D35D0"/>
<path d="M476.35 616.05H470.876V622.749H476.35V616.05Z" fill="#5D35D0"/>
<path d="M476.35 625.428H470.876V632.127H476.35V625.428Z" fill="#5D35D0"/>
<path d="M476.35 634.807H470.876V641.506H476.35V634.807Z" fill="#5D35D0"/>
<path d="M483.65 616.05H478.175V622.749H483.65V616.05Z" fill="#5D35D0"/>
<path d="M483.65 625.428H478.175V632.127H483.65V625.428Z" fill="#5D35D0"/>
<path d="M483.65 634.807H478.175V641.506H483.65V634.807Z" fill="#5D35D0"/>
<path d="M490.949 616.05H485.475V622.749H490.949V616.05Z" fill="#5D35D0"/>
<path d="M490.949 625.428H485.475V632.127H490.949V625.428Z" fill="#5D35D0"/>
<path d="M490.949 634.807H485.475V641.506H490.949V634.807Z" fill="#5D35D0"/>
<path d="M461.752 644.026H456.277V650.725H461.752V644.026Z" fill="#5D35D0"/>
<path d="M469.051 644.026H463.577V650.725H469.051V644.026Z" fill="#5D35D0"/>
<path d="M476.35 644.026H470.876V650.725H476.35V644.026Z" fill="#5D35D0"/>
<path d="M483.65 644.026H478.175V650.725H483.65V644.026Z" fill="#5D35D0"/>
<path d="M490.949 644.026H485.475V650.725H490.949V644.026Z" fill="#5D35D0"/>
<path d="M502.109 589.821H494.95V596.52H502.109V589.821Z" fill="#FFAC7E"/>
<path d="M502.109 599.2H494.95V605.899H502.109V599.2Z" fill="#FFAC7E"/>
<path d="M511.654 589.821H504.495V596.52H511.654V589.821Z" fill="#5D35D0"/>
<path d="M511.654 599.2H504.495V605.899H511.654V599.2Z" fill="#FFAC7E"/>
<path d="M521.199 589.821H514.04V596.52H521.199V589.821Z" fill="#5D35D0"/>
<path d="M521.199 599.2H514.04V605.899H521.199V599.2Z" fill="#5D35D0"/>
<path d="M530.745 589.821H523.586V596.52H530.745V589.821Z" fill="#FFAC7E"/>
<path d="M530.745 599.2H523.586V605.899H530.745V599.2Z" fill="#5D35D0"/>
<path d="M540.29 589.821H533.131V596.52H540.29V589.821Z" fill="#FFAC7E"/>
<path d="M540.29 599.2H533.131V605.899H540.29V599.2Z" fill="#5D35D0"/>
<path d="M502.109 608.667H494.95V615.366H502.109V608.667Z" fill="#FFAC7E"/>
<path d="M502.109 618.046H494.95V624.745H502.109V618.046Z" fill="#5D35D0"/>
<path d="M502.109 627.425H494.95V634.124H502.109V627.425Z" fill="#5D35D0"/>
<path d="M511.654 608.667H504.495V615.366H511.654V608.667Z" fill="#5D35D0"/>
<path d="M511.654 618.046H504.495V624.745H511.654V618.046Z" fill="#5D35D0"/>
<path d="M511.654 627.425H504.495V634.124H511.654V627.425Z" fill="#FFAC7E"/>
<path d="M521.199 608.667H514.04V615.366H521.199V608.667Z" fill="#5D35D0"/>
<path d="M521.199 618.046H514.04V624.745H521.199V618.046Z" fill="#5D35D0"/>
<path d="M521.199 627.425H514.04V634.124H521.199V627.425Z" fill="#5D35D0"/>
<path d="M530.745 608.667H523.586V615.366H530.745V608.667Z" fill="#FFAC7E"/>
<path d="M530.745 618.046H523.586V624.745H530.745V618.046Z" fill="#FFAC7E"/>
<path d="M530.745 627.425H523.586V634.124H530.745V627.425Z" fill="#5D35D0"/>
<path d="M540.29 608.667H533.131V615.366H540.29V608.667Z" fill="#FFAC7E"/>
<path d="M540.29 618.046H533.131V624.745H540.29V618.046Z" fill="#5D35D0"/>
<path d="M540.29 627.425H533.131V634.124H540.29V627.425Z" fill="#FFAC7E"/>
<path d="M502.109 635.96H494.95V642.659H502.109V635.96Z" fill="#5D35D0"/>
<path d="M502.109 645.339H494.95V652.038H502.109V645.339Z" fill="#5D35D0"/>
<path d="M511.654 635.96H504.495V642.659H511.654V635.96Z" fill="#5D35D0"/>
<path d="M511.654 645.339H504.495V652.038H511.654V645.339Z" fill="#5D35D0"/>
<path d="M521.199 635.96H514.04V642.659H521.199V635.96Z" fill="#5D35D0"/>
<path d="M521.199 645.339H514.04V652.038H521.199V645.339Z" fill="#5D35D0"/>
<path d="M530.745 635.96H523.586V642.659H530.745V635.96Z" fill="#5D35D0"/>
<path d="M530.745 645.339H523.586V652.038H530.745V645.339Z" fill="#5D35D0"/>
<path d="M540.29 635.96H533.131V642.659H540.29V635.96Z" fill="#5D35D0"/>
<path d="M540.29 645.339H533.131V652.038H540.29V645.339Z" fill="#5D35D0"/>
<path d="M169.394 648.963V664.567H183.438V648.963H169.394Z" fill="#321D5B"/>
<path d="M187.339 648.963V664.567H200.603V648.963H187.339Z" fill="#321D5B"/>
<path d="M205.285 648.963V664.567H218.549V648.963H205.285Z" fill="#321D5B"/>
<path d="M232.593 648.963V664.567H245.857V648.963H232.593Z" fill="#321D5B"/>
<path d="M251.319 648.963V664.567H264.583V648.963H251.319Z" fill="#321D5B"/>
<path d="M269.264 648.963V664.567H282.528V648.963H269.264Z" fill="#321D5B"/>
<path d="M302.034 648.963V664.567H316.078V648.963H302.034Z" fill="#321D5B"/>
<path d="M319.199 648.963V664.567H334.024V648.963H319.199Z" fill="#321D5B"/>
<path d="M337.925 648.963V664.567H351.969V648.963H337.925Z" fill="#321D5B"/>
<path d="M138.184 604.494V664.567H169.394V648.963H183.438V664.567H187.339V648.963H200.603V664.567H205.285V648.963H218.549V664.567H232.593V648.963H245.857V664.567H251.319V648.963H264.583V664.567H269.264V648.963H282.528V664.567H302.034V648.963H316.078V664.567H319.199V648.963H334.024V664.567H337.925V648.963H351.969V664.567H362.892V625.558H359.772H331.683H327.782H299.693H295.792V616.196H222.45V625.558H218.549H192.021H187.339H159.251V620.877V616.196V604.494H152.228H138.184Z" fill="#5B478A"/>
<path d="M393.322 664.567V604.494H382.398H371.475V664.567H393.322Z" fill="#5B478A"/>
<path fill-rule="evenodd" clip-rule="evenodd" d="M119.458 610.735V664.567H138.184V604.494L119.458 610.735ZM152.228 604.494H159.251V616.196V620.877H187.339V625.558H192.021V620.877H218.549V625.558H222.45V616.196H161.591C162.372 581.088 216.568 565.485 259.901 565.485C303.234 565.485 356.651 585.769 359.772 616.196H295.792V625.558H299.693V620.877H327.782V625.558H331.683V620.877H359.772V625.558H362.892V664.567H371.475V604.494H366.794C353.374 583.509 325.441 560.024 257.56 558.464C213.517 557.451 169.394 576.408 152.228 604.494Z" fill="#321D5B"/>
<path d="M159.251 620.877V625.558H187.339V620.877H159.251Z" fill="#FFAC7E"/>
<path d="M192.021 620.877V625.558H218.549V620.877H192.021Z" fill="#FFAC7E"/>
<path d="M299.693 620.877V625.558H327.782V620.877H299.693Z" fill="#FFAC7E"/>
<path d="M331.683 620.877V625.558H359.772V620.877H331.683Z" fill="#FFAC7E"/>
<path d="M222.45 616.196H295.792H359.772C356.651 585.769 303.234 565.485 259.901 565.485C216.568 565.485 162.372 581.088 161.591 616.196H222.45Z" fill="url(#paint11_linear_3006_1283)"/>
<path d="M119.458 610.735L138.184 604.494H152.228C169.394 576.408 213.517 557.451 257.56 558.464C325.441 560.024 353.374 583.509 366.794 604.494H371.475H382.398C371.475 570.946 321.54 551.917 255.22 551.443C197.366 551.029 149.888 569.386 119.458 610.735Z" fill="#F0E8FF"/>
<path fill-rule="evenodd" clip-rule="evenodd" d="M537.512 751.58H547.767V795.81H558.021V829.228H639.3V813.502H666.646V803.673H682.598V822.348H721.338V833.16H757.04V869.527H842.116V855.766H865.146V841.023H890.732V863.629L933.27 871.493H987.203V863.629H1014.55L1046.45 849.869H1070V670H987.203H933.27H890.732H865.146H842.116H757.04H731.973H682.598H666.646H558.021H500.291H457.752H416.733H369.637H138.715H124.283H114.408H35.4078H0.000244141V895H35.4078V829.228H114.408V811.536H124.283V807.605H138.715V791.878H155.427V811.536H193.407V829.228H298.234V811.536H369.637V842.006H400.022V851.835H422.051V751.58H428.887V795.81H450.916V751.58H457.752V795.81H500.291V751.58H513.964V768.289H537.512V751.58Z" fill="url(#paint12_linear_3006_1283)"/>
</g>
<defs>
<filter id="filter0_i_3006_1283" x="196.115" y="0" width="60.5837" height="673.512" filterUnits="userSpaceOnUse" color-interpolation-filters="sRGB">
<feFlood flood-opacity="0" result="BackgroundImageFix"/>
<feBlend mode="normal" in="SourceGraphic" in2="BackgroundImageFix" result="shape"/>
<feColorMatrix in="SourceAlpha" type="matrix" values="0 0 0 0 0 0 0 0 0 0 0 0 0 0 0 0 0 0 127 0" result="hardAlpha"/>
<feOffset dy="4"/>
<feGaussianBlur stdDeviation="2"/>
<feComposite in2="hardAlpha" operator="arithmetic" k2="-1" k3="1"/>
<feColorMatrix type="matrix" values="0 0 0 0 1 0 0 0 0 1 0 0 0 0 1 0 0 0 1 0"/>
<feBlend mode="normal" in2="shape" result="effect1_innerShadow_3006_1283"/>
</filter>
<filter id="filter1_i_3006_1283" x="0.000244141" y="433" width="1070" height="237" filterUnits="userSpaceOnUse" color-interpolation-filters="sRGB">
<feFlood flood-opacity="0" result="BackgroundImageFix"/>
<feBlend mode="normal" in="SourceGraphic" in2="BackgroundImageFix" result="shape"/>
<feColorMatrix in="SourceAlpha" type="matrix" values="0 0 0 0 0 0 0 0 0 0 0 0 0 0 0 0 0 0 127 0" result="hardAlpha"/>
<feOffset dx="4" dy="2"/>
<feComposite in2="hardAlpha" operator="arithmetic" k2="-1" k3="1"/>
<feColorMatrix type="matrix" values="0 0 0 0 1 0 0 0 0 0.705882 0 0 0 0 0.290196 0 0 0 1 0"/>
<feBlend mode="normal" in2="shape" result="effect1_innerShadow_3006_1283"/>
</filter>
<linearGradient id="paint0_linear_3006_1283" x1="271.356" y1="-16.0995" x2="873.797" y2="914.368" gradientUnits="userSpaceOnUse">
<stop offset="0.205" stop-color="#6F50AD"/>
<stop offset="0.475" stop-color="#EE962F"/>
<stop offset="0.94" stop-color="#8147F4"/>
</linearGradient>
<linearGradient id="paint1_linear_3006_1283" x1="992.831" y1="1379.6" x2="407.655" y2="31.1507" gradientUnits="userSpaceOnUse">
<stop offset="0.445" stop-color="#8147F4"/>
<stop offset="1" stop-color="#FCCA8F"/>
</linearGradient>
<linearGradient id="paint2_linear_3006_1283" x1="233.368" y1="206.845" x2="238.088" y2="234.97" gradientUnits="userSpaceOnUse">
<stop stop-color="#D9D9D9"/>
<stop offset="1" stop-color="#737373"/>
</linearGradient>
<linearGradient id="paint3_linear_3006_1283" x1="226.407" y1="0" x2="226.407" y2="669.512" gradientUnits="userSpaceOnUse">
<stop stop-color="#D9D9D9"/>
<stop offset="1" stop-color="#737373"/>
</linearGradient>
<linearGradient id="paint4_linear_3006_1283" x1="233.885" y1="231.333" x2="233.36" y2="277.704" gradientUnits="userSpaceOnUse">
<stop stop-color="#D9D9D9"/>
<stop offset="1" stop-color="#737373"/>
</linearGradient>
<linearGradient id="paint5_linear_3006_1283" x1="230.781" y1="223.518" x2="230.781" y2="250.09" gradientUnits="userSpaceOnUse">
<stop stop-color="#D9D9D9"/>
<stop offset="1" stop-color="#737373"/>
</linearGradient>
<linearGradient id="paint6_linear_3006_1283" x1="226.124" y1="261.032" x2="226.411" y2="669.512" gradientUnits="userSpaceOnUse">
<stop stop-color="#A5A0A0"/>
<stop offset="1" stop-color="#2F2F2F"/>
</linearGradient>
<linearGradient id="paint7_linear_3006_1283" x1="226.407" y1="0" x2="226.407" y2="669.512" gradientUnits="userSpaceOnUse">
<stop stop-color="#D9D9D9"/>
<stop offset="1" stop-color="#737373"/>
</linearGradient>
<linearGradient id="paint8_linear_3006_1283" x1="226.124" y1="261.032" x2="226.411" y2="669.512" gradientUnits="userSpaceOnUse">
<stop stop-color="#A5A0A0"/>
<stop offset="1" stop-color="#2F2F2F"/>
</linearGradient>
<linearGradient id="paint9_linear_3006_1283" x1="226.407" y1="0" x2="226.12" y2="127.129" gradientUnits="userSpaceOnUse">
<stop stop-color="#D9D9D9"/>
<stop offset="1" stop-color="#737373"/>
</linearGradient>
<linearGradient id="paint10_linear_3006_1283" x1="226.124" y1="75.027" x2="227.698" y2="244.88" gradientUnits="userSpaceOnUse">
<stop stop-color="white"/>
<stop offset="1" stop-color="#525252"/>
</linearGradient>
<linearGradient id="paint11_linear_3006_1283" x1="202.164" y1="596.685" x2="373.036" y2="597.466" gradientUnits="userSpaceOnUse">
<stop stop-color="#F0E8FF"/>
<stop offset="1" stop-color="#908B99"/>
</linearGradient>
<linearGradient id="paint12_linear_3006_1283" x1="551.84" y1="670" x2="551.841" y2="914.03" gradientUnits="userSpaceOnUse">
<stop stop-color="#C793FF"/>
<stop offset="1" stop-color="#231931"/>
</linearGradient>
</defs>
</svg>
