<svg width="536" height="1148" viewBox="0 0 536 1148" fill="none" xmlns="http://www.w3.org/2000/svg">
<path fill-rule="evenodd" clip-rule="evenodd" d="M506.925 0H0V1148H506.925V0ZM115.969 113.22C77.1521 113.22 45.6848 144.656 45.6848 183.434V730.226C45.6848 769.004 77.1521 800.44 115.969 800.44H391.835C430.652 800.44 462.119 769.004 462.119 730.226V183.434C462.119 144.656 430.652 113.22 391.835 113.22H115.969Z" fill="url(#paint0_linear_3006_1493)"/>
<path fill-rule="evenodd" clip-rule="evenodd" d="M391.835 147.45H115.969C96.0753 147.45 79.9483 163.56 79.9483 183.434V730.226C79.9483 750.1 96.0753 766.211 115.969 766.211H391.835C411.728 766.211 427.855 750.1 427.855 730.226V183.434C427.855 163.56 411.728 147.45 391.835 147.45ZM115.969 113.22C77.1521 113.22 45.6848 144.656 45.6848 183.434V730.226C45.6848 769.004 77.1521 800.44 115.969 800.44H391.835C430.652 800.44 462.119 769.004 462.119 730.226V183.434C462.119 144.656 430.652 113.22 391.835 113.22H115.969Z" fill="url(#paint1_linear_3006_1493)"/>
<path d="M116.284 121H392.15C426.556 121 454.434 148.862 454.435 183.214V730.006C454.435 764.358 426.556 792.22 392.15 792.221H116.284C81.878 792.221 54 764.358 54 730.006V183.214C54.0001 148.862 81.8781 121 116.284 121Z" stroke="url(#paint2_linear_3006_1493)" stroke-width="16"/>
<path d="M506.925 0V1147.38H535.053V0H506.925Z" fill="url(#paint3_linear_3006_1493)"/>
<rect x="130" y="908" width="245" height="52" fill="#3A3358"/>
<rect x="130" y="923" width="245" height="3" fill="white"/>
<path d="M166.081 952.84V941H168.401L168.529 941.976C168.753 941.603 169.1 941.304 169.569 941.08C170.038 940.856 170.556 940.744 171.121 940.744C171.868 940.744 172.524 940.909 173.089 941.24C173.654 941.571 174.097 942.045 174.417 942.664C174.737 943.272 174.897 944.008 174.897 944.872C174.897 945.715 174.748 946.467 174.449 947.128C174.161 947.779 173.734 948.291 173.169 948.664C172.614 949.037 171.937 949.224 171.137 949.224C170.582 949.224 170.07 949.128 169.601 948.936C169.132 948.744 168.78 948.499 168.545 948.2V952.84H166.081ZM168.561 945C168.561 945.395 168.641 945.747 168.801 946.056C168.972 946.355 169.201 946.589 169.489 946.76C169.788 946.92 170.129 947 170.513 947C170.908 947 171.244 946.915 171.521 946.744C171.809 946.573 172.028 946.339 172.177 946.04C172.337 945.741 172.417 945.395 172.417 945C172.417 944.605 172.337 944.259 172.177 943.96C172.028 943.661 171.809 943.427 171.521 943.256C171.244 943.085 170.908 943 170.513 943C170.129 943 169.788 943.085 169.489 943.256C169.201 943.416 168.972 943.645 168.801 943.944C168.641 944.243 168.561 944.595 168.561 945ZM178.379 949H175.915V936.936H178.379V949ZM183.54 949.208C182.74 949.208 182.025 949.027 181.396 948.664C180.777 948.301 180.287 947.805 179.924 947.176C179.572 946.536 179.396 945.805 179.396 944.984C179.396 944.152 179.567 943.421 179.908 942.792C180.26 942.152 180.745 941.651 181.364 941.288C181.983 940.925 182.692 940.744 183.492 940.744C184.335 940.744 185.06 940.92 185.668 941.272C186.276 941.613 186.745 942.104 187.076 942.744C187.407 943.373 187.572 944.125 187.572 945V945.624L180.692 945.656L180.724 944.136H185.124C185.124 943.709 184.98 943.373 184.692 943.128C184.404 942.872 184.009 942.744 183.508 942.744C183.092 942.744 182.751 942.824 182.484 942.984C182.228 943.144 182.036 943.395 181.908 943.736C181.78 944.067 181.716 944.493 181.716 945.016C181.716 945.763 181.865 946.317 182.164 946.68C182.473 947.032 182.948 947.208 183.588 947.208C184.057 947.208 184.447 947.128 184.756 946.968C185.065 946.808 185.263 946.584 185.348 946.296H187.604C187.465 947.181 187.028 947.891 186.292 948.424C185.556 948.947 184.639 949.208 183.54 949.208ZM190.969 949.208C190.126 949.208 189.454 948.979 188.953 948.52C188.462 948.051 188.217 947.427 188.217 946.648C188.217 945.912 188.468 945.325 188.969 944.888C189.481 944.451 190.217 944.195 191.177 944.12L193.417 943.944V943.816C193.417 943.549 193.364 943.331 193.257 943.16C193.15 942.979 192.996 942.845 192.793 942.76C192.601 942.664 192.356 942.616 192.057 942.616C191.534 942.616 191.134 942.712 190.857 942.904C190.59 943.096 190.457 943.373 190.457 943.736H188.409C188.409 943.128 188.564 942.6 188.873 942.152C189.182 941.704 189.62 941.357 190.185 941.112C190.761 940.867 191.428 940.744 192.185 940.744C192.964 940.744 193.62 940.883 194.153 941.16C194.697 941.437 195.108 941.843 195.385 942.376C195.673 942.909 195.817 943.56 195.817 944.328V949H193.641L193.481 947.944C193.353 948.307 193.049 948.611 192.569 948.856C192.1 949.091 191.566 949.208 190.969 949.208ZM191.833 947.384C192.302 947.384 192.686 947.272 192.985 947.048C193.284 946.813 193.433 946.467 193.433 946.008V945.576L192.185 945.688C191.652 945.731 191.273 945.821 191.049 945.96C190.836 946.088 190.729 946.28 190.729 946.536C190.729 946.824 190.82 947.037 191.001 947.176C191.182 947.315 191.46 947.384 191.833 947.384ZM196.608 946.472H198.944C198.966 946.749 199.078 946.968 199.28 947.128C199.483 947.288 199.771 947.368 200.144 947.368C200.528 947.368 200.811 947.304 200.992 947.176C201.174 947.048 201.264 946.883 201.264 946.68C201.264 946.563 201.216 946.445 201.12 946.328C201.035 946.211 200.843 946.12 200.544 946.056L199.072 945.736C198.336 945.576 197.787 945.32 197.424 944.968C197.062 944.605 196.88 944.072 196.88 943.368C196.88 942.813 197.024 942.344 197.312 941.96C197.611 941.565 198.011 941.267 198.512 941.064C199.014 940.851 199.584 940.744 200.224 940.744C200.843 940.744 201.387 940.856 201.856 941.08C202.336 941.304 202.71 941.619 202.976 942.024C203.243 942.429 203.376 942.904 203.376 943.448H201.04C201.04 943.171 200.96 942.952 200.8 942.792C200.64 942.621 200.411 942.536 200.112 942.536C199.835 942.536 199.611 942.605 199.44 942.744C199.28 942.872 199.2 943.043 199.2 943.256C199.2 943.597 199.488 943.832 200.064 943.96L201.552 944.28C202.214 944.419 202.715 944.659 203.056 945C203.408 945.331 203.584 945.816 203.584 946.456C203.584 947.021 203.435 947.512 203.136 947.928C202.838 948.344 202.422 948.664 201.888 948.888C201.355 949.101 200.742 949.208 200.048 949.208C198.992 949.208 198.155 948.957 197.536 948.456C196.918 947.944 196.608 947.283 196.608 946.472ZM208.184 949.208C207.384 949.208 206.669 949.027 206.04 948.664C205.421 948.301 204.93 947.805 204.568 947.176C204.216 946.536 204.04 945.805 204.04 944.984C204.04 944.152 204.21 943.421 204.552 942.792C204.904 942.152 205.389 941.651 206.008 941.288C206.626 940.925 207.336 940.744 208.136 940.744C208.978 940.744 209.704 940.92 210.312 941.272C210.92 941.613 211.389 942.104 211.72 942.744C212.05 943.373 212.216 944.125 212.216 945V945.624L205.336 945.656L205.368 944.136H209.768C209.768 943.709 209.624 943.373 209.336 943.128C209.048 942.872 208.653 942.744 208.152 942.744C207.736 942.744 207.394 942.824 207.128 942.984C206.872 943.144 206.68 943.395 206.552 943.736C206.424 944.067 206.36 944.493 206.36 945.016C206.36 945.763 206.509 946.317 206.808 946.68C207.117 947.032 207.592 947.208 208.232 947.208C208.701 947.208 209.09 947.128 209.4 946.968C209.709 946.808 209.906 946.584 209.992 946.296H212.248C212.109 947.181 211.672 947.891 210.936 948.424C210.2 948.947 209.282 949.208 208.184 949.208ZM220.469 949.208C219.701 949.208 219.035 949.037 218.469 948.696C217.904 948.355 217.461 947.875 217.141 947.256C216.832 946.627 216.677 945.891 216.677 945.048C216.677 944.195 216.837 943.448 217.157 942.808C217.477 942.157 217.931 941.651 218.517 941.288C219.115 940.925 219.819 940.744 220.629 940.744C221.131 940.744 221.595 940.835 222.021 941.016C222.459 941.197 222.795 941.437 223.029 941.736V936.936H225.493V949H223.173L223.045 947.976C222.832 948.339 222.491 948.637 222.021 948.872C221.563 949.096 221.045 949.208 220.469 949.208ZM221.061 946.952C221.445 946.952 221.781 946.872 222.069 946.712C222.368 946.541 222.597 946.307 222.757 946.008C222.928 945.699 223.013 945.347 223.013 944.952C223.013 944.547 222.928 944.195 222.757 943.896C222.597 943.597 222.368 943.368 222.069 943.208C221.781 943.037 221.445 942.952 221.061 942.952C220.677 942.952 220.341 943.037 220.053 943.208C219.765 943.379 219.541 943.613 219.381 943.912C219.232 944.211 219.157 944.557 219.157 944.952C219.157 945.347 219.232 945.693 219.381 945.992C219.541 946.291 219.765 946.525 220.053 946.696C220.341 946.867 220.677 946.952 221.061 946.952ZM226.512 944.984C226.512 944.141 226.698 943.405 227.072 942.776C227.456 942.136 227.978 941.64 228.64 941.288C229.312 940.936 230.074 940.76 230.928 940.76C231.781 940.76 232.538 940.936 233.2 941.288C233.861 941.64 234.378 942.136 234.752 942.776C235.136 943.405 235.328 944.141 235.328 944.984C235.328 945.827 235.136 946.563 234.752 947.192C234.378 947.821 233.861 948.312 233.2 948.664C232.538 949.016 231.781 949.192 230.928 949.192C230.074 949.192 229.312 949.016 228.64 948.664C227.978 948.312 227.456 947.821 227.072 947.192C226.698 946.563 226.512 945.827 226.512 944.984ZM228.992 944.968C228.992 945.373 229.072 945.731 229.232 946.04C229.402 946.339 229.632 946.573 229.92 946.744C230.208 946.904 230.544 946.984 230.928 946.984C231.312 946.984 231.648 946.904 231.936 946.744C232.224 946.573 232.448 946.339 232.608 946.04C232.768 945.731 232.848 945.373 232.848 944.968C232.848 944.563 232.768 944.211 232.608 943.912C232.448 943.613 232.224 943.384 231.936 943.224C231.648 943.053 231.312 942.968 230.928 942.968C230.544 942.968 230.208 943.053 229.92 943.224C229.632 943.384 229.402 943.613 229.232 943.912C229.072 944.211 228.992 944.563 228.992 944.968ZM242.654 949H240.19V941H242.51L242.67 941.832C242.916 941.491 243.252 941.224 243.678 941.032C244.116 940.84 244.596 940.744 245.118 940.744C246.068 940.744 246.804 941.037 247.326 941.624C247.86 942.2 248.126 943.011 248.126 944.056V949H245.662V944.648C245.662 944.147 245.534 943.747 245.278 943.448C245.022 943.139 244.681 942.984 244.254 942.984C243.764 942.984 243.374 943.133 243.086 943.432C242.798 943.72 242.654 944.115 242.654 944.616V949ZM249.062 944.984C249.062 944.141 249.248 943.405 249.622 942.776C250.006 942.136 250.528 941.64 251.19 941.288C251.862 940.936 252.624 940.76 253.478 940.76C254.331 940.76 255.088 940.936 255.75 941.288C256.411 941.64 256.928 942.136 257.302 942.776C257.686 943.405 257.878 944.141 257.878 944.984C257.878 945.827 257.686 946.563 257.302 947.192C256.928 947.821 256.411 948.312 255.75 948.664C255.088 949.016 254.331 949.192 253.478 949.192C252.624 949.192 251.862 949.016 251.19 948.664C250.528 948.312 250.006 947.821 249.622 947.192C249.248 946.563 249.062 945.827 249.062 944.984ZM251.542 944.968C251.542 945.373 251.622 945.731 251.782 946.04C251.952 946.339 252.182 946.573 252.47 946.744C252.758 946.904 253.094 946.984 253.478 946.984C253.862 946.984 254.198 946.904 254.486 946.744C254.774 946.573 254.998 946.339 255.158 946.04C255.318 945.731 255.398 945.373 255.398 944.968C255.398 944.563 255.318 944.211 255.158 943.912C254.998 943.613 254.774 943.384 254.486 943.224C254.198 943.053 253.862 942.968 253.478 942.968C253.094 942.968 252.758 943.053 252.47 943.224C252.182 943.384 251.952 943.613 251.782 943.912C251.622 944.211 251.542 944.563 251.542 944.968ZM258.076 941H263.58V943.048H258.076V941ZM262.06 949H259.596V938.52H262.06V949ZM270.586 949H268.122V936.936H270.586V949ZM275.746 949.208C274.946 949.208 274.232 949.027 273.602 948.664C272.984 948.301 272.493 947.805 272.13 947.176C271.778 946.536 271.602 945.805 271.602 944.984C271.602 944.152 271.773 943.421 272.114 942.792C272.466 942.152 272.952 941.651 273.57 941.288C274.189 940.925 274.898 940.744 275.698 940.744C276.541 940.744 277.266 940.92 277.874 941.272C278.482 941.613 278.952 942.104 279.282 942.744C279.613 943.373 279.778 944.125 279.778 945V945.624L272.898 945.656L272.93 944.136H277.33C277.33 943.709 277.186 943.373 276.898 943.128C276.61 942.872 276.216 942.744 275.714 942.744C275.298 942.744 274.957 942.824 274.69 942.984C274.434 943.144 274.242 943.395 274.114 943.736C273.986 944.067 273.922 944.493 273.922 945.016C273.922 945.763 274.072 946.317 274.37 946.68C274.68 947.032 275.154 947.208 275.794 947.208C276.264 947.208 276.653 947.128 276.962 946.968C277.272 946.808 277.469 946.584 277.554 946.296H279.81C279.672 947.181 279.234 947.891 278.498 948.424C277.762 948.947 276.845 949.208 275.746 949.208ZM283.175 949.208C282.333 949.208 281.661 948.979 281.159 948.52C280.669 948.051 280.423 947.427 280.423 946.648C280.423 945.912 280.674 945.325 281.175 944.888C281.687 944.451 282.423 944.195 283.383 944.12L285.623 943.944V943.816C285.623 943.549 285.57 943.331 285.463 943.16C285.357 942.979 285.202 942.845 284.999 942.76C284.807 942.664 284.562 942.616 284.263 942.616C283.741 942.616 283.341 942.712 283.063 942.904C282.797 943.096 282.663 943.373 282.663 943.736H280.615C280.615 943.128 280.77 942.6 281.079 942.152C281.389 941.704 281.826 941.357 282.391 941.112C282.967 940.867 283.634 940.744 284.391 940.744C285.17 940.744 285.826 940.883 286.359 941.16C286.903 941.437 287.314 941.843 287.591 942.376C287.879 942.909 288.023 943.56 288.023 944.328V949H285.847L285.687 947.944C285.559 948.307 285.255 948.611 284.775 948.856C284.306 949.091 283.773 949.208 283.175 949.208ZM284.039 947.384C284.509 947.384 284.893 947.272 285.191 947.048C285.49 946.813 285.639 946.467 285.639 946.008V945.576L284.391 945.688C283.858 945.731 283.479 945.821 283.255 945.96C283.042 946.088 282.935 946.28 282.935 946.536C282.935 946.824 283.026 947.037 283.207 947.176C283.389 947.315 283.666 947.384 284.039 947.384ZM291.854 949H289.39V941H291.71L291.87 941.832C292.116 941.491 292.452 941.224 292.878 941.032C293.316 940.84 293.796 940.744 294.318 940.744C295.268 940.744 296.004 941.037 296.526 941.624C297.06 942.2 297.326 943.011 297.326 944.056V949H294.862V944.648C294.862 944.147 294.734 943.747 294.478 943.448C294.222 943.139 293.881 942.984 293.454 942.984C292.964 942.984 292.574 943.133 292.286 943.432C291.998 943.72 291.854 944.115 291.854 944.616V949ZM302.096 944.984C302.096 944.141 302.283 943.405 302.656 942.776C303.04 942.136 303.563 941.64 304.224 941.288C304.896 940.936 305.659 940.76 306.512 940.76C307.365 940.76 308.123 940.936 308.784 941.288C309.445 941.64 309.963 942.136 310.336 942.776C310.72 943.405 310.912 944.141 310.912 944.984C310.912 945.827 310.72 946.563 310.336 947.192C309.963 947.821 309.445 948.312 308.784 948.664C308.123 949.016 307.365 949.192 306.512 949.192C305.659 949.192 304.896 949.016 304.224 948.664C303.563 948.312 303.04 947.821 302.656 947.192C302.283 946.563 302.096 945.827 302.096 944.984ZM304.576 944.968C304.576 945.373 304.656 945.731 304.816 946.04C304.987 946.339 305.216 946.573 305.504 946.744C305.792 946.904 306.128 946.984 306.512 946.984C306.896 946.984 307.232 946.904 307.52 946.744C307.808 946.573 308.032 946.339 308.192 946.04C308.352 945.731 308.432 945.373 308.432 944.968C308.432 944.563 308.352 944.211 308.192 943.912C308.032 943.613 307.808 943.384 307.52 943.224C307.232 943.053 306.896 942.968 306.512 942.968C306.128 942.968 305.792 943.053 305.504 943.224C305.216 943.384 304.987 943.613 304.816 943.912C304.656 944.211 304.576 944.563 304.576 944.968ZM314.404 949H311.94V941H314.26L314.42 941.832C314.666 941.491 315.002 941.224 315.428 941.032C315.866 940.84 316.346 940.744 316.868 940.744C317.818 940.744 318.554 941.037 319.076 941.624C319.61 942.2 319.876 943.011 319.876 944.056V949H317.412V944.648C317.412 944.147 317.284 943.747 317.028 943.448C316.772 943.139 316.431 942.984 316.004 942.984C315.514 942.984 315.124 943.133 314.836 943.432C314.548 943.72 314.404 944.115 314.404 944.616V949ZM328.438 949.208C327.67 949.208 327.003 949.037 326.438 948.696C325.873 948.355 325.43 947.875 325.11 947.256C324.801 946.627 324.646 945.891 324.646 945.048C324.646 944.195 324.806 943.448 325.126 942.808C325.446 942.157 325.899 941.651 326.486 941.288C327.083 940.925 327.787 940.744 328.598 940.744C329.099 940.744 329.563 940.835 329.99 941.016C330.427 941.197 330.763 941.437 330.998 941.736V936.936H333.462V949H331.142L331.014 947.976C330.801 948.339 330.459 948.637 329.99 948.872C329.531 949.096 329.014 949.208 328.438 949.208ZM329.03 946.952C329.414 946.952 329.75 946.872 330.038 946.712C330.337 946.541 330.566 946.307 330.726 946.008C330.897 945.699 330.982 945.347 330.982 944.952C330.982 944.547 330.897 944.195 330.726 943.896C330.566 943.597 330.337 943.368 330.038 943.208C329.75 943.037 329.414 942.952 329.03 942.952C328.646 942.952 328.31 943.037 328.022 943.208C327.734 943.379 327.51 943.613 327.35 943.912C327.201 944.211 327.126 944.557 327.126 944.952C327.126 945.347 327.201 945.693 327.35 945.992C327.51 946.291 327.734 946.525 328.022 946.696C328.31 946.867 328.646 946.952 329.03 946.952ZM334.48 944.984C334.48 944.141 334.667 943.405 335.04 942.776C335.424 942.136 335.947 941.64 336.608 941.288C337.28 940.936 338.043 940.76 338.896 940.76C339.75 940.76 340.507 940.936 341.168 941.288C341.83 941.64 342.347 942.136 342.72 942.776C343.104 943.405 343.296 944.141 343.296 944.984C343.296 945.827 343.104 946.563 342.72 947.192C342.347 947.821 341.83 948.312 341.168 948.664C340.507 949.016 339.75 949.192 338.896 949.192C338.043 949.192 337.28 949.016 336.608 948.664C335.947 948.312 335.424 947.821 335.04 947.192C334.667 946.563 334.48 945.827 334.48 944.984ZM336.96 944.968C336.96 945.373 337.04 945.731 337.2 946.04C337.371 946.339 337.6 946.573 337.888 946.744C338.176 946.904 338.512 946.984 338.896 946.984C339.28 946.984 339.616 946.904 339.904 946.744C340.192 946.573 340.416 946.339 340.576 946.04C340.736 945.731 340.816 945.373 340.816 944.968C340.816 944.563 340.736 944.211 340.576 943.912C340.416 943.613 340.192 943.384 339.904 943.224C339.616 943.053 339.28 942.968 338.896 942.968C338.512 942.968 338.176 943.053 337.888 943.224C337.6 943.384 337.371 943.613 337.2 943.912C337.04 944.211 336.96 944.563 336.96 944.968ZM343.893 944.984C343.893 944.141 344.08 943.405 344.453 942.776C344.837 942.136 345.36 941.64 346.021 941.288C346.693 940.936 347.456 940.76 348.309 940.76C349.162 940.76 349.92 940.936 350.581 941.288C351.242 941.64 351.76 942.136 352.133 942.776C352.517 943.405 352.709 944.141 352.709 944.984C352.709 945.827 352.517 946.563 352.133 947.192C351.76 947.821 351.242 948.312 350.581 948.664C349.92 949.016 349.162 949.192 348.309 949.192C347.456 949.192 346.693 949.016 346.021 948.664C345.36 948.312 344.837 947.821 344.453 947.192C344.08 946.563 343.893 945.827 343.893 944.984ZM346.373 944.968C346.373 945.373 346.453 945.731 346.613 946.04C346.784 946.339 347.013 946.573 347.301 946.744C347.589 946.904 347.925 946.984 348.309 946.984C348.693 946.984 349.029 946.904 349.317 946.744C349.605 946.573 349.829 946.339 349.989 946.04C350.149 945.731 350.229 945.373 350.229 944.968C350.229 944.563 350.149 944.211 349.989 943.912C349.829 943.613 349.605 943.384 349.317 943.224C349.029 943.053 348.693 942.968 348.309 942.968C347.925 942.968 347.589 943.053 347.301 943.224C347.013 943.384 346.784 943.613 346.613 943.912C346.453 944.211 346.373 944.563 346.373 944.968ZM359.241 941V943.32H358.457C357.753 943.32 357.199 943.491 356.793 943.832C356.399 944.173 356.201 944.739 356.201 945.528V949H353.737V941.016H356.057L356.249 942.728H356.025C356.132 942.195 356.372 941.757 356.745 941.416C357.129 941.064 357.647 940.888 358.297 940.888C358.447 940.888 358.596 940.899 358.745 940.92C358.905 940.931 359.071 940.957 359.241 941ZM359.511 946.472H361.847C361.869 946.749 361.981 946.968 362.183 947.128C362.386 947.288 362.674 947.368 363.047 947.368C363.431 947.368 363.714 947.304 363.895 947.176C364.077 947.048 364.167 946.883 364.167 946.68C364.167 946.563 364.119 946.445 364.023 946.328C363.938 946.211 363.746 946.12 363.447 946.056L361.975 945.736C361.239 945.576 360.69 945.32 360.327 944.968C359.965 944.605 359.783 944.072 359.783 943.368C359.783 942.813 359.927 942.344 360.215 941.96C360.514 941.565 360.914 941.267 361.415 941.064C361.917 940.851 362.487 940.744 363.127 940.744C363.746 940.744 364.29 940.856 364.759 941.08C365.239 941.304 365.613 941.619 365.879 942.024C366.146 942.429 366.279 942.904 366.279 943.448H363.943C363.943 943.171 363.863 942.952 363.703 942.792C363.543 942.621 363.314 942.536 363.015 942.536C362.738 942.536 362.514 942.605 362.343 942.744C362.183 942.872 362.103 943.043 362.103 943.256C362.103 943.597 362.391 943.832 362.967 943.96L364.455 944.28C365.117 944.419 365.618 944.659 365.959 945C366.311 945.331 366.487 945.816 366.487 946.456C366.487 947.021 366.338 947.512 366.039 947.928C365.741 948.344 365.325 948.664 364.791 948.888C364.258 949.101 363.645 949.208 362.951 949.208C361.895 949.208 361.058 948.957 360.439 948.456C359.821 947.944 359.511 947.283 359.511 946.472Z" fill="white"/>
<path d="M144.43 953.686C138.015 953.533 137.601 948.07 138.196 945.357C138.196 945.357 140.028 948.176 143.05 949.892C146.072 951.609 144.43 953.686 144.43 953.686Z" fill="white"/>
<path d="M138.47 944.376C138.412 943.59 140.051 940.277 140.376 939.857C140.376 944.681 146.412 947.264 146.412 947.264C146.412 947.264 148.44 946.036 147.743 943.835C146.68 943.158 145.948 942.477 146.852 942.263C147.311 942.831 147.591 943.356 147.743 943.835C149.006 944.638 150.734 945.436 150.734 945.436C150.734 945.436 148.777 947.653 148.554 947.874C149.586 948.287 150.344 949.601 150.578 950.229C150.314 953.672 146.207 953.87 145.401 953.922C145.324 954.016 145.268 954.03 145.264 953.938C145.263 953.932 145.312 953.928 145.401 953.922C145.719 953.535 146.397 951.78 145.264 950.502C145.264 950.502 144.636 949.749 142.771 948.73C141.463 948.016 138.544 945.358 138.47 944.376Z" fill="white"/>
<path d="M148.109 938.387C156.763 948.335 151.951 952.312 148.696 953.057C152.172 949.906 148.794 945.371 144.242 941.943C140.6 939.201 143.589 933.994 145.686 932C144.59 934.419 146.844 937.266 148.109 938.387Z" fill="white"/>
<rect x="130" y="31" width="245" height="52" fill="#3A3358"/>
<rect x="130" y="46" width="245" height="3" fill="white"/>
<path d="M166.081 75.84V64H168.401L168.529 64.976C168.753 64.6027 169.1 64.304 169.569 64.08C170.038 63.856 170.556 63.744 171.121 63.744C171.868 63.744 172.524 63.9093 173.089 64.24C173.654 64.5707 174.097 65.0453 174.417 65.664C174.737 66.272 174.897 67.008 174.897 67.872C174.897 68.7147 174.748 69.4667 174.449 70.128C174.161 70.7787 173.734 71.2907 173.169 71.664C172.614 72.0373 171.937 72.224 171.137 72.224C170.582 72.224 170.07 72.128 169.601 71.936C169.132 71.744 168.78 71.4987 168.545 71.2V75.84H166.081ZM168.561 68C168.561 68.3947 168.641 68.7467 168.801 69.056C168.972 69.3547 169.201 69.5893 169.489 69.76C169.788 69.92 170.129 70 170.513 70C170.908 70 171.244 69.9147 171.521 69.744C171.809 69.5733 172.028 69.3387 172.177 69.04C172.337 68.7413 172.417 68.3947 172.417 68C172.417 67.6053 172.337 67.2587 172.177 66.96C172.028 66.6613 171.809 66.4267 171.521 66.256C171.244 66.0853 170.908 66 170.513 66C170.129 66 169.788 66.0853 169.489 66.256C169.201 66.416 168.972 66.6453 168.801 66.944C168.641 67.2427 168.561 67.5947 168.561 68ZM178.379 72H175.915V59.936H178.379V72ZM183.54 72.208C182.74 72.208 182.025 72.0267 181.396 71.664C180.777 71.3013 180.287 70.8053 179.924 70.176C179.572 69.536 179.396 68.8053 179.396 67.984C179.396 67.152 179.567 66.4213 179.908 65.792C180.26 65.152 180.745 64.6507 181.364 64.288C181.983 63.9253 182.692 63.744 183.492 63.744C184.335 63.744 185.06 63.92 185.668 64.272C186.276 64.6133 186.745 65.104 187.076 65.744C187.407 66.3733 187.572 67.1253 187.572 68V68.624L180.692 68.656L180.724 67.136H185.124C185.124 66.7093 184.98 66.3733 184.692 66.128C184.404 65.872 184.009 65.744 183.508 65.744C183.092 65.744 182.751 65.824 182.484 65.984C182.228 66.144 182.036 66.3947 181.908 66.736C181.78 67.0667 181.716 67.4933 181.716 68.016C181.716 68.7627 181.865 69.3173 182.164 69.68C182.473 70.032 182.948 70.208 183.588 70.208C184.057 70.208 184.447 70.128 184.756 69.968C185.065 69.808 185.263 69.584 185.348 69.296H187.604C187.465 70.1813 187.028 70.8907 186.292 71.424C185.556 71.9467 184.639 72.208 183.54 72.208ZM190.969 72.208C190.126 72.208 189.454 71.9787 188.953 71.52C188.462 71.0507 188.217 70.4267 188.217 69.648C188.217 68.912 188.468 68.3253 188.969 67.888C189.481 67.4507 190.217 67.1947 191.177 67.12L193.417 66.944V66.816C193.417 66.5493 193.364 66.3307 193.257 66.16C193.15 65.9787 192.996 65.8453 192.793 65.76C192.601 65.664 192.356 65.616 192.057 65.616C191.534 65.616 191.134 65.712 190.857 65.904C190.59 66.096 190.457 66.3733 190.457 66.736H188.409C188.409 66.128 188.564 65.6 188.873 65.152C189.182 64.704 189.62 64.3573 190.185 64.112C190.761 63.8667 191.428 63.744 192.185 63.744C192.964 63.744 193.62 63.8827 194.153 64.16C194.697 64.4373 195.108 64.8427 195.385 65.376C195.673 65.9093 195.817 66.56 195.817 67.328V72H193.641L193.481 70.944C193.353 71.3067 193.049 71.6107 192.569 71.856C192.1 72.0907 191.566 72.208 190.969 72.208ZM191.833 70.384C192.302 70.384 192.686 70.272 192.985 70.048C193.284 69.8133 193.433 69.4667 193.433 69.008V68.576L192.185 68.688C191.652 68.7307 191.273 68.8213 191.049 68.96C190.836 69.088 190.729 69.28 190.729 69.536C190.729 69.824 190.82 70.0373 191.001 70.176C191.182 70.3147 191.46 70.384 191.833 70.384ZM196.608 69.472H198.944C198.966 69.7493 199.078 69.968 199.28 70.128C199.483 70.288 199.771 70.368 200.144 70.368C200.528 70.368 200.811 70.304 200.992 70.176C201.174 70.048 201.264 69.8827 201.264 69.68C201.264 69.5627 201.216 69.4453 201.12 69.328C201.035 69.2107 200.843 69.12 200.544 69.056L199.072 68.736C198.336 68.576 197.787 68.32 197.424 67.968C197.062 67.6053 196.88 67.072 196.88 66.368C196.88 65.8133 197.024 65.344 197.312 64.96C197.611 64.5653 198.011 64.2667 198.512 64.064C199.014 63.8507 199.584 63.744 200.224 63.744C200.843 63.744 201.387 63.856 201.856 64.08C202.336 64.304 202.71 64.6187 202.976 65.024C203.243 65.4293 203.376 65.904 203.376 66.448H201.04C201.04 66.1707 200.96 65.952 200.8 65.792C200.64 65.6213 200.411 65.536 200.112 65.536C199.835 65.536 199.611 65.6053 199.44 65.744C199.28 65.872 199.2 66.0427 199.2 66.256C199.2 66.5973 199.488 66.832 200.064 66.96L201.552 67.28C202.214 67.4187 202.715 67.6587 203.056 68C203.408 68.3307 203.584 68.816 203.584 69.456C203.584 70.0213 203.435 70.512 203.136 70.928C202.838 71.344 202.422 71.664 201.888 71.888C201.355 72.1013 200.742 72.208 200.048 72.208C198.992 72.208 198.155 71.9573 197.536 71.456C196.918 70.944 196.608 70.2827 196.608 69.472ZM208.184 72.208C207.384 72.208 206.669 72.0267 206.04 71.664C205.421 71.3013 204.93 70.8053 204.568 70.176C204.216 69.536 204.04 68.8053 204.04 67.984C204.04 67.152 204.21 66.4213 204.552 65.792C204.904 65.152 205.389 64.6507 206.008 64.288C206.626 63.9253 207.336 63.744 208.136 63.744C208.978 63.744 209.704 63.92 210.312 64.272C210.92 64.6133 211.389 65.104 211.72 65.744C212.05 66.3733 212.216 67.1253 212.216 68V68.624L205.336 68.656L205.368 67.136H209.768C209.768 66.7093 209.624 66.3733 209.336 66.128C209.048 65.872 208.653 65.744 208.152 65.744C207.736 65.744 207.394 65.824 207.128 65.984C206.872 66.144 206.68 66.3947 206.552 66.736C206.424 67.0667 206.36 67.4933 206.36 68.016C206.36 68.7627 206.509 69.3173 206.808 69.68C207.117 70.032 207.592 70.208 208.232 70.208C208.701 70.208 209.09 70.128 209.4 69.968C209.709 69.808 209.906 69.584 209.992 69.296H212.248C212.109 70.1813 211.672 70.8907 210.936 71.424C210.2 71.9467 209.282 72.208 208.184 72.208ZM220.469 72.208C219.701 72.208 219.035 72.0373 218.469 71.696C217.904 71.3547 217.461 70.8747 217.141 70.256C216.832 69.6267 216.677 68.8907 216.677 68.048C216.677 67.1947 216.837 66.448 217.157 65.808C217.477 65.1573 217.931 64.6507 218.517 64.288C219.115 63.9253 219.819 63.744 220.629 63.744C221.131 63.744 221.595 63.8347 222.021 64.016C222.459 64.1973 222.795 64.4373 223.029 64.736V59.936H225.493V72H223.173L223.045 70.976C222.832 71.3387 222.491 71.6373 222.021 71.872C221.563 72.096 221.045 72.208 220.469 72.208ZM221.061 69.952C221.445 69.952 221.781 69.872 222.069 69.712C222.368 69.5413 222.597 69.3067 222.757 69.008C222.928 68.6987 223.013 68.3467 223.013 67.952C223.013 67.5467 222.928 67.1947 222.757 66.896C222.597 66.5973 222.368 66.368 222.069 66.208C221.781 66.0373 221.445 65.952 221.061 65.952C220.677 65.952 220.341 66.0373 220.053 66.208C219.765 66.3787 219.541 66.6133 219.381 66.912C219.232 67.2107 219.157 67.5573 219.157 67.952C219.157 68.3467 219.232 68.6933 219.381 68.992C219.541 69.2907 219.765 69.5253 220.053 69.696C220.341 69.8667 220.677 69.952 221.061 69.952ZM226.512 67.984C226.512 67.1413 226.698 66.4053 227.072 65.776C227.456 65.136 227.978 64.64 228.64 64.288C229.312 63.936 230.074 63.76 230.928 63.76C231.781 63.76 232.538 63.936 233.2 64.288C233.861 64.64 234.378 65.136 234.752 65.776C235.136 66.4053 235.328 67.1413 235.328 67.984C235.328 68.8267 235.136 69.5627 234.752 70.192C234.378 70.8213 233.861 71.312 233.2 71.664C232.538 72.016 231.781 72.192 230.928 72.192C230.074 72.192 229.312 72.016 228.64 71.664C227.978 71.312 227.456 70.8213 227.072 70.192C226.698 69.5627 226.512 68.8267 226.512 67.984ZM228.992 67.968C228.992 68.3733 229.072 68.7307 229.232 69.04C229.402 69.3387 229.632 69.5733 229.92 69.744C230.208 69.904 230.544 69.984 230.928 69.984C231.312 69.984 231.648 69.904 231.936 69.744C232.224 69.5733 232.448 69.3387 232.608 69.04C232.768 68.7307 232.848 68.3733 232.848 67.968C232.848 67.5627 232.768 67.2107 232.608 66.912C232.448 66.6133 232.224 66.384 231.936 66.224C231.648 66.0533 231.312 65.968 230.928 65.968C230.544 65.968 230.208 66.0533 229.92 66.224C229.632 66.384 229.402 66.6133 229.232 66.912C229.072 67.2107 228.992 67.5627 228.992 67.968ZM242.654 72H240.19V64H242.51L242.67 64.832C242.916 64.4907 243.252 64.224 243.678 64.032C244.116 63.84 244.596 63.744 245.118 63.744C246.068 63.744 246.804 64.0373 247.326 64.624C247.86 65.2 248.126 66.0107 248.126 67.056V72H245.662V67.648C245.662 67.1467 245.534 66.7467 245.278 66.448C245.022 66.1387 244.681 65.984 244.254 65.984C243.764 65.984 243.374 66.1333 243.086 66.432C242.798 66.72 242.654 67.1147 242.654 67.616V72ZM249.062 67.984C249.062 67.1413 249.248 66.4053 249.622 65.776C250.006 65.136 250.528 64.64 251.19 64.288C251.862 63.936 252.624 63.76 253.478 63.76C254.331 63.76 255.088 63.936 255.75 64.288C256.411 64.64 256.928 65.136 257.302 65.776C257.686 66.4053 257.878 67.1413 257.878 67.984C257.878 68.8267 257.686 69.5627 257.302 70.192C256.928 70.8213 256.411 71.312 255.75 71.664C255.088 72.016 254.331 72.192 253.478 72.192C252.624 72.192 251.862 72.016 251.19 71.664C250.528 71.312 250.006 70.8213 249.622 70.192C249.248 69.5627 249.062 68.8267 249.062 67.984ZM251.542 67.968C251.542 68.3733 251.622 68.7307 251.782 69.04C251.952 69.3387 252.182 69.5733 252.47 69.744C252.758 69.904 253.094 69.984 253.478 69.984C253.862 69.984 254.198 69.904 254.486 69.744C254.774 69.5733 254.998 69.3387 255.158 69.04C255.318 68.7307 255.398 68.3733 255.398 67.968C255.398 67.5627 255.318 67.2107 255.158 66.912C254.998 66.6133 254.774 66.384 254.486 66.224C254.198 66.0533 253.862 65.968 253.478 65.968C253.094 65.968 252.758 66.0533 252.47 66.224C252.182 66.384 251.952 66.6133 251.782 66.912C251.622 67.2107 251.542 67.5627 251.542 67.968ZM258.076 64H263.58V66.048H258.076V64ZM262.06 72H259.596V61.52H262.06V72ZM270.586 72H268.122V59.936H270.586V72ZM275.746 72.208C274.946 72.208 274.232 72.0267 273.602 71.664C272.984 71.3013 272.493 70.8053 272.13 70.176C271.778 69.536 271.602 68.8053 271.602 67.984C271.602 67.152 271.773 66.4213 272.114 65.792C272.466 65.152 272.952 64.6507 273.57 64.288C274.189 63.9253 274.898 63.744 275.698 63.744C276.541 63.744 277.266 63.92 277.874 64.272C278.482 64.6133 278.952 65.104 279.282 65.744C279.613 66.3733 279.778 67.1253 279.778 68V68.624L272.898 68.656L272.93 67.136H277.33C277.33 66.7093 277.186 66.3733 276.898 66.128C276.61 65.872 276.216 65.744 275.714 65.744C275.298 65.744 274.957 65.824 274.69 65.984C274.434 66.144 274.242 66.3947 274.114 66.736C273.986 67.0667 273.922 67.4933 273.922 68.016C273.922 68.7627 274.072 69.3173 274.37 69.68C274.68 70.032 275.154 70.208 275.794 70.208C276.264 70.208 276.653 70.128 276.962 69.968C277.272 69.808 277.469 69.584 277.554 69.296H279.81C279.672 70.1813 279.234 70.8907 278.498 71.424C277.762 71.9467 276.845 72.208 275.746 72.208ZM283.175 72.208C282.333 72.208 281.661 71.9787 281.159 71.52C280.669 71.0507 280.423 70.4267 280.423 69.648C280.423 68.912 280.674 68.3253 281.175 67.888C281.687 67.4507 282.423 67.1947 283.383 67.12L285.623 66.944V66.816C285.623 66.5493 285.57 66.3307 285.463 66.16C285.357 65.9787 285.202 65.8453 284.999 65.76C284.807 65.664 284.562 65.616 284.263 65.616C283.741 65.616 283.341 65.712 283.063 65.904C282.797 66.096 282.663 66.3733 282.663 66.736H280.615C280.615 66.128 280.77 65.6 281.079 65.152C281.389 64.704 281.826 64.3573 282.391 64.112C282.967 63.8667 283.634 63.744 284.391 63.744C285.17 63.744 285.826 63.8827 286.359 64.16C286.903 64.4373 287.314 64.8427 287.591 65.376C287.879 65.9093 288.023 66.56 288.023 67.328V72H285.847L285.687 70.944C285.559 71.3067 285.255 71.6107 284.775 71.856C284.306 72.0907 283.773 72.208 283.175 72.208ZM284.039 70.384C284.509 70.384 284.893 70.272 285.191 70.048C285.49 69.8133 285.639 69.4667 285.639 69.008V68.576L284.391 68.688C283.858 68.7307 283.479 68.8213 283.255 68.96C283.042 69.088 282.935 69.28 282.935 69.536C282.935 69.824 283.026 70.0373 283.207 70.176C283.389 70.3147 283.666 70.384 284.039 70.384ZM291.854 72H289.39V64H291.71L291.87 64.832C292.116 64.4907 292.452 64.224 292.878 64.032C293.316 63.84 293.796 63.744 294.318 63.744C295.268 63.744 296.004 64.0373 296.526 64.624C297.06 65.2 297.326 66.0107 297.326 67.056V72H294.862V67.648C294.862 67.1467 294.734 66.7467 294.478 66.448C294.222 66.1387 293.881 65.984 293.454 65.984C292.964 65.984 292.574 66.1333 292.286 66.432C291.998 66.72 291.854 67.1147 291.854 67.616V72ZM302.096 67.984C302.096 67.1413 302.283 66.4053 302.656 65.776C303.04 65.136 303.563 64.64 304.224 64.288C304.896 63.936 305.659 63.76 306.512 63.76C307.365 63.76 308.123 63.936 308.784 64.288C309.445 64.64 309.963 65.136 310.336 65.776C310.72 66.4053 310.912 67.1413 310.912 67.984C310.912 68.8267 310.72 69.5627 310.336 70.192C309.963 70.8213 309.445 71.312 308.784 71.664C308.123 72.016 307.365 72.192 306.512 72.192C305.659 72.192 304.896 72.016 304.224 71.664C303.563 71.312 303.04 70.8213 302.656 70.192C302.283 69.5627 302.096 68.8267 302.096 67.984ZM304.576 67.968C304.576 68.3733 304.656 68.7307 304.816 69.04C304.987 69.3387 305.216 69.5733 305.504 69.744C305.792 69.904 306.128 69.984 306.512 69.984C306.896 69.984 307.232 69.904 307.52 69.744C307.808 69.5733 308.032 69.3387 308.192 69.04C308.352 68.7307 308.432 68.3733 308.432 67.968C308.432 67.5627 308.352 67.2107 308.192 66.912C308.032 66.6133 307.808 66.384 307.52 66.224C307.232 66.0533 306.896 65.968 306.512 65.968C306.128 65.968 305.792 66.0533 305.504 66.224C305.216 66.384 304.987 66.6133 304.816 66.912C304.656 67.2107 304.576 67.5627 304.576 67.968ZM314.404 72H311.94V64H314.26L314.42 64.832C314.666 64.4907 315.002 64.224 315.428 64.032C315.866 63.84 316.346 63.744 316.868 63.744C317.818 63.744 318.554 64.0373 319.076 64.624C319.61 65.2 319.876 66.0107 319.876 67.056V72H317.412V67.648C317.412 67.1467 317.284 66.7467 317.028 66.448C316.772 66.1387 316.431 65.984 316.004 65.984C315.514 65.984 315.124 66.1333 314.836 66.432C314.548 66.72 314.404 67.1147 314.404 67.616V72ZM328.438 72.208C327.67 72.208 327.003 72.0373 326.438 71.696C325.873 71.3547 325.43 70.8747 325.11 70.256C324.801 69.6267 324.646 68.8907 324.646 68.048C324.646 67.1947 324.806 66.448 325.126 65.808C325.446 65.1573 325.899 64.6507 326.486 64.288C327.083 63.9253 327.787 63.744 328.598 63.744C329.099 63.744 329.563 63.8347 329.99 64.016C330.427 64.1973 330.763 64.4373 330.998 64.736V59.936H333.462V72H331.142L331.014 70.976C330.801 71.3387 330.459 71.6373 329.99 71.872C329.531 72.096 329.014 72.208 328.438 72.208ZM329.03 69.952C329.414 69.952 329.75 69.872 330.038 69.712C330.337 69.5413 330.566 69.3067 330.726 69.008C330.897 68.6987 330.982 68.3467 330.982 67.952C330.982 67.5467 330.897 67.1947 330.726 66.896C330.566 66.5973 330.337 66.368 330.038 66.208C329.75 66.0373 329.414 65.952 329.03 65.952C328.646 65.952 328.31 66.0373 328.022 66.208C327.734 66.3787 327.51 66.6133 327.35 66.912C327.201 67.2107 327.126 67.5573 327.126 67.952C327.126 68.3467 327.201 68.6933 327.35 68.992C327.51 69.2907 327.734 69.5253 328.022 69.696C328.31 69.8667 328.646 69.952 329.03 69.952ZM334.48 67.984C334.48 67.1413 334.667 66.4053 335.04 65.776C335.424 65.136 335.947 64.64 336.608 64.288C337.28 63.936 338.043 63.76 338.896 63.76C339.75 63.76 340.507 63.936 341.168 64.288C341.83 64.64 342.347 65.136 342.72 65.776C343.104 66.4053 343.296 67.1413 343.296 67.984C343.296 68.8267 343.104 69.5627 342.72 70.192C342.347 70.8213 341.83 71.312 341.168 71.664C340.507 72.016 339.75 72.192 338.896 72.192C338.043 72.192 337.28 72.016 336.608 71.664C335.947 71.312 335.424 70.8213 335.04 70.192C334.667 69.5627 334.48 68.8267 334.48 67.984ZM336.96 67.968C336.96 68.3733 337.04 68.7307 337.2 69.04C337.371 69.3387 337.6 69.5733 337.888 69.744C338.176 69.904 338.512 69.984 338.896 69.984C339.28 69.984 339.616 69.904 339.904 69.744C340.192 69.5733 340.416 69.3387 340.576 69.04C340.736 68.7307 340.816 68.3733 340.816 67.968C340.816 67.5627 340.736 67.2107 340.576 66.912C340.416 66.6133 340.192 66.384 339.904 66.224C339.616 66.0533 339.28 65.968 338.896 65.968C338.512 65.968 338.176 66.0533 337.888 66.224C337.6 66.384 337.371 66.6133 337.2 66.912C337.04 67.2107 336.96 67.5627 336.96 67.968ZM343.893 67.984C343.893 67.1413 344.08 66.4053 344.453 65.776C344.837 65.136 345.36 64.64 346.021 64.288C346.693 63.936 347.456 63.76 348.309 63.76C349.162 63.76 349.92 63.936 350.581 64.288C351.242 64.64 351.76 65.136 352.133 65.776C352.517 66.4053 352.709 67.1413 352.709 67.984C352.709 68.8267 352.517 69.5627 352.133 70.192C351.76 70.8213 351.242 71.312 350.581 71.664C349.92 72.016 349.162 72.192 348.309 72.192C347.456 72.192 346.693 72.016 346.021 71.664C345.36 71.312 344.837 70.8213 344.453 70.192C344.08 69.5627 343.893 68.8267 343.893 67.984ZM346.373 67.968C346.373 68.3733 346.453 68.7307 346.613 69.04C346.784 69.3387 347.013 69.5733 347.301 69.744C347.589 69.904 347.925 69.984 348.309 69.984C348.693 69.984 349.029 69.904 349.317 69.744C349.605 69.5733 349.829 69.3387 349.989 69.04C350.149 68.7307 350.229 68.3733 350.229 67.968C350.229 67.5627 350.149 67.2107 349.989 66.912C349.829 66.6133 349.605 66.384 349.317 66.224C349.029 66.0533 348.693 65.968 348.309 65.968C347.925 65.968 347.589 66.0533 347.301 66.224C347.013 66.384 346.784 66.6133 346.613 66.912C346.453 67.2107 346.373 67.5627 346.373 67.968ZM359.241 64V66.32H358.457C357.753 66.32 357.199 66.4907 356.793 66.832C356.399 67.1733 356.201 67.7387 356.201 68.528V72H353.737V64.016H356.057L356.249 65.728H356.025C356.132 65.1947 356.372 64.7573 356.745 64.416C357.129 64.064 357.647 63.888 358.297 63.888C358.447 63.888 358.596 63.8987 358.745 63.92C358.905 63.9307 359.071 63.9573 359.241 64ZM359.511 69.472H361.847C361.869 69.7493 361.981 69.968 362.183 70.128C362.386 70.288 362.674 70.368 363.047 70.368C363.431 70.368 363.714 70.304 363.895 70.176C364.077 70.048 364.167 69.8827 364.167 69.68C364.167 69.5627 364.119 69.4453 364.023 69.328C363.938 69.2107 363.746 69.12 363.447 69.056L361.975 68.736C361.239 68.576 360.69 68.32 360.327 67.968C359.965 67.6053 359.783 67.072 359.783 66.368C359.783 65.8133 359.927 65.344 360.215 64.96C360.514 64.5653 360.914 64.2667 361.415 64.064C361.917 63.8507 362.487 63.744 363.127 63.744C363.746 63.744 364.29 63.856 364.759 64.08C365.239 64.304 365.613 64.6187 365.879 65.024C366.146 65.4293 366.279 65.904 366.279 66.448H363.943C363.943 66.1707 363.863 65.952 363.703 65.792C363.543 65.6213 363.314 65.536 363.015 65.536C362.738 65.536 362.514 65.6053 362.343 65.744C362.183 65.872 362.103 66.0427 362.103 66.256C362.103 66.5973 362.391 66.832 362.967 66.96L364.455 67.28C365.117 67.4187 365.618 67.6587 365.959 68C366.311 68.3307 366.487 68.816 366.487 69.456C366.487 70.0213 366.338 70.512 366.039 70.928C365.741 71.344 365.325 71.664 364.791 71.888C364.258 72.1013 363.645 72.208 362.951 72.208C361.895 72.208 361.058 71.9573 360.439 71.456C359.821 70.944 359.511 70.2827 359.511 69.472Z" fill="white"/>
<path d="M144.43 76.6858C138.015 76.5332 137.601 71.0699 138.196 68.3572C138.196 68.3572 140.028 71.1758 143.05 72.8924C146.072 74.609 144.43 76.6858 144.43 76.6858Z" fill="white"/>
<path d="M138.47 67.376C138.412 66.5905 140.051 63.2769 140.376 62.8571C140.376 67.6811 146.412 70.2638 146.412 70.2638C146.412 70.2638 148.44 69.0356 147.743 66.8346C146.68 66.1583 145.948 65.4774 146.852 65.2628C147.311 65.831 147.591 66.3559 147.743 66.8346C149.006 67.6384 150.734 68.4357 150.734 68.4357C150.734 68.4357 148.777 70.6527 148.554 70.8743C149.586 71.2873 150.344 72.6014 150.578 73.2286C150.314 76.6719 146.207 76.87 145.401 76.9224C145.324 77.0156 145.268 77.0295 145.264 76.9385C145.263 76.9321 145.312 76.9282 145.401 76.9224C145.719 76.5352 146.397 74.7801 145.264 73.5019C145.264 73.5019 144.636 72.749 142.771 71.7303C141.463 71.0158 138.544 68.3578 138.47 67.376Z" fill="white"/>
<path d="M148.109 61.3874C156.763 71.3347 151.951 75.312 148.696 76.0571C152.172 72.906 148.794 68.371 144.242 64.9431C140.6 62.2007 143.589 56.9943 145.686 55C144.59 57.4187 146.844 60.2661 148.109 61.3874Z" fill="white"/>
<path fill-rule="evenodd" clip-rule="evenodd" d="M535 630.99V541.757V516.497V374.384V358V260H226.753V491.586L360.704 627.844L535 630.99Z" fill="url(#paint4_linear_3006_1493)"/>
<path d="M209 627.844H360.704L226.753 491.586L209 627.844Z" fill="url(#paint5_linear_3006_1493)"/>
<path d="M290.592 327.28V422H269.856V327.28H290.592Z" fill="url(#paint6_linear_3006_1493)"/>
<path d="M304.724 388.848C304.724 382.363 306.004 376.645 308.564 371.696C311.209 366.747 314.836 362.864 319.444 360.048C324.137 357.232 329.471 355.824 335.444 355.824C340.479 355.824 344.788 356.848 348.372 358.896C352.041 360.944 354.559 363.632 355.924 366.96L354.004 368.24L355.54 358H374.1V417.904C374.1 425.499 372.692 432.027 369.876 437.488C367.06 443.035 363.049 447.259 357.844 450.16C352.639 453.147 346.367 454.64 339.028 454.64C329.215 454.64 321.236 451.995 315.092 446.704C308.948 441.499 305.407 434.373 304.468 425.328H324.436C324.607 428.912 325.972 431.685 328.532 433.648C331.092 435.696 334.548 436.72 338.9 436.72C343.679 436.72 347.433 435.397 350.164 432.752C352.98 430.107 354.388 426.523 354.388 422V408.432L356.564 410.096C355.199 413.424 352.553 416.112 348.628 418.16C344.703 420.208 340.18 421.232 335.06 421.232C329.087 421.232 323.796 419.867 319.188 417.136C314.665 414.405 311.124 410.608 308.564 405.744C306.004 400.88 304.724 395.248 304.724 388.848ZM324.564 388.336C324.564 391.408 325.204 394.139 326.484 396.528C327.764 398.832 329.513 400.667 331.732 402.032C333.951 403.397 336.511 404.08 339.412 404.08C342.399 404.08 345.001 403.44 347.22 402.16C349.524 400.795 351.273 398.96 352.468 396.656C353.748 394.267 354.388 391.493 354.388 388.336C354.388 385.179 353.748 382.491 352.468 380.272C351.273 377.968 349.524 376.176 347.22 374.896C345.001 373.616 342.356 372.976 339.284 372.976C336.383 372.976 333.823 373.616 331.604 374.896C329.385 376.176 327.636 377.968 326.356 380.272C325.161 382.576 324.564 385.264 324.564 388.336Z" fill="url(#paint7_linear_3006_1493)"/>
<path d="M408.636 422H388.924V358H407.484L408.764 364.656C410.727 361.925 413.415 359.792 416.828 358.256C420.327 356.72 424.167 355.952 428.348 355.952C435.943 355.952 441.831 358.299 446.012 362.992C450.279 367.6 452.412 374.085 452.412 382.448V422H432.7V387.184C432.7 383.173 431.676 379.973 429.628 377.584C427.58 375.109 424.849 373.872 421.436 373.872C417.511 373.872 414.396 375.067 412.092 377.456C409.788 379.76 408.636 382.917 408.636 386.928V422Z" fill="url(#paint8_linear_3006_1493)"/>
<path d="M466.549 422V358H486.261V422H466.549ZM476.277 348.016C473.12 348.016 470.432 346.949 468.213 344.816C466.08 342.597 465.013 339.909 465.013 336.752C465.013 333.595 466.08 330.949 468.213 328.816C470.432 326.683 473.12 325.616 476.277 325.616C479.349 325.616 481.952 326.683 484.085 328.816C486.304 330.949 487.413 333.595 487.413 336.752C487.413 339.909 486.304 342.597 484.085 344.816C481.952 346.949 479.349 348.016 476.277 348.016Z" fill="url(#paint9_linear_3006_1493)"/>
<path d="M495.033 358H535V374.384H495.033V358ZM526.905 422H507.193V338.16H526.905V422Z" fill="url(#paint10_linear_3006_1493)"/>
<path d="M290.592 563H269.856V468.28H290.592V505.656H327.2V468.28H347.936V563H327.2V524.856H290.592V563Z" fill="url(#paint11_linear_3006_1493)"/>
<path d="M384.502 564.664C377.761 564.664 372.385 562.829 368.374 559.16C364.449 555.405 362.486 550.413 362.486 544.184C362.486 538.296 364.491 533.603 368.502 530.104C372.598 526.605 378.486 524.557 386.166 523.96L404.086 522.552V521.528C404.086 519.395 403.659 517.645 402.806 516.28C401.953 514.829 400.715 513.763 399.094 513.08C397.558 512.312 395.595 511.928 393.206 511.928C389.025 511.928 385.825 512.696 383.606 514.232C381.473 515.768 380.406 517.987 380.406 520.888H364.022C364.022 516.024 365.259 511.8 367.734 508.216C370.209 504.632 373.707 501.859 378.23 499.896C382.838 497.933 388.171 496.952 394.23 496.952C400.459 496.952 405.707 498.061 409.974 500.28C414.326 502.499 417.611 505.741 419.83 510.008C422.134 514.275 423.286 519.48 423.286 525.624V563H405.878L404.598 554.552C403.574 557.453 401.142 559.885 397.302 561.848C393.547 563.725 389.281 564.664 384.502 564.664ZM391.414 550.072C395.169 550.072 398.241 549.176 400.63 547.384C403.019 545.507 404.214 542.733 404.214 539.064V535.608L394.23 536.504C389.963 536.845 386.934 537.571 385.142 538.68C383.435 539.704 382.582 541.24 382.582 543.288C382.582 545.592 383.307 547.299 384.758 548.408C386.209 549.517 388.427 550.072 391.414 550.072Z" fill="url(#paint12_linear_3006_1493)"/>
<path d="M433.968 530.744C433.968 524.173 435.376 518.371 438.192 513.336C441.008 508.216 444.848 504.205 449.712 501.304C454.661 498.403 460.336 496.952 466.736 496.952C476.208 496.952 483.888 499.384 489.776 504.248C495.664 509.112 498.907 515.725 499.504 524.088H479.664C478.981 520.845 477.616 518.456 475.568 516.92C473.605 515.384 470.917 514.616 467.504 514.616C464.773 514.616 462.341 515.299 460.208 516.664C458.16 517.944 456.581 519.779 455.472 522.168C454.363 524.557 453.808 527.416 453.808 530.744C453.808 534.157 454.32 537.101 455.344 539.576C456.453 541.965 457.989 543.8 459.952 545.08C462 546.36 464.432 547 467.248 547C470.747 547 473.52 546.232 475.568 544.696C477.701 543.075 479.067 540.685 479.664 537.528H499.504C499.077 542.904 497.413 547.64 494.512 551.736C491.696 555.747 487.941 558.904 483.248 561.208C478.555 563.512 473.221 564.664 467.248 564.664C460.507 564.664 454.619 563.256 449.584 560.44C444.635 557.624 440.795 553.699 438.064 548.664C435.333 543.544 433.968 537.571 433.968 530.744Z" fill="url(#paint13_linear_3006_1493)"/>
<path fill-rule="evenodd" clip-rule="evenodd" d="M535 541.757V516.497L530.011 522.04V466.488H510.299V563H530.011V547L535 541.757Z" fill="url(#paint14_linear_3006_1493)"/>
<path d="M193 319.355L341.892 233L339.557 243.496L349.827 246.682L347.492 257.178L357.762 260.363L208.87 346.718L210.023 336.907L200.935 333.036L202.088 323.226L193 319.355Z" fill="url(#paint15_linear_3006_1493)"/>
<defs>
<linearGradient id="paint0_linear_3006_1493" x1="254.391" y1="-3.37001e-09" x2="254.119" y2="1148" gradientUnits="userSpaceOnUse">
<stop stop-color="#E5DDFF"/>
<stop offset="1" stop-color="#322C55"/>
</linearGradient>
<linearGradient id="paint1_linear_3006_1493" x1="506.925" y1="572.002" x2="0" y2="572.002" gradientUnits="userSpaceOnUse">
<stop stop-color="#BCC9FF"/>
<stop offset="1" stop-color="#7672E9"/>
</linearGradient>
<linearGradient id="paint2_linear_3006_1493" x1="254" y1="-44" x2="254" y2="1040" gradientUnits="userSpaceOnUse">
<stop stop-color="#7072BF"/>
<stop offset="1" stop-color="#9D88DD"/>
</linearGradient>
<linearGradient id="paint3_linear_3006_1493" x1="507" y1="3.4771e-08" x2="535.053" y2="1147.38" gradientUnits="userSpaceOnUse">
<stop stop-color="#676767"/>
<stop offset="1" stop-color="#100F0F"/>
</linearGradient>
<linearGradient id="paint4_linear_3006_1493" x1="605.201" y1="771.731" x2="124.905" y2="129.891" gradientUnits="userSpaceOnUse">
<stop stop-color="#F6F5FF"/>
<stop offset="0.549347" stop-color="white"/>
</linearGradient>
<linearGradient id="paint5_linear_3006_1493" x1="749.413" y1="732.193" x2="156.369" y2="403.787" gradientUnits="userSpaceOnUse">
<stop stop-color="#A49BFF"/>
<stop offset="1" stop-color="white"/>
</linearGradient>
<linearGradient id="paint6_linear_3006_1493" x1="364" y1="-709.005" x2="-579.815" y2="817.749" gradientUnits="userSpaceOnUse">
<stop stop-color="#E6E4FF"/>
<stop offset="1" stop-color="#594CDB"/>
</linearGradient>
<linearGradient id="paint7_linear_3006_1493" x1="364" y1="-709.005" x2="-579.815" y2="817.749" gradientUnits="userSpaceOnUse">
<stop stop-color="#E6E4FF"/>
<stop offset="1" stop-color="#594CDB"/>
</linearGradient>
<linearGradient id="paint8_linear_3006_1493" x1="364" y1="-709.005" x2="-579.815" y2="817.749" gradientUnits="userSpaceOnUse">
<stop stop-color="#E6E4FF"/>
<stop offset="1" stop-color="#594CDB"/>
</linearGradient>
<linearGradient id="paint9_linear_3006_1493" x1="364" y1="-709.005" x2="-579.815" y2="817.749" gradientUnits="userSpaceOnUse">
<stop stop-color="#E6E4FF"/>
<stop offset="1" stop-color="#594CDB"/>
</linearGradient>
<linearGradient id="paint10_linear_3006_1493" x1="364" y1="-709.005" x2="-579.815" y2="817.749" gradientUnits="userSpaceOnUse">
<stop stop-color="#E6E4FF"/>
<stop offset="1" stop-color="#594CDB"/>
</linearGradient>
<linearGradient id="paint11_linear_3006_1493" x1="364" y1="-709.005" x2="-579.815" y2="817.749" gradientUnits="userSpaceOnUse">
<stop stop-color="#E6E4FF"/>
<stop offset="1" stop-color="#594CDB"/>
</linearGradient>
<linearGradient id="paint12_linear_3006_1493" x1="364" y1="-709.005" x2="-579.815" y2="817.749" gradientUnits="userSpaceOnUse">
<stop stop-color="#E6E4FF"/>
<stop offset="1" stop-color="#594CDB"/>
</linearGradient>
<linearGradient id="paint13_linear_3006_1493" x1="364" y1="-709.005" x2="-579.815" y2="817.749" gradientUnits="userSpaceOnUse">
<stop stop-color="#E6E4FF"/>
<stop offset="1" stop-color="#594CDB"/>
</linearGradient>
<linearGradient id="paint14_linear_3006_1493" x1="364" y1="-709.005" x2="-579.815" y2="817.749" gradientUnits="userSpaceOnUse">
<stop stop-color="#E6E4FF"/>
<stop offset="1" stop-color="#594CDB"/>
</linearGradient>
<linearGradient id="paint15_linear_3006_1493" x1="188.995" y1="283.669" x2="261.235" y2="296.93" gradientUnits="userSpaceOnUse">
<stop stop-color="#FDFFD3"/>
<stop offset="1" stop-color="#FACD94"/>
</linearGradient>
</defs>
</svg>
