<svg width="100%" height="100%" viewBox="0 0 62 203" fill="none" xmlns="http://www.w3.org/2000/svg">
<path d="M0.6849 12.645C0.367388 5.03328 7.66471 -0.520334 15.1437 0.929704C25.0282 2.84611 33.6263 2.91442 43.751 0.97576C51.2642 -0.462864 58.6193 5.11004 58.3038 12.7533C55.4832 81.0727 56.4391 123.99 58.4706 189.186C58.7176 197.111 50.7426 202.589 42.9712 201.017C33.6999 199.14 25.286 199.487 15.241 201.72C7.75529 203.385 0.356378 197.838 0.664319 190.175C3.3909 122.331 3.44324 78.7702 0.6849 12.645Z" fill="url(#paint0_linear_3006_396)"/>
<path d="M39.2856 82.9379C42.6189 81.0134 46.7856 83.419 46.7856 87.268L46.7856 117.087C46.7856 120.936 42.6189 123.341 39.2856 121.417L13.4618 106.508C10.1285 104.583 10.1285 99.7718 13.4618 97.8473L39.2856 82.9379Z" fill="url(#paint1_linear_3006_396)"/>
<defs>
<linearGradient id="paint0_linear_3006_396" x1="54.0001" y1="102" x2="7.45592e-05" y2="102" gradientUnits="userSpaceOnUse">
<stop offset="0.5" stop-color="#4E3FBE"/>
<stop offset="1" stop-color="#2F1DC9"/>
</linearGradient>
<linearGradient id="paint1_linear_3006_396" x1="64.4221" y1="102.492" x2="1.93323" y2="101.863" gradientUnits="userSpaceOnUse">
<stop offset="0.490385" stop-color="white"/>
<stop offset="1" stop-color="#C1C1C1"/>
</linearGradient>
</defs>
</svg>
