<svg width="54" height="54" viewBox="0 0 54 54" fill="none" xmlns="http://www.w3.org/2000/svg">
<g clip-path="url(#clip0_3002_152)">
<path d="M50.0027 0H3.98672C1.78242 0 0 1.74023 0 3.8918V50.0977C0 52.2492 1.78242 54 3.98672 54H50.0027C52.207 54 54 52.2492 54 50.1082V3.8918C54 1.74023 52.207 0 50.0027 0ZM16.0207 46.016H8.00508V20.2395H16.0207V46.016ZM12.0129 16.7273C9.43945 16.7273 7.36172 14.6496 7.36172 12.0867C7.36172 9.52383 9.43945 7.44609 12.0129 7.44609C14.5758 7.44609 16.6535 9.52383 16.6535 12.0867C16.6535 14.6391 14.5758 16.7273 12.0129 16.7273ZM46.016 46.016H38.0109V33.4863C38.0109 30.5016 37.9582 26.652 33.8449 26.652C29.6789 26.652 29.0461 29.9109 29.0461 33.2754V46.016H21.0516V20.2395H28.7297V23.7621H28.8352C29.9004 21.7371 32.516 19.5961 36.4078 19.5961C44.5184 19.5961 46.016 24.9328 46.016 31.8727V46.016V46.016Z" fill="#565093"/>
</g>
<defs>
<clipPath id="clip0_3002_152">
<rect width="54" height="54" fill="white"/>
</clipPath>
</defs>
</svg>
