<svg width="58" height="83" viewBox="0 0 58 83" fill="none" xmlns="http://www.w3.org/2000/svg">
<path fill-rule="evenodd" clip-rule="evenodd" d="M41.9068 79.3138C54.4707 76.1943 72.0682 61.0856 39.0879 24.0979C34.1984 19.8674 25.4794 9.12508 29.7191 0C21.6121 7.5239 10.0541 27.1664 24.1356 37.5123C29.3715 41.3594 34.2055 45.5758 38.0598 49.9145C37.0966 54.886 32.5277 57.5861 32.5277 57.5861C32.5277 57.5861 9.18866 47.8422 9.18866 29.6428C7.92881 31.2266 1.59166 43.7278 1.81844 46.691C2.10191 50.3955 13.3906 60.4233 18.4487 63.1189C25.6606 66.962 28.0867 69.8026 28.0867 69.8026C32.4679 74.6248 29.8458 81.2465 28.6158 82.7073C28.274 82.729 28.0855 82.7439 28.0867 82.7679C28.1043 83.1114 28.3197 83.0589 28.6158 82.7073C28.6718 82.7035 28.732 82.6998 28.7961 82.6961C30.8535 82.5684 36.9885 82.1883 41.9068 79.3138ZM46.5923 65.0025C45.1727 62.9357 43.1779 60.8139 40.8089 59.8891C41.0979 59.6082 42.145 58.4774 43.4075 57.0992C44.9846 59.7566 46.0886 62.4092 46.5923 65.0025ZM24.8619 81.8139C0.0583923 81.2383 -1.54242 60.6266 0.7576 50.3928C0.7576 50.3928 7.84168 61.0263 19.5258 67.5027C31.2099 73.9787 24.8619 81.8139 24.8619 81.8139Z" fill="#565093"/>
</svg>
