<svg width="63" height="46" viewBox="0 0 63 46" fill="none" xmlns="http://www.w3.org/2000/svg">
<path fill-rule="evenodd" clip-rule="evenodd" d="M56.79 0C58.6635 0 60.3272 0.847622 61.3741 2.15868L30.9703 26.2236L0.837399 2.59568C1.8449 1.03903 3.66206 0 5.73636 0H56.79ZM0 40.0601V6.8659L21.6212 23.8195L0.0445702 40.7382C0.0151602 40.5161 0 40.2898 0 40.0601ZM1.97739 44.1495C2.98412 44.9744 4.29845 45.4737 5.73636 45.4737H56.79C58.0258 45.4737 59.1705 45.1048 60.1069 44.4774L37.1319 26.2925L33.0003 29.5626C31.8318 30.4875 30.1296 30.4912 28.9566 29.5714L24.7628 26.283L1.97739 44.1495ZM40.2562 23.8195L62.3695 41.3224C62.472 40.9174 62.5263 40.4948 62.5263 40.0601V6.19255L40.2562 23.8195Z" fill="#565093"/>
</svg>
