<svg width="535" height="1148" viewBox="0 0 535 1148" fill="none" xmlns="http://www.w3.org/2000/svg">
<path fill-rule="evenodd" clip-rule="evenodd" d="M534.979 0H28.0535V1148H534.979V0ZM144.022 113.22C105.206 113.22 73.7382 144.656 73.7382 183.434V730.226C73.7382 769.004 105.206 800.44 144.022 800.44H419.888C458.705 800.44 490.172 769.004 490.172 730.226V183.434C490.172 144.656 458.705 113.22 419.888 113.22H144.022Z" fill="url(#paint0_linear_3006_1492)"/>
<path fill-rule="evenodd" clip-rule="evenodd" d="M419.888 147.45H144.022C124.129 147.45 108.002 163.56 108.002 183.434V730.226C108.002 750.1 124.129 766.211 144.022 766.211H419.888C439.782 766.211 455.909 750.1 455.909 730.226V183.434C455.909 163.56 439.782 147.45 419.888 147.45ZM144.022 113.22C105.206 113.22 73.7382 144.656 73.7382 183.434V730.226C73.7382 769.004 105.206 800.44 144.022 800.44H419.888C458.705 800.44 490.172 769.004 490.172 730.226V183.434C490.172 144.656 458.705 113.22 419.888 113.22H144.022Z" fill="url(#paint1_linear_3006_1492)"/>
<path d="M144.204 121.22H420.07C454.476 121.22 482.354 149.082 482.354 183.434V730.226C482.354 764.578 454.476 792.441 420.07 792.441H144.204C109.798 792.441 81.9197 764.578 81.9197 730.226V183.434C81.9198 149.082 109.798 121.22 144.204 121.22Z" stroke="url(#paint2_linear_3006_1492)" stroke-width="16"/>
<path d="M0.0534668 0V1148H28.0535V0H0.0534668Z" fill="url(#paint3_linear_3006_1492)"/>
<rect x="159.053" y="908" width="245" height="52" fill="#3A3358"/>
<rect x="159.053" y="923" width="245" height="3" fill="white"/>
<path d="M195.135 952.84V941H197.455L197.583 941.976C197.807 941.603 198.153 941.304 198.623 941.08C199.092 940.856 199.609 940.744 200.175 940.744C200.921 940.744 201.577 940.909 202.143 941.24C202.708 941.571 203.151 942.045 203.471 942.664C203.791 943.272 203.951 944.008 203.951 944.872C203.951 945.715 203.801 946.467 203.503 947.128C203.215 947.779 202.788 948.291 202.223 948.664C201.668 949.037 200.991 949.224 200.191 949.224C199.636 949.224 199.124 949.128 198.655 948.936C198.185 948.744 197.833 948.499 197.599 948.2V952.84H195.135ZM197.615 945C197.615 945.395 197.695 945.747 197.855 946.056C198.025 946.355 198.255 946.589 198.543 946.76C198.841 946.92 199.183 947 199.567 947C199.961 947 200.297 946.915 200.575 946.744C200.863 946.573 201.081 946.339 201.231 946.04C201.391 945.741 201.471 945.395 201.471 945C201.471 944.605 201.391 944.259 201.231 943.96C201.081 943.661 200.863 943.427 200.575 943.256C200.297 943.085 199.961 943 199.567 943C199.183 943 198.841 943.085 198.543 943.256C198.255 943.416 198.025 943.645 197.855 943.944C197.695 944.243 197.615 944.595 197.615 945ZM207.433 949H204.969V936.936H207.433V949ZM212.593 949.208C211.793 949.208 211.079 949.027 210.449 948.664C209.831 948.301 209.34 947.805 208.977 947.176C208.625 946.536 208.449 945.805 208.449 944.984C208.449 944.152 208.62 943.421 208.961 942.792C209.313 942.152 209.799 941.651 210.417 941.288C211.036 940.925 211.745 940.744 212.545 940.744C213.388 940.744 214.113 940.92 214.721 941.272C215.329 941.613 215.799 942.104 216.129 942.744C216.46 943.373 216.625 944.125 216.625 945V945.624L209.745 945.656L209.777 944.136H214.177C214.177 943.709 214.033 943.373 213.745 943.128C213.457 942.872 213.063 942.744 212.561 942.744C212.145 942.744 211.804 942.824 211.537 942.984C211.281 943.144 211.089 943.395 210.961 943.736C210.833 944.067 210.769 944.493 210.769 945.016C210.769 945.763 210.919 946.317 211.217 946.68C211.527 947.032 212.001 947.208 212.641 947.208C213.111 947.208 213.5 947.128 213.809 946.968C214.119 946.808 214.316 946.584 214.401 946.296H216.657C216.519 947.181 216.081 947.891 215.345 948.424C214.609 948.947 213.692 949.208 212.593 949.208ZM220.022 949.208C219.18 949.208 218.508 948.979 218.006 948.52C217.516 948.051 217.27 947.427 217.27 946.648C217.27 945.912 217.521 945.325 218.022 944.888C218.534 944.451 219.27 944.195 220.23 944.12L222.47 943.944V943.816C222.47 943.549 222.417 943.331 222.31 943.16C222.204 942.979 222.049 942.845 221.846 942.76C221.654 942.664 221.409 942.616 221.11 942.616C220.588 942.616 220.188 942.712 219.91 942.904C219.644 943.096 219.51 943.373 219.51 943.736H217.462C217.462 943.128 217.617 942.6 217.926 942.152C218.236 941.704 218.673 941.357 219.238 941.112C219.814 940.867 220.481 940.744 221.238 940.744C222.017 940.744 222.673 940.883 223.206 941.16C223.75 941.437 224.161 941.843 224.438 942.376C224.726 942.909 224.87 943.56 224.87 944.328V949H222.694L222.534 947.944C222.406 948.307 222.102 948.611 221.622 948.856C221.153 949.091 220.62 949.208 220.022 949.208ZM220.886 947.384C221.356 947.384 221.74 947.272 222.038 947.048C222.337 946.813 222.486 946.467 222.486 946.008V945.576L221.238 945.688C220.705 945.731 220.326 945.821 220.102 945.96C219.889 946.088 219.782 946.28 219.782 946.536C219.782 946.824 219.873 947.037 220.054 947.176C220.236 947.315 220.513 947.384 220.886 947.384ZM225.662 946.472H227.998C228.019 946.749 228.131 946.968 228.334 947.128C228.536 947.288 228.824 947.368 229.198 947.368C229.582 947.368 229.864 947.304 230.046 947.176C230.227 947.048 230.318 946.883 230.318 946.68C230.318 946.563 230.27 946.445 230.174 946.328C230.088 946.211 229.896 946.12 229.598 946.056L228.126 945.736C227.39 945.576 226.84 945.32 226.478 944.968C226.115 944.605 225.934 944.072 225.934 943.368C225.934 942.813 226.078 942.344 226.366 941.96C226.664 941.565 227.064 941.267 227.566 941.064C228.067 940.851 228.638 940.744 229.278 940.744C229.896 940.744 230.44 940.856 230.91 941.08C231.39 941.304 231.763 941.619 232.03 942.024C232.296 942.429 232.43 942.904 232.43 943.448H230.094C230.094 943.171 230.014 942.952 229.854 942.792C229.694 942.621 229.464 942.536 229.166 942.536C228.888 942.536 228.664 942.605 228.494 942.744C228.334 942.872 228.254 943.043 228.254 943.256C228.254 943.597 228.542 943.832 229.118 943.96L230.606 944.28C231.267 944.419 231.768 944.659 232.11 945C232.462 945.331 232.638 945.816 232.638 946.456C232.638 947.021 232.488 947.512 232.19 947.928C231.891 948.344 231.475 948.664 230.942 948.888C230.408 949.101 229.795 949.208 229.102 949.208C228.046 949.208 227.208 948.957 226.59 948.456C225.971 947.944 225.662 947.283 225.662 946.472ZM237.237 949.208C236.437 949.208 235.723 949.027 235.093 948.664C234.475 948.301 233.984 947.805 233.621 947.176C233.269 946.536 233.093 945.805 233.093 944.984C233.093 944.152 233.264 943.421 233.605 942.792C233.957 942.152 234.443 941.651 235.061 941.288C235.68 940.925 236.389 940.744 237.189 940.744C238.032 940.744 238.757 940.92 239.365 941.272C239.973 941.613 240.443 942.104 240.773 942.744C241.104 943.373 241.269 944.125 241.269 945V945.624L234.389 945.656L234.421 944.136H238.821C238.821 943.709 238.677 943.373 238.389 943.128C238.101 942.872 237.707 942.744 237.205 942.744C236.789 942.744 236.448 942.824 236.181 942.984C235.925 943.144 235.733 943.395 235.605 943.736C235.477 944.067 235.413 944.493 235.413 945.016C235.413 945.763 235.563 946.317 235.861 946.68C236.171 947.032 236.645 947.208 237.285 947.208C237.755 947.208 238.144 947.128 238.453 946.968C238.763 946.808 238.96 946.584 239.045 946.296H241.301C241.163 947.181 240.725 947.891 239.989 948.424C239.253 948.947 238.336 949.208 237.237 949.208ZM249.523 949.208C248.755 949.208 248.088 949.037 247.523 948.696C246.957 948.355 246.515 947.875 246.195 947.256C245.885 946.627 245.731 945.891 245.731 945.048C245.731 944.195 245.891 943.448 246.211 942.808C246.531 942.157 246.984 941.651 247.571 941.288C248.168 940.925 248.872 940.744 249.683 940.744C250.184 940.744 250.648 940.835 251.075 941.016C251.512 941.197 251.848 941.437 252.083 941.736V936.936H254.547V949H252.227L252.099 947.976C251.885 948.339 251.544 948.637 251.075 948.872C250.616 949.096 250.099 949.208 249.523 949.208ZM250.115 946.952C250.499 946.952 250.835 946.872 251.123 946.712C251.421 946.541 251.651 946.307 251.811 946.008C251.981 945.699 252.067 945.347 252.067 944.952C252.067 944.547 251.981 944.195 251.811 943.896C251.651 943.597 251.421 943.368 251.123 943.208C250.835 943.037 250.499 942.952 250.115 942.952C249.731 942.952 249.395 943.037 249.107 943.208C248.819 943.379 248.595 943.613 248.435 943.912C248.285 944.211 248.211 944.557 248.211 944.952C248.211 945.347 248.285 945.693 248.435 945.992C248.595 946.291 248.819 946.525 249.107 946.696C249.395 946.867 249.731 946.952 250.115 946.952ZM255.565 944.984C255.565 944.141 255.752 943.405 256.125 942.776C256.509 942.136 257.032 941.64 257.693 941.288C258.365 940.936 259.128 940.76 259.981 940.76C260.834 940.76 261.592 940.936 262.253 941.288C262.914 941.64 263.432 942.136 263.805 942.776C264.189 943.405 264.381 944.141 264.381 944.984C264.381 945.827 264.189 946.563 263.805 947.192C263.432 947.821 262.914 948.312 262.253 948.664C261.592 949.016 260.834 949.192 259.981 949.192C259.128 949.192 258.365 949.016 257.693 948.664C257.032 948.312 256.509 947.821 256.125 947.192C255.752 946.563 255.565 945.827 255.565 944.984ZM258.045 944.968C258.045 945.373 258.125 945.731 258.285 946.04C258.456 946.339 258.685 946.573 258.973 946.744C259.261 946.904 259.597 946.984 259.981 946.984C260.365 946.984 260.701 946.904 260.989 946.744C261.277 946.573 261.501 946.339 261.661 946.04C261.821 945.731 261.901 945.373 261.901 944.968C261.901 944.563 261.821 944.211 261.661 943.912C261.501 943.613 261.277 943.384 260.989 943.224C260.701 943.053 260.365 942.968 259.981 942.968C259.597 942.968 259.261 943.053 258.973 943.224C258.685 943.384 258.456 943.613 258.285 943.912C258.125 944.211 258.045 944.563 258.045 944.968ZM271.708 949H269.244V941H271.564L271.724 941.832C271.969 941.491 272.305 941.224 272.732 941.032C273.169 940.84 273.649 940.744 274.172 940.744C275.121 940.744 275.857 941.037 276.38 941.624C276.913 942.2 277.18 943.011 277.18 944.056V949H274.716V944.648C274.716 944.147 274.588 943.747 274.332 943.448C274.076 943.139 273.735 942.984 273.308 942.984C272.817 942.984 272.428 943.133 272.14 943.432C271.852 943.72 271.708 944.115 271.708 944.616V949ZM278.115 944.984C278.115 944.141 278.302 943.405 278.675 942.776C279.059 942.136 279.582 941.64 280.243 941.288C280.915 940.936 281.678 940.76 282.531 940.76C283.384 940.76 284.142 940.936 284.803 941.288C285.464 941.64 285.982 942.136 286.355 942.776C286.739 943.405 286.931 944.141 286.931 944.984C286.931 945.827 286.739 946.563 286.355 947.192C285.982 947.821 285.464 948.312 284.803 948.664C284.142 949.016 283.384 949.192 282.531 949.192C281.678 949.192 280.915 949.016 280.243 948.664C279.582 948.312 279.059 947.821 278.675 947.192C278.302 946.563 278.115 945.827 278.115 944.984ZM280.595 944.968C280.595 945.373 280.675 945.731 280.835 946.04C281.006 946.339 281.235 946.573 281.523 946.744C281.811 946.904 282.147 946.984 282.531 946.984C282.915 946.984 283.251 946.904 283.539 946.744C283.827 946.573 284.051 946.339 284.211 946.04C284.371 945.731 284.451 945.373 284.451 944.968C284.451 944.563 284.371 944.211 284.211 943.912C284.051 943.613 283.827 943.384 283.539 943.224C283.251 943.053 282.915 942.968 282.531 942.968C282.147 942.968 281.811 943.053 281.523 943.224C281.235 943.384 281.006 943.613 280.835 943.912C280.675 944.211 280.595 944.563 280.595 944.968ZM287.129 941H292.633V943.048H287.129V941ZM291.113 949H288.649V938.52H291.113V949ZM299.639 949H297.175V936.936H299.639V949ZM304.8 949.208C304 949.208 303.285 949.027 302.656 948.664C302.037 948.301 301.546 947.805 301.184 947.176C300.832 946.536 300.656 945.805 300.656 944.984C300.656 944.152 300.826 943.421 301.168 942.792C301.52 942.152 302.005 941.651 302.624 941.288C303.242 940.925 303.952 940.744 304.752 940.744C305.594 940.744 306.32 940.92 306.928 941.272C307.536 941.613 308.005 942.104 308.336 942.744C308.666 943.373 308.832 944.125 308.832 945V945.624L301.952 945.656L301.984 944.136H306.384C306.384 943.709 306.24 943.373 305.952 943.128C305.664 942.872 305.269 942.744 304.768 942.744C304.352 942.744 304.01 942.824 303.744 942.984C303.488 943.144 303.296 943.395 303.168 943.736C303.04 944.067 302.976 944.493 302.976 945.016C302.976 945.763 303.125 946.317 303.424 946.68C303.733 947.032 304.208 947.208 304.848 947.208C305.317 947.208 305.706 947.128 306.016 946.968C306.325 946.808 306.522 946.584 306.608 946.296H308.864C308.725 947.181 308.288 947.891 307.552 948.424C306.816 948.947 305.898 949.208 304.8 949.208ZM312.229 949.208C311.386 949.208 310.714 948.979 310.213 948.52C309.722 948.051 309.477 947.427 309.477 946.648C309.477 945.912 309.727 945.325 310.229 944.888C310.741 944.451 311.477 944.195 312.437 944.12L314.677 943.944V943.816C314.677 943.549 314.623 943.331 314.517 943.16C314.41 942.979 314.255 942.845 314.053 942.76C313.861 942.664 313.615 942.616 313.317 942.616C312.794 942.616 312.394 942.712 312.117 942.904C311.85 943.096 311.717 943.373 311.717 943.736H309.669C309.669 943.128 309.823 942.6 310.133 942.152C310.442 941.704 310.879 941.357 311.445 941.112C312.021 940.867 312.687 940.744 313.445 940.744C314.223 940.744 314.879 940.883 315.413 941.16C315.957 941.437 316.367 941.843 316.645 942.376C316.933 942.909 317.077 943.56 317.077 944.328V949H314.901L314.741 947.944C314.613 948.307 314.309 948.611 313.829 948.856C313.359 949.091 312.826 949.208 312.229 949.208ZM313.093 947.384C313.562 947.384 313.946 947.272 314.245 947.048C314.543 946.813 314.693 946.467 314.693 946.008V945.576L313.445 945.688C312.911 945.731 312.533 945.821 312.309 945.96C312.095 946.088 311.989 946.28 311.989 946.536C311.989 946.824 312.079 947.037 312.261 947.176C312.442 947.315 312.719 947.384 313.093 947.384ZM320.908 949H318.444V941H320.764L320.924 941.832C321.169 941.491 321.505 941.224 321.932 941.032C322.369 940.84 322.849 940.744 323.372 940.744C324.321 940.744 325.057 941.037 325.58 941.624C326.113 942.2 326.38 943.011 326.38 944.056V949H323.916V944.648C323.916 944.147 323.788 943.747 323.532 943.448C323.276 943.139 322.935 942.984 322.508 942.984C322.017 942.984 321.628 943.133 321.34 943.432C321.052 943.72 320.908 944.115 320.908 944.616V949ZM331.149 944.984C331.149 944.141 331.336 943.405 331.709 942.776C332.093 942.136 332.616 941.64 333.277 941.288C333.949 940.936 334.712 940.76 335.565 940.76C336.419 940.76 337.176 940.936 337.837 941.288C338.499 941.64 339.016 942.136 339.389 942.776C339.773 943.405 339.965 944.141 339.965 944.984C339.965 945.827 339.773 946.563 339.389 947.192C339.016 947.821 338.499 948.312 337.837 948.664C337.176 949.016 336.419 949.192 335.565 949.192C334.712 949.192 333.949 949.016 333.277 948.664C332.616 948.312 332.093 947.821 331.709 947.192C331.336 946.563 331.149 945.827 331.149 944.984ZM333.629 944.968C333.629 945.373 333.709 945.731 333.869 946.04C334.04 946.339 334.269 946.573 334.557 946.744C334.845 946.904 335.181 946.984 335.565 946.984C335.949 946.984 336.285 946.904 336.573 946.744C336.861 946.573 337.085 946.339 337.245 946.04C337.405 945.731 337.485 945.373 337.485 944.968C337.485 944.563 337.405 944.211 337.245 943.912C337.085 943.613 336.861 943.384 336.573 943.224C336.285 943.053 335.949 942.968 335.565 942.968C335.181 942.968 334.845 943.053 334.557 943.224C334.269 943.384 334.04 943.613 333.869 943.912C333.709 944.211 333.629 944.563 333.629 944.968ZM343.458 949H340.994V941H343.314L343.474 941.832C343.719 941.491 344.055 941.224 344.482 941.032C344.919 940.84 345.399 940.744 345.922 940.744C346.871 940.744 347.607 941.037 348.13 941.624C348.663 942.2 348.93 943.011 348.93 944.056V949H346.466V944.648C346.466 944.147 346.338 943.747 346.082 943.448C345.826 943.139 345.485 942.984 345.058 942.984C344.567 942.984 344.178 943.133 343.89 943.432C343.602 943.72 343.458 944.115 343.458 944.616V949ZM357.491 949.208C356.723 949.208 356.057 949.037 355.491 948.696C354.926 948.355 354.483 947.875 354.163 947.256C353.854 946.627 353.699 945.891 353.699 945.048C353.699 944.195 353.859 943.448 354.179 942.808C354.499 942.157 354.953 941.651 355.539 941.288C356.137 940.925 356.841 940.744 357.651 940.744C358.153 940.744 358.617 940.835 359.043 941.016C359.481 941.197 359.817 941.437 360.051 941.736V936.936H362.515V949H360.195L360.067 947.976C359.854 948.339 359.513 948.637 359.043 948.872C358.585 949.096 358.067 949.208 357.491 949.208ZM358.083 946.952C358.467 946.952 358.803 946.872 359.091 946.712C359.39 946.541 359.619 946.307 359.779 946.008C359.95 945.699 360.035 945.347 360.035 944.952C360.035 944.547 359.95 944.195 359.779 943.896C359.619 943.597 359.39 943.368 359.091 943.208C358.803 943.037 358.467 942.952 358.083 942.952C357.699 942.952 357.363 943.037 357.075 943.208C356.787 943.379 356.563 943.613 356.403 943.912C356.254 944.211 356.179 944.557 356.179 944.952C356.179 945.347 356.254 945.693 356.403 945.992C356.563 946.291 356.787 946.525 357.075 946.696C357.363 946.867 357.699 946.952 358.083 946.952ZM363.534 944.984C363.534 944.141 363.721 943.405 364.094 942.776C364.478 942.136 365.001 941.64 365.662 941.288C366.334 940.936 367.097 940.76 367.95 940.76C368.803 940.76 369.561 940.936 370.222 941.288C370.883 941.64 371.401 942.136 371.774 942.776C372.158 943.405 372.35 944.141 372.35 944.984C372.35 945.827 372.158 946.563 371.774 947.192C371.401 947.821 370.883 948.312 370.222 948.664C369.561 949.016 368.803 949.192 367.95 949.192C367.097 949.192 366.334 949.016 365.662 948.664C365.001 948.312 364.478 947.821 364.094 947.192C363.721 946.563 363.534 945.827 363.534 944.984ZM366.014 944.968C366.014 945.373 366.094 945.731 366.254 946.04C366.425 946.339 366.654 946.573 366.942 946.744C367.23 946.904 367.566 946.984 367.95 946.984C368.334 946.984 368.67 946.904 368.958 946.744C369.246 946.573 369.47 946.339 369.63 946.04C369.79 945.731 369.87 945.373 369.87 944.968C369.87 944.563 369.79 944.211 369.63 943.912C369.47 943.613 369.246 943.384 368.958 943.224C368.67 943.053 368.334 942.968 367.95 942.968C367.566 942.968 367.23 943.053 366.942 943.224C366.654 943.384 366.425 943.613 366.254 943.912C366.094 944.211 366.014 944.563 366.014 944.968ZM372.946 944.984C372.946 944.141 373.133 943.405 373.506 942.776C373.89 942.136 374.413 941.64 375.074 941.288C375.746 940.936 376.509 940.76 377.362 940.76C378.216 940.76 378.973 940.936 379.634 941.288C380.296 941.64 380.813 942.136 381.186 942.776C381.57 943.405 381.762 944.141 381.762 944.984C381.762 945.827 381.57 946.563 381.186 947.192C380.813 947.821 380.296 948.312 379.634 948.664C378.973 949.016 378.216 949.192 377.362 949.192C376.509 949.192 375.746 949.016 375.074 948.664C374.413 948.312 373.89 947.821 373.506 947.192C373.133 946.563 372.946 945.827 372.946 944.984ZM375.426 944.968C375.426 945.373 375.506 945.731 375.666 946.04C375.837 946.339 376.066 946.573 376.354 946.744C376.642 946.904 376.978 946.984 377.362 946.984C377.746 946.984 378.082 946.904 378.37 946.744C378.658 946.573 378.882 946.339 379.042 946.04C379.202 945.731 379.282 945.373 379.282 944.968C379.282 944.563 379.202 944.211 379.042 943.912C378.882 943.613 378.658 943.384 378.37 943.224C378.082 943.053 377.746 942.968 377.362 942.968C376.978 942.968 376.642 943.053 376.354 943.224C376.066 943.384 375.837 943.613 375.666 943.912C375.506 944.211 375.426 944.563 375.426 944.968ZM388.295 941V943.32H387.511C386.807 943.32 386.252 943.491 385.847 943.832C385.452 944.173 385.255 944.739 385.255 945.528V949H382.791V941.016H385.111L385.303 942.728H385.079C385.186 942.195 385.426 941.757 385.799 941.416C386.183 941.064 386.7 940.888 387.351 940.888C387.5 940.888 387.65 940.899 387.799 940.92C387.959 940.931 388.124 940.957 388.295 941ZM388.565 946.472H390.901C390.922 946.749 391.034 946.968 391.237 947.128C391.44 947.288 391.728 947.368 392.101 947.368C392.485 947.368 392.768 947.304 392.949 947.176C393.13 947.048 393.221 946.883 393.221 946.68C393.221 946.563 393.173 946.445 393.077 946.328C392.992 946.211 392.8 946.12 392.501 946.056L391.029 945.736C390.293 945.576 389.744 945.32 389.381 944.968C389.018 944.605 388.837 944.072 388.837 943.368C388.837 942.813 388.981 942.344 389.269 941.96C389.568 941.565 389.968 941.267 390.469 941.064C390.97 940.851 391.541 940.744 392.181 940.744C392.8 940.744 393.344 940.856 393.813 941.08C394.293 941.304 394.666 941.619 394.933 942.024C395.2 942.429 395.333 942.904 395.333 943.448H392.997C392.997 943.171 392.917 942.952 392.757 942.792C392.597 942.621 392.368 942.536 392.069 942.536C391.792 942.536 391.568 942.605 391.397 942.744C391.237 942.872 391.157 943.043 391.157 943.256C391.157 943.597 391.445 943.832 392.021 943.96L393.509 944.28C394.17 944.419 394.672 944.659 395.013 945C395.365 945.331 395.541 945.816 395.541 946.456C395.541 947.021 395.392 947.512 395.093 947.928C394.794 948.344 394.378 948.664 393.845 948.888C393.312 949.101 392.698 949.208 392.005 949.208C390.949 949.208 390.112 948.957 389.493 948.456C388.874 947.944 388.565 947.283 388.565 946.472Z" fill="white"/>
<path d="M173.483 953.686C167.069 953.533 166.655 948.07 167.249 945.357C167.249 945.357 169.081 948.176 172.103 949.892C175.125 951.609 173.483 953.686 173.483 953.686Z" fill="white"/>
<path d="M167.524 944.376C167.465 943.59 169.104 940.277 169.43 939.857C169.43 944.681 175.466 947.264 175.466 947.264C175.466 947.264 177.493 946.036 176.796 943.835C175.734 943.158 175.001 942.477 175.906 942.263C176.364 942.831 176.645 943.356 176.796 943.835C178.059 944.638 179.788 945.436 179.788 945.436C179.788 945.436 177.83 947.653 177.607 947.874C178.64 948.287 179.398 949.601 179.632 950.229C179.367 953.672 175.261 953.87 174.454 953.922C174.378 954.016 174.322 954.03 174.317 953.938C174.317 953.932 174.366 953.928 174.454 953.922C174.772 953.535 175.45 951.78 174.317 950.502C174.317 950.502 173.69 949.749 171.825 948.73C170.517 948.016 167.597 945.358 167.524 944.376Z" fill="white"/>
<path d="M177.162 938.387C185.816 948.335 181.005 952.312 177.75 953.057C181.225 949.906 177.848 945.371 173.295 941.943C169.654 939.201 172.643 933.994 174.739 932C173.643 934.419 175.898 937.266 177.162 938.387Z" fill="white"/>
<rect x="159.053" y="31" width="245" height="52" fill="#3A3358"/>
<rect x="159.053" y="46" width="245" height="3" fill="white"/>
<path d="M195.135 75.84V64H197.455L197.583 64.976C197.807 64.6027 198.153 64.304 198.623 64.08C199.092 63.856 199.609 63.744 200.175 63.744C200.921 63.744 201.577 63.9093 202.143 64.24C202.708 64.5707 203.151 65.0453 203.471 65.664C203.791 66.272 203.951 67.008 203.951 67.872C203.951 68.7147 203.801 69.4667 203.503 70.128C203.215 70.7787 202.788 71.2907 202.223 71.664C201.668 72.0373 200.991 72.224 200.191 72.224C199.636 72.224 199.124 72.128 198.655 71.936C198.185 71.744 197.833 71.4987 197.599 71.2V75.84H195.135ZM197.615 68C197.615 68.3947 197.695 68.7467 197.855 69.056C198.025 69.3547 198.255 69.5893 198.543 69.76C198.841 69.92 199.183 70 199.567 70C199.961 70 200.297 69.9147 200.575 69.744C200.863 69.5733 201.081 69.3387 201.231 69.04C201.391 68.7413 201.471 68.3947 201.471 68C201.471 67.6053 201.391 67.2587 201.231 66.96C201.081 66.6613 200.863 66.4267 200.575 66.256C200.297 66.0853 199.961 66 199.567 66C199.183 66 198.841 66.0853 198.543 66.256C198.255 66.416 198.025 66.6453 197.855 66.944C197.695 67.2427 197.615 67.5947 197.615 68ZM207.433 72H204.969V59.936H207.433V72ZM212.593 72.208C211.793 72.208 211.079 72.0267 210.449 71.664C209.831 71.3013 209.34 70.8053 208.977 70.176C208.625 69.536 208.449 68.8053 208.449 67.984C208.449 67.152 208.62 66.4213 208.961 65.792C209.313 65.152 209.799 64.6507 210.417 64.288C211.036 63.9253 211.745 63.744 212.545 63.744C213.388 63.744 214.113 63.92 214.721 64.272C215.329 64.6133 215.799 65.104 216.129 65.744C216.46 66.3733 216.625 67.1253 216.625 68V68.624L209.745 68.656L209.777 67.136H214.177C214.177 66.7093 214.033 66.3733 213.745 66.128C213.457 65.872 213.063 65.744 212.561 65.744C212.145 65.744 211.804 65.824 211.537 65.984C211.281 66.144 211.089 66.3947 210.961 66.736C210.833 67.0667 210.769 67.4933 210.769 68.016C210.769 68.7627 210.919 69.3173 211.217 69.68C211.527 70.032 212.001 70.208 212.641 70.208C213.111 70.208 213.5 70.128 213.809 69.968C214.119 69.808 214.316 69.584 214.401 69.296H216.657C216.519 70.1813 216.081 70.8907 215.345 71.424C214.609 71.9467 213.692 72.208 212.593 72.208ZM220.022 72.208C219.18 72.208 218.508 71.9787 218.006 71.52C217.516 71.0507 217.27 70.4267 217.27 69.648C217.27 68.912 217.521 68.3253 218.022 67.888C218.534 67.4507 219.27 67.1947 220.23 67.12L222.47 66.944V66.816C222.47 66.5493 222.417 66.3307 222.31 66.16C222.204 65.9787 222.049 65.8453 221.846 65.76C221.654 65.664 221.409 65.616 221.11 65.616C220.588 65.616 220.188 65.712 219.91 65.904C219.644 66.096 219.51 66.3733 219.51 66.736H217.462C217.462 66.128 217.617 65.6 217.926 65.152C218.236 64.704 218.673 64.3573 219.238 64.112C219.814 63.8667 220.481 63.744 221.238 63.744C222.017 63.744 222.673 63.8827 223.206 64.16C223.75 64.4373 224.161 64.8427 224.438 65.376C224.726 65.9093 224.87 66.56 224.87 67.328V72H222.694L222.534 70.944C222.406 71.3067 222.102 71.6107 221.622 71.856C221.153 72.0907 220.62 72.208 220.022 72.208ZM220.886 70.384C221.356 70.384 221.74 70.272 222.038 70.048C222.337 69.8133 222.486 69.4667 222.486 69.008V68.576L221.238 68.688C220.705 68.7307 220.326 68.8213 220.102 68.96C219.889 69.088 219.782 69.28 219.782 69.536C219.782 69.824 219.873 70.0373 220.054 70.176C220.236 70.3147 220.513 70.384 220.886 70.384ZM225.662 69.472H227.998C228.019 69.7493 228.131 69.968 228.334 70.128C228.536 70.288 228.824 70.368 229.198 70.368C229.582 70.368 229.864 70.304 230.046 70.176C230.227 70.048 230.318 69.8827 230.318 69.68C230.318 69.5627 230.27 69.4453 230.174 69.328C230.088 69.2107 229.896 69.12 229.598 69.056L228.126 68.736C227.39 68.576 226.84 68.32 226.478 67.968C226.115 67.6053 225.934 67.072 225.934 66.368C225.934 65.8133 226.078 65.344 226.366 64.96C226.664 64.5653 227.064 64.2667 227.566 64.064C228.067 63.8507 228.638 63.744 229.278 63.744C229.896 63.744 230.44 63.856 230.91 64.08C231.39 64.304 231.763 64.6187 232.03 65.024C232.296 65.4293 232.43 65.904 232.43 66.448H230.094C230.094 66.1707 230.014 65.952 229.854 65.792C229.694 65.6213 229.464 65.536 229.166 65.536C228.888 65.536 228.664 65.6053 228.494 65.744C228.334 65.872 228.254 66.0427 228.254 66.256C228.254 66.5973 228.542 66.832 229.118 66.96L230.606 67.28C231.267 67.4187 231.768 67.6587 232.11 68C232.462 68.3307 232.638 68.816 232.638 69.456C232.638 70.0213 232.488 70.512 232.19 70.928C231.891 71.344 231.475 71.664 230.942 71.888C230.408 72.1013 229.795 72.208 229.102 72.208C228.046 72.208 227.208 71.9573 226.59 71.456C225.971 70.944 225.662 70.2827 225.662 69.472ZM237.237 72.208C236.437 72.208 235.723 72.0267 235.093 71.664C234.475 71.3013 233.984 70.8053 233.621 70.176C233.269 69.536 233.093 68.8053 233.093 67.984C233.093 67.152 233.264 66.4213 233.605 65.792C233.957 65.152 234.443 64.6507 235.061 64.288C235.68 63.9253 236.389 63.744 237.189 63.744C238.032 63.744 238.757 63.92 239.365 64.272C239.973 64.6133 240.443 65.104 240.773 65.744C241.104 66.3733 241.269 67.1253 241.269 68V68.624L234.389 68.656L234.421 67.136H238.821C238.821 66.7093 238.677 66.3733 238.389 66.128C238.101 65.872 237.707 65.744 237.205 65.744C236.789 65.744 236.448 65.824 236.181 65.984C235.925 66.144 235.733 66.3947 235.605 66.736C235.477 67.0667 235.413 67.4933 235.413 68.016C235.413 68.7627 235.563 69.3173 235.861 69.68C236.171 70.032 236.645 70.208 237.285 70.208C237.755 70.208 238.144 70.128 238.453 69.968C238.763 69.808 238.96 69.584 239.045 69.296H241.301C241.163 70.1813 240.725 70.8907 239.989 71.424C239.253 71.9467 238.336 72.208 237.237 72.208ZM249.523 72.208C248.755 72.208 248.088 72.0373 247.523 71.696C246.957 71.3547 246.515 70.8747 246.195 70.256C245.885 69.6267 245.731 68.8907 245.731 68.048C245.731 67.1947 245.891 66.448 246.211 65.808C246.531 65.1573 246.984 64.6507 247.571 64.288C248.168 63.9253 248.872 63.744 249.683 63.744C250.184 63.744 250.648 63.8347 251.075 64.016C251.512 64.1973 251.848 64.4373 252.083 64.736V59.936H254.547V72H252.227L252.099 70.976C251.885 71.3387 251.544 71.6373 251.075 71.872C250.616 72.096 250.099 72.208 249.523 72.208ZM250.115 69.952C250.499 69.952 250.835 69.872 251.123 69.712C251.421 69.5413 251.651 69.3067 251.811 69.008C251.981 68.6987 252.067 68.3467 252.067 67.952C252.067 67.5467 251.981 67.1947 251.811 66.896C251.651 66.5973 251.421 66.368 251.123 66.208C250.835 66.0373 250.499 65.952 250.115 65.952C249.731 65.952 249.395 66.0373 249.107 66.208C248.819 66.3787 248.595 66.6133 248.435 66.912C248.285 67.2107 248.211 67.5573 248.211 67.952C248.211 68.3467 248.285 68.6933 248.435 68.992C248.595 69.2907 248.819 69.5253 249.107 69.696C249.395 69.8667 249.731 69.952 250.115 69.952ZM255.565 67.984C255.565 67.1413 255.752 66.4053 256.125 65.776C256.509 65.136 257.032 64.64 257.693 64.288C258.365 63.936 259.128 63.76 259.981 63.76C260.834 63.76 261.592 63.936 262.253 64.288C262.914 64.64 263.432 65.136 263.805 65.776C264.189 66.4053 264.381 67.1413 264.381 67.984C264.381 68.8267 264.189 69.5627 263.805 70.192C263.432 70.8213 262.914 71.312 262.253 71.664C261.592 72.016 260.834 72.192 259.981 72.192C259.128 72.192 258.365 72.016 257.693 71.664C257.032 71.312 256.509 70.8213 256.125 70.192C255.752 69.5627 255.565 68.8267 255.565 67.984ZM258.045 67.968C258.045 68.3733 258.125 68.7307 258.285 69.04C258.456 69.3387 258.685 69.5733 258.973 69.744C259.261 69.904 259.597 69.984 259.981 69.984C260.365 69.984 260.701 69.904 260.989 69.744C261.277 69.5733 261.501 69.3387 261.661 69.04C261.821 68.7307 261.901 68.3733 261.901 67.968C261.901 67.5627 261.821 67.2107 261.661 66.912C261.501 66.6133 261.277 66.384 260.989 66.224C260.701 66.0533 260.365 65.968 259.981 65.968C259.597 65.968 259.261 66.0533 258.973 66.224C258.685 66.384 258.456 66.6133 258.285 66.912C258.125 67.2107 258.045 67.5627 258.045 67.968ZM271.708 72H269.244V64H271.564L271.724 64.832C271.969 64.4907 272.305 64.224 272.732 64.032C273.169 63.84 273.649 63.744 274.172 63.744C275.121 63.744 275.857 64.0373 276.38 64.624C276.913 65.2 277.18 66.0107 277.18 67.056V72H274.716V67.648C274.716 67.1467 274.588 66.7467 274.332 66.448C274.076 66.1387 273.735 65.984 273.308 65.984C272.817 65.984 272.428 66.1333 272.14 66.432C271.852 66.72 271.708 67.1147 271.708 67.616V72ZM278.115 67.984C278.115 67.1413 278.302 66.4053 278.675 65.776C279.059 65.136 279.582 64.64 280.243 64.288C280.915 63.936 281.678 63.76 282.531 63.76C283.384 63.76 284.142 63.936 284.803 64.288C285.464 64.64 285.982 65.136 286.355 65.776C286.739 66.4053 286.931 67.1413 286.931 67.984C286.931 68.8267 286.739 69.5627 286.355 70.192C285.982 70.8213 285.464 71.312 284.803 71.664C284.142 72.016 283.384 72.192 282.531 72.192C281.678 72.192 280.915 72.016 280.243 71.664C279.582 71.312 279.059 70.8213 278.675 70.192C278.302 69.5627 278.115 68.8267 278.115 67.984ZM280.595 67.968C280.595 68.3733 280.675 68.7307 280.835 69.04C281.006 69.3387 281.235 69.5733 281.523 69.744C281.811 69.904 282.147 69.984 282.531 69.984C282.915 69.984 283.251 69.904 283.539 69.744C283.827 69.5733 284.051 69.3387 284.211 69.04C284.371 68.7307 284.451 68.3733 284.451 67.968C284.451 67.5627 284.371 67.2107 284.211 66.912C284.051 66.6133 283.827 66.384 283.539 66.224C283.251 66.0533 282.915 65.968 282.531 65.968C282.147 65.968 281.811 66.0533 281.523 66.224C281.235 66.384 281.006 66.6133 280.835 66.912C280.675 67.2107 280.595 67.5627 280.595 67.968ZM287.129 64H292.633V66.048H287.129V64ZM291.113 72H288.649V61.52H291.113V72ZM299.639 72H297.175V59.936H299.639V72ZM304.8 72.208C304 72.208 303.285 72.0267 302.656 71.664C302.037 71.3013 301.546 70.8053 301.184 70.176C300.832 69.536 300.656 68.8053 300.656 67.984C300.656 67.152 300.826 66.4213 301.168 65.792C301.52 65.152 302.005 64.6507 302.624 64.288C303.242 63.9253 303.952 63.744 304.752 63.744C305.594 63.744 306.32 63.92 306.928 64.272C307.536 64.6133 308.005 65.104 308.336 65.744C308.666 66.3733 308.832 67.1253 308.832 68V68.624L301.952 68.656L301.984 67.136H306.384C306.384 66.7093 306.24 66.3733 305.952 66.128C305.664 65.872 305.269 65.744 304.768 65.744C304.352 65.744 304.01 65.824 303.744 65.984C303.488 66.144 303.296 66.3947 303.168 66.736C303.04 67.0667 302.976 67.4933 302.976 68.016C302.976 68.7627 303.125 69.3173 303.424 69.68C303.733 70.032 304.208 70.208 304.848 70.208C305.317 70.208 305.706 70.128 306.016 69.968C306.325 69.808 306.522 69.584 306.608 69.296H308.864C308.725 70.1813 308.288 70.8907 307.552 71.424C306.816 71.9467 305.898 72.208 304.8 72.208ZM312.229 72.208C311.386 72.208 310.714 71.9787 310.213 71.52C309.722 71.0507 309.477 70.4267 309.477 69.648C309.477 68.912 309.727 68.3253 310.229 67.888C310.741 67.4507 311.477 67.1947 312.437 67.12L314.677 66.944V66.816C314.677 66.5493 314.623 66.3307 314.517 66.16C314.41 65.9787 314.255 65.8453 314.053 65.76C313.861 65.664 313.615 65.616 313.317 65.616C312.794 65.616 312.394 65.712 312.117 65.904C311.85 66.096 311.717 66.3733 311.717 66.736H309.669C309.669 66.128 309.823 65.6 310.133 65.152C310.442 64.704 310.879 64.3573 311.445 64.112C312.021 63.8667 312.687 63.744 313.445 63.744C314.223 63.744 314.879 63.8827 315.413 64.16C315.957 64.4373 316.367 64.8427 316.645 65.376C316.933 65.9093 317.077 66.56 317.077 67.328V72H314.901L314.741 70.944C314.613 71.3067 314.309 71.6107 313.829 71.856C313.359 72.0907 312.826 72.208 312.229 72.208ZM313.093 70.384C313.562 70.384 313.946 70.272 314.245 70.048C314.543 69.8133 314.693 69.4667 314.693 69.008V68.576L313.445 68.688C312.911 68.7307 312.533 68.8213 312.309 68.96C312.095 69.088 311.989 69.28 311.989 69.536C311.989 69.824 312.079 70.0373 312.261 70.176C312.442 70.3147 312.719 70.384 313.093 70.384ZM320.908 72H318.444V64H320.764L320.924 64.832C321.169 64.4907 321.505 64.224 321.932 64.032C322.369 63.84 322.849 63.744 323.372 63.744C324.321 63.744 325.057 64.0373 325.58 64.624C326.113 65.2 326.38 66.0107 326.38 67.056V72H323.916V67.648C323.916 67.1467 323.788 66.7467 323.532 66.448C323.276 66.1387 322.935 65.984 322.508 65.984C322.017 65.984 321.628 66.1333 321.34 66.432C321.052 66.72 320.908 67.1147 320.908 67.616V72ZM331.149 67.984C331.149 67.1413 331.336 66.4053 331.709 65.776C332.093 65.136 332.616 64.64 333.277 64.288C333.949 63.936 334.712 63.76 335.565 63.76C336.419 63.76 337.176 63.936 337.837 64.288C338.499 64.64 339.016 65.136 339.389 65.776C339.773 66.4053 339.965 67.1413 339.965 67.984C339.965 68.8267 339.773 69.5627 339.389 70.192C339.016 70.8213 338.499 71.312 337.837 71.664C337.176 72.016 336.419 72.192 335.565 72.192C334.712 72.192 333.949 72.016 333.277 71.664C332.616 71.312 332.093 70.8213 331.709 70.192C331.336 69.5627 331.149 68.8267 331.149 67.984ZM333.629 67.968C333.629 68.3733 333.709 68.7307 333.869 69.04C334.04 69.3387 334.269 69.5733 334.557 69.744C334.845 69.904 335.181 69.984 335.565 69.984C335.949 69.984 336.285 69.904 336.573 69.744C336.861 69.5733 337.085 69.3387 337.245 69.04C337.405 68.7307 337.485 68.3733 337.485 67.968C337.485 67.5627 337.405 67.2107 337.245 66.912C337.085 66.6133 336.861 66.384 336.573 66.224C336.285 66.0533 335.949 65.968 335.565 65.968C335.181 65.968 334.845 66.0533 334.557 66.224C334.269 66.384 334.04 66.6133 333.869 66.912C333.709 67.2107 333.629 67.5627 333.629 67.968ZM343.458 72H340.994V64H343.314L343.474 64.832C343.719 64.4907 344.055 64.224 344.482 64.032C344.919 63.84 345.399 63.744 345.922 63.744C346.871 63.744 347.607 64.0373 348.13 64.624C348.663 65.2 348.93 66.0107 348.93 67.056V72H346.466V67.648C346.466 67.1467 346.338 66.7467 346.082 66.448C345.826 66.1387 345.485 65.984 345.058 65.984C344.567 65.984 344.178 66.1333 343.89 66.432C343.602 66.72 343.458 67.1147 343.458 67.616V72ZM357.491 72.208C356.723 72.208 356.057 72.0373 355.491 71.696C354.926 71.3547 354.483 70.8747 354.163 70.256C353.854 69.6267 353.699 68.8907 353.699 68.048C353.699 67.1947 353.859 66.448 354.179 65.808C354.499 65.1573 354.953 64.6507 355.539 64.288C356.137 63.9253 356.841 63.744 357.651 63.744C358.153 63.744 358.617 63.8347 359.043 64.016C359.481 64.1973 359.817 64.4373 360.051 64.736V59.936H362.515V72H360.195L360.067 70.976C359.854 71.3387 359.513 71.6373 359.043 71.872C358.585 72.096 358.067 72.208 357.491 72.208ZM358.083 69.952C358.467 69.952 358.803 69.872 359.091 69.712C359.39 69.5413 359.619 69.3067 359.779 69.008C359.95 68.6987 360.035 68.3467 360.035 67.952C360.035 67.5467 359.95 67.1947 359.779 66.896C359.619 66.5973 359.39 66.368 359.091 66.208C358.803 66.0373 358.467 65.952 358.083 65.952C357.699 65.952 357.363 66.0373 357.075 66.208C356.787 66.3787 356.563 66.6133 356.403 66.912C356.254 67.2107 356.179 67.5573 356.179 67.952C356.179 68.3467 356.254 68.6933 356.403 68.992C356.563 69.2907 356.787 69.5253 357.075 69.696C357.363 69.8667 357.699 69.952 358.083 69.952ZM363.534 67.984C363.534 67.1413 363.721 66.4053 364.094 65.776C364.478 65.136 365.001 64.64 365.662 64.288C366.334 63.936 367.097 63.76 367.95 63.76C368.803 63.76 369.561 63.936 370.222 64.288C370.883 64.64 371.401 65.136 371.774 65.776C372.158 66.4053 372.35 67.1413 372.35 67.984C372.35 68.8267 372.158 69.5627 371.774 70.192C371.401 70.8213 370.883 71.312 370.222 71.664C369.561 72.016 368.803 72.192 367.95 72.192C367.097 72.192 366.334 72.016 365.662 71.664C365.001 71.312 364.478 70.8213 364.094 70.192C363.721 69.5627 363.534 68.8267 363.534 67.984ZM366.014 67.968C366.014 68.3733 366.094 68.7307 366.254 69.04C366.425 69.3387 366.654 69.5733 366.942 69.744C367.23 69.904 367.566 69.984 367.95 69.984C368.334 69.984 368.67 69.904 368.958 69.744C369.246 69.5733 369.47 69.3387 369.63 69.04C369.79 68.7307 369.87 68.3733 369.87 67.968C369.87 67.5627 369.79 67.2107 369.63 66.912C369.47 66.6133 369.246 66.384 368.958 66.224C368.67 66.0533 368.334 65.968 367.95 65.968C367.566 65.968 367.23 66.0533 366.942 66.224C366.654 66.384 366.425 66.6133 366.254 66.912C366.094 67.2107 366.014 67.5627 366.014 67.968ZM372.946 67.984C372.946 67.1413 373.133 66.4053 373.506 65.776C373.89 65.136 374.413 64.64 375.074 64.288C375.746 63.936 376.509 63.76 377.362 63.76C378.216 63.76 378.973 63.936 379.634 64.288C380.296 64.64 380.813 65.136 381.186 65.776C381.57 66.4053 381.762 67.1413 381.762 67.984C381.762 68.8267 381.57 69.5627 381.186 70.192C380.813 70.8213 380.296 71.312 379.634 71.664C378.973 72.016 378.216 72.192 377.362 72.192C376.509 72.192 375.746 72.016 375.074 71.664C374.413 71.312 373.89 70.8213 373.506 70.192C373.133 69.5627 372.946 68.8267 372.946 67.984ZM375.426 67.968C375.426 68.3733 375.506 68.7307 375.666 69.04C375.837 69.3387 376.066 69.5733 376.354 69.744C376.642 69.904 376.978 69.984 377.362 69.984C377.746 69.984 378.082 69.904 378.37 69.744C378.658 69.5733 378.882 69.3387 379.042 69.04C379.202 68.7307 379.282 68.3733 379.282 67.968C379.282 67.5627 379.202 67.2107 379.042 66.912C378.882 66.6133 378.658 66.384 378.37 66.224C378.082 66.0533 377.746 65.968 377.362 65.968C376.978 65.968 376.642 66.0533 376.354 66.224C376.066 66.384 375.837 66.6133 375.666 66.912C375.506 67.2107 375.426 67.5627 375.426 67.968ZM388.295 64V66.32H387.511C386.807 66.32 386.252 66.4907 385.847 66.832C385.452 67.1733 385.255 67.7387 385.255 68.528V72H382.791V64.016H385.111L385.303 65.728H385.079C385.186 65.1947 385.426 64.7573 385.799 64.416C386.183 64.064 386.7 63.888 387.351 63.888C387.5 63.888 387.65 63.8987 387.799 63.92C387.959 63.9307 388.124 63.9573 388.295 64ZM388.565 69.472H390.901C390.922 69.7493 391.034 69.968 391.237 70.128C391.44 70.288 391.728 70.368 392.101 70.368C392.485 70.368 392.768 70.304 392.949 70.176C393.13 70.048 393.221 69.8827 393.221 69.68C393.221 69.5627 393.173 69.4453 393.077 69.328C392.992 69.2107 392.8 69.12 392.501 69.056L391.029 68.736C390.293 68.576 389.744 68.32 389.381 67.968C389.018 67.6053 388.837 67.072 388.837 66.368C388.837 65.8133 388.981 65.344 389.269 64.96C389.568 64.5653 389.968 64.2667 390.469 64.064C390.97 63.8507 391.541 63.744 392.181 63.744C392.8 63.744 393.344 63.856 393.813 64.08C394.293 64.304 394.666 64.6187 394.933 65.024C395.2 65.4293 395.333 65.904 395.333 66.448H392.997C392.997 66.1707 392.917 65.952 392.757 65.792C392.597 65.6213 392.368 65.536 392.069 65.536C391.792 65.536 391.568 65.6053 391.397 65.744C391.237 65.872 391.157 66.0427 391.157 66.256C391.157 66.5973 391.445 66.832 392.021 66.96L393.509 67.28C394.17 67.4187 394.672 67.6587 395.013 68C395.365 68.3307 395.541 68.816 395.541 69.456C395.541 70.0213 395.392 70.512 395.093 70.928C394.794 71.344 394.378 71.664 393.845 71.888C393.312 72.1013 392.698 72.208 392.005 72.208C390.949 72.208 390.112 71.9573 389.493 71.456C388.874 70.944 388.565 70.2827 388.565 69.472Z" fill="white"/>
<path d="M173.483 76.6858C167.069 76.5332 166.655 71.0699 167.249 68.3572C167.249 68.3572 169.081 71.1758 172.103 72.8924C175.125 74.609 173.483 76.6858 173.483 76.6858Z" fill="white"/>
<path d="M167.524 67.376C167.465 66.5905 169.104 63.2769 169.43 62.8571C169.43 67.6811 175.466 70.2638 175.466 70.2638C175.466 70.2638 177.493 69.0356 176.796 66.8346C175.734 66.1583 175.001 65.4774 175.906 65.2628C176.364 65.831 176.645 66.3559 176.796 66.8346C178.059 67.6384 179.788 68.4357 179.788 68.4357C179.788 68.4357 177.83 70.6527 177.607 70.8743C178.64 71.2873 179.398 72.6014 179.632 73.2286C179.367 76.6719 175.261 76.87 174.454 76.9224C174.378 77.0156 174.322 77.0295 174.317 76.9385C174.317 76.9321 174.366 76.9282 174.454 76.9224C174.772 76.5352 175.45 74.7801 174.317 73.5019C174.317 73.5019 173.69 72.749 171.825 71.7303C170.517 71.0158 167.597 68.3578 167.524 67.376Z" fill="white"/>
<path d="M177.162 61.3874C185.816 71.3347 181.005 75.312 177.75 76.0571C181.225 72.906 177.848 68.371 173.295 64.9431C169.654 62.2007 172.643 56.9943 174.739 55C173.643 57.4187 175.898 60.2661 177.162 61.3874Z" fill="white"/>
<path fill-rule="evenodd" clip-rule="evenodd" d="M0.0534668 260V358V374.384V516.497V541.757V630.99L333.053 637V260H0.0534668Z" fill="url(#paint4_linear_3006_1492)"/>
<path fill-rule="evenodd" clip-rule="evenodd" d="M0.0534668 358V374.384H4.11847V358H0.0534668Z" fill="url(#paint5_linear_3006_1492)"/>
<path d="M12.9775 422V358H32.6895V422H12.9775ZM22.7055 348.016C19.5482 348.016 16.8601 346.949 14.6415 344.816C12.5081 342.597 11.4415 339.909 11.4415 336.752C11.4415 333.595 12.5081 330.949 14.6415 328.816C16.8601 326.683 19.5482 325.616 22.7055 325.616C25.7775 325.616 28.3802 326.683 30.5135 328.816C32.7322 330.949 33.8415 333.595 33.8415 336.752C33.8415 339.909 32.7322 342.597 30.5135 344.816C28.3802 346.949 25.7775 348.016 22.7055 348.016Z" fill="url(#paint6_linear_3006_1492)"/>
<path d="M44.0215 389.872C44.0215 383.131 45.5148 377.243 48.5015 372.208C51.5735 367.088 55.7548 363.12 61.0455 360.304C66.4215 357.488 72.5228 356.08 79.3495 356.08C86.1762 356.08 92.2348 357.488 97.5255 360.304C102.816 363.12 106.955 367.088 109.941 372.208C113.013 377.243 114.549 383.131 114.549 389.872C114.549 396.613 113.013 402.501 109.941 407.536C106.955 412.571 102.816 416.496 97.5255 419.312C92.2348 422.128 86.1762 423.536 79.3495 423.536C72.5228 423.536 66.4215 422.128 61.0455 419.312C55.7548 416.496 51.5735 412.571 48.5015 407.536C45.5148 402.501 44.0215 396.613 44.0215 389.872ZM63.8615 389.744C63.8615 392.987 64.5015 395.845 65.7815 398.32C67.1468 400.709 68.9815 402.587 71.2855 403.952C73.5895 405.232 76.2775 405.872 79.3495 405.872C82.4215 405.872 85.1095 405.232 87.4135 403.952C89.7175 402.587 91.5094 400.709 92.7894 398.32C94.0694 395.845 94.7095 392.987 94.7095 389.744C94.7095 386.501 94.0694 383.685 92.7894 381.296C91.5094 378.907 89.7175 377.072 87.4135 375.792C85.1095 374.427 82.4215 373.744 79.3495 373.744C76.2775 373.744 73.5895 374.427 71.2855 375.792C68.9815 377.072 67.1468 378.907 65.7815 381.296C64.5015 383.685 63.8615 386.501 63.8615 389.744Z" fill="url(#paint7_linear_3006_1492)"/>
<path d="M145.689 422H125.977V358H144.537L145.818 364.656C147.78 361.925 150.468 359.792 153.881 358.256C157.38 356.72 161.22 355.952 165.401 355.952C172.996 355.952 178.884 358.299 183.065 362.992C187.332 367.6 189.465 374.085 189.465 382.448V422H169.753V387.184C169.753 383.173 168.729 379.973 166.681 377.584C164.633 375.109 161.903 373.872 158.49 373.872C154.564 373.872 151.45 375.067 149.146 377.456C146.842 379.76 145.689 382.917 145.689 386.928V422Z" fill="url(#paint8_linear_3006_1492)"/>
<path fill-rule="evenodd" clip-rule="evenodd" d="M0.0534668 516.497V541.757L2.61646 539.064L16.9525 563H39.7365L16.4405 524.344L40.5045 499H15.8005L0.0534668 516.497Z" fill="url(#paint9_linear_3006_1492)"/>
<path d="M43.3695 542.776H62.0575C62.2282 544.995 63.1241 546.744 64.7455 548.024C66.3668 549.304 68.6708 549.944 71.6575 549.944C74.7295 549.944 76.9908 549.432 78.4415 548.408C79.8921 547.384 80.6174 546.061 80.6174 544.44C80.6174 543.501 80.2335 542.563 79.4655 541.624C78.7828 540.685 77.2468 539.96 74.8575 539.448L63.0815 536.888C57.1935 535.608 52.7988 533.56 49.8975 530.744C46.9961 527.843 45.5455 523.576 45.5455 517.944C45.5455 513.507 46.6975 509.752 49.0015 506.68C51.3908 503.523 54.5908 501.133 58.6014 499.512C62.6121 497.805 67.1775 496.952 72.2975 496.952C77.2468 496.952 81.5988 497.848 85.3535 499.64C89.1935 501.432 92.1801 503.949 94.3135 507.192C96.4468 510.435 97.5134 514.232 97.5134 518.584H78.8254C78.8254 516.365 78.1855 514.616 76.9055 513.336C75.6255 511.971 73.7908 511.288 71.4015 511.288C69.1828 511.288 67.3908 511.843 66.0255 512.952C64.7455 513.976 64.1055 515.341 64.1055 517.048C64.1055 519.779 66.4095 521.656 71.0175 522.68L82.9215 525.24C88.2122 526.349 92.2228 528.269 94.9535 531C97.7695 533.645 99.1775 537.528 99.1775 542.648C99.1775 547.171 97.9828 551.096 95.5935 554.424C93.2042 557.752 89.8762 560.312 85.6095 562.104C81.3428 563.811 76.4361 564.664 70.8895 564.664C62.4415 564.664 55.7428 562.659 50.7935 558.648C45.8441 554.552 43.3695 549.261 43.3695 542.776Z" fill="url(#paint10_linear_3006_1492)"/>
<path d="M172.664 563L137.208 468.28H159.352L177.272 516.152C178.382 519.053 179.406 522.083 180.344 525.24C181.283 528.397 182.264 532.024 183.288 536.12C184.483 531.597 185.55 527.843 186.488 524.856C187.512 521.869 188.536 518.968 189.56 516.152L207.224 468.28H228.856L194.04 563H172.664Z" fill="url(#paint11_linear_3006_1492)"/>
<path d="M249.762 493.752L268.322 468.28H292.002L265.762 503.48L260.002 502.2C261.282 500.749 263.33 499.512 266.146 498.488C268.962 497.464 271.65 496.952 274.21 496.952C280.696 496.952 286.37 498.36 291.234 501.176C296.184 503.907 300.024 507.747 302.754 512.696C305.57 517.645 306.978 523.363 306.978 529.848C306.978 536.76 305.4 542.819 302.242 548.024C299.17 553.229 294.904 557.325 289.442 560.312C283.981 563.213 277.752 564.664 270.754 564.664C263.672 564.664 257.357 563.128 251.81 560.056C246.264 556.984 241.912 552.803 238.754 547.512C235.597 542.221 234.018 536.291 234.018 529.72C234.018 525.795 234.53 522.125 235.554 518.712C236.578 515.213 238.242 511.501 240.546 507.576C242.85 503.565 245.922 498.957 249.762 493.752ZM255.266 529.976C255.266 533.219 255.906 536.077 257.186 538.552C258.552 541.027 260.386 542.947 262.69 544.312C264.994 545.677 267.682 546.36 270.754 546.36C273.741 546.36 276.386 545.677 278.69 544.312C280.994 542.947 282.786 541.027 284.066 538.552C285.346 536.077 285.986 533.219 285.986 529.976C285.986 526.733 285.346 523.917 284.066 521.528C282.786 519.053 280.994 517.133 278.69 515.768C276.472 514.403 273.826 513.72 270.754 513.72C267.682 513.72 264.952 514.403 262.562 515.768C260.258 517.133 258.466 519.053 257.186 521.528C255.906 523.917 255.266 526.733 255.266 529.976Z" fill="url(#paint12_linear_3006_1492)"/>
<path d="M95.7589 300H92.5909L98.9269 282.456H102.071L108.407 300H105.167L103.751 295.944H97.1989L95.7589 300ZM100.103 287.688L98.0869 293.352H102.863L100.847 287.688C100.783 287.448 100.711 287.208 100.631 286.968C100.551 286.728 100.503 286.52 100.487 286.344C100.455 286.504 100.399 286.712 100.319 286.968C100.255 287.208 100.183 287.448 100.103 287.688Z" fill="#5B5772"/>
<path d="M117.746 288.144H120.674V300H117.962L117.746 298.416C117.394 298.976 116.866 299.432 116.162 299.784C115.458 300.136 114.706 300.312 113.906 300.312C112.546 300.312 111.482 299.88 110.714 299.016C109.946 298.152 109.562 297 109.562 295.56V288.144H112.49V294.528C112.49 295.648 112.706 296.456 113.138 296.952C113.57 297.448 114.194 297.696 115.01 297.696C115.938 297.696 116.626 297.424 117.074 296.88C117.522 296.32 117.746 295.48 117.746 294.36V288.144Z" fill="#5B5772"/>
<path d="M123.026 293.808C123.026 292.656 123.258 291.632 123.722 290.736C124.202 289.824 124.866 289.104 125.714 288.576C126.562 288.048 127.546 287.784 128.666 287.784C129.674 287.784 130.538 288.008 131.258 288.456C131.978 288.888 132.482 289.496 132.77 290.28L132.458 290.544L132.698 288.144H135.41V299.4C135.41 300.712 135.154 301.848 134.642 302.808C134.146 303.784 133.434 304.528 132.506 305.04C131.594 305.568 130.49 305.832 129.194 305.832C127.498 305.832 126.106 305.376 125.018 304.464C123.93 303.552 123.29 302.304 123.098 300.72H126.026C126.122 301.488 126.442 302.088 126.986 302.52C127.546 302.952 128.282 303.168 129.194 303.168C130.202 303.168 131.002 302.872 131.594 302.28C132.202 301.704 132.506 300.92 132.506 299.928V296.976L132.842 297.288C132.554 298.04 132.026 298.64 131.258 299.088C130.49 299.536 129.602 299.76 128.594 299.76C127.474 299.76 126.498 299.504 125.666 298.992C124.834 298.48 124.186 297.776 123.722 296.88C123.258 295.984 123.026 294.96 123.026 293.808ZM125.978 293.736C125.978 294.408 126.106 295.008 126.362 295.536C126.634 296.048 127.01 296.456 127.49 296.76C127.97 297.064 128.53 297.216 129.17 297.216C129.842 297.216 130.418 297.072 130.898 296.784C131.394 296.48 131.77 296.072 132.026 295.56C132.298 295.032 132.434 294.424 132.434 293.736C132.434 293.048 132.306 292.456 132.05 291.96C131.794 291.448 131.418 291.048 130.922 290.76C130.442 290.472 129.858 290.328 129.17 290.328C128.514 290.328 127.946 290.48 127.466 290.784C126.986 291.072 126.618 291.472 126.362 291.984C126.106 292.496 125.978 293.08 125.978 293.736Z" fill="#5B5772"/>
<path d="M146.48 288.144H149.408V300H146.696L146.48 298.416C146.128 298.976 145.6 299.432 144.896 299.784C144.192 300.136 143.441 300.312 142.641 300.312C141.281 300.312 140.216 299.88 139.448 299.016C138.68 298.152 138.297 297 138.297 295.56V288.144H141.224V294.528C141.224 295.648 141.44 296.456 141.872 296.952C142.304 297.448 142.929 297.696 143.745 297.696C144.673 297.696 145.36 297.424 145.808 296.88C146.256 296.32 146.48 295.48 146.48 294.36V288.144Z" fill="#5B5772"/>
<path d="M151.286 296.4H154.07C154.086 296.912 154.278 297.32 154.646 297.624C155.014 297.928 155.526 298.08 156.182 298.08C156.886 298.08 157.414 297.952 157.766 297.696C158.134 297.44 158.318 297.096 158.318 296.664C158.318 296.376 158.222 296.12 158.03 295.896C157.838 295.672 157.478 295.504 156.95 295.392L154.814 294.888C153.742 294.648 152.942 294.264 152.414 293.736C151.902 293.192 151.646 292.448 151.646 291.504C151.646 290.736 151.846 290.072 152.246 289.512C152.662 288.952 153.222 288.528 153.926 288.24C154.63 287.936 155.438 287.784 156.35 287.784C157.23 287.784 158.006 287.944 158.678 288.264C159.35 288.584 159.87 289.032 160.238 289.608C160.622 290.184 160.822 290.856 160.838 291.624H158.054C158.054 291.112 157.894 290.712 157.574 290.424C157.254 290.12 156.806 289.968 156.23 289.968C155.654 289.968 155.206 290.096 154.886 290.352C154.566 290.608 154.406 290.952 154.406 291.384C154.406 292.04 154.918 292.488 155.942 292.728L158.078 293.232C159.07 293.456 159.814 293.816 160.31 294.312C160.822 294.808 161.078 295.512 161.078 296.424C161.078 297.224 160.87 297.92 160.454 298.512C160.038 299.088 159.454 299.536 158.702 299.856C157.95 300.16 157.086 300.312 156.11 300.312C154.638 300.312 153.462 299.952 152.582 299.232C151.718 298.512 151.286 297.568 151.286 296.4Z" fill="#5B5772"/>
<path d="M162.132 288.144H169.62V290.592H162.132V288.144ZM167.34 300H164.412V284.448H167.34V300Z" fill="#5B5772"/>
<path d="M181.077 285.216H177.237V282.456H184.005V300H181.077V285.216Z" fill="#5B5772"/>
<path d="M192.899 300.288C191.683 300.288 190.611 300.048 189.683 299.568C188.771 299.072 188.059 298.384 187.547 297.504C187.051 296.608 186.803 295.568 186.803 294.384H189.827C189.827 295.376 190.107 296.152 190.667 296.712C191.227 297.272 191.995 297.552 192.971 297.552C193.659 297.552 194.251 297.416 194.747 297.144C195.259 296.856 195.651 296.448 195.923 295.92C196.211 295.392 196.355 294.776 196.355 294.072C196.355 293.4 196.219 292.808 195.947 292.296C195.691 291.768 195.315 291.36 194.819 291.072C194.323 290.784 193.723 290.64 193.019 290.64C192.347 290.64 191.723 290.792 191.147 291.096C190.587 291.384 190.147 291.76 189.827 292.224L187.115 291.648L189.275 282.456H198.419V285.288H190.691L191.723 284.328L190.307 289.92L189.275 290.352C189.659 289.616 190.235 289.056 191.003 288.672C191.787 288.272 192.667 288.072 193.643 288.072C194.811 288.072 195.827 288.32 196.691 288.816C197.571 289.312 198.251 290 198.731 290.88C199.227 291.744 199.475 292.752 199.475 293.904C199.475 295.168 199.195 296.28 198.635 297.24C198.091 298.2 197.323 298.952 196.331 299.496C195.355 300.024 194.211 300.288 192.899 300.288Z" fill="#5B5772"/>
<path d="M201.698 294.888V292.296H209.426V294.888H201.698Z" fill="#5B5772"/>
<path d="M213.842 285.216H210.002V282.456H216.77V300H213.842V285.216Z" fill="#5B5772"/>
<path d="M222.277 287.616L226.069 282.456H229.573L224.629 289.056L223.861 288.864C224.213 288.544 224.645 288.296 225.157 288.12C225.685 287.944 226.197 287.856 226.693 287.856C227.893 287.856 228.949 288.12 229.861 288.648C230.773 289.16 231.485 289.88 231.997 290.808C232.509 291.72 232.765 292.768 232.765 293.952C232.765 295.2 232.477 296.304 231.901 297.264C231.341 298.208 230.565 298.952 229.573 299.496C228.597 300.04 227.485 300.312 226.237 300.312C224.973 300.312 223.837 300.032 222.829 299.472C221.837 298.912 221.053 298.152 220.477 297.192C219.901 296.216 219.613 295.128 219.613 293.928C219.613 293.208 219.693 292.544 219.853 291.936C220.029 291.312 220.309 290.656 220.693 289.968C221.093 289.28 221.621 288.496 222.277 287.616ZM222.757 293.952C222.757 294.672 222.901 295.304 223.189 295.848C223.493 296.392 223.901 296.816 224.413 297.12C224.941 297.424 225.549 297.576 226.237 297.576C226.909 297.576 227.501 297.424 228.013 297.12C228.525 296.816 228.925 296.392 229.213 295.848C229.517 295.304 229.669 294.672 229.669 293.952C229.669 293.248 229.517 292.632 229.213 292.104C228.925 291.56 228.525 291.136 228.013 290.832C227.501 290.528 226.909 290.376 226.237 290.376C225.549 290.376 224.941 290.528 224.413 290.832C223.885 291.136 223.477 291.56 223.189 292.104C222.901 292.632 222.757 293.248 222.757 293.952Z" fill="#5B5772"/>
<path d="M237.169 299.784L237.457 299.712C237.329 299.824 237.185 299.912 237.025 299.976C236.881 300.024 236.705 300.048 236.497 300.048C236.033 300.048 235.633 299.896 235.297 299.592C234.961 299.272 234.793 298.872 234.793 298.392C234.793 297.816 234.961 297.352 235.297 297C235.633 296.648 236.073 296.472 236.617 296.472C237.225 296.472 237.721 296.696 238.105 297.144C238.489 297.592 238.681 298.192 238.681 298.944C238.681 299.6 238.537 300.2 238.249 300.744C237.961 301.304 237.561 301.76 237.049 302.112C236.537 302.464 235.953 302.68 235.297 302.76V301.584C235.841 301.488 236.289 301.28 236.641 300.96C236.993 300.656 237.169 300.264 237.169 299.784Z" fill="#5B5772"/>
<path d="M259.982 299.976L247.814 300V297.696L253.55 292.848C254.142 292.352 254.638 291.896 255.038 291.48C255.454 291.064 255.782 290.672 256.022 290.304C256.262 289.936 256.438 289.568 256.55 289.2C256.662 288.832 256.718 288.432 256.718 288C256.718 287.008 256.462 286.24 255.95 285.696C255.438 285.152 254.718 284.88 253.79 284.88C252.83 284.88 252.07 285.2 251.51 285.84C250.95 286.48 250.662 287.36 250.646 288.48H247.598C247.614 287.2 247.878 286.088 248.39 285.144C248.902 284.184 249.622 283.448 250.55 282.936C251.478 282.408 252.558 282.144 253.79 282.144C255.038 282.144 256.11 282.376 257.006 282.84C257.918 283.288 258.622 283.936 259.118 284.784C259.614 285.632 259.862 286.648 259.862 287.832C259.862 288.44 259.774 289.024 259.598 289.584C259.438 290.128 259.19 290.664 258.854 291.192C258.518 291.704 258.102 292.224 257.606 292.752C257.11 293.28 256.526 293.832 255.854 294.408L251.582 298.056L250.478 297.12H259.982V299.976Z" fill="#5B5772"/>
<path d="M261.875 291.264C261.875 289.44 262.178 287.848 262.786 286.488C263.41 285.128 264.275 284.064 265.379 283.296C266.499 282.512 267.803 282.12 269.291 282.12C270.795 282.12 272.099 282.512 273.203 283.296C274.323 284.064 275.187 285.128 275.795 286.488C276.419 287.848 276.731 289.44 276.731 291.264C276.731 293.072 276.435 294.656 275.843 296.016C275.251 297.376 274.403 298.432 273.299 299.184C272.195 299.936 270.859 300.312 269.291 300.312C267.755 300.312 266.427 299.936 265.307 299.184C264.203 298.432 263.355 297.376 262.763 296.016C262.171 294.656 261.875 293.072 261.875 291.264ZM264.899 291.264C264.899 292.608 265.075 293.76 265.427 294.72C265.779 295.664 266.283 296.384 266.939 296.88C267.595 297.36 268.379 297.6 269.291 297.6C270.235 297.6 271.027 297.36 271.667 296.88C272.323 296.384 272.827 295.664 273.179 294.72C273.531 293.76 273.707 292.608 273.707 291.264C273.707 289.872 273.531 288.704 273.179 287.76C272.827 286.8 272.323 286.072 271.667 285.576C271.027 285.08 270.235 284.832 269.291 284.832C268.379 284.832 267.595 285.08 266.939 285.576C266.283 286.072 265.779 286.8 265.427 287.76C265.075 288.704 264.899 289.872 264.899 291.264Z" fill="#5B5772"/>
<path d="M291.036 299.976L278.868 300V297.696L284.604 292.848C285.196 292.352 285.692 291.896 286.092 291.48C286.508 291.064 286.836 290.672 287.076 290.304C287.316 289.936 287.492 289.568 287.604 289.2C287.716 288.832 287.772 288.432 287.772 288C287.772 287.008 287.516 286.24 287.004 285.696C286.492 285.152 285.772 284.88 284.844 284.88C283.884 284.88 283.124 285.2 282.564 285.84C282.004 286.48 281.716 287.36 281.7 288.48H278.652C278.668 287.2 278.932 286.088 279.444 285.144C279.956 284.184 280.676 283.448 281.604 282.936C282.532 282.408 283.612 282.144 284.844 282.144C286.092 282.144 287.164 282.376 288.06 282.84C288.972 283.288 289.676 283.936 290.172 284.784C290.668 285.632 290.916 286.648 290.916 287.832C290.916 288.44 290.828 289.024 290.652 289.584C290.492 290.128 290.244 290.664 289.908 291.192C289.572 291.704 289.156 292.224 288.66 292.752C288.164 293.28 287.58 293.832 286.908 294.408L282.636 298.056L281.532 297.12H291.036V299.976Z" fill="#5B5772"/>
<path d="M295.425 287.616L299.217 282.456H302.721L297.777 289.056L297.009 288.864C297.361 288.544 297.793 288.296 298.305 288.12C298.833 287.944 299.345 287.856 299.841 287.856C301.041 287.856 302.097 288.12 303.009 288.648C303.921 289.16 304.633 289.88 305.145 290.808C305.657 291.72 305.913 292.768 305.913 293.952C305.913 295.2 305.625 296.304 305.049 297.264C304.489 298.208 303.713 298.952 302.721 299.496C301.745 300.04 300.633 300.312 299.385 300.312C298.121 300.312 296.985 300.032 295.977 299.472C294.985 298.912 294.201 298.152 293.625 297.192C293.049 296.216 292.761 295.128 292.761 293.928C292.761 293.208 292.841 292.544 293.001 291.936C293.177 291.312 293.457 290.656 293.841 289.968C294.241 289.28 294.769 288.496 295.425 287.616ZM295.905 293.952C295.905 294.672 296.049 295.304 296.337 295.848C296.641 296.392 297.049 296.816 297.561 297.12C298.089 297.424 298.697 297.576 299.385 297.576C300.057 297.576 300.649 297.424 301.161 297.12C301.673 296.816 302.073 296.392 302.361 295.848C302.665 295.304 302.817 294.672 302.817 293.952C302.817 293.248 302.665 292.632 302.361 292.104C302.073 291.56 301.673 291.136 301.161 290.832C300.649 290.528 300.057 290.376 299.385 290.376C298.697 290.376 298.089 290.528 297.561 290.832C297.033 291.136 296.625 291.56 296.337 292.104C296.049 292.632 295.905 293.248 295.905 293.952Z" fill="#5B5772"/>
<path d="M219.053 653.355L367.946 567L365.611 577.496L375.881 580.682L373.546 591.178L383.816 594.363L234.924 680.718L236.077 670.907L226.989 667.036L228.142 657.226L219.053 653.355Z" fill="url(#paint13_linear_3006_1492)"/>
<defs>
<linearGradient id="paint0_linear_3006_1492" x1="282.444" y1="-3.37001e-09" x2="282.173" y2="1148" gradientUnits="userSpaceOnUse">
<stop stop-color="#E5DDFF"/>
<stop offset="1" stop-color="#322C55"/>
</linearGradient>
<linearGradient id="paint1_linear_3006_1492" x1="534.979" y1="572.002" x2="28.0535" y2="572.002" gradientUnits="userSpaceOnUse">
<stop stop-color="#BCC9FF"/>
<stop offset="1" stop-color="#7672E9"/>
</linearGradient>
<linearGradient id="paint2_linear_3006_1492" x1="296.054" y1="12" x2="302.054" y2="1018" gradientUnits="userSpaceOnUse">
<stop stop-color="#7072BF"/>
<stop offset="1" stop-color="#8A7BD5"/>
</linearGradient>
<linearGradient id="paint3_linear_3006_1492" x1="0.0534668" y1="0" x2="28.3407" y2="1147.99" gradientUnits="userSpaceOnUse">
<stop stop-color="#676767"/>
<stop offset="1" stop-color="#100F0F"/>
</linearGradient>
<linearGradient id="paint4_linear_3006_1492" x1="462.589" y1="829.496" x2="-35.8513" y2="122.448" gradientUnits="userSpaceOnUse">
<stop stop-color="#A49BFF"/>
<stop offset="0.549347" stop-color="white"/>
</linearGradient>
<linearGradient id="paint5_linear_3006_1492" x1="191.935" y1="-735.8" x2="-778.157" y2="929.959" gradientUnits="userSpaceOnUse">
<stop stop-color="#E6E4FF"/>
<stop offset="1" stop-color="#594CDB"/>
</linearGradient>
<linearGradient id="paint6_linear_3006_1492" x1="191.935" y1="-735.8" x2="-778.157" y2="929.959" gradientUnits="userSpaceOnUse">
<stop stop-color="#E6E4FF"/>
<stop offset="1" stop-color="#594CDB"/>
</linearGradient>
<linearGradient id="paint7_linear_3006_1492" x1="191.935" y1="-735.8" x2="-778.157" y2="929.959" gradientUnits="userSpaceOnUse">
<stop stop-color="#E6E4FF"/>
<stop offset="1" stop-color="#594CDB"/>
</linearGradient>
<linearGradient id="paint8_linear_3006_1492" x1="191.935" y1="-735.8" x2="-778.157" y2="929.959" gradientUnits="userSpaceOnUse">
<stop stop-color="#E6E4FF"/>
<stop offset="1" stop-color="#594CDB"/>
</linearGradient>
<linearGradient id="paint9_linear_3006_1492" x1="191.935" y1="-735.8" x2="-778.157" y2="929.959" gradientUnits="userSpaceOnUse">
<stop stop-color="#E6E4FF"/>
<stop offset="1" stop-color="#594CDB"/>
</linearGradient>
<linearGradient id="paint10_linear_3006_1492" x1="191.935" y1="-735.8" x2="-778.157" y2="929.959" gradientUnits="userSpaceOnUse">
<stop stop-color="#E6E4FF"/>
<stop offset="1" stop-color="#594CDB"/>
</linearGradient>
<linearGradient id="paint11_linear_3006_1492" x1="191.935" y1="-735.8" x2="-778.157" y2="929.959" gradientUnits="userSpaceOnUse">
<stop stop-color="#E6E4FF"/>
<stop offset="1" stop-color="#594CDB"/>
</linearGradient>
<linearGradient id="paint12_linear_3006_1492" x1="191.935" y1="-735.8" x2="-778.157" y2="929.959" gradientUnits="userSpaceOnUse">
<stop stop-color="#E6E4FF"/>
<stop offset="1" stop-color="#594CDB"/>
</linearGradient>
<linearGradient id="paint13_linear_3006_1492" x1="40.738" y1="-688.648" x2="787.212" y2="-554.408" gradientUnits="userSpaceOnUse">
<stop stop-color="#FFF6EB"/>
<stop offset="1" stop-color="#F9BC2D"/>
</linearGradient>
</defs>
</svg>
