<svg width="59" height="203" viewBox="0 0 59 203" fill="none" xmlns="http://www.w3.org/2000/svg">
<path d="M0.684656 12.645C0.367143 5.03328 7.66446 -0.520334 15.1435 0.929704C25.028 2.84611 33.6261 2.91442 43.7508 0.97576C51.264 -0.462864 58.6191 5.11004 58.3035 12.7533C55.4829 81.0727 56.4389 123.99 58.4704 189.186C58.7173 197.111 50.7424 202.589 42.971 201.017C33.6997 199.14 25.2857 199.487 15.2408 201.72C7.75505 203.385 0.356133 197.838 0.664075 190.175C3.39066 122.331 3.44299 78.7702 0.684656 12.645Z" fill="url(#paint0_linear_3006_395)"/>
<path d="M46.9316 97.8855C50.265 99.81 50.265 104.621 46.9316 106.546L21.1078 121.455C17.7745 123.38 13.6078 120.974 13.6078 117.125L13.6078 87.3063C13.6078 83.4573 17.7745 81.0517 21.1078 82.9762L46.9316 97.8855Z" fill="url(#paint1_linear_3006_395)"/>
<defs>
<linearGradient id="paint0_linear_3006_395" x1="0.654785" y1="101.839" x2="53.5759" y2="101.839" gradientUnits="userSpaceOnUse">
<stop offset="0.5" stop-color="#4E3FBE"/>
<stop offset="1" stop-color="#2F1DC9"/>
</linearGradient>
<linearGradient id="paint1_linear_3006_395" x1="-5.5" y1="74.9998" x2="74" y2="74.9998" gradientUnits="userSpaceOnUse">
<stop offset="0.352672" stop-color="white"/>
<stop offset="1" stop-color="#C1C1C1"/>
</linearGradient>
</defs>
</svg>
