<svg width="1614" height="1419" viewBox="0 0 1614 1419" fill="none" xmlns="http://www.w3.org/2000/svg">
<rect width="957" height="311" transform="translate(328 812)" fill="white"/>
<mask id="path-1-outside-1_3006_330" maskUnits="userSpaceOnUse" x="326" y="812" width="961" height="311" fill="black">
<rect fill="white" x="326" y="812" width="961" height="311"/>
<path d="M328 812H1285V1123H328V812Z"/>
</mask>
<path d="M328 812H1285V1123H328V812Z" fill="url(#paint0_linear_3006_330)"/>
<path d="M1285 812H1283V1123H1285H1287V812H1285ZM328 1123H330V812H328H326V1123H328Z" fill="#3D3D3D" mask="url(#path-1-outside-1_3006_330)"/>
<path d="M356.965 812H1256.96V1123H356.965V812Z" fill="url(#paint1_linear_3006_330)"/>
<rect x="647" y="842" width="577" height="135" fill="url(#paint2_linear_3006_330)"/>
<path d="M1173.7 976.854L1244.52 926.938L1244.64 935.587L1250.76 940.011L1250.88 948.66L1257 953.084L1186.18 1003L1185.5 994.747L1179.94 989.927L1179.26 981.673L1173.7 976.854Z" fill="url(#paint3_linear_3006_330)"/>
<path d="M625 883.151L682.224 812L684.249 820.293L691.118 822.563L693.143 830.857L700.012 833.127L642.787 904.278L640.308 896.549L633.894 893.715L631.415 885.986L625 883.151Z" fill="url(#paint4_linear_3006_330)"/>
<path d="M716.01 927H708.405L720.285 893.7H727.395L739.23 927H731.49L729.15 919.98H718.395L716.01 927ZM722.895 906.75L720.51 913.86H727.08L724.695 906.75C724.515 906.18 724.335 905.595 724.155 904.995C723.975 904.395 723.855 903.9 723.795 903.51C723.735 903.9 723.615 904.395 723.435 904.995C723.285 905.565 723.105 906.15 722.895 906.75ZM760.685 927H754.16V893.07H761.09V907.11C761.78 906.09 762.8 905.28 764.15 904.68C765.53 904.05 767.03 903.735 768.65 903.735C770.75 903.735 772.565 904.245 774.095 905.265C775.655 906.285 776.855 907.71 777.695 909.54C778.535 911.37 778.955 913.515 778.955 915.975C778.955 918.285 778.49 920.325 777.56 922.095C776.66 923.835 775.385 925.185 773.735 926.145C772.115 927.105 770.24 927.585 768.11 927.585C766.55 927.585 765.125 927.27 763.835 926.64C762.575 925.98 761.645 925.14 761.045 924.12L760.685 927ZM761.135 915.615C761.135 916.725 761.36 917.715 761.81 918.585C762.29 919.425 762.935 920.085 763.745 920.565C764.585 921.015 765.545 921.24 766.625 921.24C767.735 921.24 768.68 921 769.46 920.52C770.27 920.04 770.885 919.38 771.305 918.54C771.755 917.7 771.98 916.725 771.98 915.615C771.98 914.505 771.755 913.53 771.305 912.69C770.885 911.85 770.27 911.19 769.46 910.71C768.68 910.23 767.735 909.99 766.625 909.99C765.545 909.99 764.585 910.23 763.745 910.71C762.935 911.16 762.29 911.805 761.81 912.645C761.36 913.485 761.135 914.475 761.135 915.615ZM789.874 927H782.944V893.07H789.874V927ZM801.868 927.585C799.498 927.585 797.608 926.94 796.198 925.65C794.818 924.33 794.128 922.575 794.128 920.385C794.128 918.315 794.833 916.665 796.243 915.435C797.683 914.205 799.753 913.485 802.453 913.275L808.753 912.78V912.42C808.753 911.67 808.603 911.055 808.303 910.575C808.003 910.065 807.568 909.69 806.998 909.45C806.458 909.18 805.768 909.045 804.928 909.045C803.458 909.045 802.333 909.315 801.553 909.855C800.803 910.395 800.428 911.175 800.428 912.195H794.668C794.668 910.485 795.103 909 795.973 907.74C796.843 906.48 798.073 905.505 799.663 904.815C801.283 904.125 803.158 903.78 805.288 903.78C807.478 903.78 809.323 904.17 810.823 904.95C812.353 905.73 813.508 906.87 814.288 908.37C815.098 909.87 815.503 911.7 815.503 913.86V927H809.383L808.933 924.03C808.573 925.05 807.718 925.905 806.368 926.595C805.048 927.255 803.548 927.585 801.868 927.585ZM804.298 922.455C805.618 922.455 806.698 922.14 807.538 921.51C808.378 920.85 808.798 919.875 808.798 918.585V917.37L805.288 917.685C803.788 917.805 802.723 918.06 802.093 918.45C801.493 918.81 801.193 919.35 801.193 920.07C801.193 920.88 801.448 921.48 801.958 921.87C802.468 922.26 803.248 922.455 804.298 922.455ZM818.853 919.89H825.423C825.483 920.67 825.798 921.285 826.368 921.735C826.938 922.185 827.748 922.41 828.798 922.41C829.878 922.41 830.673 922.23 831.183 921.87C831.693 921.51 831.948 921.045 831.948 920.475C831.948 920.145 831.813 919.815 831.543 919.485C831.303 919.155 830.763 918.9 829.923 918.72L825.783 917.82C823.713 917.37 822.168 916.65 821.148 915.66C820.128 914.64 819.618 913.14 819.618 911.16C819.618 909.6 820.023 908.28 820.833 907.2C821.673 906.09 822.798 905.25 824.208 904.68C825.618 904.08 827.223 903.78 829.023 903.78C830.763 903.78 832.293 904.095 833.613 904.725C834.963 905.355 836.013 906.24 836.763 907.38C837.513 908.52 837.888 909.855 837.888 911.385H831.318C831.318 910.605 831.093 909.99 830.643 909.54C830.193 909.06 829.548 908.82 828.708 908.82C827.928 908.82 827.298 909.015 826.818 909.405C826.368 909.765 826.143 910.245 826.143 910.845C826.143 911.805 826.953 912.465 828.573 912.825L832.758 913.725C834.618 914.115 836.028 914.79 836.988 915.75C837.978 916.68 838.473 918.045 838.473 919.845C838.473 921.435 838.053 922.815 837.213 923.985C836.373 925.155 835.203 926.055 833.703 926.685C832.203 927.285 830.478 927.585 828.528 927.585C825.558 927.585 823.203 926.88 821.463 925.47C819.723 924.03 818.853 922.17 818.853 919.89ZM839.979 904.5H855.459V910.26H839.979V904.5ZM851.184 927H844.254V897.525H851.184V927ZM868.368 904.5H883.803V910.26H868.368V904.5ZM883.803 893.34V899.28C883.413 899.28 883.053 899.28 882.723 899.28C882.423 899.28 882.138 899.28 881.868 899.28C880.458 899.28 879.528 899.61 879.078 900.27C878.628 900.93 878.403 901.74 878.403 902.7V927H871.473V902.7C871.473 900.45 871.848 898.62 872.598 897.21C873.348 895.8 874.413 894.765 875.793 894.105C877.173 893.415 878.808 893.07 880.698 893.07C881.178 893.07 881.673 893.1 882.183 893.16C882.723 893.19 883.263 893.25 883.803 893.34ZM902.399 904.5V911.025H900.194C898.214 911.025 896.654 911.505 895.514 912.465C894.404 913.425 893.849 915.015 893.849 917.235V927H886.919V904.545H893.444L893.984 909.36H893.354C893.654 907.86 894.329 906.63 895.379 905.67C896.459 904.68 897.914 904.185 899.744 904.185C900.164 904.185 900.584 904.215 901.004 904.275C901.454 904.305 901.919 904.38 902.399 904.5ZM904.029 915.705C904.029 913.335 904.554 911.265 905.604 909.495C906.684 907.695 908.154 906.3 910.014 905.31C911.904 904.32 914.049 903.825 916.449 903.825C918.849 903.825 920.979 904.32 922.839 905.31C924.699 906.3 926.154 907.695 927.204 909.495C928.284 911.265 928.824 913.335 928.824 915.705C928.824 918.075 928.284 920.145 927.204 921.915C926.154 923.685 924.699 925.065 922.839 926.055C920.979 927.045 918.849 927.54 916.449 927.54C914.049 927.54 911.904 927.045 910.014 926.055C908.154 925.065 906.684 923.685 905.604 921.915C904.554 920.145 904.029 918.075 904.029 915.705ZM911.004 915.66C911.004 916.8 911.229 917.805 911.679 918.675C912.159 919.515 912.804 920.175 913.614 920.655C914.424 921.105 915.369 921.33 916.449 921.33C917.529 921.33 918.474 921.105 919.284 920.655C920.094 920.175 920.724 919.515 921.174 918.675C921.624 917.805 921.849 916.8 921.849 915.66C921.849 914.52 921.624 913.53 921.174 912.69C920.724 911.85 920.094 911.205 919.284 910.755C918.474 910.275 917.529 910.035 916.449 910.035C915.369 910.035 914.424 910.275 913.614 910.755C912.804 911.205 912.159 911.85 911.679 912.69C911.229 913.53 911.004 914.52 911.004 915.66ZM939.771 927H932.841V904.5H939.321L940.086 908.37L939.366 907.56C939.816 906.66 940.626 905.805 941.796 904.995C942.966 904.185 944.481 903.78 946.341 903.78C948.321 903.78 949.911 904.275 951.111 905.265C952.311 906.255 953.196 907.545 953.766 909.135H952.686C953.046 907.545 953.916 906.255 955.296 905.265C956.676 904.275 958.326 903.78 960.246 903.78C963.156 903.78 965.331 904.56 966.771 906.12C968.211 907.65 968.931 909.705 968.931 912.285V927H962.001V914.22C962.001 912.81 961.656 911.76 960.966 911.07C960.306 910.38 959.421 910.035 958.311 910.035C957.651 910.035 957.021 910.185 956.421 910.485C955.821 910.755 955.326 911.25 954.936 911.97C954.546 912.66 954.351 913.65 954.351 914.94V927H947.421V914.22C947.421 912.81 947.091 911.775 946.431 911.115C945.771 910.425 944.886 910.08 943.776 910.08C943.116 910.08 942.471 910.23 941.841 910.53C941.241 910.8 940.746 911.295 940.356 912.015C939.966 912.705 939.771 913.68 939.771 914.94V927ZM983.681 904.5H999.161V910.26H983.681V904.5ZM994.886 927H987.956V897.525H994.886V927ZM1009.21 927H1002.28V893.07H1009.25V906.84C1009.94 905.88 1010.89 905.13 1012.09 904.59C1013.32 904.05 1014.67 903.78 1016.14 903.78C1018.81 903.78 1020.88 904.605 1022.35 906.255C1023.85 907.875 1024.6 910.155 1024.6 913.095V927H1017.67V914.76C1017.67 913.8 1017.5 912.975 1017.17 912.285C1016.84 911.595 1016.38 911.055 1015.78 910.665C1015.21 910.275 1014.52 910.08 1013.71 910.08C1012.81 910.08 1012.01 910.275 1011.32 910.665C1010.66 911.025 1010.14 911.55 1009.75 912.24C1009.39 912.93 1009.21 913.74 1009.21 914.67V927ZM1040.01 927.585C1037.76 927.585 1035.75 927.075 1033.98 926.055C1032.24 925.035 1030.86 923.64 1029.84 921.87C1028.85 920.07 1028.35 918.015 1028.35 915.705C1028.35 913.365 1028.83 911.31 1029.79 909.54C1030.78 907.74 1032.15 906.33 1033.89 905.31C1035.63 904.29 1037.62 903.78 1039.87 903.78C1042.24 903.78 1044.28 904.275 1045.99 905.265C1047.7 906.225 1049.02 907.605 1049.95 909.405C1050.88 911.175 1051.35 913.29 1051.35 915.75V917.505L1032 917.595L1032.09 913.32H1044.46C1044.46 912.12 1044.06 911.175 1043.25 910.485C1042.44 909.765 1041.33 909.405 1039.92 909.405C1038.75 909.405 1037.79 909.63 1037.04 910.08C1036.32 910.53 1035.78 911.235 1035.42 912.195C1035.06 913.125 1034.88 914.325 1034.88 915.795C1034.88 917.895 1035.3 919.455 1036.14 920.475C1037.01 921.465 1038.34 921.96 1040.14 921.96C1041.46 921.96 1042.56 921.735 1043.43 921.285C1044.3 920.835 1044.85 920.205 1045.09 919.395H1051.44C1051.05 921.885 1049.82 923.88 1047.75 925.38C1045.68 926.85 1043.1 927.585 1040.01 927.585ZM1067.36 937.8V904.5H1073.88L1074.24 907.245C1074.87 906.195 1075.85 905.355 1077.17 904.725C1078.49 904.095 1079.94 903.78 1081.53 903.78C1083.63 903.78 1085.48 904.245 1087.07 905.175C1088.66 906.105 1089.9 907.44 1090.8 909.18C1091.7 910.89 1092.15 912.96 1092.15 915.39C1092.15 917.76 1091.73 919.875 1090.89 921.735C1090.08 923.565 1088.88 925.005 1087.29 926.055C1085.73 927.105 1083.83 927.63 1081.58 927.63C1080.02 927.63 1078.58 927.36 1077.26 926.82C1075.94 926.28 1074.95 925.59 1074.29 924.75V937.8H1067.36ZM1074.33 915.75C1074.33 916.86 1074.56 917.85 1075.01 918.72C1075.49 919.56 1076.13 920.22 1076.94 920.7C1077.78 921.15 1078.74 921.375 1079.82 921.375C1080.93 921.375 1081.88 921.135 1082.66 920.655C1083.47 920.175 1084.08 919.515 1084.5 918.675C1084.95 917.835 1085.18 916.86 1085.18 915.75C1085.18 914.64 1084.95 913.665 1084.5 912.825C1084.08 911.985 1083.47 911.325 1082.66 910.845C1081.88 910.365 1080.93 910.125 1079.82 910.125C1078.74 910.125 1077.78 910.365 1076.94 910.845C1076.13 911.295 1075.49 911.94 1075.01 912.78C1074.56 913.62 1074.33 914.61 1074.33 915.75ZM1102.94 927.585C1100.57 927.585 1098.68 926.94 1097.27 925.65C1095.89 924.33 1095.2 922.575 1095.2 920.385C1095.2 918.315 1095.9 916.665 1097.31 915.435C1098.75 914.205 1100.82 913.485 1103.52 913.275L1109.82 912.78V912.42C1109.82 911.67 1109.67 911.055 1109.37 910.575C1109.07 910.065 1108.64 909.69 1108.07 909.45C1107.53 909.18 1106.84 909.045 1106 909.045C1104.53 909.045 1103.4 909.315 1102.62 909.855C1101.87 910.395 1101.5 911.175 1101.5 912.195H1095.74C1095.74 910.485 1096.17 909 1097.04 907.74C1097.91 906.48 1099.14 905.505 1100.73 904.815C1102.35 904.125 1104.23 903.78 1106.36 903.78C1108.55 903.78 1110.39 904.17 1111.89 904.95C1113.42 905.73 1114.58 906.87 1115.36 908.37C1116.17 909.87 1116.57 911.7 1116.57 913.86V927H1110.45L1110 924.03C1109.64 925.05 1108.79 925.905 1107.44 926.595C1106.12 927.255 1104.62 927.585 1102.94 927.585ZM1105.37 922.455C1106.69 922.455 1107.77 922.14 1108.61 921.51C1109.45 920.85 1109.87 919.875 1109.87 918.585V917.37L1106.36 917.685C1104.86 917.805 1103.79 918.06 1103.16 918.45C1102.56 918.81 1102.26 919.35 1102.26 920.07C1102.26 920.88 1102.52 921.48 1103.03 921.87C1103.54 922.26 1104.32 922.455 1105.37 922.455ZM1119.92 919.89H1126.49C1126.55 920.67 1126.87 921.285 1127.44 921.735C1128.01 922.185 1128.82 922.41 1129.87 922.41C1130.95 922.41 1131.74 922.23 1132.25 921.87C1132.76 921.51 1133.02 921.045 1133.02 920.475C1133.02 920.145 1132.88 919.815 1132.61 919.485C1132.37 919.155 1131.83 918.9 1130.99 918.72L1126.85 917.82C1124.78 917.37 1123.24 916.65 1122.22 915.66C1121.2 914.64 1120.69 913.14 1120.69 911.16C1120.69 909.6 1121.09 908.28 1121.9 907.2C1122.74 906.09 1123.87 905.25 1125.28 904.68C1126.69 904.08 1128.29 903.78 1130.09 903.78C1131.83 903.78 1133.36 904.095 1134.68 904.725C1136.03 905.355 1137.08 906.24 1137.83 907.38C1138.58 908.52 1138.96 909.855 1138.96 911.385H1132.39C1132.39 910.605 1132.16 909.99 1131.71 909.54C1131.26 909.06 1130.62 908.82 1129.78 908.82C1129 908.82 1128.37 909.015 1127.89 909.405C1127.44 909.765 1127.21 910.245 1127.21 910.845C1127.21 911.805 1128.02 912.465 1129.64 912.825L1133.83 913.725C1135.69 914.115 1137.1 914.79 1138.06 915.75C1139.05 916.68 1139.54 918.045 1139.54 919.845C1139.54 921.435 1139.12 922.815 1138.28 923.985C1137.44 925.155 1136.27 926.055 1134.77 926.685C1133.27 927.285 1131.55 927.585 1129.6 927.585C1126.63 927.585 1124.27 926.88 1122.53 925.47C1120.79 924.03 1119.92 922.17 1119.92 919.89ZM1141.05 904.5H1156.53V910.26H1141.05V904.5ZM1152.25 927H1145.32V897.525H1152.25V927ZM1179.61 917.055H1173.89C1173.65 915.765 1173.43 914.265 1173.22 912.555C1173.04 910.845 1172.89 909.015 1172.77 907.065C1172.68 905.115 1172.63 903.165 1172.63 901.215V893.7H1181V901.215C1181 903.225 1180.94 905.22 1180.82 907.2C1180.7 909.15 1180.54 910.98 1180.33 912.69C1180.12 914.37 1179.88 915.825 1179.61 917.055ZM1176.77 927.585C1175.63 927.585 1174.66 927.195 1173.85 926.415C1173.04 925.605 1172.63 924.645 1172.63 923.535C1172.63 922.395 1173.04 921.435 1173.85 920.655C1174.66 919.845 1175.63 919.44 1176.77 919.44C1177.88 919.44 1178.84 919.845 1179.65 920.655C1180.49 921.435 1180.91 922.395 1180.91 923.535C1180.91 924.645 1180.49 925.605 1179.65 926.415C1178.84 927.195 1177.88 927.585 1176.77 927.585Z" fill="#4C4B58"/>
<path d="M326.914 1121H1285.59L1347 1196H265L326.914 1121Z" fill="url(#paint5_linear_3006_330)"/>
<path d="M352.496 1113.84C355.337 1110.16 359.724 1108 364.374 1108H1249.63C1254.28 1108 1258.66 1110.16 1261.5 1113.84L1297.37 1160.34C1304.97 1170.2 1297.94 1184.5 1285.49 1184.5H328.512C316.058 1184.5 309.028 1170.2 316.634 1160.34L352.496 1113.84Z" fill="url(#paint6_linear_3006_330)"/>
<path d="M265 1195H1347V1223H265V1195Z" fill="url(#paint7_linear_3006_330)"/>
<path d="M321 1223H1285V1301H321V1223Z" fill="url(#paint8_linear_3006_330)"/>
<path d="M74 142V117L1544 117V142L74 142Z" fill="url(#paint9_linear_3006_330)"/>
<path d="M215 61H240V1336C229.502 1343.03 224.106 1342.28 215 1336V61Z" fill="url(#paint10_linear_3006_330)"/>
<path d="M1372 61H1397V1336C1387.24 1342.13 1381.76 1341.74 1372 1336V61Z" fill="url(#paint11_linear_3006_330)"/>
<path d="M207.106 120.94C206.7 115.524 211.459 111.121 216.85 111.774C223.433 112.57 229.31 112.636 236.249 111.864C241.896 111.235 246.753 116.101 246.083 121.743C245.311 128.246 245.244 133.973 245.937 140.411C246.569 146.28 241.345 151.271 235.493 150.504C229.243 149.685 223.666 149.756 217.325 150.692C211.794 151.508 206.731 147.069 207.13 141.493C207.658 134.107 207.63 127.918 207.106 120.94Z" fill="url(#paint12_radial_3006_330)"/>
<path d="M207.106 120.94C206.7 115.524 211.459 111.121 216.85 111.774C223.433 112.57 229.31 112.636 236.249 111.864C241.896 111.235 246.753 116.101 246.083 121.743C245.311 128.246 245.244 133.973 245.937 140.411C246.569 146.28 241.345 151.271 235.493 150.504C229.243 149.685 223.666 149.756 217.325 150.692C211.794 151.508 206.731 147.069 207.13 141.493C207.658 134.107 207.63 127.918 207.106 120.94Z" fill="#DED4FF"/>
<path d="M1365.11 118.94C1364.7 113.524 1369.46 109.121 1374.85 109.774C1381.43 110.57 1387.31 110.636 1394.25 109.864C1399.9 109.235 1404.75 114.101 1404.08 119.743C1403.31 126.246 1403.24 131.973 1403.94 138.411C1404.57 144.28 1399.35 149.271 1393.49 148.504C1387.24 147.685 1381.67 147.756 1375.32 148.692C1369.79 149.508 1364.73 145.069 1365.13 139.493C1365.66 132.107 1365.63 125.918 1365.11 118.94Z" fill="#DED4FF"/>
<g style="mix-blend-mode:plus-darker">
<path d="M682 1152.28C682 1161.12 627.379 1168.28 560 1168.28C492.621 1168.28 438 1161.12 438 1152.28C438 1143.45 492.621 1136.28 560 1136.28C627.379 1136.28 682 1143.45 682 1152.28Z" fill="#D9D9D9"/>
</g>
<path d="M420.171 883.698C438.489 906.33 458.59 911.147 473.561 912.279C481.9 912.832 436.379 854.164 479.281 782.71C479.281 869.407 524.016 869.703 541.252 870.36C541.563 826.631 545.452 837.594 558.413 817.96C564.645 880.606 572.744 898.408 595.595 903.705C603.222 901.799 615.616 890.367 608.943 846.542C620.831 868.181 626.451 865.909 632.777 912.279L645.171 897.989C645.171 897.989 650.538 882.238 668.053 879.887C690.934 888.461 639.451 978.017 642.311 980.875C659.009 1023.07 636.731 1081.29 605.129 1093.3C600.711 1094.97 475.207 1141.08 459.26 1060.9L473.561 1055.19C428.006 1079.63 399.871 1067.01 396.336 1046.61C389.898 1009.46 478.328 996.118 459.26 954.199C440.192 912.279 432.364 942.049 420.171 883.698Z" fill="url(#paint13_linear_3006_330)"/>
<g filter="url(#filter0_d_3006_330)">
<path d="M538.373 969.442C540.745 984.174 533.39 997.609 521.944 999.45C510.498 1001.29 499.297 990.839 496.924 976.107C494.552 961.375 501.907 947.94 513.353 946.099C524.799 944.258 536 954.709 538.373 969.442Z" fill="white"/>
</g>
<g filter="url(#filter1_d_3006_330)">
<path d="M602.392 950.389C604.426 963.018 598.121 974.535 588.31 976.113C578.498 977.69 568.896 968.732 566.862 956.103C564.828 943.474 571.133 931.957 580.945 930.38C590.756 928.802 600.359 937.76 602.392 950.389Z" fill="white"/>
</g>
<path d="M658.665 821.071C660.839 816.519 667.32 816.519 669.494 821.071L698.915 882.672C700.817 886.655 697.914 891.258 693.501 891.258H634.658C630.245 891.258 627.341 886.655 629.243 882.672L658.665 821.071ZM672.402 831.331C670.235 826.755 663.725 826.755 661.557 831.331L639.636 877.618C637.751 881.598 640.655 886.186 645.059 886.186H688.9C693.304 886.186 696.208 881.598 694.323 877.618L672.402 831.331Z" fill="#956AEC"/>
<path d="M677.587 886.556C677.587 891.292 672.038 895.131 665.193 895.131C658.348 895.131 652.799 891.292 652.799 886.556C652.799 881.821 658.348 877.982 665.193 877.982C672.038 877.982 677.587 881.821 677.587 886.556Z" fill="url(#paint14_linear_3006_330)"/>
<path d="M658.813 761H670.254V821.974H658.813V761Z" fill="#7A7A7A"/>
<path d="M655 781.96H674.068V812.447H655V781.96Z" fill="#956AEC"/>
<defs>
<filter id="filter0_d_3006_330" x="485.479" y="934.889" width="64.3384" height="75.771" filterUnits="userSpaceOnUse" color-interpolation-filters="sRGB">
<feFlood flood-opacity="0" result="BackgroundImageFix"/>
<feColorMatrix in="SourceAlpha" type="matrix" values="0 0 0 0 0 0 0 0 0 0 0 0 0 0 0 0 0 0 127 0" result="hardAlpha"/>
<feOffset/>
<feGaussianBlur stdDeviation="5.5"/>
<feComposite in2="hardAlpha" operator="out"/>
<feColorMatrix type="matrix" values="0 0 0 0 1 0 0 0 0 1 0 0 0 0 1 0 0 0 1 0"/>
<feBlend mode="normal" in2="BackgroundImageFix" result="effect1_dropShadow_3006_330"/>
<feBlend mode="normal" in="SourceGraphic" in2="effect1_dropShadow_3006_330" result="shape"/>
</filter>
<filter id="filter1_d_3006_330" x="555.481" y="919.199" width="58.293" height="68.0933" filterUnits="userSpaceOnUse" color-interpolation-filters="sRGB">
<feFlood flood-opacity="0" result="BackgroundImageFix"/>
<feColorMatrix in="SourceAlpha" type="matrix" values="0 0 0 0 0 0 0 0 0 0 0 0 0 0 0 0 0 0 127 0" result="hardAlpha"/>
<feOffset/>
<feGaussianBlur stdDeviation="5.5"/>
<feComposite in2="hardAlpha" operator="out"/>
<feColorMatrix type="matrix" values="0 0 0 0 1 0 0 0 0 1 0 0 0 0 1 0 0 0 1 0"/>
<feBlend mode="normal" in2="BackgroundImageFix" result="effect1_dropShadow_3006_330"/>
<feBlend mode="normal" in="SourceGraphic" in2="effect1_dropShadow_3006_330" result="shape"/>
</filter>
<linearGradient id="paint0_linear_3006_330" x1="1285" y1="966.959" x2="328" y2="966.959" gradientUnits="userSpaceOnUse">
<stop stop-color="#BCC9FF"/>
<stop offset="1" stop-color="#7672E9"/>
</linearGradient>
<linearGradient id="paint1_linear_3006_330" x1="806.965" y1="812" x2="806.965" y2="1223" gradientUnits="userSpaceOnUse">
<stop stop-color="#8A7EFF"/>
<stop offset="0.0480769" stop-color="#CFCAFF"/>
<stop offset="0.754808" stop-color="#7B6EFF"/>
</linearGradient>
<linearGradient id="paint2_linear_3006_330" x1="744.443" y1="781.25" x2="1177.53" y2="1016.77" gradientUnits="userSpaceOnUse">
<stop stop-color="white"/>
<stop offset="1" stop-color="#D1CCFF"/>
</linearGradient>
<linearGradient id="paint3_linear_3006_330" x1="1153.07" y1="912.606" x2="1290.92" y2="918.29" gradientUnits="userSpaceOnUse">
<stop stop-color="#FACD94"/>
<stop offset="1" stop-color="#F9BC2D"/>
</linearGradient>
<linearGradient id="paint4_linear_3006_330" x1="590.96" y1="827.971" x2="727.629" y2="802.68" gradientUnits="userSpaceOnUse">
<stop stop-color="#FFE8CB"/>
<stop offset="1" stop-color="#FFD46E"/>
</linearGradient>
<linearGradient id="paint5_linear_3006_330" x1="1347" y1="1158.37" x2="265" y2="1158.37" gradientUnits="userSpaceOnUse">
<stop stop-color="#BCC9FF"/>
<stop offset="1" stop-color="#7672E9"/>
</linearGradient>
<linearGradient id="paint6_linear_3006_330" x1="807" y1="1163.5" x2="807" y2="1184.5" gradientUnits="userSpaceOnUse">
<stop stop-color="#9D93FF"/>
<stop offset="1" stop-color="#8276FF"/>
</linearGradient>
<linearGradient id="paint7_linear_3006_330" x1="1347" y1="1208.95" x2="265" y2="1208.95" gradientUnits="userSpaceOnUse">
<stop stop-color="#BCC9FF"/>
<stop offset="1" stop-color="#7672E9"/>
</linearGradient>
<linearGradient id="paint8_linear_3006_330" x1="1285" y1="1261.86" x2="321" y2="1261.86" gradientUnits="userSpaceOnUse">
<stop stop-color="#BCC9FF"/>
<stop offset="1" stop-color="#7672E9"/>
</linearGradient>
<linearGradient id="paint9_linear_3006_330" x1="806.442" y1="117" x2="806.442" y2="142" gradientUnits="userSpaceOnUse">
<stop stop-color="#BCC9FF"/>
<stop offset="1" stop-color="#7672E9"/>
</linearGradient>
<linearGradient id="paint10_linear_3006_330" x1="240" y1="698.771" x2="215" y2="698.771" gradientUnits="userSpaceOnUse">
<stop stop-color="#BCC9FF"/>
<stop offset="1" stop-color="#7672E9"/>
</linearGradient>
<linearGradient id="paint11_linear_3006_330" x1="1397" y1="698.5" x2="1372" y2="698.5" gradientUnits="userSpaceOnUse">
<stop stop-color="#BCC9FF"/>
<stop offset="1" stop-color="#7672E9"/>
</linearGradient>
<radialGradient id="paint12_radial_3006_330" cx="0" cy="0" r="1" gradientUnits="userSpaceOnUse" gradientTransform="translate(227 131.5) rotate(90) scale(30 29.3023)">
<stop stop-color="#A49BFF"/>
<stop offset="1" stop-color="#5A40BC"/>
</radialGradient>
<linearGradient id="paint13_linear_3006_330" x1="499" y1="905" x2="565.5" y2="1108" gradientUnits="userSpaceOnUse">
<stop stop-color="#FFCCD5"/>
<stop offset="0.5" stop-color="#B687FF"/>
<stop offset="1" stop-color="#7755B9"/>
</linearGradient>
<linearGradient id="paint14_linear_3006_330" x1="665.193" y1="877.982" x2="665.193" y2="895.131" gradientUnits="userSpaceOnUse">
<stop stop-color="#F8CCFF"/>
<stop offset="1" stop-color="#AD7ECC"/>
</linearGradient>
</defs>
</svg>
