<svg width="726" height="448" viewBox="0 0 726 448" fill="none" xmlns="http://www.w3.org/2000/svg">
<path fill-rule="evenodd" clip-rule="evenodd" d="M675 27H33.7527V258.586L167.704 394.844L675 404V27Z" fill="url(#paint0_linear_3006_1400)"/>
<path d="M16 394.844H167.704L33.7527 258.586L16 394.844Z" fill="url(#paint1_linear_3006_1400)"/>
<path d="M97.592 94.2799V189H76.856V94.2799H97.592Z" fill="url(#paint2_linear_3006_1400)"/>
<path d="M111.724 155.848C111.724 149.363 113.004 143.645 115.564 138.696C118.209 133.747 121.836 129.864 126.444 127.048C131.137 124.232 136.471 122.824 142.444 122.824C147.479 122.824 151.788 123.848 155.372 125.896C159.041 127.944 161.559 130.632 162.924 133.96L161.004 135.24L162.54 125H181.1V184.904C181.1 192.499 179.692 199.027 176.876 204.488C174.06 210.035 170.049 214.259 164.844 217.16C159.639 220.147 153.367 221.64 146.028 221.64C136.215 221.64 128.236 218.995 122.092 213.704C115.948 208.499 112.407 201.373 111.468 192.328H131.436C131.607 195.912 132.972 198.685 135.532 200.648C138.092 202.696 141.548 203.72 145.9 203.72C150.679 203.72 154.433 202.397 157.164 199.752C159.98 197.107 161.388 193.523 161.388 189V175.432L163.564 177.096C162.199 180.424 159.553 183.112 155.628 185.16C151.703 187.208 147.18 188.232 142.06 188.232C136.087 188.232 130.796 186.867 126.188 184.136C121.665 181.405 118.124 177.608 115.564 172.744C113.004 167.88 111.724 162.248 111.724 155.848ZM131.564 155.336C131.564 158.408 132.204 161.139 133.484 163.528C134.764 165.832 136.513 167.667 138.732 169.032C140.951 170.397 143.511 171.08 146.412 171.08C149.399 171.08 152.001 170.44 154.22 169.16C156.524 167.795 158.273 165.96 159.468 163.656C160.748 161.267 161.388 158.493 161.388 155.336C161.388 152.179 160.748 149.491 159.468 147.272C158.273 144.968 156.524 143.176 154.22 141.896C152.001 140.616 149.356 139.976 146.284 139.976C143.383 139.976 140.823 140.616 138.604 141.896C136.385 143.176 134.636 144.968 133.356 147.272C132.161 149.576 131.564 152.264 131.564 155.336Z" fill="url(#paint3_linear_3006_1400)"/>
<path d="M215.636 189H195.924V125H214.484L215.764 131.656C217.727 128.925 220.415 126.792 223.828 125.256C227.327 123.72 231.167 122.952 235.348 122.952C242.943 122.952 248.831 125.299 253.012 129.992C257.279 134.6 259.412 141.085 259.412 149.448V189H239.7V154.184C239.7 150.173 238.676 146.973 236.628 144.584C234.58 142.109 231.849 140.872 228.436 140.872C224.511 140.872 221.396 142.067 219.092 144.456C216.788 146.76 215.636 149.917 215.636 153.928V189Z" fill="url(#paint4_linear_3006_1400)"/>
<path d="M273.549 189V125H293.261V189H273.549ZM283.277 115.016C280.12 115.016 277.432 113.949 275.213 111.816C273.08 109.597 272.013 106.909 272.013 103.752C272.013 100.595 273.08 97.9493 275.213 95.8159C277.432 93.6826 280.12 92.6159 283.277 92.6159C286.349 92.6159 288.952 93.6826 291.085 95.8159C293.304 97.9493 294.413 100.595 294.413 103.752C294.413 106.909 293.304 109.597 291.085 111.816C288.952 113.949 286.349 115.016 283.277 115.016Z" fill="url(#paint5_linear_3006_1400)"/>
<path d="M302.033 125H346.065V141.384H302.033V125ZM333.905 189H314.193V105.16H333.905V189Z" fill="url(#paint6_linear_3006_1400)"/>
<path d="M354.924 189V125H374.636V189H354.924ZM364.652 115.016C361.495 115.016 358.807 113.949 356.588 111.816C354.455 109.597 353.388 106.909 353.388 103.752C353.388 100.595 354.455 97.9493 356.588 95.8159C358.807 93.6826 361.495 92.6159 364.652 92.6159C367.724 92.6159 370.327 93.6826 372.46 95.8159C374.679 97.9493 375.788 100.595 375.788 103.752C375.788 106.909 374.679 109.597 372.46 111.816C370.327 113.949 367.724 115.016 364.652 115.016Z" fill="url(#paint7_linear_3006_1400)"/>
<path d="M385.968 156.872C385.968 150.131 387.461 144.243 390.448 139.208C393.52 134.088 397.701 130.12 402.992 127.304C408.368 124.488 414.469 123.08 421.296 123.08C428.123 123.08 434.181 124.488 439.472 127.304C444.763 130.12 448.901 134.088 451.888 139.208C454.96 144.243 456.496 150.131 456.496 156.872C456.496 163.613 454.96 169.501 451.888 174.536C448.901 179.571 444.763 183.496 439.472 186.312C434.181 189.128 428.123 190.536 421.296 190.536C414.469 190.536 408.368 189.128 402.992 186.312C397.701 183.496 393.52 179.571 390.448 174.536C387.461 169.501 385.968 163.613 385.968 156.872ZM405.808 156.744C405.808 159.987 406.448 162.845 407.728 165.32C409.093 167.709 410.928 169.587 413.232 170.952C415.536 172.232 418.224 172.872 421.296 172.872C424.368 172.872 427.056 172.232 429.36 170.952C431.664 169.587 433.456 167.709 434.736 165.32C436.016 162.845 436.656 159.987 436.656 156.744C436.656 153.501 436.016 150.685 434.736 148.296C433.456 145.907 431.664 144.072 429.36 142.792C427.056 141.427 424.368 140.744 421.296 140.744C418.224 140.744 415.536 141.427 413.232 142.792C410.928 144.072 409.093 145.907 407.728 148.296C406.448 150.685 405.808 153.501 405.808 156.744Z" fill="url(#paint8_linear_3006_1400)"/>
<path d="M487.636 189H467.924V125H486.484L487.764 131.656C489.727 128.925 492.415 126.792 495.828 125.256C499.327 123.72 503.167 122.952 507.348 122.952C514.943 122.952 520.831 125.299 525.012 129.992C529.279 134.6 531.412 141.085 531.412 149.448V189H511.7V154.184C511.7 150.173 510.676 146.973 508.628 144.584C506.58 142.109 503.849 140.872 500.436 140.872C496.511 140.872 493.396 142.067 491.092 144.456C488.788 146.76 487.636 149.917 487.636 153.928V189Z" fill="url(#paint9_linear_3006_1400)"/>
<path d="M97.592 330H76.856V235.28H97.592V272.656H134.2V235.28H154.936V330H134.2V291.856H97.592V330Z" fill="url(#paint10_linear_3006_1400)"/>
<path d="M191.502 331.664C184.761 331.664 179.385 329.829 175.374 326.16C171.449 322.405 169.486 317.413 169.486 311.184C169.486 305.296 171.491 300.603 175.502 297.104C179.598 293.605 185.486 291.557 193.166 290.96L211.086 289.552V288.528C211.086 286.395 210.659 284.645 209.806 283.28C208.953 281.829 207.715 280.763 206.094 280.08C204.558 279.312 202.595 278.928 200.206 278.928C196.025 278.928 192.825 279.696 190.606 281.232C188.473 282.768 187.406 284.987 187.406 287.888H171.022C171.022 283.024 172.259 278.8 174.734 275.216C177.209 271.632 180.707 268.859 185.23 266.896C189.838 264.933 195.171 263.952 201.23 263.952C207.459 263.952 212.707 265.061 216.974 267.28C221.326 269.499 224.611 272.741 226.83 277.008C229.134 281.275 230.286 286.48 230.286 292.624V330H212.878L211.598 321.552C210.574 324.453 208.142 326.885 204.302 328.848C200.547 330.725 196.281 331.664 191.502 331.664ZM198.414 317.072C202.169 317.072 205.241 316.176 207.63 314.384C210.019 312.507 211.214 309.733 211.214 306.064V302.608L201.23 303.504C196.963 303.845 193.934 304.571 192.142 305.68C190.435 306.704 189.582 308.24 189.582 310.288C189.582 312.592 190.307 314.299 191.758 315.408C193.209 316.517 195.427 317.072 198.414 317.072Z" fill="url(#paint11_linear_3006_1400)"/>
<path d="M240.968 297.744C240.968 291.173 242.376 285.371 245.192 280.336C248.008 275.216 251.848 271.205 256.712 268.304C261.661 265.403 267.336 263.952 273.736 263.952C283.208 263.952 290.888 266.384 296.776 271.248C302.664 276.112 305.907 282.725 306.504 291.088H286.664C285.981 287.845 284.616 285.456 282.568 283.92C280.605 282.384 277.917 281.616 274.504 281.616C271.773 281.616 269.341 282.299 267.208 283.664C265.16 284.944 263.581 286.779 262.472 289.168C261.363 291.557 260.808 294.416 260.808 297.744C260.808 301.157 261.32 304.101 262.344 306.576C263.453 308.965 264.989 310.8 266.952 312.08C269 313.36 271.432 314 274.248 314C277.747 314 280.52 313.232 282.568 311.696C284.701 310.075 286.067 307.685 286.664 304.528H306.504C306.077 309.904 304.413 314.64 301.512 318.736C298.696 322.747 294.941 325.904 290.248 328.208C285.555 330.512 280.221 331.664 274.248 331.664C267.507 331.664 261.619 330.256 256.584 327.44C251.635 324.624 247.795 320.699 245.064 315.664C242.333 310.544 240.968 304.571 240.968 297.744Z" fill="url(#paint12_linear_3006_1400)"/>
<path d="M337.011 330H317.299V233.488H337.011V289.04L357.747 266H382.451L358.387 291.344L381.683 330H358.899L344.563 306.064L337.011 314V330Z" fill="url(#paint13_linear_3006_1400)"/>
<path d="M385.316 309.776H404.004C404.175 311.995 405.071 313.744 406.692 315.024C408.313 316.304 410.617 316.944 413.604 316.944C416.676 316.944 418.937 316.432 420.388 315.408C421.839 314.384 422.564 313.061 422.564 311.44C422.564 310.501 422.18 309.563 421.412 308.624C420.729 307.685 419.193 306.96 416.804 306.448L405.028 303.888C399.14 302.608 394.745 300.56 391.844 297.744C388.943 294.843 387.492 290.576 387.492 284.944C387.492 280.507 388.644 276.752 390.948 273.68C393.337 270.523 396.537 268.133 400.548 266.512C404.559 264.805 409.124 263.952 414.244 263.952C419.193 263.952 423.545 264.848 427.3 266.64C431.14 268.432 434.127 270.949 436.26 274.192C438.393 277.435 439.46 281.232 439.46 285.584H420.772C420.772 283.365 420.132 281.616 418.852 280.336C417.572 278.971 415.737 278.288 413.348 278.288C411.129 278.288 409.337 278.843 407.972 279.952C406.692 280.976 406.052 282.341 406.052 284.048C406.052 286.779 408.356 288.656 412.964 289.68L424.868 292.24C430.159 293.349 434.169 295.269 436.9 298C439.716 300.645 441.124 304.528 441.124 309.648C441.124 314.171 439.929 318.096 437.54 321.424C435.151 324.752 431.823 327.312 427.556 329.104C423.289 330.811 418.383 331.664 412.836 331.664C404.388 331.664 397.689 329.659 392.74 325.648C387.791 321.552 385.316 316.261 385.316 309.776Z" fill="url(#paint14_linear_3006_1400)"/>
<path d="M514.611 330L479.155 235.28H501.299L519.219 283.152C520.328 286.053 521.352 289.083 522.291 292.24C523.23 295.397 524.211 299.024 525.235 303.12C526.43 298.597 527.496 294.843 528.435 291.856C529.459 288.869 530.483 285.968 531.507 283.152L549.171 235.28H570.803L535.987 330H514.611Z" fill="url(#paint15_linear_3006_1400)"/>
<path d="M591.709 260.752L610.269 235.28H633.949L607.709 270.48L601.949 269.2C603.229 267.749 605.277 266.512 608.093 265.488C610.909 264.464 613.597 263.952 616.157 263.952C622.642 263.952 628.317 265.36 633.181 268.176C638.13 270.907 641.97 274.747 644.701 279.696C647.517 284.645 648.925 290.363 648.925 296.848C648.925 303.76 647.346 309.819 644.189 315.024C641.117 320.229 636.85 324.325 631.389 327.312C625.928 330.213 619.698 331.664 612.701 331.664C605.618 331.664 599.304 330.128 593.757 327.056C588.21 323.984 583.858 319.803 580.701 314.512C577.544 309.221 575.965 303.291 575.965 296.72C575.965 292.795 576.477 289.125 577.501 285.712C578.525 282.213 580.189 278.501 582.493 274.576C584.797 270.565 587.869 265.957 591.709 260.752ZM597.213 296.976C597.213 300.219 597.853 303.077 599.133 305.552C600.498 308.027 602.333 309.947 604.637 311.312C606.941 312.677 609.629 313.36 612.701 313.36C615.688 313.36 618.333 312.677 620.637 311.312C622.941 309.947 624.733 308.027 626.013 305.552C627.293 303.077 627.933 300.219 627.933 296.976C627.933 293.733 627.293 290.917 626.013 288.528C624.733 286.053 622.941 284.133 620.637 282.768C618.418 281.403 615.773 280.72 612.701 280.72C609.629 280.72 606.898 281.403 604.509 282.768C602.205 284.133 600.413 286.053 599.133 288.528C597.853 290.917 597.213 293.733 597.213 296.976Z" fill="url(#paint16_linear_3006_1400)"/>
<path d="M437.705 67H434.537L440.873 49.456H444.017L450.353 67H447.113L445.697 62.944H439.145L437.705 67ZM442.049 54.688L440.033 60.352H444.809L442.793 54.688C442.729 54.448 442.657 54.208 442.577 53.968C442.497 53.728 442.449 53.52 442.433 53.344C442.401 53.504 442.345 53.712 442.265 53.968C442.201 54.208 442.129 54.448 442.049 54.688Z" fill="#5B5772"/>
<path d="M459.693 55.144H462.621V67H459.909L459.693 65.416C459.341 65.976 458.813 66.432 458.109 66.784C457.405 67.136 456.653 67.312 455.853 67.312C454.493 67.312 453.429 66.88 452.661 66.016C451.893 65.152 451.509 64 451.509 62.56V55.144H454.437V61.528C454.437 62.648 454.653 63.456 455.085 63.952C455.517 64.448 456.141 64.696 456.957 64.696C457.885 64.696 458.573 64.424 459.021 63.88C459.469 63.32 459.693 62.48 459.693 61.36V55.144Z" fill="#5B5772"/>
<path d="M464.973 60.808C464.973 59.656 465.205 58.632 465.669 57.736C466.149 56.824 466.813 56.104 467.661 55.576C468.509 55.048 469.493 54.784 470.613 54.784C471.621 54.784 472.485 55.008 473.205 55.456C473.925 55.888 474.429 56.496 474.717 57.28L474.405 57.544L474.645 55.144H477.357V66.4C477.357 67.712 477.101 68.848 476.589 69.808C476.093 70.784 475.381 71.528 474.453 72.04C473.541 72.568 472.437 72.832 471.141 72.832C469.445 72.832 468.053 72.376 466.965 71.464C465.877 70.552 465.237 69.304 465.045 67.72H467.973C468.069 68.488 468.389 69.088 468.933 69.52C469.493 69.952 470.229 70.168 471.141 70.168C472.149 70.168 472.949 69.872 473.541 69.28C474.149 68.704 474.453 67.92 474.453 66.928V63.976L474.789 64.288C474.501 65.04 473.973 65.64 473.205 66.088C472.437 66.536 471.549 66.76 470.541 66.76C469.421 66.76 468.445 66.504 467.613 65.992C466.781 65.48 466.133 64.776 465.669 63.88C465.205 62.984 464.973 61.96 464.973 60.808ZM467.925 60.736C467.925 61.408 468.053 62.008 468.309 62.536C468.581 63.048 468.957 63.456 469.437 63.76C469.917 64.064 470.477 64.216 471.117 64.216C471.789 64.216 472.365 64.072 472.845 63.784C473.341 63.48 473.717 63.072 473.973 62.56C474.245 62.032 474.381 61.424 474.381 60.736C474.381 60.048 474.253 59.456 473.997 58.96C473.741 58.448 473.365 58.048 472.869 57.76C472.389 57.472 471.805 57.328 471.117 57.328C470.461 57.328 469.893 57.48 469.413 57.784C468.933 58.072 468.565 58.472 468.309 58.984C468.053 59.496 467.925 60.08 467.925 60.736Z" fill="#5B5772"/>
<path d="M488.427 55.144H491.355V67H488.643L488.427 65.416C488.075 65.976 487.547 66.432 486.843 66.784C486.139 67.136 485.387 67.312 484.587 67.312C483.227 67.312 482.163 66.88 481.395 66.016C480.627 65.152 480.243 64 480.243 62.56V55.144H483.171V61.528C483.171 62.648 483.387 63.456 483.819 63.952C484.251 64.448 484.875 64.696 485.691 64.696C486.619 64.696 487.307 64.424 487.755 63.88C488.203 63.32 488.427 62.48 488.427 61.36V55.144Z" fill="#5B5772"/>
<path d="M493.233 63.4H496.017C496.033 63.912 496.225 64.32 496.593 64.624C496.961 64.928 497.473 65.08 498.129 65.08C498.833 65.08 499.361 64.952 499.713 64.696C500.081 64.44 500.265 64.096 500.265 63.664C500.265 63.376 500.169 63.12 499.977 62.896C499.785 62.672 499.425 62.504 498.897 62.392L496.761 61.888C495.689 61.648 494.889 61.264 494.361 60.736C493.849 60.192 493.593 59.448 493.593 58.504C493.593 57.736 493.793 57.072 494.193 56.512C494.609 55.952 495.169 55.528 495.873 55.24C496.577 54.936 497.385 54.784 498.297 54.784C499.177 54.784 499.953 54.944 500.625 55.264C501.297 55.584 501.817 56.032 502.185 56.608C502.569 57.184 502.769 57.856 502.785 58.624H500.001C500.001 58.112 499.841 57.712 499.521 57.424C499.201 57.12 498.753 56.968 498.177 56.968C497.601 56.968 497.153 57.096 496.833 57.352C496.513 57.608 496.353 57.952 496.353 58.384C496.353 59.04 496.865 59.488 497.889 59.728L500.025 60.232C501.017 60.456 501.761 60.816 502.257 61.312C502.769 61.808 503.025 62.512 503.025 63.424C503.025 64.224 502.817 64.92 502.401 65.512C501.985 66.088 501.401 66.536 500.649 66.856C499.897 67.16 499.033 67.312 498.057 67.312C496.585 67.312 495.409 66.952 494.529 66.232C493.665 65.512 493.233 64.568 493.233 63.4Z" fill="#5B5772"/>
<path d="M504.078 55.144H511.566V57.592H504.078V55.144ZM509.286 67H506.358V51.448H509.286V67Z" fill="#5B5772"/>
<path d="M523.023 52.216H519.183V49.456H525.951V67H523.023V52.216Z" fill="#5B5772"/>
<path d="M534.846 67.288C533.63 67.288 532.558 67.048 531.63 66.568C530.718 66.072 530.006 65.384 529.494 64.504C528.998 63.608 528.75 62.568 528.75 61.384H531.774C531.774 62.376 532.054 63.152 532.614 63.712C533.174 64.272 533.942 64.552 534.918 64.552C535.606 64.552 536.198 64.416 536.694 64.144C537.206 63.856 537.598 63.448 537.87 62.92C538.158 62.392 538.302 61.776 538.302 61.072C538.302 60.4 538.166 59.808 537.894 59.296C537.638 58.768 537.262 58.36 536.766 58.072C536.27 57.784 535.67 57.64 534.966 57.64C534.294 57.64 533.67 57.792 533.094 58.096C532.534 58.384 532.094 58.76 531.774 59.224L529.062 58.648L531.222 49.456H540.366V52.288H532.638L533.67 51.328L532.254 56.92L531.222 57.352C531.606 56.616 532.182 56.056 532.95 55.672C533.734 55.272 534.614 55.072 535.59 55.072C536.758 55.072 537.774 55.32 538.638 55.816C539.518 56.312 540.198 57 540.678 57.88C541.174 58.744 541.422 59.752 541.422 60.904C541.422 62.168 541.142 63.28 540.582 64.24C540.038 65.2 539.27 65.952 538.278 66.496C537.302 67.024 536.158 67.288 534.846 67.288Z" fill="#5B5772"/>
<path d="M543.644 61.888V59.296H551.372V61.888H543.644Z" fill="#5B5772"/>
<path d="M555.789 52.216H551.949V49.456H558.717V67H555.789V52.216Z" fill="#5B5772"/>
<path d="M564.223 54.616L568.015 49.456H571.519L566.575 56.056L565.807 55.864C566.159 55.544 566.591 55.296 567.103 55.12C567.631 54.944 568.143 54.856 568.639 54.856C569.839 54.856 570.895 55.12 571.807 55.648C572.719 56.16 573.431 56.88 573.943 57.808C574.455 58.72 574.711 59.768 574.711 60.952C574.711 62.2 574.423 63.304 573.847 64.264C573.287 65.208 572.511 65.952 571.519 66.496C570.543 67.04 569.431 67.312 568.183 67.312C566.919 67.312 565.783 67.032 564.775 66.472C563.783 65.912 562.999 65.152 562.423 64.192C561.847 63.216 561.559 62.128 561.559 60.928C561.559 60.208 561.639 59.544 561.799 58.936C561.975 58.312 562.255 57.656 562.639 56.968C563.039 56.28 563.567 55.496 564.223 54.616ZM564.703 60.952C564.703 61.672 564.847 62.304 565.135 62.848C565.439 63.392 565.847 63.816 566.359 64.12C566.887 64.424 567.495 64.576 568.183 64.576C568.855 64.576 569.447 64.424 569.959 64.12C570.471 63.816 570.871 63.392 571.159 62.848C571.463 62.304 571.615 61.672 571.615 60.952C571.615 60.248 571.463 59.632 571.159 59.104C570.871 58.56 570.471 58.136 569.959 57.832C569.447 57.528 568.855 57.376 568.183 57.376C567.495 57.376 566.887 57.528 566.359 57.832C565.831 58.136 565.423 58.56 565.135 59.104C564.847 59.632 564.703 60.248 564.703 60.952Z" fill="#5B5772"/>
<path d="M579.115 66.784L579.403 66.712C579.275 66.824 579.131 66.912 578.971 66.976C578.827 67.024 578.651 67.048 578.443 67.048C577.979 67.048 577.579 66.896 577.243 66.592C576.907 66.272 576.739 65.872 576.739 65.392C576.739 64.816 576.907 64.352 577.243 64C577.579 63.648 578.019 63.472 578.563 63.472C579.171 63.472 579.667 63.696 580.051 64.144C580.435 64.592 580.627 65.192 580.627 65.944C580.627 66.6 580.483 67.2 580.195 67.744C579.907 68.304 579.507 68.76 578.995 69.112C578.483 69.464 577.899 69.68 577.243 69.76V68.584C577.787 68.488 578.235 68.28 578.587 67.96C578.939 67.656 579.115 67.264 579.115 66.784Z" fill="#5B5772"/>
<path d="M601.928 66.976L589.76 67V64.696L595.496 59.848C596.088 59.352 596.584 58.896 596.984 58.48C597.4 58.064 597.728 57.672 597.968 57.304C598.208 56.936 598.384 56.568 598.496 56.2C598.608 55.832 598.664 55.432 598.664 55C598.664 54.008 598.408 53.24 597.896 52.696C597.384 52.152 596.664 51.88 595.736 51.88C594.776 51.88 594.016 52.2 593.456 52.84C592.896 53.48 592.608 54.36 592.592 55.48H589.544C589.56 54.2 589.824 53.088 590.336 52.144C590.848 51.184 591.568 50.448 592.496 49.936C593.424 49.408 594.504 49.144 595.736 49.144C596.984 49.144 598.056 49.376 598.952 49.84C599.864 50.288 600.568 50.936 601.064 51.784C601.56 52.632 601.808 53.648 601.808 54.832C601.808 55.44 601.72 56.024 601.544 56.584C601.384 57.128 601.136 57.664 600.8 58.192C600.464 58.704 600.048 59.224 599.552 59.752C599.056 60.28 598.472 60.832 597.8 61.408L593.528 65.056L592.424 64.12H601.928V66.976Z" fill="#5B5772"/>
<path d="M603.821 58.264C603.821 56.44 604.125 54.848 604.733 53.488C605.357 52.128 606.221 51.064 607.325 50.296C608.445 49.512 609.749 49.12 611.237 49.12C612.741 49.12 614.045 49.512 615.149 50.296C616.269 51.064 617.133 52.128 617.741 53.488C618.365 54.848 618.677 56.44 618.677 58.264C618.677 60.072 618.381 61.656 617.789 63.016C617.197 64.376 616.349 65.432 615.245 66.184C614.141 66.936 612.805 67.312 611.237 67.312C609.701 67.312 608.373 66.936 607.253 66.184C606.149 65.432 605.301 64.376 604.709 63.016C604.117 61.656 603.821 60.072 603.821 58.264ZM606.845 58.264C606.845 59.608 607.021 60.76 607.373 61.72C607.725 62.664 608.229 63.384 608.885 63.88C609.541 64.36 610.325 64.6 611.237 64.6C612.181 64.6 612.973 64.36 613.613 63.88C614.269 63.384 614.773 62.664 615.125 61.72C615.477 60.76 615.653 59.608 615.653 58.264C615.653 56.872 615.477 55.704 615.125 54.76C614.773 53.8 614.269 53.072 613.613 52.576C612.973 52.08 612.181 51.832 611.237 51.832C610.325 51.832 609.541 52.08 608.885 52.576C608.229 53.072 607.725 53.8 607.373 54.76C607.021 55.704 606.845 56.872 606.845 58.264Z" fill="#5B5772"/>
<path d="M632.983 66.976L620.815 67V64.696L626.551 59.848C627.143 59.352 627.639 58.896 628.039 58.48C628.455 58.064 628.783 57.672 629.023 57.304C629.263 56.936 629.439 56.568 629.551 56.2C629.663 55.832 629.719 55.432 629.719 55C629.719 54.008 629.463 53.24 628.951 52.696C628.439 52.152 627.719 51.88 626.791 51.88C625.831 51.88 625.071 52.2 624.511 52.84C623.951 53.48 623.663 54.36 623.647 55.48H620.599C620.615 54.2 620.879 53.088 621.391 52.144C621.903 51.184 622.623 50.448 623.551 49.936C624.479 49.408 625.559 49.144 626.791 49.144C628.039 49.144 629.111 49.376 630.007 49.84C630.919 50.288 631.623 50.936 632.119 51.784C632.615 52.632 632.863 53.648 632.863 54.832C632.863 55.44 632.775 56.024 632.599 56.584C632.439 57.128 632.191 57.664 631.855 58.192C631.519 58.704 631.103 59.224 630.607 59.752C630.111 60.28 629.527 60.832 628.855 61.408L624.583 65.056L623.479 64.12H632.983V66.976Z" fill="#5B5772"/>
<path d="M637.372 54.616L641.164 49.456H644.668L639.724 56.056L638.956 55.864C639.308 55.544 639.74 55.296 640.252 55.12C640.78 54.944 641.292 54.856 641.788 54.856C642.988 54.856 644.044 55.12 644.956 55.648C645.868 56.16 646.58 56.88 647.092 57.808C647.604 58.72 647.86 59.768 647.86 60.952C647.86 62.2 647.572 63.304 646.996 64.264C646.436 65.208 645.66 65.952 644.668 66.496C643.692 67.04 642.58 67.312 641.332 67.312C640.068 67.312 638.932 67.032 637.924 66.472C636.932 65.912 636.148 65.152 635.572 64.192C634.996 63.216 634.708 62.128 634.708 60.928C634.708 60.208 634.788 59.544 634.948 58.936C635.124 58.312 635.404 57.656 635.788 56.968C636.188 56.28 636.716 55.496 637.372 54.616ZM637.852 60.952C637.852 61.672 637.996 62.304 638.284 62.848C638.588 63.392 638.996 63.816 639.508 64.12C640.036 64.424 640.644 64.576 641.332 64.576C642.004 64.576 642.596 64.424 643.108 64.12C643.62 63.816 644.02 63.392 644.308 62.848C644.612 62.304 644.764 61.672 644.764 60.952C644.764 60.248 644.612 59.632 644.308 59.104C644.02 58.56 643.62 58.136 643.108 57.832C642.596 57.528 642.004 57.376 641.332 57.376C640.644 57.376 640.036 57.528 639.508 57.832C638.98 58.136 638.572 58.56 638.284 59.104C637.996 59.632 637.852 60.248 637.852 60.952Z" fill="#5B5772"/>
<path d="M561 420.355L709.892 334L707.557 344.496L717.827 347.682L715.492 358.178L725.762 361.363L576.87 447.718L578.023 437.907L568.935 434.036L570.088 424.226L561 420.355Z" fill="url(#paint17_linear_3006_1400)"/>
<path d="M0 86.3546L148.892 0L146.557 10.4961L156.827 13.6817L154.492 24.1778L164.762 27.3634L15.8703 113.718L17.0233 103.907L7.93513 100.036L9.08819 90.2256L0 86.3546Z" fill="url(#paint18_linear_3006_1400)"/>
<defs>
<linearGradient id="paint0_linear_3006_1400" x1="874.737" y1="606.044" x2="488.679" y2="-367.166" gradientUnits="userSpaceOnUse">
<stop stop-color="#A49BFF"/>
<stop offset="0.549347" stop-color="white"/>
</linearGradient>
<linearGradient id="paint1_linear_3006_1400" x1="1180.77" y1="561.566" x2="394.428" y2="-259.866" gradientUnits="userSpaceOnUse">
<stop stop-color="#A49BFF"/>
<stop offset="1" stop-color="white"/>
</linearGradient>
<linearGradient id="paint2_linear_3006_1400" x1="362.881" y1="-1059.71" x2="-339.606" y2="1083.96" gradientUnits="userSpaceOnUse">
<stop stop-color="#E6E4FF"/>
<stop offset="1" stop-color="#594CDB"/>
</linearGradient>
<linearGradient id="paint3_linear_3006_1400" x1="362.881" y1="-1059.71" x2="-339.606" y2="1083.96" gradientUnits="userSpaceOnUse">
<stop stop-color="#E6E4FF"/>
<stop offset="1" stop-color="#594CDB"/>
</linearGradient>
<linearGradient id="paint4_linear_3006_1400" x1="362.881" y1="-1059.71" x2="-339.606" y2="1083.96" gradientUnits="userSpaceOnUse">
<stop stop-color="#E6E4FF"/>
<stop offset="1" stop-color="#594CDB"/>
</linearGradient>
<linearGradient id="paint5_linear_3006_1400" x1="362.881" y1="-1059.71" x2="-339.606" y2="1083.96" gradientUnits="userSpaceOnUse">
<stop stop-color="#E6E4FF"/>
<stop offset="1" stop-color="#594CDB"/>
</linearGradient>
<linearGradient id="paint6_linear_3006_1400" x1="362.881" y1="-1059.71" x2="-339.606" y2="1083.96" gradientUnits="userSpaceOnUse">
<stop stop-color="#E6E4FF"/>
<stop offset="1" stop-color="#594CDB"/>
</linearGradient>
<linearGradient id="paint7_linear_3006_1400" x1="362.881" y1="-1059.71" x2="-339.606" y2="1083.96" gradientUnits="userSpaceOnUse">
<stop stop-color="#E6E4FF"/>
<stop offset="1" stop-color="#594CDB"/>
</linearGradient>
<linearGradient id="paint8_linear_3006_1400" x1="362.881" y1="-1059.71" x2="-339.606" y2="1083.96" gradientUnits="userSpaceOnUse">
<stop stop-color="#E6E4FF"/>
<stop offset="1" stop-color="#594CDB"/>
</linearGradient>
<linearGradient id="paint9_linear_3006_1400" x1="362.881" y1="-1059.71" x2="-339.606" y2="1083.96" gradientUnits="userSpaceOnUse">
<stop stop-color="#E6E4FF"/>
<stop offset="1" stop-color="#594CDB"/>
</linearGradient>
<linearGradient id="paint10_linear_3006_1400" x1="362.881" y1="-1059.71" x2="-339.606" y2="1083.96" gradientUnits="userSpaceOnUse">
<stop stop-color="#E6E4FF"/>
<stop offset="1" stop-color="#594CDB"/>
</linearGradient>
<linearGradient id="paint11_linear_3006_1400" x1="362.881" y1="-1059.71" x2="-339.606" y2="1083.96" gradientUnits="userSpaceOnUse">
<stop stop-color="#E6E4FF"/>
<stop offset="1" stop-color="#594CDB"/>
</linearGradient>
<linearGradient id="paint12_linear_3006_1400" x1="362.881" y1="-1059.71" x2="-339.606" y2="1083.96" gradientUnits="userSpaceOnUse">
<stop stop-color="#E6E4FF"/>
<stop offset="1" stop-color="#594CDB"/>
</linearGradient>
<linearGradient id="paint13_linear_3006_1400" x1="362.881" y1="-1059.71" x2="-339.606" y2="1083.96" gradientUnits="userSpaceOnUse">
<stop stop-color="#E6E4FF"/>
<stop offset="1" stop-color="#594CDB"/>
</linearGradient>
<linearGradient id="paint14_linear_3006_1400" x1="362.881" y1="-1059.71" x2="-339.606" y2="1083.96" gradientUnits="userSpaceOnUse">
<stop stop-color="#E6E4FF"/>
<stop offset="1" stop-color="#594CDB"/>
</linearGradient>
<linearGradient id="paint15_linear_3006_1400" x1="362.881" y1="-1059.71" x2="-339.606" y2="1083.96" gradientUnits="userSpaceOnUse">
<stop stop-color="#E6E4FF"/>
<stop offset="1" stop-color="#594CDB"/>
</linearGradient>
<linearGradient id="paint16_linear_3006_1400" x1="362.881" y1="-1059.71" x2="-339.606" y2="1083.96" gradientUnits="userSpaceOnUse">
<stop stop-color="#E6E4FF"/>
<stop offset="1" stop-color="#594CDB"/>
</linearGradient>
<linearGradient id="paint17_linear_3006_1400" x1="76.9415" y1="-1009.53" x2="1399.26" y2="-586.936" gradientUnits="userSpaceOnUse">
<stop stop-color="#FFF6EB"/>
<stop offset="1" stop-color="#F9BC2D"/>
</linearGradient>
<linearGradient id="paint18_linear_3006_1400" x1="-8.5" y1="56.9999" x2="133" y2="106" gradientUnits="userSpaceOnUse">
<stop stop-color="#FDFFD3"/>
<stop offset="1" stop-color="#FACD94"/>
</linearGradient>
</defs>
</svg>
