<svg width="388" height="420" viewBox="0 0 388 420" fill="none" xmlns="http://www.w3.org/2000/svg">
<path d="M247.644 146.5C222.433 187.963 218.569 198.5 210.844 216.3C195.069 199.5 156.069 196 210.844 90.9999C195.069 99.4999 156.068 167 143.568 162.5C135.068 162.5 134.069 153.5 127.069 85.9999C109.069 184 99.0691 197.625 92.5691 202.5C88.5691 205.5 73.0691 172 56.5691 138C76.0691 240.5 47.5691 278.5 30.0691 305.5C12.5691 332.5 -15.4309 358 10.5691 368C30.1191 372.6 44.5691 371 53.2936 348.55L43.3747 364.5C39.0685 384.5 82.8346 418.679 134.069 420C170.171 419.982 223.494 421 247.644 370.216L231.544 361.2C261.068 379 279.869 383.05 289.069 363.5C294.386 339.213 276.11 336.204 255.694 299.1C241.935 282.163 232.276 207.01 247.644 146.5Z" fill="url(#paint0_linear_1552_58)"/>
<g filter="url(#filter0_d_1552_58)">
<path d="M74.5685 282.473C74.5685 301.542 83.2989 317 94.0685 317C104.838 317 113.568 301.542 113.568 282.473C113.568 263.404 104.838 279.02 94.0685 279.02C83.2989 279.02 74.5685 263.404 74.5685 282.473Z" fill="white"/>
</g>
<g filter="url(#filter1_d_1552_58)">
<ellipse cx="26.45" cy="34.5" rx="26.45" ry="34.5" transform="matrix(-0.991503 -0.130082 -0.130082 0.991503 205.995 258.881)" fill="white"/>
</g>
<path d="M295.273 118.508L278.511 106.108L280.384 103.576C283.299 99.6364 286.38 96.8161 289.629 95.1147C293.018 93.3924 296.46 92.2697 299.957 91.7467C303.534 91.2832 306.922 90.9909 310.121 90.8699C312.821 90.7521 315.33 90.5556 317.648 90.2804C320.046 90.0646 322.213 89.4904 324.147 88.5576C326.22 87.604 327.971 86.1624 329.398 84.233C331.123 81.9016 332.138 79.6049 332.443 77.3428C332.829 75.1403 332.515 73.0423 331.502 71.0489C330.628 69.0346 329.026 67.1651 326.695 65.4404C324.283 63.6562 321.736 62.6429 319.055 62.4005C316.453 62.2176 313.897 62.8144 311.386 64.191C308.935 65.4871 306.668 67.5421 304.587 70.3558L285.172 55.9931C289.751 49.8029 295.092 45.3577 301.194 42.6575C307.377 40.0168 313.792 39.1646 320.438 40.101C327.224 41.0164 333.753 43.7935 340.023 48.4324C346.374 53.1307 350.998 58.2304 353.894 63.7315C356.85 69.1522 358.047 74.7645 357.485 80.5683C356.923 86.3721 354.56 92.0878 350.397 97.7152C347.186 102.056 343.646 105.16 339.778 107.025C335.97 108.81 332.117 109.816 328.218 110.041C324.4 110.326 320.73 110.411 317.209 110.294C313.108 110.121 309.269 110.266 305.692 110.729C302.195 111.252 299.347 113.001 297.146 115.976L295.273 118.508ZM268.344 138.516C265.289 136.256 263.449 133.278 262.825 129.582C262.26 125.805 263.078 122.43 265.278 119.455C267.538 116.4 270.527 114.631 274.244 114.146C278.02 113.581 281.436 114.429 284.491 116.689C287.546 118.949 289.355 121.967 289.92 125.743C290.485 129.52 289.667 132.895 287.467 135.87C285.326 138.764 282.367 140.493 278.591 141.058C274.814 141.623 271.399 140.776 268.344 138.516Z" fill="url(#paint1_linear_1552_58)"/>
<path d="M316.368 185.315L308.412 175.661L309.871 174.459C312.14 172.589 314.343 171.395 316.482 170.877C318.705 170.367 320.872 170.214 322.984 170.417C325.134 170.667 327.148 170.99 329.028 171.384C330.617 171.708 332.106 171.958 333.495 172.135C334.923 172.358 336.267 172.338 337.529 172.076C338.875 171.823 340.103 171.238 341.215 170.322C342.557 169.216 343.482 168.026 343.988 166.754C344.533 165.528 344.655 164.261 344.355 162.953C344.139 161.653 343.478 160.332 342.372 158.989C341.227 157.6 339.892 156.64 338.366 156.109C336.878 155.625 335.304 155.601 333.642 156.037C332.026 156.435 330.408 157.302 328.788 158.638L319.573 147.455C323.139 144.517 326.894 142.706 330.839 142.021C334.822 141.382 338.679 141.818 342.412 143.329C346.23 144.848 349.627 147.414 352.603 151.026C355.617 154.684 357.567 158.324 358.454 161.948C359.387 165.533 359.268 168.974 358.097 172.271C356.927 175.568 354.721 178.552 351.479 181.223C348.979 183.283 346.467 184.575 343.945 185.099C341.468 185.585 339.079 185.61 336.777 185.174C334.512 184.786 332.364 184.301 330.331 183.721C327.969 183.025 325.713 182.551 323.563 182.301C321.452 182.097 319.54 182.701 317.826 184.113L316.368 185.315ZM297.784 193.048C296.334 191.289 295.696 189.288 295.869 187.046C296.089 184.765 297.056 182.919 298.769 181.507C300.529 180.057 302.526 179.461 304.76 179.72C307.04 179.94 308.905 180.93 310.355 182.689C311.805 184.449 312.42 186.469 312.2 188.749C311.98 191.03 311.014 192.876 309.3 194.287C307.633 195.661 305.66 196.238 303.379 196.018C301.099 195.798 299.233 194.808 297.784 193.048Z" fill="url(#paint2_linear_1552_58)"/>
<path d="M244.406 71.6175L230.544 72.6512L230.388 70.557C230.145 67.2993 230.474 64.5339 231.374 62.2607C232.335 59.916 233.585 57.8507 235.123 56.0647C236.728 54.2738 238.312 52.6515 239.875 51.1979C241.186 49.9636 242.368 48.7725 243.419 47.6245C244.536 46.4716 245.38 45.2387 245.951 43.926C246.583 42.5418 246.839 41.0519 246.72 39.4564C246.577 37.5284 246.09 35.9268 245.259 34.6517C244.495 33.3717 243.424 32.4488 242.044 31.8831C240.727 31.246 239.104 30.9993 237.176 31.1431C235.181 31.2918 233.454 31.8886 231.995 32.9333C230.601 33.9731 229.57 35.3871 228.902 37.1751C228.228 38.8966 227.977 40.9208 228.151 43.2477L212.096 44.4449C211.714 39.3258 212.476 34.7564 214.383 30.7369C216.355 26.7124 219.224 23.4902 222.988 21.0703C226.813 18.5789 231.318 17.1399 236.504 16.7532C241.756 16.3616 246.311 16.9245 250.167 18.4419C254.019 19.8928 257.066 22.2059 259.309 25.3813C261.551 28.5567 262.846 32.4713 263.193 37.125C263.46 40.7151 263.024 43.8228 261.882 46.4483C260.736 49.0073 259.228 51.1921 257.357 53.0029C255.553 54.8087 253.737 56.4483 251.908 57.9217C249.762 59.6194 247.886 61.3637 246.281 63.1546C244.743 64.9406 244.066 67.0635 244.249 69.5234L244.406 71.6175ZM239.515 93.4416C236.989 93.63 234.763 92.9269 232.84 91.3322C230.911 89.671 229.855 87.6105 229.671 85.1507C229.483 82.6244 230.222 80.43 231.888 78.5676C233.549 76.6388 235.643 75.5801 238.169 75.3917C240.695 75.2034 242.923 75.9398 244.852 77.6009C246.781 79.2621 247.837 81.3226 248.02 83.7824C248.199 86.1758 247.457 88.3369 245.796 90.2658C244.135 92.1946 242.041 93.2533 239.515 93.4416Z" fill="url(#paint3_linear_1552_58)"/>
<defs>
<filter id="filter0_d_1552_58" x="63.5685" y="262" width="61" height="66" filterUnits="userSpaceOnUse" color-interpolation-filters="sRGB">
<feFlood flood-opacity="0" result="BackgroundImageFix"/>
<feColorMatrix in="SourceAlpha" type="matrix" values="0 0 0 0 0 0 0 0 0 0 0 0 0 0 0 0 0 0 127 0" result="hardAlpha"/>
<feOffset/>
<feGaussianBlur stdDeviation="5.5"/>
<feComposite in2="hardAlpha" operator="out"/>
<feColorMatrix type="matrix" values="0 0 0 0 1 0 0 0 0 1 0 0 0 0 1 0 0 0 1 0"/>
<feBlend mode="normal" in2="BackgroundImageFix" result="effect1_dropShadow_1552_58"/>
<feBlend mode="normal" in="SourceGraphic" in2="effect1_dropShadow_1552_58" result="shape"/>
</filter>
<filter id="filter1_d_1552_58" x="137.671" y="244.266" width="75.2216" height="90.7641" filterUnits="userSpaceOnUse" color-interpolation-filters="sRGB">
<feFlood flood-opacity="0" result="BackgroundImageFix"/>
<feColorMatrix in="SourceAlpha" type="matrix" values="0 0 0 0 0 0 0 0 0 0 0 0 0 0 0 0 0 0 127 0" result="hardAlpha"/>
<feOffset/>
<feGaussianBlur stdDeviation="5.5"/>
<feComposite in2="hardAlpha" operator="out"/>
<feColorMatrix type="matrix" values="0 0 0 0 1 0 0 0 0 1 0 0 0 0 1 0 0 0 1 0"/>
<feBlend mode="normal" in2="BackgroundImageFix" result="effect1_dropShadow_1552_58"/>
<feBlend mode="normal" in="SourceGraphic" in2="effect1_dropShadow_1552_58" result="shape"/>
</filter>
<linearGradient id="paint0_linear_1552_58" x1="148.743" y1="225.5" x2="148.743" y2="461.25" gradientUnits="userSpaceOnUse">
<stop stop-color="#F8CCFF"/>
<stop offset="0.5" stop-color="#B687FF"/>
<stop offset="1" stop-color="#7755B9"/>
</linearGradient>
<linearGradient id="paint1_linear_1552_58" x1="337.691" y1="48.0753" x2="272.896" y2="135.663" gradientUnits="userSpaceOnUse">
<stop stop-color="#FF9255"/>
<stop offset="1" stop-color="#FFCC80"/>
</linearGradient>
<linearGradient id="paint2_linear_1552_58" x1="368.478" y1="141.767" x2="289.76" y2="206.631" gradientUnits="userSpaceOnUse">
<stop stop-color="#FF9255"/>
<stop offset="1" stop-color="#FFCC80"/>
</linearGradient>
<linearGradient id="paint3_linear_1552_58" x1="235.418" y1="2.19364" x2="243.003" y2="103.911" gradientUnits="userSpaceOnUse">
<stop stop-color="#FF9255"/>
<stop offset="1" stop-color="#FFCC80"/>
</linearGradient>
</defs>
</svg>
