<svg width="2604" height="2167" viewBox="0 0 2604 2167" fill="none" xmlns="http://www.w3.org/2000/svg">
<g filter="url(#filter0_d_78_24)">
<path d="M1961.54 76.6439C1956.84 75.5028 1956.34 69.0047 1960.82 67.161L1966.03 65.0148C1968.03 64.1903 1969.28 62.1697 1969.11 60.0099L1968.68 54.3882C1968.31 49.5587 1974.34 47.078 1977.48 50.768L1981.13 55.0633C1982.53 56.7135 1984.84 57.2726 1986.84 56.448L1992.06 54.3019C1996.54 52.4581 2000.76 57.423 1998.22 61.5473L1995.26 66.3482C1994.13 68.1926 1994.31 70.5587 1995.71 72.2089L1999.36 76.5042C2002.5 80.1942 1999.08 85.7434 1994.37 84.6023L1988.9 83.2741C1986.79 82.7638 1984.6 83.6671 1983.46 85.5115L1980.5 90.3123C1977.96 94.4366 1971.63 92.9013 1971.26 88.0718L1970.83 82.4501C1970.67 80.2902 1969.13 78.4824 1967.02 77.9721L1961.54 76.6439Z" fill="white" fill-opacity="0.85" shape-rendering="crispEdges"/>
</g>
<g filter="url(#filter1_d_78_24)">
<path d="M2152.23 529.137C2148.79 525.724 2151.73 519.907 2156.51 520.649L2162.09 521.512C2164.23 521.844 2166.34 520.76 2167.31 518.826L2169.86 513.794C2172.04 509.471 2178.48 510.469 2179.26 515.251L2180.16 520.816C2180.5 522.955 2182.19 524.627 2184.33 524.959L2189.9 525.822C2194.68 526.564 2195.73 532.997 2191.42 535.211L2186.4 537.787C2184.48 538.777 2183.41 540.895 2183.75 543.033L2184.65 548.599C2185.43 553.38 2179.63 556.358 2176.19 552.945L2172.19 548.971C2170.66 547.445 2168.31 547.081 2166.38 548.071L2161.37 550.648C2157.06 552.861 2152.44 548.268 2154.62 543.945L2157.16 538.913C2158.14 536.98 2157.76 534.637 2156.23 533.111L2152.23 529.137Z" fill="white" fill-opacity="0.85" shape-rendering="crispEdges"/>
</g>
<g filter="url(#filter2_d_78_24)">
<path d="M2394.52 990.772C2389.67 990.682 2387.78 984.447 2391.75 981.674L2396.37 978.445C2398.15 977.205 2398.92 974.962 2398.29 972.89L2396.65 967.496C2395.24 962.863 2400.58 959.131 2404.44 962.05L2408.94 965.449C2410.67 966.754 2413.04 966.798 2414.82 965.558L2419.44 962.33C2423.41 959.556 2428.61 963.484 2427.03 968.062L2425.19 973.391C2424.48 975.438 2425.17 977.708 2426.9 979.014L2431.4 982.412C2435.26 985.332 2433.14 991.491 2428.29 991.401L2422.66 991.296C2420.49 991.256 2418.54 992.615 2417.84 994.662L2416 999.991C2414.41 1004.57 2407.9 1004.45 2406.49 999.814L2404.84 994.42C2404.21 992.348 2402.32 990.917 2400.15 990.877L2394.52 990.772Z" fill="white" fill-opacity="0.85" shape-rendering="crispEdges"/>
</g>
<g filter="url(#filter3_d_78_24)">
<path d="M2037.27 1266.53C2032.43 1266.44 2030.53 1260.2 2034.5 1257.43L2039.12 1254.2C2040.9 1252.96 2041.67 1250.72 2041.04 1248.64L2039.4 1243.25C2037.99 1238.62 2043.33 1234.89 2047.2 1237.8L2051.7 1241.2C2053.43 1242.51 2055.8 1242.55 2057.57 1241.31L2062.2 1238.08C2066.17 1235.31 2071.37 1239.24 2069.78 1243.82L2067.94 1249.15C2067.24 1251.19 2067.93 1253.46 2069.65 1254.77L2074.15 1258.17C2078.02 1261.09 2075.89 1267.25 2071.05 1267.16L2065.41 1267.05C2063.24 1267.01 2061.3 1268.37 2060.59 1270.42L2058.75 1275.75C2057.17 1280.32 2050.65 1280.2 2049.24 1275.57L2047.6 1270.17C2046.97 1268.1 2045.07 1266.67 2042.91 1266.63L2037.27 1266.53Z" fill="white" fill-opacity="0.85" shape-rendering="crispEdges"/>
</g>
<g filter="url(#filter4_d_78_24)">
<path d="M2131.97 2077.71C2129.61 2073.48 2134.04 2068.7 2138.44 2070.74L2143.55 2073.11C2145.52 2074.02 2147.85 2073.56 2149.32 2071.97L2153.16 2067.84C2156.45 2064.29 2162.36 2067.03 2161.79 2071.84L2161.11 2077.44C2160.85 2079.59 2162.01 2081.66 2163.97 2082.57L2169.09 2084.94C2173.48 2086.98 2172.71 2093.45 2167.95 2094.38L2162.42 2095.47C2160.3 2095.89 2158.68 2097.63 2158.42 2099.78L2157.75 2105.38C2157.17 2110.19 2150.78 2111.45 2148.42 2107.21L2145.67 2102.29C2144.62 2100.4 2142.47 2099.4 2140.34 2099.82L2134.81 2100.91C2130.06 2101.84 2126.88 2096.15 2130.18 2092.6L2134.01 2088.47C2135.49 2086.88 2135.77 2084.52 2134.71 2082.63L2131.97 2077.71Z" fill="white" fill-opacity="0.85" shape-rendering="crispEdges"/>
</g>
<g filter="url(#filter5_d_78_24)">
<path d="M522.642 907.945C518.229 905.948 518.95 899.471 523.694 898.493L529.216 897.354C531.337 896.917 532.936 895.163 533.175 893.01L533.799 887.407C534.335 882.593 540.718 881.277 543.114 885.486L545.903 890.386C546.974 892.269 549.136 893.247 551.258 892.81L556.78 891.671C561.524 890.693 564.748 896.357 561.485 899.937L557.686 904.104C556.227 905.704 555.965 908.063 557.036 909.945L559.825 914.845C562.222 919.055 557.831 923.871 553.419 921.874L548.282 919.549C546.309 918.656 543.984 919.135 542.525 920.736L538.727 924.903C535.464 928.483 529.527 925.795 530.062 920.982L530.686 915.378C530.926 913.225 529.752 911.163 527.778 910.27L522.642 907.945Z" fill="white" fill-opacity="0.85" shape-rendering="crispEdges"/>
</g>
<g filter="url(#filter6_d_78_24)">
<path d="M199.535 504.476C196.385 500.796 199.784 495.236 204.495 496.361L209.979 497.671C212.085 498.174 214.277 497.264 215.406 495.415L218.347 490.605C220.873 486.472 227.212 487.986 227.597 492.815L228.046 498.435C228.218 500.594 229.761 502.397 231.868 502.9L237.352 504.21C242.063 505.336 242.582 511.832 238.109 513.691L232.903 515.854C230.902 516.685 229.665 518.71 229.837 520.869L230.286 526.489C230.671 531.318 224.653 533.818 221.503 530.139L217.837 525.856C216.428 524.21 214.12 523.659 212.12 524.49L206.913 526.654C202.44 528.512 198.202 523.561 200.728 519.429L203.669 514.618C204.799 512.77 204.61 510.404 203.201 508.759L199.535 504.476Z" fill="white" fill-opacity="0.85" shape-rendering="crispEdges"/>
</g>
<g filter="url(#filter7_d_78_24)">
<path d="M489.386 185.447C484.548 185.228 482.817 178.945 486.861 176.278L491.568 173.174C493.376 171.982 494.211 169.761 493.635 167.672L492.138 162.237C490.852 157.567 496.292 153.979 500.078 157.001L504.484 160.518C506.177 161.87 508.548 161.977 510.356 160.785L515.063 157.681C519.107 155.015 524.2 159.08 522.496 163.614L520.512 168.892C519.75 170.92 520.38 173.207 522.073 174.559L526.48 178.076C530.265 181.098 527.972 187.198 523.134 186.979L517.501 186.723C515.337 186.625 513.356 187.931 512.594 189.959L510.611 195.237C508.907 199.771 502.396 199.475 501.11 194.805L499.613 189.37C499.037 187.281 497.183 185.801 495.019 185.703L489.386 185.447Z" fill="white" fill-opacity="0.85" shape-rendering="crispEdges"/>
</g>
<g filter="url(#filter8_d_78_24)">
<path d="M269.124 1236.47C265.485 1233.27 268.063 1227.28 272.886 1227.73L278.5 1228.25C280.657 1228.45 282.697 1227.24 283.554 1225.25L285.784 1220.07C287.7 1215.63 294.189 1216.23 295.254 1220.95L296.493 1226.45C296.97 1228.57 298.752 1230.13 300.909 1230.33L306.523 1230.85C311.346 1231.3 312.779 1237.66 308.614 1240.13L303.766 1243.01C301.903 1244.12 300.964 1246.3 301.441 1248.41L302.68 1253.91C303.745 1258.63 298.141 1261.96 294.502 1258.76L290.267 1255.04C288.639 1253.61 286.276 1253.39 284.414 1254.5L279.566 1257.38C275.401 1259.85 270.505 1255.55 272.421 1251.1L274.651 1245.92C275.508 1243.93 274.987 1241.62 273.359 1240.19L269.124 1236.47Z" fill="white" fill-opacity="0.85" shape-rendering="crispEdges"/>
</g>
<g filter="url(#filter9_d_78_24)">
<path d="M13.4209 2049.85C8.77754 2048.47 8.61061 2041.95 13.1773 2040.34L18.4931 2038.46C20.5354 2037.74 21.8806 2035.78 21.8251 2033.62L21.6807 2027.98C21.5566 2023.14 27.7011 2020.97 30.6475 2024.81L34.0773 2029.29C35.395 2031.01 37.6698 2031.68 39.7121 2030.96L45.028 2029.08C49.5947 2027.47 53.5591 2032.64 50.8134 2036.63L47.6173 2041.27C46.3894 2043.06 46.4502 2045.43 47.7678 2047.15L51.1976 2051.62C54.1441 2055.47 50.4498 2060.84 45.8064 2059.46L40.4013 2057.86C38.3247 2057.24 36.0874 2058.03 34.8595 2059.81L31.6634 2064.46C28.9177 2068.45 22.6701 2066.59 22.546 2061.75L22.4016 2056.12C22.3461 2053.95 20.9026 2052.07 18.826 2051.45L13.4209 2049.85Z" fill="white" fill-opacity="0.85" shape-rendering="crispEdges"/>
</g>
<g filter="url(#filter10_d_78_24)">
<path d="M424.074 1773.99C419.241 1773.68 417.625 1767.37 421.717 1764.78L426.479 1761.76C428.309 1760.6 429.185 1758.4 428.648 1756.3L427.25 1750.83C426.049 1746.14 431.554 1742.65 435.284 1745.74L439.625 1749.34C441.293 1750.72 443.661 1750.88 445.491 1749.72L450.254 1746.7C454.346 1744.11 459.364 1748.26 457.577 1752.77L455.498 1758.01C454.699 1760.02 455.287 1762.32 456.955 1763.7L461.296 1767.3C465.026 1770.39 462.622 1776.45 457.788 1776.14L452.161 1775.78C450 1775.64 447.995 1776.91 447.196 1778.93L445.116 1784.17C443.33 1788.67 436.826 1788.25 435.625 1783.56L434.227 1778.1C433.69 1776 431.863 1774.49 429.701 1774.35L424.074 1773.99Z" fill="white" fill-opacity="0.85" shape-rendering="crispEdges"/>
</g>
<g filter="url(#filter11_d_78_24)">
<path d="M2436.77 1732.69C2431.94 1732.38 2430.32 1726.07 2434.41 1723.48L2439.18 1720.46C2441.01 1719.3 2441.88 1717.09 2441.34 1714.99L2439.95 1709.53C2438.75 1704.84 2444.25 1701.35 2447.98 1704.44L2452.32 1708.04C2453.99 1709.42 2456.36 1709.57 2458.19 1708.41L2462.95 1705.4C2467.04 1702.8 2472.06 1706.96 2470.27 1711.46L2468.19 1716.71C2467.4 1718.72 2467.98 1721.02 2469.65 1722.4L2473.99 1726C2477.72 1729.09 2475.32 1735.14 2470.49 1734.84L2464.86 1734.48C2462.7 1734.34 2460.69 1735.61 2459.89 1737.62L2457.81 1742.86C2456.03 1747.37 2449.52 1746.95 2448.32 1742.26L2446.92 1736.8C2446.39 1734.7 2444.56 1733.18 2442.4 1733.05L2436.77 1732.69Z" fill="white" fill-opacity="0.85" shape-rendering="crispEdges"/>
</g>
<g filter="url(#filter12_d_78_24)">
<path d="M2542.42 246.937C2538.23 244.516 2539.58 238.141 2544.4 237.634L2550.01 237.044C2552.16 236.817 2553.92 235.229 2554.37 233.11L2555.54 227.594C2556.55 222.857 2563.03 222.174 2565 226.598L2567.3 231.749C2568.18 233.727 2570.23 234.913 2572.39 234.686L2578 234.096C2582.81 233.589 2585.46 239.542 2581.87 242.783L2577.68 246.557C2576.07 248.007 2575.57 250.328 2576.46 252.307L2578.75 257.457C2580.72 261.881 2575.88 266.243 2571.68 263.822L2566.8 261.004C2564.92 259.921 2562.56 260.17 2560.95 261.62L2556.77 265.393C2553.17 268.635 2547.52 265.378 2548.53 260.64L2549.7 255.125C2550.15 253.006 2549.18 250.838 2547.31 249.755L2542.42 246.937Z" fill="white" fill-opacity="0.85" shape-rendering="crispEdges"/>
</g>
<g filter="url(#filter13_d_78_24)">
<path d="M13.3781 104.892C9.18285 102.471 10.5365 96.0961 15.3535 95.5888L20.9606 94.9982C23.1148 94.7714 24.878 93.1832 25.3279 91.0643L26.499 85.5491C27.505 80.8111 33.9862 80.1285 35.9572 84.553L38.2515 89.7032C39.133 91.6819 41.1883 92.8679 43.3425 92.6411L48.9497 92.0506C53.7666 91.5432 56.4186 97.4963 52.8198 100.738L48.6306 104.512C47.0212 105.961 46.5283 108.283 47.4097 110.261L49.7041 115.412C51.6751 119.836 46.8329 124.198 42.6377 121.777L37.7543 118.959C35.8781 117.876 33.5182 118.125 31.9088 119.574L27.7196 123.348C24.1208 126.59 18.4762 123.332 19.4822 118.594L20.6533 113.079C21.1032 110.96 20.1376 108.793 18.2614 107.71L13.3781 104.892Z" fill="white" fill-opacity="0.85" shape-rendering="crispEdges"/>
</g>
<defs>
<filter id="filter0_d_78_24" x="1905.32" y="0.593163" width="147.653" height="148.503" filterUnits="userSpaceOnUse" color-interpolation-filters="sRGB">
<feFlood flood-opacity="0" result="BackgroundImageFix"/>
<feColorMatrix in="SourceAlpha" type="matrix" values="0 0 0 0 0 0 0 0 0 0 0 0 0 0 0 0 0 0 127 0" result="hardAlpha"/>
<feOffset dy="4"/>
<feGaussianBlur stdDeviation="26.2"/>
<feComposite in2="hardAlpha" operator="out"/>
<feColorMatrix type="matrix" values="0 0 0 0 1 0 0 0 0 1 0 0 0 0 1 0 0 0 0.42 0"/>
<feBlend mode="normal" in2="BackgroundImageFix" result="effect1_dropShadow_78_24"/>
<feBlend mode="normal" in="SourceGraphic" in2="effect1_dropShadow_78_24" result="shape"/>
</filter>
<filter id="filter1_d_78_24" x="2098.33" y="462.647" width="148.204" height="148.168" filterUnits="userSpaceOnUse" color-interpolation-filters="sRGB">
<feFlood flood-opacity="0" result="BackgroundImageFix"/>
<feColorMatrix in="SourceAlpha" type="matrix" values="0 0 0 0 0 0 0 0 0 0 0 0 0 0 0 0 0 0 127 0" result="hardAlpha"/>
<feOffset dy="4"/>
<feGaussianBlur stdDeviation="26.2"/>
<feComposite in2="hardAlpha" operator="out"/>
<feColorMatrix type="matrix" values="0 0 0 0 1 0 0 0 0 1 0 0 0 0 1 0 0 0 0.42 0"/>
<feBlend mode="normal" in2="BackgroundImageFix" result="effect1_dropShadow_78_24"/>
<feBlend mode="normal" in="SourceGraphic" in2="effect1_dropShadow_78_24" result="shape"/>
</filter>
<filter id="filter2_d_78_24" x="2337.2" y="912.618" width="148.595" height="147.14" filterUnits="userSpaceOnUse" color-interpolation-filters="sRGB">
<feFlood flood-opacity="0" result="BackgroundImageFix"/>
<feColorMatrix in="SourceAlpha" type="matrix" values="0 0 0 0 0 0 0 0 0 0 0 0 0 0 0 0 0 0 127 0" result="hardAlpha"/>
<feOffset dy="4"/>
<feGaussianBlur stdDeviation="26.2"/>
<feComposite in2="hardAlpha" operator="out"/>
<feColorMatrix type="matrix" values="0 0 0 0 1 0 0 0 0 1 0 0 0 0 1 0 0 0 0.42 0"/>
<feBlend mode="normal" in2="BackgroundImageFix" result="effect1_dropShadow_78_24"/>
<feBlend mode="normal" in="SourceGraphic" in2="effect1_dropShadow_78_24" result="shape"/>
</filter>
<filter id="filter3_d_78_24" x="1979.96" y="1188.37" width="148.595" height="147.14" filterUnits="userSpaceOnUse" color-interpolation-filters="sRGB">
<feFlood flood-opacity="0" result="BackgroundImageFix"/>
<feColorMatrix in="SourceAlpha" type="matrix" values="0 0 0 0 0 0 0 0 0 0 0 0 0 0 0 0 0 0 127 0" result="hardAlpha"/>
<feOffset dy="4"/>
<feGaussianBlur stdDeviation="26.2"/>
<feComposite in2="hardAlpha" operator="out"/>
<feColorMatrix type="matrix" values="0 0 0 0 1 0 0 0 0 1 0 0 0 0 1 0 0 0 0.42 0"/>
<feBlend mode="normal" in2="BackgroundImageFix" result="effect1_dropShadow_78_24"/>
<feBlend mode="normal" in="SourceGraphic" in2="effect1_dropShadow_78_24" result="shape"/>
</filter>
<filter id="filter4_d_78_24" x="2076.42" y="2017.82" width="147.967" height="148.36" filterUnits="userSpaceOnUse" color-interpolation-filters="sRGB">
<feFlood flood-opacity="0" result="BackgroundImageFix"/>
<feColorMatrix in="SourceAlpha" type="matrix" values="0 0 0 0 0 0 0 0 0 0 0 0 0 0 0 0 0 0 127 0" result="hardAlpha"/>
<feOffset dy="4"/>
<feGaussianBlur stdDeviation="26.2"/>
<feComposite in2="hardAlpha" operator="out"/>
<feColorMatrix type="matrix" values="0 0 0 0 1 0 0 0 0 1 0 0 0 0 1 0 0 0 0.42 0"/>
<feBlend mode="normal" in2="BackgroundImageFix" result="effect1_dropShadow_78_24"/>
<feBlend mode="normal" in="SourceGraphic" in2="effect1_dropShadow_78_24" result="shape"/>
</filter>
<filter id="filter5_d_78_24" x="467.302" y="834.556" width="147.907" height="148.394" filterUnits="userSpaceOnUse" color-interpolation-filters="sRGB">
<feFlood flood-opacity="0" result="BackgroundImageFix"/>
<feColorMatrix in="SourceAlpha" type="matrix" values="0 0 0 0 0 0 0 0 0 0 0 0 0 0 0 0 0 0 127 0" result="hardAlpha"/>
<feOffset dy="4"/>
<feGaussianBlur stdDeviation="26.2"/>
<feComposite in2="hardAlpha" operator="out"/>
<feColorMatrix type="matrix" values="0 0 0 0 1 0 0 0 0 1 0 0 0 0 1 0 0 0 0.42 0"/>
<feBlend mode="normal" in2="BackgroundImageFix" result="effect1_dropShadow_78_24"/>
<feBlend mode="normal" in="SourceGraphic" in2="effect1_dropShadow_78_24" result="shape"/>
</filter>
<filter id="filter6_d_78_24" x="145.912" y="439.807" width="147.678" height="148.494" filterUnits="userSpaceOnUse" color-interpolation-filters="sRGB">
<feFlood flood-opacity="0" result="BackgroundImageFix"/>
<feColorMatrix in="SourceAlpha" type="matrix" values="0 0 0 0 0 0 0 0 0 0 0 0 0 0 0 0 0 0 127 0" result="hardAlpha"/>
<feOffset dy="4"/>
<feGaussianBlur stdDeviation="26.2"/>
<feComposite in2="hardAlpha" operator="out"/>
<feColorMatrix type="matrix" values="0 0 0 0 1 0 0 0 0 1 0 0 0 0 1 0 0 0 0.42 0"/>
<feBlend mode="normal" in2="BackgroundImageFix" result="effect1_dropShadow_78_24"/>
<feBlend mode="normal" in="SourceGraphic" in2="effect1_dropShadow_78_24" result="shape"/>
</filter>
<filter id="filter7_d_78_24" x="432.206" y="107.487" width="148.567" height="147.39" filterUnits="userSpaceOnUse" color-interpolation-filters="sRGB">
<feFlood flood-opacity="0" result="BackgroundImageFix"/>
<feColorMatrix in="SourceAlpha" type="matrix" values="0 0 0 0 0 0 0 0 0 0 0 0 0 0 0 0 0 0 127 0" result="hardAlpha"/>
<feOffset dy="4"/>
<feGaussianBlur stdDeviation="26.2"/>
<feComposite in2="hardAlpha" operator="out"/>
<feColorMatrix type="matrix" values="0 0 0 0 1 0 0 0 0 1 0 0 0 0 1 0 0 0 0.42 0"/>
<feBlend mode="normal" in2="BackgroundImageFix" result="effect1_dropShadow_78_24"/>
<feBlend mode="normal" in="SourceGraphic" in2="effect1_dropShadow_78_24" result="shape"/>
</filter>
<filter id="filter8_d_78_24" x="215.009" y="1168.65" width="148.457" height="147.777" filterUnits="userSpaceOnUse" color-interpolation-filters="sRGB">
<feFlood flood-opacity="0" result="BackgroundImageFix"/>
<feColorMatrix in="SourceAlpha" type="matrix" values="0 0 0 0 0 0 0 0 0 0 0 0 0 0 0 0 0 0 127 0" result="hardAlpha"/>
<feOffset dy="4"/>
<feGaussianBlur stdDeviation="26.2"/>
<feComposite in2="hardAlpha" operator="out"/>
<feColorMatrix type="matrix" values="0 0 0 0 1 0 0 0 0 1 0 0 0 0 1 0 0 0 0.42 0"/>
<feBlend mode="normal" in2="BackgroundImageFix" result="effect1_dropShadow_78_24"/>
<feBlend mode="normal" in="SourceGraphic" in2="effect1_dropShadow_78_24" result="shape"/>
</filter>
<filter id="filter9_d_78_24" x="-42.5563" y="1974.44" width="147.208" height="148.59" filterUnits="userSpaceOnUse" color-interpolation-filters="sRGB">
<feFlood flood-opacity="0" result="BackgroundImageFix"/>
<feColorMatrix in="SourceAlpha" type="matrix" values="0 0 0 0 0 0 0 0 0 0 0 0 0 0 0 0 0 0 127 0" result="hardAlpha"/>
<feOffset dy="4"/>
<feGaussianBlur stdDeviation="26.2"/>
<feComposite in2="hardAlpha" operator="out"/>
<feColorMatrix type="matrix" values="0 0 0 0 1 0 0 0 0 1 0 0 0 0 1 0 0 0 0.42 0"/>
<feBlend mode="normal" in2="BackgroundImageFix" result="effect1_dropShadow_78_24"/>
<feBlend mode="normal" in="SourceGraphic" in2="effect1_dropShadow_78_24" result="shape"/>
</filter>
<filter id="filter10_d_78_24" x="366.986" y="1696.17" width="148.533" height="147.549" filterUnits="userSpaceOnUse" color-interpolation-filters="sRGB">
<feFlood flood-opacity="0" result="BackgroundImageFix"/>
<feColorMatrix in="SourceAlpha" type="matrix" values="0 0 0 0 0 0 0 0 0 0 0 0 0 0 0 0 0 0 127 0" result="hardAlpha"/>
<feOffset dy="4"/>
<feGaussianBlur stdDeviation="26.2"/>
<feComposite in2="hardAlpha" operator="out"/>
<feColorMatrix type="matrix" values="0 0 0 0 1 0 0 0 0 1 0 0 0 0 1 0 0 0 0.42 0"/>
<feBlend mode="normal" in2="BackgroundImageFix" result="effect1_dropShadow_78_24"/>
<feBlend mode="normal" in="SourceGraphic" in2="effect1_dropShadow_78_24" result="shape"/>
</filter>
<filter id="filter11_d_78_24" x="2379.68" y="1654.87" width="148.533" height="147.549" filterUnits="userSpaceOnUse" color-interpolation-filters="sRGB">
<feFlood flood-opacity="0" result="BackgroundImageFix"/>
<feColorMatrix in="SourceAlpha" type="matrix" values="0 0 0 0 0 0 0 0 0 0 0 0 0 0 0 0 0 0 127 0" result="hardAlpha"/>
<feOffset dy="4"/>
<feGaussianBlur stdDeviation="26.2"/>
<feComposite in2="hardAlpha" operator="out"/>
<feColorMatrix type="matrix" values="0 0 0 0 1 0 0 0 0 1 0 0 0 0 1 0 0 0 0.42 0"/>
<feBlend mode="normal" in2="BackgroundImageFix" result="effect1_dropShadow_78_24"/>
<feBlend mode="normal" in="SourceGraphic" in2="effect1_dropShadow_78_24" result="shape"/>
</filter>
<filter id="filter12_d_78_24" x="2487.52" y="175.232" width="148.416" height="147.866" filterUnits="userSpaceOnUse" color-interpolation-filters="sRGB">
<feFlood flood-opacity="0" result="BackgroundImageFix"/>
<feColorMatrix in="SourceAlpha" type="matrix" values="0 0 0 0 0 0 0 0 0 0 0 0 0 0 0 0 0 0 127 0" result="hardAlpha"/>
<feOffset dy="4"/>
<feGaussianBlur stdDeviation="26.2"/>
<feComposite in2="hardAlpha" operator="out"/>
<feColorMatrix type="matrix" values="0 0 0 0 1 0 0 0 0 1 0 0 0 0 1 0 0 0 0.42 0"/>
<feBlend mode="normal" in2="BackgroundImageFix" result="effect1_dropShadow_78_24"/>
<feBlend mode="normal" in="SourceGraphic" in2="effect1_dropShadow_78_24" result="shape"/>
</filter>
<filter id="filter13_d_78_24" x="-41.5274" y="33.1864" width="148.416" height="147.866" filterUnits="userSpaceOnUse" color-interpolation-filters="sRGB">
<feFlood flood-opacity="0" result="BackgroundImageFix"/>
<feColorMatrix in="SourceAlpha" type="matrix" values="0 0 0 0 0 0 0 0 0 0 0 0 0 0 0 0 0 0 127 0" result="hardAlpha"/>
<feOffset dy="4"/>
<feGaussianBlur stdDeviation="26.2"/>
<feComposite in2="hardAlpha" operator="out"/>
<feColorMatrix type="matrix" values="0 0 0 0 1 0 0 0 0 1 0 0 0 0 1 0 0 0 0.42 0"/>
<feBlend mode="normal" in2="BackgroundImageFix" result="effect1_dropShadow_78_24"/>
<feBlend mode="normal" in="SourceGraphic" in2="effect1_dropShadow_78_24" result="shape"/>
</filter>
</defs>
</svg>
